<svg width="41" height="46" viewBox="0 0 41 46" fill="none" xmlns="http://www.w3.org/2000/svg">
<path d="M30.9895 28.0722C29.6986 28.0722 25.5774 23.2063 24.783 17.397C24.6358 16.0728 24.686 14.7342 24.932 13.4248C22.6976 15.5598 19.1227 17.4466 13.8595 18.3404C4.7732 19.8796 1.59546 17.9928 0.552764 16.106C-0.638887 14.0703 0.155547 11.1408 2.83676 7.91341C8.19919 1.45863 17.2359 0.664199 21.6053 0.266981H21.8039C23.6214 0.137539 25.4446 0.104391 27.2656 0.167677C28.5566 0.167677 29.7979 0.21733 30.8902 0.118025C31.0688 0.00975989 31.2821 -0.0257903 31.486 0.0187207C31.5806 0.0414449 31.6698 0.0826053 31.7485 0.139845C31.8272 0.197085 31.8938 0.269279 31.9445 0.352296C31.9953 0.435313 32.0291 0.527521 32.0442 0.623642C32.0592 0.719763 32.0552 0.817909 32.0322 0.912459C31.8336 1.70689 32.777 3.89159 33.6707 6.02663C34.8127 8.7575 36.2527 12.1338 36.6002 15.2619C37.196 20.4754 33.5714 25.8378 32.2805 27.3274C31.635 27.8239 31.3371 28.0722 30.9895 28.0722ZM27.4146 9.84984C26.5208 12.3325 25.9747 14.9144 26.2229 17.1487C26.705 20.6759 28.347 23.9425 30.8902 26.4337C32.0322 25.242 35.5079 20.0285 34.9617 15.4109C34.6638 12.5311 33.3232 9.40297 32.1315 6.62245C31.5886 5.40643 31.108 4.16351 30.6916 2.89854C29.5009 4.93331 28.4716 7.05831 27.6132 9.25402C27.5926 9.46503 27.5247 9.66869 27.4146 9.84984ZM25.2795 1.60759C24.1872 1.60759 23.0452 1.65724 21.9032 1.75655H21.7046C17.5338 2.10411 8.94398 2.84889 3.97876 8.8568C1.79407 11.538 0.999633 13.8717 1.84372 15.3612C3.03537 17.397 7.30546 17.9431 13.6113 16.8508C17.4841 16.2053 23.8893 14.0206 25.8754 9.75054L26.3222 8.55889C26.3719 8.36028 26.4215 8.11202 26.4712 7.86376C26.6201 6.87072 26.3719 6.17558 26.074 6.02663C24.1872 5.13289 21.8535 3.99089 13.0155 7.31759C8.74537 8.90645 7.55372 10.8925 7.85163 12.0842C8.14954 13.2758 9.78806 14.0703 11.7245 13.8717C16.8387 13.3255 19.0234 11.1408 19.222 9.84984C19.2716 9.50228 19.1227 9.45263 19.073 9.40297C18.0303 9.00576 15.7463 10.1478 14.8029 10.7436C14.7214 10.799 14.6298 10.8378 14.5333 10.8578C14.4368 10.8779 14.3373 10.8787 14.2404 10.8602C14.1436 10.8418 14.0514 10.8045 13.969 10.7504C13.8866 10.6963 13.8157 10.6265 13.7602 10.545C13.7048 10.4635 13.666 10.3718 13.646 10.2753C13.626 10.1788 13.6251 10.0793 13.6436 9.98249C13.6808 9.78695 13.7942 9.61421 13.9588 9.50228C14.3064 9.25402 17.5834 7.21828 19.6192 8.01271C20.0086 8.17012 20.3283 8.4625 20.5198 8.83634C20.7113 9.21017 20.7617 9.64047 20.6619 10.0485C20.364 12.1835 17.4345 14.7654 11.7741 15.3116C9.09293 15.6095 6.75928 14.3682 6.31241 12.3821C6.1138 11.4884 5.9152 8.31063 12.4196 5.87767C21.1584 2.60063 24.0382 3.34541 26.6698 4.63637C27.0588 4.82656 27.3733 5.14107 27.5635 5.53011C28.358 3.89159 29.1524 2.50133 29.6986 1.55794H27.1167C26.5705 1.60759 25.925 1.60759 25.2795 1.60759Z" fill="#C8BDB4"/>
<path d="M18.1793 31.0513C17.9817 31.0513 17.7923 30.9728 17.6526 30.8332C17.513 30.6935 17.4345 30.5041 17.4345 30.3065C17.4345 30.109 17.513 29.9196 17.6526 29.7799C17.7923 29.6402 17.9817 29.5617 18.1793 29.5617C21.5435 29.4881 24.8696 28.833 28.0104 27.6253C28.0601 27.6253 28.1097 27.5757 28.1594 27.5757C28.4573 27.4764 28.7552 27.3771 29.1027 27.2281H29.1524C29.6986 27.0295 30.2447 26.7812 30.642 26.6323C30.7332 26.5932 30.8313 26.5724 30.9307 26.5712C31.03 26.57 31.1285 26.5883 31.2208 26.6252C31.313 26.6621 31.397 26.7168 31.4681 26.7862C31.5392 26.8555 31.5959 26.9382 31.635 27.0295C31.6741 27.1208 31.6949 27.2189 31.6961 27.3182C31.6973 27.4175 31.6789 27.5161 31.6421 27.6083C31.6052 27.7005 31.5505 27.7845 31.4811 27.8556C31.4118 27.9267 31.3291 27.9834 31.2378 28.0225C30.7909 28.2211 30.2447 28.4197 29.6986 28.668H29.6489C29.326 28.8059 28.9943 28.922 28.6559 29.0156C28.6363 29.0343 28.6127 29.0485 28.587 29.0571C28.5612 29.0657 28.5339 29.0685 28.5069 29.0652C25.204 30.3156 21.7104 30.9875 18.1793 31.0513Z" fill="#C8BDB4"/>
<path d="M16.8387 31.0017C2.4892 30.1079 0.00659409 14.8647 0.00659409 14.6661C-0.019743 14.4686 0.0334663 14.2687 0.154517 14.1104C0.275567 13.9521 0.454543 13.8484 0.652072 13.822C0.8496 13.7957 1.0495 13.8489 1.2078 13.9699C1.36609 14.091 1.46982 14.27 1.49616 14.4675C1.99885 17.0415 2.93932 19.5103 4.27668 21.7664C7.20615 26.5826 11.4266 29.1645 16.938 29.5121C17.1337 29.5298 17.3152 29.6222 17.4446 29.7701C17.5741 29.918 17.6416 30.1101 17.6331 30.3065C17.6068 30.4987 17.5119 30.6749 17.3659 30.8026C17.2199 30.9304 17.0326 31.0011 16.8387 31.0017Z" fill="#C8BDB4"/>
<path d="M14.7036 45.9966C14.0979 46.0185 13.493 45.9345 12.9162 45.7484C12.7857 45.6914 12.6717 45.6023 12.5849 45.4894C12.4981 45.3766 12.4412 45.2436 12.4196 45.1029C12.3974 44.9652 12.419 44.824 12.4814 44.6993C12.5437 44.5745 12.6437 44.4726 12.7672 44.4077C12.8169 44.4077 16.3422 42.1734 16.2429 38.4495C16.2336 38.0351 16.2502 37.6205 16.2925 37.2082C16.5408 34.4277 17.6828 32.094 19.4702 30.7534C20.8945 29.7387 22.655 29.3119 24.3858 29.5617C24.553 29.5754 24.7105 29.6454 24.8327 29.7604C24.8823 29.81 24.932 29.8597 24.932 29.9093C25.1306 30.2569 25.3292 30.6541 25.5278 31.0513V31.101C26.2726 32.8884 27.4146 37.5061 22.7473 42.0741C19.4702 45.3511 16.4911 45.9966 14.7036 45.9966ZM23.4921 31.0513C22.3893 31.0128 21.3055 31.345 20.4136 31.9947C18.9737 33.0374 18.0303 34.9738 17.8317 37.3571C17.7893 37.7196 17.7727 38.0847 17.7821 38.4495C17.8317 41.23 16.2925 43.3154 15.0512 44.507C16.5408 44.4077 18.9737 43.7623 21.7542 41.081C25.6768 37.2578 24.9816 33.5836 24.1872 31.7464V31.6968C24.1186 31.4843 24.0181 31.2834 23.8893 31.101C23.7605 31.0629 23.6263 31.0462 23.4921 31.0513Z" fill="#C8BDB4"/>
<path d="M34.4155 38.9957C27.3153 38.9957 23.6907 30.7534 23.641 30.7037C23.5643 30.5192 23.5629 30.3118 23.6371 30.1262C23.7113 29.9406 23.8553 29.7915 24.0382 29.7107C25.2438 29.1386 26.5356 28.7695 27.8614 28.6184C30.642 28.3701 32.8266 29.4128 34.6638 31.8457C34.7134 31.9451 34.8127 31.9947 34.8624 32.094L34.912 32.1933C36.203 34.0304 38.5863 37.0096 38.5863 37.0096C38.6564 37.0999 38.706 37.2045 38.7317 37.3159C38.7575 37.4274 38.7587 37.5431 38.7353 37.655C38.7046 37.7669 38.6482 37.87 38.5706 37.9562C38.493 38.0424 38.3964 38.1093 38.2884 38.1516C37.0718 38.704 35.7517 38.9917 34.4155 38.9957ZM25.3788 30.7534C26.172 32.2311 27.1755 33.5858 28.358 34.7752C30.8902 37.2578 33.77 38.0026 36.8485 37.1585C36.054 36.1158 34.6638 34.378 33.77 33.0871L33.7204 32.9877C33.6599 32.912 33.6098 32.8285 33.5714 32.7395C32.628 31.4485 30.9895 29.81 28.06 30.0583C27.1399 30.1727 26.2386 30.4063 25.3788 30.7534Z" fill="#C8BDB4"/>
<path d="M34.1176 33.0374C34.0015 33.0403 33.8865 33.0146 33.7826 32.9627C33.6787 32.9107 33.5892 32.8341 33.5218 32.7395C32.5784 31.4485 30.9399 29.81 28.0104 30.0583C27.7716 30.0602 27.5409 29.9715 27.3649 29.81C27.2948 29.7196 27.2452 29.6151 27.2195 29.5036C27.1937 29.3922 27.1926 29.2765 27.216 29.1645C27.3178 28.7739 27.4506 28.392 27.6132 28.0225C27.6943 27.8586 27.8372 27.7336 28.0104 27.675C28.209 27.5757 32.5287 25.8378 35.1107 26.0861C37.2457 26.2847 39.5297 24.5469 39.5793 24.5469C39.6828 24.4657 39.806 24.4135 39.9363 24.3958C40.0666 24.378 40.1993 24.3954 40.3207 24.4459C40.4421 24.4965 40.5478 24.5785 40.6269 24.6835C40.7061 24.7886 40.7558 24.9128 40.771 25.0434C40.771 25.0931 41.2179 30.952 34.3162 32.9877C34.2559 33.0223 34.1871 33.0395 34.1176 33.0374ZM29.6489 28.6184C31.5161 28.916 33.2013 29.9094 34.3659 31.3989C37.7422 30.2072 38.8346 27.9729 39.1325 26.533C38.0898 27.0791 36.5506 27.7246 34.9617 27.526C33.5218 27.4267 31.1881 28.1218 29.6489 28.6184Z" fill="#C8BDB4"/>
<path d="M13.7602 38.5984C10.2846 38.5984 6.70963 37.3075 6.51102 37.2578C6.34314 37.1966 6.20178 37.0789 6.11119 36.9249C6.02059 36.7709 5.98641 36.5902 6.0145 36.4137C6.05021 36.2434 6.14405 36.0908 6.27993 35.9821C6.41582 35.8734 6.58528 35.8154 6.75928 35.8179C6.80894 35.8179 10.1853 35.8676 11.7245 33.9311C13.1103 32.3504 14.658 30.9192 16.3421 29.661C16.4878 29.5602 16.6616 29.5081 16.8387 29.5121C17.2677 29.5525 17.6987 29.5691 18.1296 29.5617C18.2509 29.5715 18.3691 29.6052 18.4772 29.661C19.142 29.9789 19.774 30.3614 20.364 30.803C20.4565 30.8724 20.5315 30.9624 20.5833 31.0658C20.635 31.1692 20.6619 31.2832 20.6619 31.3989C20.6619 31.5145 20.635 31.6285 20.5833 31.7319C20.5315 31.8354 20.4565 31.9253 20.364 31.9947C18.9241 33.0374 17.9807 34.9738 17.7821 37.3571C17.7729 37.4951 17.7265 37.6279 17.6478 37.7416C17.5691 37.8553 17.4611 37.9455 17.3352 38.0026C16.195 38.437 14.9797 38.6396 13.7602 38.5984ZM10.2349 36.7116C12.1714 37.1089 14.5547 37.3571 16.3918 36.7613C16.561 34.7714 17.4014 32.8981 18.7751 31.4485C18.5169 31.3357 18.2679 31.2028 18.0303 31.0513C17.7151 31.0583 17.3997 31.0417 17.0869 31.0016C15.5703 32.1309 14.1728 33.412 12.9161 34.8249C12.2225 35.6986 11.2915 36.3537 10.2349 36.7116Z" fill="#C8BDB4"/>
<path d="M17.6828 22.0146H17.5338C17.4392 21.9919 17.35 21.9507 17.2713 21.8935C17.1927 21.8363 17.1261 21.7641 17.0753 21.6811C17.0246 21.598 16.9907 21.5058 16.9757 21.4097C16.9606 21.3136 16.9647 21.2154 16.9876 21.1209C17.1587 20.536 17.5006 20.0156 17.9695 19.6263C18.4384 19.2371 19.0128 18.9968 19.6192 18.9362C20.1784 18.8728 20.7447 18.9434 21.2713 19.1419C21.7979 19.3405 22.2698 19.6614 22.648 20.0782C22.7211 20.1484 22.7789 20.2329 22.818 20.3264C22.8571 20.42 22.8765 20.5205 22.8751 20.6219C22.8737 20.7232 22.8515 20.8232 22.8099 20.9156C22.7682 21.008 22.708 21.0909 22.633 21.1591C22.558 21.2272 22.4698 21.2793 22.3739 21.312C22.2779 21.3446 22.1763 21.3572 22.0753 21.349C21.9742 21.3408 21.876 21.3119 21.7866 21.2641C21.6972 21.2163 21.6186 21.1507 21.5556 21.0712C21.328 20.8326 21.048 20.6501 20.7379 20.5381C20.4277 20.4261 20.0957 20.3876 19.7681 20.4258C19.3709 20.4754 18.5765 20.823 18.4275 21.4188C18.3854 21.5858 18.2898 21.7343 18.1553 21.8419C18.0208 21.9495 17.8549 22.0101 17.6828 22.0146Z" fill="#C8BDB4"/>
<path d="M8.79502 23.3552H8.64606C8.55146 23.3325 8.46227 23.2914 8.3836 23.2341C8.30493 23.1769 8.23832 23.1047 8.18758 23.0217C8.13685 22.9386 8.10299 22.8464 8.08794 22.7503C8.0729 22.6542 8.07695 22.5561 8.09989 22.4615C8.27098 21.8766 8.61289 21.3562 9.08175 20.9669C9.55062 20.5777 10.1251 20.3374 10.7314 20.2768C11.2907 20.2135 11.857 20.284 12.3836 20.4825C12.9102 20.6811 13.382 21.002 13.7602 21.4188C13.8333 21.489 13.8912 21.5735 13.9303 21.6671C13.9693 21.7606 13.9888 21.8611 13.9874 21.9625C13.986 22.0638 13.9638 22.1638 13.9221 22.2562C13.8805 22.3486 13.8203 22.4315 13.7453 22.4997C13.6703 22.5679 13.5821 22.6199 13.4861 22.6526C13.3902 22.6852 13.2885 22.6979 13.1875 22.6896C13.0865 22.6814 12.9882 22.6525 12.8989 22.6047C12.8095 22.5569 12.7309 22.4913 12.6679 22.4118C12.4424 22.1703 12.1627 21.9859 11.8519 21.8737C11.5412 21.7614 11.2082 21.7247 10.8804 21.7664C10.4832 21.816 9.68876 22.1636 9.5398 22.7594C9.50589 22.9306 9.41253 23.0843 9.27624 23.1934C9.13995 23.3024 8.9695 23.3597 8.79502 23.3552Z" fill="#C8BDB4"/>
<path d="M16.9876 29.0156C15.3491 29.0156 13.7602 27.4764 13.1644 25.1427C13.1353 25.0311 13.1337 24.9141 13.1596 24.8017C13.1856 24.6893 13.2383 24.5848 13.3134 24.4972C13.3863 24.3989 13.4858 24.3233 13.6 24.2794C13.7143 24.2354 13.8388 24.2249 13.9588 24.249C15.5475 24.397 17.143 24.0501 18.5268 23.2559L18.6261 23.2063C18.7231 23.15 18.8314 23.1162 18.9432 23.1076C19.055 23.0991 19.1672 23.1158 19.2716 23.1566C19.4805 23.2564 19.6412 23.435 19.7185 23.6531C19.9216 24.3165 19.9911 25.0135 19.9229 25.7039C19.8548 26.3942 19.6502 27.0642 19.3213 27.675C18.9289 28.3224 18.3093 28.8004 17.5834 29.0156H16.9876ZM14.9519 25.7385C15.4981 26.9302 16.4414 27.675 17.1862 27.4764C17.3548 27.4268 17.5119 27.3442 17.6483 27.2334C17.7846 27.1226 17.8976 26.9858 17.9807 26.8309C18.297 26.2552 18.4352 25.5985 18.3779 24.9441C17.3003 25.4347 16.1354 25.7048 14.9519 25.7385Z" fill="#C8BDB4"/>
</svg>
