<svg width="1441" height="900" viewBox="0 0 1441 900" fill="none" xmlns="http://www.w3.org/2000/svg">
<g id="Preloader-done">
<rect width="1440" height="900" transform="translate(0.773926)" fill="white"/>
<g id="cow-whole">
<g id="cow-body-cold">
<g id="horn-back">
<path id="hornb-fill" d="M824.511 372.476C824.511 372.476 786.494 345.894 785.167 316.545C785.167 316.545 773.867 365.283 803.014 384.035L824.511 372.476Z" fill="white"/>
<path id="hornb-stroke" d="M824.113 372.864C810.792 364.367 784.484 340.707 785.823 314.04C783.165 330.482 782.839 367.457 802.793 383.814" stroke="#297CAA" stroke-width="3" stroke-linecap="round"/>
</g>
<g id="cow-shape">
<path id="cow fill" d="M1015.63 496.669C1015.63 496.669 953.326 559.069 897.026 486.469C897.026 486.469 887.826 509.269 873.526 534.569C866.326 547.469 857.726 560.969 848.426 572.569C839.826 583.269 830.526 592.369 821.026 597.569C818.426 598.969 815.826 600.069 813.226 600.969C786.826 609.169 714.726 593.769 660.026 574.869C630.026 564.469 605.326 552.969 596.326 543.669C595.726 543.069 595.226 542.469 594.826 541.869C594.726 541.669 594.526 541.569 594.426 541.369C594.326 541.169 594.226 541.069 594.026 540.869C593.926 540.769 593.926 540.669 593.826 540.569C593.726 540.469 593.726 540.369 593.626 540.269C593.526 540.069 593.426 539.969 593.426 539.769C584.926 522.169 577.926 505.769 565.426 494.369C560.626 490.069 555.126 486.469 548.426 483.769C547.126 483.269 545.826 482.769 544.426 482.369C544.426 482.369 553.626 414.169 572.026 413.169C577.426 412.869 584.126 413.369 593.026 413.869C614.526 415.069 649.026 415.969 709.626 405.069C709.726 405.069 709.826 405.069 710.026 404.969C777.326 392.569 822.726 353.269 859.326 361.769C908.526 373.269 943.126 475.269 1015.63 496.669Z" fill="white"/>
<path id="cow-outline" d="M1016.26 498.407C969.499 486.233 921.285 418.128 905.945 398.718C841.587 319.736 817.002 384.607 712.778 405.35C608.554 426.094 582.245 406.362 566.561 416.481C554.014 424.576 546.155 464.714 543.793 483.771C575.668 492.878 586.798 530.318 595.905 544.484C605.012 558.651 673.821 584.96 722.897 595.078C771.973 605.197 802.836 612.28 832.18 592.043C855.656 575.853 885.549 515.864 897.562 487.893C941.609 546.549 995.046 519.342 1016.26 498.407Z" stroke="#297CAA" stroke-width="3" stroke-linecap="round"/>
<path id="cow mouth" d="M593.062 539.955C592.562 539.955 592.162 539.855 591.662 539.855C591.562 539.855 591.562 539.855 591.562 539.855C590.362 539.755 589.162 539.555 587.862 539.355C574.262 537.355 556.262 530.955 547.862 512.055C543.362 501.955 542.062 492.955 543.962 484.255C544.262 482.855 544.662 481.455 545.162 480.055" stroke="#297CAA" stroke-width="3" stroke-miterlimit="10"/>
</g>
<path id="cow spot" d="M1016.26 497.669C1016.26 497.669 953.958 560.069 897.658 487.469C897.658 487.469 888.458 510.269 874.158 535.569C866.958 548.469 858.358 562.069 849.058 573.569C848.058 573.369 846.958 573.169 845.958 572.869C845.158 572.669 844.458 572.569 843.758 572.369C843.358 572.269 843.058 572.169 842.658 572.169C841.858 571.969 841.158 571.769 840.358 571.569C840.058 571.469 839.658 571.369 839.358 571.269C838.658 571.069 838.058 570.969 837.358 570.769C836.758 570.669 836.258 570.469 835.658 570.269C835.158 570.169 834.658 569.969 834.158 569.869C833.058 569.569 832.058 569.269 830.958 568.869C829.858 568.569 828.858 568.169 827.758 567.869C826.758 567.569 825.758 567.169 824.858 566.869C823.858 566.569 822.958 566.169 821.958 565.769C821.758 565.669 821.458 565.569 821.158 565.469C820.558 565.269 819.858 564.969 819.258 564.669C818.658 564.469 818.058 564.169 817.458 563.969C816.458 563.569 815.458 563.169 814.558 562.769C813.858 562.469 813.158 562.169 812.458 561.869C811.958 561.669 811.458 561.469 810.958 561.169C810.358 560.869 809.658 560.569 809.058 560.269C808.658 560.069 808.258 559.869 807.858 559.769C807.258 559.469 806.558 559.169 805.958 558.869C805.458 558.669 804.858 558.369 804.358 558.069C803.858 557.769 803.258 557.569 802.758 557.269C802.258 556.969 801.758 556.769 801.258 556.469C800.758 556.269 800.258 555.969 799.758 555.669C799.058 555.369 798.458 554.969 797.858 554.569C797.558 554.369 797.158 554.169 796.858 554.069C796.058 553.569 795.258 553.169 794.458 552.669C794.258 552.569 793.958 552.369 793.758 552.269C793.158 551.869 792.558 551.569 791.958 551.169C791.358 550.869 790.758 550.469 790.258 550.069C789.858 549.869 789.558 549.669 789.258 549.369C788.658 548.969 788.058 548.569 787.558 548.269C786.858 547.869 786.258 547.369 785.658 546.969C785.358 546.769 785.158 546.669 784.858 546.469C784.258 546.069 783.658 545.569 783.058 545.169C782.558 544.869 782.058 544.469 781.658 544.169C781.358 543.969 781.158 543.769 780.858 543.569C780.058 542.969 779.358 542.469 778.558 541.869C777.658 541.169 776.658 540.469 775.758 539.669C775.158 539.169 774.558 538.669 773.958 538.169C773.358 537.669 772.758 537.169 772.158 536.669C770.958 535.669 769.758 534.669 768.558 533.569C768.058 533.069 767.558 532.669 767.058 532.169C766.858 532.069 766.758 531.869 766.558 531.669C766.058 531.269 765.658 530.769 765.158 530.369C764.258 529.469 763.358 528.669 762.358 527.769C761.658 527.069 760.958 526.369 760.258 525.669L760.058 525.469C759.258 524.669 758.558 523.869 757.758 523.169C756.958 522.269 756.158 521.369 755.258 520.469C754.358 519.469 753.458 518.469 752.558 517.469C751.958 516.769 751.358 516.169 750.858 515.469C750.358 514.869 749.858 514.269 749.358 513.669C748.958 513.169 748.558 512.769 748.258 512.269C747.458 511.269 746.758 510.369 745.958 509.369C745.558 508.769 745.058 508.169 744.658 507.669C743.658 506.369 742.758 505.169 741.858 503.869C741.558 503.469 741.258 503.069 741.058 502.669C740.958 502.469 740.858 502.369 740.758 502.169C740.458 501.669 740.058 501.169 739.758 500.669C739.158 499.769 738.558 498.869 737.958 497.969C737.658 497.569 737.458 497.169 737.158 496.769C737.058 496.569 736.858 496.369 736.758 496.069C736.558 495.769 736.358 495.369 736.058 494.969C735.258 493.569 734.358 492.269 733.558 490.869C733.158 490.069 732.658 489.369 732.258 488.569C732.058 488.269 731.958 487.969 731.758 487.669C731.358 486.969 731.058 486.369 730.658 485.669C730.458 485.369 730.358 485.069 730.158 484.669C729.658 483.669 729.158 482.669 728.658 481.669C728.358 481.169 728.158 480.569 727.858 480.069C727.658 479.569 727.358 479.069 727.158 478.569C725.258 474.669 723.558 470.669 722.058 466.669C721.858 466.069 721.658 465.569 721.358 464.969C721.158 464.369 720.858 463.769 720.658 463.169C720.258 462.069 719.858 460.969 719.458 459.769C718.258 456.269 717.158 452.669 716.258 449.069C715.758 447.369 715.358 445.569 714.958 443.869C714.958 443.769 714.958 443.669 714.858 443.569C714.758 442.969 714.558 442.369 714.458 441.869C714.358 441.269 714.158 440.669 714.058 440.069C713.758 438.869 713.558 437.569 713.358 436.369C713.258 435.769 713.158 435.169 713.058 434.569C712.558 432.069 712.258 429.469 711.858 426.869C711.758 426.369 711.758 425.769 711.658 425.269C711.658 425.169 711.658 425.069 711.658 424.869C711.558 423.869 711.458 422.869 711.358 421.769C711.358 421.469 711.258 421.269 711.258 420.969C711.158 420.169 711.058 419.269 711.058 418.469C711.058 417.969 710.958 417.569 710.958 417.069C710.858 415.869 710.758 414.769 710.758 413.569C710.658 412.169 710.658 410.769 710.558 409.269C710.558 408.769 710.558 408.269 710.558 407.869C710.558 407.169 710.558 406.469 710.558 405.869C710.658 405.869 710.758 405.869 710.958 405.769C777.958 393.569 823.358 354.269 859.958 362.769C909.158 374.269 943.758 476.269 1016.26 497.669Z" fill="#297CAA"/>
<path id="nose" d="M629.493 466.925C623.193 483.825 604.793 465.425 594.593 459.925C584.393 454.425 580.893 462.725 581.093 469.025C581.393 475.325 592.093 472.325 592.093 479.225C592.093 483.925 575.293 490.725 564.793 494.525L543.793 482.525C543.793 482.525 552.993 414.325 571.393 413.225C576.793 412.925 583.493 413.425 592.393 413.925C593.193 420.025 594.593 426.925 597.093 432.025C602.593 443.525 635.793 450.125 629.493 466.925Z" fill="#297CAA"/>
<g id="horn-front">
<path id="hornf-fill" d="M869.12 380.558C869.12 380.558 913.62 367.458 924.22 340.058C924.22 340.058 919.42 389.858 885.82 398.358L869.12 380.558Z" fill="white"/>
<path id="hornf-stroke" d="M869.374 381.052C884.706 377.237 917.177 363.181 924.396 337.475C921.681 353.908 910.222 389.063 886.1 398.219" stroke="#297CAA" stroke-width="3" stroke-linecap="round"/>
</g>
</g>
</g>
</g>
</svg>
