<svg width="1440" height="1024" viewBox="0 0 1440 1024" fill="none" xmlns="http://www.w3.org/2000/svg">
<g id="preloader" clip-path="url(#clip0_23:180)">
<rect width="1440" height="1024" fill="white"/>
<g id="baby pumpkin">
<g id="Vector">
<mask id="path-1-inside-1_23:180" fill="white">
<path d="M748.495 453.27C744.697 456.541 745.078 458.325 745.903 459.803C746.727 461.281 743.21 461.693 743.055 459.181C742.901 456.67 744.865 453.154 746.931 452.501C748.988 451.807 748.495 453.27 748.495 453.27Z"/>
</mask>
<path d="M748.495 453.27C744.697 456.541 745.078 458.325 745.903 459.803C746.727 461.281 743.21 461.693 743.055 459.181C742.901 456.67 744.865 453.154 746.931 452.501C748.988 451.807 748.495 453.27 748.495 453.27Z" fill="#45825B" stroke="#3D5545" stroke-width="0.580782" mask="url(#path-1-inside-1_23:180)"/>
</g>
<g id="Vector_2">
<mask id="path-2-inside-2_23:180" fill="white">
<path d="M739.937 468.414C740.63 471.658 743.578 472.556 746.783 471.871C750.029 471.178 752.313 469.163 751.62 465.918C750.927 462.674 747.485 459.465 744.28 460.149C741.075 460.833 739.252 465.209 739.937 468.414Z"/>
</mask>
<path d="M739.937 468.414C740.63 471.658 743.578 472.556 746.783 471.871C750.029 471.178 752.313 469.163 751.62 465.918C750.927 462.674 747.485 459.465 744.28 460.149C741.075 460.833 739.252 465.209 739.937 468.414Z" fill="#8DC69E" stroke="#45825B" stroke-width="0.580782" mask="url(#path-2-inside-2_23:180)"/>
</g>
</g>
<circle id="Ellipse 7" cx="746.5" cy="453.918" r="1.4" fill="#45825B" stroke="#3D5545" stroke-width="0.2"/>
<g id="whole-plant">
<g id="baby plant split">
<path id="right plant" fill-rule="evenodd" clip-rule="evenodd" d="M658.863 580.55C649.498 582.168 638.008 585.879 638.557 594.663C639.516 607.812 623.353 608.36 623.353 608.36C623.353 608.36 629.38 586.17 645.543 579.321C651.562 576.72 657.2 575.999 661.617 576.14C667.001 575.563 675.364 576.094 683.776 582.257C692.342 588.534 694.435 594.861 695.963 599.482C696.953 602.474 697.706 604.751 699.827 605.835C699.827 605.835 682.669 600.595 676.166 594.115C675.481 593.432 674.785 592.727 674.081 592.013C669.215 587.079 663.93 581.719 658.863 580.55Z" fill="#45825B"/>
<path id="left plant" fill-rule="evenodd" clip-rule="evenodd" d="M585.732 583.986C592.936 578.994 599.863 581.906 599.863 581.906C599.863 581.906 599.966 581.973 600.119 582.081C604.292 583.033 611.389 585.21 616.006 586.942C623.677 589.818 631.21 597.626 630.114 603.927C628.882 610.091 621.896 607.351 621.896 607.351C621.896 607.351 622.718 592.147 610.801 588.037C602.938 585.247 600.189 584.075 598.883 583.361C596.104 583.517 593.031 586.501 590.256 589.196C589.945 589.498 589.637 589.797 589.334 590.087C586.009 593.276 577.42 595.634 577.42 595.634C578.509 595.089 578.913 593.944 579.44 592.452C580.253 590.148 581.359 587.016 585.732 583.986Z" fill="#45825B"/>
</g>
<g id="baby pumpkin plant">
<path id="stem-right" d="M633.878 599.64C633.878 599.64 633.033 577.17 634.16 571.69C635.287 566.209 636.977 563.058 635.005 557.577C633.033 552.097 635.568 547.164 636.695 545.52C637.822 543.876 636.977 540.862 633.597 543.465C630.357 546.068 631.766 554.7 631.766 556.892C631.906 570.731 618.526 582.788 626.695 599.777C634.864 616.766 633.878 599.64 633.878 599.64Z" fill="#45825B"/>
<path id="big-leaf-right" d="M635.876 542.506C635.876 542.506 647.577 533.503 664.095 539.281C680.477 545.059 680.064 555.809 685.983 557.018C685.983 557.018 668.225 556.884 660.103 552.584C651.982 548.284 642.621 542.371 636.426 545.596C630.232 548.687 635.876 542.506 635.876 542.506Z" fill="#45825B"/>
<path id="morph-right-leaf" d="M637 543C636.6 542.2 635.167 542.667 634.5 543C633.5 544.001 635.5 544.5 636.5 545C637.5 545.5 637.5 544 637 543Z" fill="#45825B"/>
<path id="morph-right-plant" d="M633.494 602.886C633.87 603.638 633.494 606.809 632.392 607.185C630.753 607.185 630.725 606.379 629.838 604.606C628.951 602.832 633.117 602.133 633.494 602.886Z" fill="#45825B"/>
<path id="stem-left" d="M633.878 599.64C633.878 599.64 633.033 577.17 634.16 571.69C635.287 566.209 636.977 563.058 635.005 557.577C633.033 552.097 635.568 547.164 636.695 545.52C637.822 543.876 636.977 540.862 633.597 543.465C630.357 546.068 631.766 554.7 631.766 556.892C631.906 570.731 618.526 582.788 626.695 599.777C634.864 616.766 633.878 599.64 633.878 599.64Z" fill="#45825B"/>
<path id="small-leaf-left" d="M635.265 542.228C635.265 542.228 629.517 537.504 621.63 540.561C613.61 543.618 613.877 549.037 610.936 549.732C610.936 549.732 619.625 549.593 623.502 547.37C627.378 545.146 632.057 542.089 634.998 543.757C638.073 545.424 635.265 542.228 635.265 542.228Z" fill="#45825B"/>
<path id="morph-left-leaf" d="M634.873 542.516C633.983 542.419 633.6 543.877 633.519 544.617C633.818 546 635.321 544.589 636.283 544.019C637.245 543.449 635.984 542.637 634.873 542.516Z" fill="#45825B"/>
<path id="morph-left-plant" d="M633.494 602.886C633.87 603.638 633.494 606.809 632.392 607.185C630.753 607.185 630.725 606.379 629.838 604.606C628.951 602.832 633.117 602.133 633.494 602.886Z" fill="#45825B"/>
</g>
<g id="p-plant3">
<path id="stem3" d="M622.958 598.913C617.372 582.519 598.477 546.089 567.584 531.517" stroke="#45825B" stroke-width="15" stroke-linecap="round"/>
<g id="leaf-head3">
<ellipse id="morph-leaf3" cx="567.584" cy="531.516" rx="5.46457" ry="5.82888" fill="#45825B"/>
<path id="leaf3" d="M571.688 555.859C576.864 546.149 567.778 535.247 562.588 531.009C566.589 532.403 576.157 533.156 582.429 525.024C590.268 514.859 589.821 510.778 582.171 502.693C574.521 494.608 561.836 495.61 556.531 495.817C551.225 496.025 541.196 490.476 537.831 495.845C534.465 501.214 526.826 500.609 515.256 505.924C503.686 511.239 514.888 516.636 513.77 520.92C512.652 525.203 521.722 535.651 518.667 542.811C515.613 549.97 517.34 546.086 532.649 557.4C547.959 568.714 565.217 567.997 571.688 555.859Z" fill="#2F573E"/>
<g id="leaf-lines3">
<path id="main-line3" d="M565.072 532.1C557.799 524.437 549.099 523.202 538.474 522.835C529.973 522.542 517.447 513.886 512.247 509.595" stroke="#54A06F" stroke-width="1.93794" stroke-linecap="round" stroke-linejoin="round"/>
<path id="outward-lines3" d="M538.852 522.867C537.372 519.424 535.447 511.177 539.584 505.74M545.309 523.366C540.488 526.297 530.237 534.227 527.804 542.5M556.274 525.5C552.906 521.399 547.773 510.091 554.192 497.674M562.861 530.67C558.559 532.286 548.819 538.787 544.267 551.854M527.804 519.659C526.037 520.975 522.062 524.873 520.297 529.94M520.924 515.314C520.342 514.301 519.493 511.264 520.753 507.218" stroke="#54A06F" stroke-width="1.93794" stroke-linecap="round"/>
</g>
</g>
</g>
<g id="p-plant1">
<path id="stem1" d="M622.958 599.642C624.051 562.483 645.982 481.462 724.963 454.649C823.69 421.133 825.876 493.265 910.03 496.908" stroke="#45825B" stroke-width="15" stroke-linecap="round"/>
<g id="leaf-head1">
<circle id="leaf-morph1" cx="910.03" cy="496.908" r="5.46457" fill="#45825B"/>
<path id="leaf1" d="M890.39 451.021C882.303 472.244 903.73 492.219 915.455 499.553C906.903 497.735 887.114 498.668 876.375 516.944C862.952 539.789 864.924 548.03 882.682 562.606C900.441 577.182 926.156 571.848 936.967 570.05C947.778 568.251 969.75 577.02 975.252 565.154C980.755 553.288 996.555 552.55 1018.87 538.672C1041.19 524.795 1016.85 516.641 1018.03 507.581C1019.21 498.521 997.938 479.472 1002.34 464.02C1006.74 448.569 1004.21 456.969 969.933 437.763C935.654 418.557 900.5 424.492 890.39 451.021Z" fill="#2F573E"/>
<g id="leaf-lines1">
<path id="main-line1" d="M910.635 498.014C926.58 508.852 943.146 509.767 963.017 509.15C978.913 508.656 1004.94 520.422 1015.97 526.367" stroke="#54A06F" stroke-width="4" stroke-linecap="round" stroke-linejoin="round"/>
<path id="outward-lines1" d="M966.17 510.085C970.091 516.753 976.166 533.142 969.102 545.346M952.607 509.063C961.721 501.814 980.66 482.923 983.502 465.351M929.551 507.141C937.511 514.669 950.946 536.495 941.016 563.584M914.986 500.32C923.376 495.897 941.64 480.065 947.579 452.128M988.059 513.993C991.336 510.842 998.466 501.83 1000.77 490.997M1004.84 520.913C1006.29 522.836 1008.81 528.835 1007.28 537.447" stroke="#54A06F" stroke-width="4" stroke-linecap="round"/>
</g>
</g>
</g>
<g id="p-plant2">
<path id="stem2" d="M623.322 601.828C622.837 540.382 586.528 426.233 445.177 461.206" stroke="#45825B" stroke-width="15" stroke-linecap="round"/>
<g id="leaf-head2">
<circle id="morph-leaf2" cx="445.177" cy="461.206" r="5.46457" fill="#45825B"/>
<path id="leaf2" d="M458.721 426.326C465.957 441.776 451.014 457.929 442.638 464.074C448.944 462.238 463.82 461.838 472.879 474.933C484.202 491.302 483.182 497.584 470.688 509.489C458.195 521.395 438.634 518.826 430.436 518.079C422.237 517.332 406.264 525.12 401.483 516.536C396.703 507.953 384.826 508.277 367.337 499.119C349.848 489.962 367.627 482.503 366.24 475.782C364.852 469.06 379.733 453.609 375.578 442.278C371.422 430.947 373.785 437.1 398.398 420.81C423.011 404.519 449.675 407.014 458.721 426.326Z" fill="#2F573E"/>
<g id="leaf-lines2">
<path id="main-line2" d="M446.164 462.653C434.82 471.658 422.462 473.263 407.541 473.903C395.605 474.416 376.76 484.675 368.83 489.74" stroke="#54A06F" stroke-width="3.00471" stroke-linecap="round" stroke-linejoin="round"/>
<path id="outward-lines2" d="M405.231 474.779C402.664 479.993 399.023 492.607 404.992 501.357M415.335 473.261C408.105 468.337 392.869 455.236 389.765 442.231M432.5 470.542C426.955 476.622 418.102 493.719 427.044 513.461M443.033 464.624C436.502 461.775 421.942 450.929 415.942 430.33M389.051 478.922C386.421 476.743 380.58 470.388 378.253 462.401M376.866 485.037C375.884 486.558 374.326 491.192 375.953 497.559" stroke="#54A06F" stroke-width="3.00471" stroke-linecap="round"/>
</g>
</g>
</g>
<g id="p-plant4">
<path id="stem4" d="M541.354 460.477C529.453 453.191 506.599 431.114 510.388 401.096" stroke="#45825B" stroke-width="10" stroke-linecap="round"/>
<g id="leaf-head4">
<circle id="moprh-leaf4" cx="510.388" cy="401.096" r="3.64305" fill="#45825B"/>
<path id="leaf4" d="M519.285 412.969C512.333 411.838 510.305 402.982 510.16 398.695C509.318 401.273 505.99 406.438 499.416 406.477C491.198 406.526 489.294 404.715 488.144 397.683C486.995 390.651 492.425 384.58 494.589 381.959C496.753 379.338 497.817 372.078 501.857 372.447C505.897 372.816 508.552 368.691 515.747 364.861C522.942 361.03 521.344 368.829 523.959 369.921C526.574 371.013 528.377 379.685 533.208 380.907C538.039 382.129 535.391 381.501 535.213 393.686C535.036 405.872 527.976 414.382 519.285 412.969Z" fill="#2F573E"/>
<g id="leaf-lines4">
<path id="main-line4" d="M509.823 400.228C509.395 394.264 511.726 389.676 514.982 384.44C517.586 380.251 518.477 371.437 518.597 367.554" stroke="#54A06F" stroke-width="1.24059" stroke-linecap="round" stroke-linejoin="round"/>
<path id="outward-lines4" d="M515.221 383.448C514.042 381.358 510.589 377.179 506.216 377.177M513.386 387.246C516.749 385.928 524.763 383.784 529.92 385.754M510.316 393.731C509.534 390.425 505.767 383.425 496.954 381.877M509.881 398.701C512.373 397.137 519.462 394.699 527.882 397.45M517.577 376.966C518.932 376.577 522.459 376.065 525.724 377.132M518.329 371.388C518.039 370.699 516.822 369.089 514.273 368.16" stroke="#54A06F" stroke-width="1.24059" stroke-linecap="round"/>
</g>
</g>
</g>
<g id="dirt">
<path id="dirt outline" d="M829.698 600.944L829.424 602.313C827.095 601.902 824.904 601.491 822.712 601.081C818.877 600.396 815.178 599.711 811.891 599.163C796.824 596.697 786.276 595.602 775.318 596.697C774.77 596.697 774.36 596.834 773.812 596.834C768.607 597.656 762.032 599.711 754.498 602.039C735.184 608.203 708.611 616.422 684.503 608.477C652.862 597.93 614.098 595.054 590.127 601.492C579.717 604.231 543.418 612.861 515.749 605.738C495.75 600.67 478.08 598.478 456.575 604.231C454.11 604.916 451.37 605.464 448.357 606.149C440.823 607.792 431.645 609.299 423.016 610.669C421.098 610.943 419.181 611.217 417.4 611.491L417.126 610.121C418.907 609.847 420.687 609.573 422.468 609.299C430.824 608.066 439.59 606.56 446.987 605.053C450.411 604.368 453.562 603.683 456.164 602.998C477.943 597.245 495.75 599.437 516.023 604.505C534.514 609.162 562.047 607.518 589.716 600.259C614.235 593.684 652.451 596.56 684.914 607.244C708.474 615.052 734.773 606.834 753.95 600.807C761.895 598.341 768.88 596.149 774.223 595.465C774.496 595.465 774.77 595.328 775.044 595.328C786.276 594.232 797.098 595.328 812.576 597.93C815.863 598.478 819.425 599.163 823.26 599.848C825.315 600.122 827.506 600.533 829.698 600.944Z" fill="#63432E"/>
<path id="large dirt" d="M822.961 600.988C813.509 621.444 773.371 637.096 751.453 645.882C725.836 656.179 738.987 692.974 688.301 702.447C637.616 712.057 612.684 669.359 550.765 678.558C488.846 687.756 496.791 656.179 459.668 643.686C439.119 636.821 428.023 623.778 422.955 610.461C431.722 609.088 440.763 607.578 448.297 605.93C451.311 605.244 454.051 604.695 456.517 604.008C477.887 598.242 495.696 600.438 515.696 605.518C543.368 612.52 579.67 604.008 590.081 601.262C614.054 594.809 652.821 597.83 684.466 608.264C708.439 616.227 735.015 607.852 754.467 601.811C762.001 599.477 768.577 597.418 773.782 596.594C774.33 596.457 774.878 596.457 775.289 596.457C786.248 595.359 796.933 596.457 811.865 598.928C815.427 599.752 818.989 600.301 822.961 600.988Z" fill="#C47B57"/>
</g>
</g>
<g id="grown up pumpkin">
<path id="Vector_3" d="M756.986 476.156C754.378 476.486 752.673 477.527 752.149 477.837C751.626 478.148 749.57 479.028 748.004 481.614C745.368 476.552 741.807 467.041 743.886 454.65C743.872 454.771 743.886 454.649 747.77 453.845C746.271 467.095 749.934 473.984 756.986 476.156Z" fill="#44150E"/>
<path id="Vector_4" d="M817.588 524.427C812.757 533.397 806.194 538.566 800.352 541.607C804.998 538.865 809.962 534.319 813.479 526.738C820.713 510.864 818.663 498.148 809.453 483.677C800.311 469.152 785.414 465.333 776.019 467.255C774.514 467.582 773.049 468.097 771.76 468.693C774.123 467.234 776.648 465.976 779.604 465.255C790.181 462.604 806.502 465.719 815.778 480.136C825.122 494.499 826.716 507.472 817.588 524.427Z" fill="#B9542F" stroke="#7D2B1B" stroke-width="0.551355" stroke-miterlimit="10"/>
<path id="Vector_5" d="M813.425 526.671C809.908 534.252 804.944 538.798 800.298 541.54C799.452 542 798.606 542.459 797.827 542.865C797.961 542.757 798.095 542.649 798.296 542.487C801.223 540.354 803.997 536.796 805.609 530.969C809.325 517.041 806.173 504.879 797.286 490.259C788.399 475.639 776.309 470.226 769.196 470.865C768.887 470.892 768.578 470.92 768.201 471.002C767.892 471.03 767.637 471.124 767.261 471.206C768.657 470.194 770.107 469.248 771.718 468.504C773.008 467.909 774.405 467.448 775.978 467.067C785.373 465.145 800.203 469.017 809.412 483.488C818.608 498.081 820.713 510.863 813.425 526.671Z" fill="#B9542F" stroke="#7D2B1B" stroke-width="0.551355" stroke-miterlimit="10"/>
<path id="Vector_6" d="M805.663 531.035C804.105 536.93 801.277 540.421 798.351 542.553C798.216 542.661 798.082 542.769 797.881 542.931C796.498 543.823 795.074 544.526 793.744 544.933C793.824 544.758 793.959 544.65 794.039 544.475C794.106 544.421 794.119 544.3 794.119 544.3C794.882 542.913 795.185 540.679 794.907 537.036C793.869 525.716 789.159 514.366 780.595 499.597C773.07 486.533 765.668 479.117 761.385 476.816C761.331 476.749 761.21 476.736 761.156 476.668C760.86 476.575 760.631 476.428 760.335 476.335C762.347 474.164 764.399 472.181 767.369 471.339C767.624 471.245 767.933 471.217 768.31 471.135C768.619 471.107 768.928 471.08 769.304 470.998C776.363 470.293 788.453 475.705 797.394 490.392C806.16 504.999 809.379 517.107 805.663 531.035Z" fill="#B9542F" stroke="#7D2B1B" stroke-width="0.551355" stroke-miterlimit="10"/>
<path id="Vector_7" d="M794.92 536.915C795.266 540.505 794.895 542.792 794.132 544.179C794.065 544.233 794.052 544.354 794.052 544.354C793.972 544.529 793.838 544.637 793.758 544.812C792.833 545.998 791.839 546.687 790.993 547.146C790.013 547.714 789.046 548.16 787.567 548.245C787.379 548.286 787.258 548.273 787.016 548.247C786.894 548.234 786.894 548.234 786.773 548.22C785.2 548.05 783.086 547.209 780.202 544.998C771.268 538.151 764.142 528.192 756.114 512.992C749.046 499.671 746.653 489.552 747.003 484.629C747.016 484.508 747.029 484.387 747.029 484.387C747.069 484.024 747.095 483.781 747.188 483.485C747.268 483.31 747.228 483.122 747.308 482.947C747.548 482.422 747.789 481.897 748.084 481.439C749.651 478.852 751.706 477.973 752.23 477.662C752.753 477.351 754.404 476.244 757.066 475.981C757.873 475.885 758.855 475.869 759.823 475.973C759.944 475.987 760.119 476.067 760.294 476.147C760.591 476.24 760.82 476.388 761.116 476.481C761.17 476.548 761.291 476.561 761.345 476.628C761.399 476.695 761.399 476.695 761.52 476.708C762.382 477.23 763.419 477.833 764.538 478.811C768.81 482.336 774.624 489.152 780.608 499.476C789.16 514.366 793.869 525.716 794.92 536.915Z" fill="#B9542F" stroke="#7D2B1B" stroke-width="0.551355" stroke-miterlimit="10"/>
<path id="Vector_8" d="M781.27 552.095C775.576 555.459 767.676 558.278 757.521 557.607C738.3 556.382 728.112 548.113 720.85 532.628C713.534 517.076 719.68 501.635 727.487 494.029C729.741 491.884 732.05 490.358 734.562 489.222C733.313 490.005 732.172 490.923 731.126 492.095C724.501 498.972 719.846 513.656 727.296 529.101C734.746 544.545 744.411 553.125 761.684 555.363C769.957 556.443 776.462 554.636 781.27 552.095Z" fill="#B9542F" stroke="#7D2B1B" stroke-width="0.551355" stroke-miterlimit="10"/>
<path id="Vector_9" d="M783.62 550.758C782.895 551.231 782.049 551.69 781.203 552.15C776.395 554.691 769.891 556.498 761.617 555.418C744.344 553.18 734.679 544.6 727.229 529.156C719.779 513.711 724.434 499.027 731.06 492.15C732.16 491.045 733.367 490.073 734.495 489.277C735.945 488.331 737.557 487.587 739.155 486.964C738.954 487.126 738.74 487.409 738.471 487.625C738.257 487.908 738.056 488.07 737.841 488.353C733.499 493.946 731.704 507.102 739.355 522.385C747.061 537.734 755.624 546.868 769.379 551.053C775.247 552.852 779.711 552.356 783.042 551.002C783.298 550.907 783.486 550.866 783.62 550.758Z" fill="#B9542F" stroke="#7D2B1B" stroke-width="0.551355" stroke-miterlimit="10"/>
<path id="Vector_10" d="M787.499 548.299C786.426 549.163 785.164 550.067 783.619 550.757C783.431 550.798 783.297 550.906 783.109 550.947C779.777 552.301 775.314 552.797 769.446 550.998C755.691 546.814 747.073 537.612 739.422 522.33C731.716 506.981 733.565 493.891 737.908 488.298C738.122 488.015 738.27 487.786 738.538 487.57C738.752 487.287 738.954 487.125 739.222 486.909C741.53 484.832 744.298 484.152 747.175 483.606C747.148 483.848 747.055 484.144 747.016 484.508C747.003 484.629 746.989 484.75 746.989 484.75C746.639 489.673 749.032 499.792 756.1 513.113C764.074 528.246 771.201 538.204 780.189 545.119C783.072 547.329 785.186 548.171 786.76 548.341C786.881 548.354 786.881 548.354 787.002 548.368C787.19 548.327 787.311 548.34 787.499 548.299Z" fill="#B9542F" stroke="#7D2B1B" stroke-width="0.551355" stroke-miterlimit="10"/>
</g>
<g id="full pum[kin">
<g id="pumpkin">
<g id="pumpkin body final">
<path id="Vector_11" d="M1114.38 222.046C1090.18 237.513 1066.72 241.342 1048.09 240.933C1063.45 240.524 1082 236.063 1101.04 222.046C1140.86 192.712 1153.01 158.247 1150.26 109.728C1147.51 61.2098 1115.95 31.2435 1090.07 23.2129C1085.79 21.8744 1081.63 21.168 1077.58 20.8706C1085.39 20.4244 1093.34 20.9449 1101.78 23.2129C1131.56 31.2435 1167.89 61.2098 1171.08 109.728C1174.24 158.284 1160.23 192.749 1114.38 222.046Z" fill="#B9542F" stroke="#7D2B1B" stroke-width="2.93278" stroke-miterlimit="10"/>
<path id="Vector_12" d="M1101.04 222.047C1082 236.063 1063.45 240.525 1048.09 240.934C1045.38 241.008 1042.74 240.934 1040.25 240.785C1040.77 240.748 1041.33 240.673 1041.85 240.636C1052 239.409 1063.75 234.465 1075.79 222.047C1104.23 192.712 1112.9 158.248 1110.93 109.729C1108.96 61.2103 1086.43 31.244 1067.95 23.2134C1067.09 22.8416 1066.24 22.507 1065.42 22.2467C1064.56 21.9493 1063.75 21.7262 1062.89 21.5403C1067.69 20.8711 1072.59 20.5365 1077.58 20.9083C1081.63 21.2057 1085.79 21.9121 1090.07 23.2505C1115.95 31.2812 1147.51 61.2475 1150.26 109.766C1153.01 158.285 1140.86 192.75 1101.04 222.047Z" fill="#B9542F" stroke="#7D2B1B" stroke-width="2.93278" stroke-miterlimit="10"/>
<path id="Vector_13" d="M1075.75 222.047C1063.71 234.464 1051.96 239.372 1041.81 240.636C1041.29 240.71 1040.73 240.748 1040.21 240.785C1035.49 241.194 1031.14 240.822 1027.31 240.078C1027.76 239.855 1028.24 239.632 1028.72 239.335C1028.91 239.223 1029.06 239.112 1029.24 239C1032.92 236.546 1036.98 231.453 1041.07 222.047C1053.86 192.712 1057.76 158.247 1056.87 109.729C1056.09 66.8985 1048.09 38.5681 1040.55 26.9683C1040.4 26.7452 1040.25 26.5221 1040.1 26.2991C1039.58 25.5555 1039.06 24.8862 1038.54 24.2914C1046.49 21.726 1054.38 19.5325 1062.89 21.5773C1063.71 21.7632 1064.56 22.0235 1065.42 22.2837C1066.27 22.5812 1067.09 22.8786 1067.95 23.2504C1086.43 31.281 1108.96 61.2473 1110.93 109.766C1112.86 158.285 1104.2 192.75 1075.75 222.047Z" fill="#B9542F" stroke="#7D2B1B" stroke-width="2.93278" stroke-miterlimit="10"/>
<path id="Vector_14" d="M1041.07 222.047C1036.98 231.453 1032.93 236.546 1029.24 239C1029.06 239.112 1028.91 239.223 1028.72 239.335C1028.24 239.632 1027.79 239.855 1027.31 240.078C1023.37 241.826 1019.88 242.049 1017.24 242.012C1014.04 241.975 1011.1 241.826 1007.16 240.078C1006.71 239.855 1006.23 239.632 1005.75 239.335C1005.56 239.223 1005.41 239.112 1005.23 239C1001.55 236.546 997.494 231.453 993.404 222.047C980.614 192.712 976.711 158.247 977.603 109.729C978.384 66.8986 986.377 38.5682 993.924 26.9683C994.073 26.7453 994.222 26.5222 994.371 26.2991C994.891 25.5555 995.412 24.8863 995.932 24.2915C996.267 23.9197 996.564 23.5107 996.936 23.2504C998.274 22.1722 999.613 21.28 1000.91 20.5736C1008.35 16.3351 1014.6 17.0044 1016.34 17.0044C1017.98 17.0044 1023.7 16.5582 1030.62 19.3838C1032.81 20.2761 1035.16 21.5402 1037.54 23.2504C1037.91 23.5107 1038.2 23.9197 1038.5 24.2915C1039.02 24.8863 1039.54 25.5555 1040.06 26.2991C1040.21 26.5222 1040.36 26.7453 1040.51 26.9683C1040.58 27.0799 1040.66 27.2286 1040.77 27.3401C1042.29 29.7568 1043.86 32.8426 1045.34 36.5977C1051.18 51.2462 1056.27 76.0075 1056.87 109.729C1057.76 158.285 1053.86 192.75 1041.07 222.047Z" fill="#B9542F" stroke="#7D2B1B" stroke-width="2.93278" stroke-miterlimit="10"/>
<path id="Vector_15" d="M986.414 240.933C967.788 241.342 944.291 237.513 920.087 222.046C874.245 192.712 860.266 158.247 863.426 109.728C866.624 61.2098 902.947 31.2435 932.728 23.2129C941.13 20.9449 949.124 20.4244 956.931 20.8706C952.879 21.168 948.715 21.8744 944.439 23.2129C918.563 31.2435 886.998 61.2098 884.246 109.728C881.495 158.247 893.653 192.712 933.471 222.046C952.507 236.063 971.022 240.524 986.414 240.933Z" fill="#B9542F" stroke="#7D2B1B" stroke-width="2.93278" stroke-miterlimit="10"/>
<path id="Vector_16" d="M994.259 240.784C991.768 240.933 989.128 241.008 986.414 240.933C971.059 240.524 952.507 236.063 933.471 222.046C893.653 192.712 881.495 158.247 884.246 109.728C886.998 61.2098 918.563 31.2435 944.439 23.2128C948.715 21.8744 952.879 21.168 956.931 20.8706C961.913 20.5359 966.821 20.8334 971.617 21.5026C970.799 21.6885 969.944 21.9487 969.089 22.209C968.234 22.5064 967.416 22.8039 966.561 23.1757C948.083 31.2063 925.552 61.1726 923.582 109.691C921.611 158.21 930.274 192.675 958.716 222.009C970.762 234.427 982.51 239.334 992.66 240.599C993.181 240.71 993.739 240.747 994.259 240.784Z" fill="#B9542F" stroke="#7D2B1B" stroke-width="2.93278" stroke-miterlimit="10"/>
<path id="Vector_17" d="M1007.16 240.079C1003.33 240.822 998.982 241.194 994.26 240.785C993.739 240.748 993.219 240.674 992.661 240.636C982.511 239.409 970.763 234.465 958.717 222.047C930.275 192.713 921.612 158.248 923.582 109.729C925.553 61.2105 948.083 31.2442 966.561 23.2135C967.417 22.8417 968.272 22.5071 969.09 22.2468C969.945 21.9494 970.763 21.7263 971.618 21.5404C980.132 19.5328 988.014 21.7263 995.97 24.2545C995.449 24.8494 994.929 25.5186 994.408 26.2622C994.26 26.4853 994.111 26.7083 993.962 26.9314C986.378 38.5313 978.421 66.8988 977.641 109.692C976.748 158.211 980.652 192.675 993.442 222.01C997.531 231.416 1001.55 236.51 1005.26 238.963C1005.45 239.075 1005.6 239.186 1005.79 239.298C1006.23 239.633 1006.68 239.893 1007.16 240.079Z" fill="#B9542F" stroke="#7D2B1B" stroke-width="2.93278" stroke-miterlimit="10"/>
</g>
<path id="stem" d="M1030.62 19.3837C1023.67 16.5209 1017.98 17.0043 1016.34 17.0043C1014.6 17.0043 1008.31 16.2979 1000.91 20.5734C1001.29 4.47493 1005.52 -24.0414 1027.65 -52C1027.53 -51.7026 1024.52 -42.2591 1030.77 -26.867C1020.88 -13.371 1015.97 4.36339 1030.62 19.3837Z" fill="#44150E"/>
</g>
<g id="face-stroke">
<path id="righ- eye-stroke" d="M1104.72 106.086C1100.96 105.342 1088.25 104.971 1067.98 104.971C1058.06 104.971 1049.92 105.082 1049.84 105.082L1048.13 105.119L1048.58 103.446C1051.18 93.5566 1063.52 47.7892 1063.63 47.343L1064.08 45.6328L1065.57 46.5623C1077.73 54.184 1104.94 102.145 1106.09 104.19L1107.47 106.644L1104.72 106.086Z" stroke="#44150E" stroke-width="2.34623"/>
<path id="left-eye-stroke" d="M980.429 103.855C964.553 100.695 951.466 99.0589 941.539 99.0589C933.769 99.0589 930.943 100.1 930.906 100.1L928.564 100.992L929.159 98.5756C931.39 89.5783 940.015 77.1976 954.738 61.7684C965.631 50.3544 976.042 41.4314 976.153 41.3199L977.715 39.9814L978.272 41.9519C982.139 55.5966 981.99 100.62 981.99 102.517V104.078L980.429 103.855Z" stroke="#44150E" stroke-width="2.34623"/>
<path id="nose-stroke" d="M1034.56 139.473C1031.1 138.841 1025.53 138.506 1018.02 138.506C1005.15 138.506 990.876 139.473 990.727 139.51L989.128 139.621L989.351 138.023C990.578 128.951 1012.14 84.9683 1013.07 83.1094L1014.08 81.0273L1015.3 82.9978C1022.81 94.8208 1035.49 136.089 1036.01 137.837L1036.64 139.882L1034.56 139.473Z" stroke="#44150E" stroke-width="2.34623"/>
<path id="mouth-stroke" d="M1029.39 189.515L1001.95 188.734L999.575 216.433L998.163 216.21C977.603 212.715 960.76 205.502 950.276 200.074C938.193 193.791 927.076 183.083 918.971 169.884C909.602 154.567 904.211 135.977 903.468 116.049L903.319 112.183L905.773 115.194C905.996 115.492 930.051 144.603 952.507 152.745C954.143 153.34 955.741 153.897 957.34 154.455L958.158 154.753L959.682 183.604L983.588 184.979L985.819 162.969L987.232 163.267C996.415 165.237 1005 166.204 1013.44 166.204C1014.15 166.204 1014.86 166.204 1015.56 166.167C1016.68 166.129 1017.87 166.129 1019.21 166.129C1022.51 166.129 1026.23 166.204 1030.14 166.241C1034.11 166.315 1038.24 166.39 1042.48 166.39H1043.63L1046.35 188.92L1069.96 191.039V165.088L1071.07 164.94C1081.52 163.527 1088.66 160.999 1092.93 157.281C1107.13 144.826 1125.69 126.831 1125.87 126.645L1128.55 124.043L1128.07 127.761C1127.99 128.355 1126.06 142.595 1118.06 159.697C1113.34 169.736 1107.54 178.696 1100.74 186.243C1092.23 195.724 1082.15 203.048 1070.81 207.993C1058.21 213.533 1044.71 216.842 1030.77 217.845L1029.39 217.957V189.515V189.515Z" stroke="#44150E" stroke-width="2.34623"/>
</g>
<g id="face-fill">
<path id="right-eye-fill" d="M1104.72 106.086C1100.96 105.342 1088.25 104.971 1067.98 104.971C1058.06 104.971 1049.92 105.082 1049.84 105.082L1048.13 105.119L1048.58 103.446C1051.18 93.5566 1063.52 47.7892 1063.63 47.343L1064.08 45.6328L1065.57 46.5623C1077.73 54.184 1104.94 102.145 1106.09 104.19L1107.47 106.644L1104.72 106.086Z" fill="#44150E"/>
<path id="left-eye-fill" d="M980.429 103.855C964.553 100.695 951.466 99.0589 941.539 99.0589C933.769 99.0589 930.943 100.1 930.906 100.1L928.564 100.992L929.159 98.5756C931.39 89.5783 940.015 77.1976 954.738 61.7684C965.631 50.3544 976.042 41.4314 976.153 41.3199L977.715 39.9814L978.272 41.9519C982.139 55.5966 981.99 100.62 981.99 102.517V104.078L980.429 103.855Z" fill="#44150E"/>
<path id="nose-fill" d="M1034.56 139.473C1031.1 138.841 1025.53 138.506 1018.02 138.506C1005.15 138.506 990.876 139.473 990.727 139.51L989.128 139.621L989.351 138.023C990.578 128.951 1012.14 84.9683 1013.07 83.1094L1014.08 81.0273L1015.3 82.9978C1022.81 94.8208 1035.49 136.089 1036.01 137.837L1036.64 139.882L1034.56 139.473Z" fill="#44150E"/>
<path id="mouth-fill" d="M1029.39 189.515L1001.95 188.734L999.575 216.433L998.163 216.21C977.603 212.715 960.76 205.502 950.276 200.074C938.193 193.791 927.076 183.083 918.971 169.884C909.602 154.567 904.211 135.977 903.468 116.049L903.319 112.183L905.773 115.194C905.996 115.492 930.051 144.603 952.507 152.745C954.143 153.34 955.741 153.897 957.34 154.455L958.158 154.753L959.682 183.604L983.588 184.979L985.819 162.969L987.232 163.267C996.415 165.237 1005 166.204 1013.44 166.204C1014.15 166.204 1014.86 166.204 1015.56 166.167C1016.68 166.129 1017.87 166.129 1019.21 166.129C1022.51 166.129 1026.23 166.204 1030.14 166.241C1034.11 166.315 1038.24 166.39 1042.48 166.39H1043.63L1046.35 188.92L1069.96 191.039V165.088L1071.07 164.94C1081.52 163.527 1088.66 160.999 1092.93 157.281C1107.13 144.826 1125.69 126.831 1125.87 126.645L1128.55 124.043L1128.07 127.761C1127.99 128.355 1126.06 142.595 1118.06 159.697C1113.34 169.736 1107.54 178.696 1100.74 186.243C1092.23 195.724 1082.15 203.048 1070.81 207.993C1058.21 213.533 1044.71 216.842 1030.77 217.845L1029.39 217.957V189.515V189.515Z" fill="#44150E"/>
</g>
<g id="light">
<g id="dimmer light">
<mask id="mask0_23:180" style="mask-type:alpha" maskUnits="userSpaceOnUse" x="912" y="75" width="202" height="203">
<g id="Group">
<path id="5" opacity="0.26" d="M1012.8 277.331C1068.42 277.331 1113.51 232.238 1113.51 176.613C1113.51 120.988 1068.42 75.8955 1012.8 75.8955C957.17 75.8955 912.077 120.988 912.077 176.613C912.077 232.238 957.17 277.331 1012.8 277.331Z" fill="white"/>
<path id="4" opacity="0.63" d="M1012.8 259.188C1058.4 259.188 1095.37 222.218 1095.37 176.614C1095.37 131.009 1058.4 94.0391 1012.8 94.0391C967.191 94.0391 930.221 131.009 930.221 176.614C930.221 222.218 967.191 259.188 1012.8 259.188Z" fill="white"/>
<path id="3" d="M1012.8 241.081C1048.4 241.081 1077.26 212.218 1077.26 176.613C1077.26 141.008 1048.4 112.145 1012.8 112.145C977.191 112.145 948.327 141.008 948.327 176.613C948.327 212.218 977.191 241.081 1012.8 241.081Z" fill="white"/>
<path id="2" d="M1012.79 226.471C1040.33 226.471 1062.65 204.149 1062.65 176.614C1062.65 149.079 1040.33 126.757 1012.79 126.757C985.259 126.757 962.938 149.079 962.938 176.614C962.938 204.149 985.259 226.471 1012.79 226.471Z" fill="white"/>
<path id="1" d="M1012.79 211.859C1032.26 211.859 1048.04 196.079 1048.04 176.613C1048.04 157.147 1032.26 141.367 1012.79 141.367C993.329 141.367 977.549 157.147 977.549 176.613C977.549 196.079 993.329 211.859 1012.79 211.859Z" fill="white"/>
</g>
</mask>
<g mask="url(#mask0_23:180)">
<g id="right eye" style="mix-blend-mode:color">
<path d="M1104.55 105.936C1100.8 105.192 1088.08 104.82 1067.82 104.82C1057.89 104.82 1049.75 104.932 1049.68 104.932L1047.97 104.969L1048.41 103.296C1051.01 93.4062 1063.36 47.6388 1063.47 47.1927L1063.92 45.4824L1065.4 46.4119C1077.56 54.0336 1104.78 101.995 1105.93 104.039L1107.3 106.493L1104.55 105.936Z" fill="#CE8732"/>
</g>
<g id="left eye" style="mix-blend-mode:color">
<path d="M980.263 103.706C964.388 100.545 951.301 98.9095 941.374 98.9095C933.604 98.9095 930.778 99.9505 930.741 99.9505L928.398 100.843L928.993 98.4262C931.224 89.4288 939.85 77.0482 954.573 61.6189C965.466 50.205 975.876 41.282 975.988 41.1705L977.549 39.832L978.107 41.8025C981.973 55.4472 981.825 100.471 981.825 102.367V103.929L980.263 103.706Z" fill="#CE8732"/>
</g>
<g id="nose" style="mix-blend-mode:color">
<path d="M1034.4 139.323C1030.94 138.691 1025.36 138.357 1017.85 138.357C1004.99 138.357 990.71 139.323 990.562 139.361L988.963 139.472L989.186 137.873C990.413 128.802 1011.98 84.8189 1012.91 82.96L1013.91 80.8779L1015.14 82.8484C1022.65 94.6714 1035.33 135.94 1035.85 137.687L1036.48 139.732L1034.4 139.323Z" fill="#CE8732"/>
</g>
<g id="mouth" style="mix-blend-mode:color">
<path d="M1029.23 189.367L1001.79 188.586L999.411 216.284L997.999 216.061C977.439 212.566 960.596 205.354 950.112 199.925C938.029 193.642 926.912 182.935 918.807 169.736C909.438 154.418 904.047 135.829 903.303 115.901L903.155 112.034L905.609 115.046C905.832 115.343 929.887 144.454 952.343 152.596C953.979 153.191 955.577 153.749 957.176 154.307L957.994 154.604L959.518 183.455L983.424 184.831L985.655 162.821L987.068 163.118C996.251 165.089 1004.84 166.055 1013.28 166.055C1013.99 166.055 1014.69 166.055 1015.4 166.018C1016.51 165.981 1017.7 165.981 1019.04 165.981C1022.35 165.981 1026.07 166.055 1029.97 166.092C1033.95 166.167 1038.08 166.241 1042.32 166.241H1043.47L1046.18 188.772L1069.79 190.891V164.94L1070.91 164.791C1081.35 163.378 1088.49 160.85 1092.77 157.132C1106.97 144.677 1125.52 126.683 1125.71 126.497L1128.39 123.894L1127.9 127.612C1127.83 128.207 1125.89 142.447 1117.9 159.549C1113.18 169.587 1107.38 178.547 1100.58 186.095C1092.06 195.575 1081.99 202.9 1070.65 207.844C1058.04 213.384 1044.55 216.693 1030.6 217.697L1029.23 217.808V189.367V189.367Z" fill="#CE8732"/>
</g>
</g>
</g>
<g id="brightest light">
<mask id="mask1_23:180" style="mask-type:alpha" maskUnits="userSpaceOnUse" x="963" y="126" width="100" height="101">
<g id="Group_2">
<path id="2_2" d="M1012.87 226.545C1040.4 226.545 1062.73 204.223 1062.73 176.688C1062.73 149.153 1040.4 126.831 1012.87 126.831C985.334 126.831 963.012 149.153 963.012 176.688C963.012 204.223 985.334 226.545 1012.87 226.545Z" fill="#E1B062" fill-opacity="0.6"/>
<path id="1_2" d="M1012.87 211.934C1032.33 211.934 1048.11 196.154 1048.11 176.688C1048.11 157.222 1032.33 141.442 1012.87 141.442C993.404 141.442 977.624 157.222 977.624 176.688C977.624 196.154 993.404 211.934 1012.87 211.934Z" fill="#F4D892"/>
</g>
</mask>
<g mask="url(#mask1_23:180)">
<path id="nose_2" d="M1034.4 139.323C1030.94 138.691 1025.36 138.357 1017.85 138.357C1004.99 138.357 990.71 139.323 990.561 139.361L988.962 139.472L989.185 137.873C990.412 128.802 1011.98 84.8189 1012.91 82.96L1013.91 80.8779L1015.14 82.8484C1022.65 94.6714 1035.32 135.94 1035.85 137.687L1036.48 139.732L1034.4 139.323Z" fill="#F4D892"/>
<path id="mouth_2" d="M1029.23 189.367L1001.79 188.586L999.411 216.284L997.998 216.061C977.438 212.566 960.596 205.354 950.111 199.925C938.028 193.642 926.912 182.935 918.807 169.736C909.438 154.418 904.047 135.829 903.303 115.901L903.154 112.034L905.608 115.046C905.831 115.343 929.886 144.454 952.342 152.596C953.978 153.191 955.577 153.749 957.175 154.307L957.993 154.604L959.518 183.455L983.424 184.831L985.655 162.821L987.067 163.118C996.251 165.089 1004.84 166.055 1013.28 166.055C1013.98 166.055 1014.69 166.055 1015.4 166.018C1016.51 165.981 1017.7 165.981 1019.04 165.981C1022.35 165.981 1026.07 166.055 1029.97 166.092C1033.95 166.167 1038.08 166.241 1042.32 166.241H1043.47L1046.18 188.772L1069.79 190.891V164.94L1070.91 164.791C1081.35 163.378 1088.49 160.85 1092.77 157.132C1106.97 144.677 1125.52 126.683 1125.71 126.497L1128.38 123.894L1127.9 127.612C1127.83 128.207 1125.89 142.447 1117.9 159.549C1113.18 169.587 1107.38 178.547 1100.57 186.095C1092.06 195.575 1081.99 202.9 1070.65 207.844C1058.04 213.384 1044.55 216.693 1030.6 217.697L1029.23 217.808V189.367V189.367Z" fill="#F4D892"/>
</g>
</g>
</g>
<g id="cut outs">
<g id="left eye_2">
<path id="Vector_18" d="M984.896 102.494L980.772 107.844L939.774 92.0172L920.284 54.7292L926.913 49.317L984.896 102.494Z" fill="#661F18" stroke="#661F18" stroke-width="0.70832" stroke-miterlimit="10"/>
<path id="Vector_19" d="M920.283 54.7295C920.283 54.7295 926.261 85.2288 925.42 106.033C925.42 106.033 936.21 101.04 977.856 107.237C977.856 107.237 925.06 68.7293 920.283 54.7295Z" fill="#963D29" stroke="#661F18" stroke-width="2.62489" stroke-miterlimit="10"/>
</g>
<g id="right eye_2">
<path id="Vector_20" d="M1047.99 105.214L1052.12 110.564L1093.11 94.737L1112.6 57.449L1105.97 52.0367L1047.99 105.214Z" fill="#661F18" stroke="#661F18" stroke-width="0.70832" stroke-miterlimit="10"/>
<path id="Vector_21" d="M1112.6 57.4492C1112.6 57.4492 1106.63 87.9485 1107.47 108.753C1107.47 108.753 1096.68 103.76 1055.03 109.957C1055.03 109.957 1107.83 71.449 1112.6 57.4492Z" fill="#963D29" stroke="#661F18" stroke-width="2.62489" stroke-miterlimit="10"/>
</g>
<g id="nose_3">
<g id="cut out">
<path id="Vector_22" d="M985.076 144.154L987.248 136.093L1016.19 110.48L1042.54 136.806L1045.55 144.725L1013.11 138.59L985.076 144.154Z" fill="#661F18"/>
<path id="Vector_23" d="M1016.2 122.139C1016.2 122.139 998.06 134.618 988.321 143.268C988.321 143.268 1026.01 140.645 1040.05 143.268L1016.2 122.139Z" fill="#963D29" stroke="#661F18" stroke-width="2" stroke-miterlimit="10"/>
</g>
</g>
<g id="mouth_3">
<path id="Vector_24" d="M1125.94 186.297C1125.94 186.297 1069.3 196.31 1014.52 196.31C964.698 196.25 903.472 183.341 903.472 183.341V194.923C905.101 205.66 927.359 212.838 949.678 215.733C960.476 217.121 977.245 218.93 997.272 219.775L999.625 212.838L1029.6 213.079V215.13V220.258C1042.45 220.016 1055.84 219.292 1069.3 217.784C1118.34 212.355 1125.94 197.878 1125.94 197.878V186.297Z" fill="#661F18" stroke="#661F18" stroke-miterlimit="10"/>
<path id="Vector_25" d="M1092.88 205.539C1087.99 206.625 1079.79 207.228 1070.32 207.53V214.105L1044.2 213.502L1041.49 207.832C1031.35 207.832 1021.7 207.711 1014.52 207.771C1004.75 207.832 995.341 207.53 985.81 207.047L983.578 212.537L957.218 212.175L955.71 204.876C954.081 204.755 952.513 204.574 950.884 204.454C927.72 202.342 903.471 194.923 903.471 194.923C905.1 205.66 927.358 212.838 949.677 215.734C960.475 217.121 977.244 218.931 997.271 219.775L999.624 212.838L1029.6 213.08V220.198C1042.45 219.956 1055.84 219.232 1069.29 217.724C1118.34 212.295 1125.94 197.818 1125.94 197.818C1125.94 197.818 1107.3 202.403 1092.88 205.539Z" fill="#963D29" stroke="#661F18" stroke-width="3.7058" stroke-miterlimit="10"/>
</g>
</g>
</g>
</g>
<defs>
<clipPath id="clip0_23:180">
<rect width="1440" height="1024" fill="white"/>
</clipPath>
</defs>
</svg>
