<svg width="1440" height="1024" viewBox="0 0 1440 1024" fill="none" xmlns="http://www.w3.org/2000/svg">
<g id="preloader" clip-path="url(#clip0_23:180)">
<rect width="1440" height="1024" fill="white"/>
<g id="baby pumpkin">
<path id="Vector" d="M748.495 453.27C744.697 456.541 745.078 458.325 745.903 459.803C746.727 461.281 743.21 461.693 743.055 459.181C742.901 456.67 744.865 453.154 746.931 452.501C748.988 451.807 748.495 453.27 748.495 453.27Z" fill="#45825B"/>
<path id="Vector (Stroke)" fill-rule="evenodd" clip-rule="evenodd" d="M747.024 452.776L747.024 452.776C747.519 452.609 747.821 452.586 747.997 452.615C748.153 452.64 748.2 452.703 748.222 452.751C748.255 452.819 748.263 452.916 748.251 453.02C748.247 453.053 748.242 453.083 748.237 453.109C746.369 454.73 745.48 456.024 745.185 457.134C744.881 458.279 745.22 459.176 745.649 459.945C745.729 460.089 745.744 460.195 745.735 460.269C745.727 460.342 745.693 460.41 745.627 460.473C745.485 460.609 745.205 460.71 744.856 460.698C744.515 460.687 744.152 460.568 743.871 460.326C743.595 460.088 743.379 459.718 743.345 459.163C743.272 457.981 743.701 456.531 744.412 455.289C745.128 454.039 746.088 453.072 747.018 452.778L747.024 452.776ZM748.495 453.27C748.495 453.27 748.988 451.807 746.931 452.501C744.865 453.154 742.901 456.67 743.055 459.181C743.21 461.693 746.727 461.281 745.903 459.803C745.078 458.325 744.697 456.541 748.495 453.27Z" fill="#3D5545"/>
<path id="Vector_2" d="M739.937 468.414C740.63 471.658 743.578 472.556 746.783 471.871C750.029 471.178 752.313 469.163 751.62 465.918C750.927 462.674 747.485 459.465 744.28 460.149C741.075 460.833 739.252 465.209 739.937 468.414Z" fill="#8DC69E"/>
<path id="Vector (Stroke)_2" fill-rule="evenodd" clip-rule="evenodd" d="M742.536 471.35C741.399 470.845 740.548 469.887 740.221 468.353C739.894 466.822 740.165 464.993 740.911 463.464C741.658 461.933 742.855 460.75 744.341 460.433C745.827 460.115 747.401 460.697 748.706 461.783C750.01 462.869 751.005 464.428 751.336 465.979C751.664 467.515 751.288 468.734 750.462 469.658C749.626 470.593 748.308 471.248 746.723 471.587C745.158 471.921 743.687 471.862 742.536 471.35ZM746.783 471.871C743.578 472.556 740.63 471.658 739.937 468.414C739.252 465.209 741.075 460.833 744.28 460.149C747.485 459.465 750.927 462.674 751.62 465.918C752.313 469.163 750.029 471.178 746.783 471.871Z" fill="#45825B"/>
</g>
<g id="whole-plant">
<g id="baby plant split">
<path id="right plant" fill-rule="evenodd" clip-rule="evenodd" d="M658.863 580.55C649.498 582.168 638.008 585.879 638.557 594.663C639.516 607.812 623.353 608.36 623.353 608.36C623.353 608.36 629.38 586.17 645.543 579.321C651.562 576.72 657.2 575.999 661.617 576.14C667.001 575.563 675.364 576.094 683.776 582.257C692.342 588.534 694.435 594.861 695.963 599.482C696.953 602.474 697.706 604.751 699.827 605.835C699.827 605.835 682.669 600.595 676.166 594.115C675.481 593.432 674.785 592.727 674.081 592.013C669.215 587.079 663.93 581.719 658.863 580.55Z" fill="#45825B"/>
<path id="left plant" fill-rule="evenodd" clip-rule="evenodd" d="M585.732 583.986C592.936 578.994 599.863 581.906 599.863 581.906C599.863 581.906 599.966 581.973 600.119 582.081C604.292 583.033 611.389 585.21 616.006 586.942C623.677 589.818 631.21 597.626 630.114 603.927C628.882 610.091 621.896 607.351 621.896 607.351C621.896 607.351 622.718 592.147 610.801 588.037C602.938 585.247 600.189 584.075 598.883 583.361C596.104 583.517 593.031 586.501 590.256 589.196C589.945 589.498 589.637 589.797 589.334 590.087C586.009 593.276 577.42 595.634 577.42 595.634C578.509 595.089 578.913 593.944 579.44 592.452C580.253 590.148 581.359 587.016 585.732 583.986Z" fill="#45825B"/>
</g>
<g id="baby pumpkin plant">
<path id="stem-right" d="M633.878 599.64C633.878 599.64 633.033 577.17 634.16 571.69C635.287 566.209 636.977 563.058 635.005 557.577C633.033 552.097 635.568 547.164 636.695 545.52C637.822 543.876 636.977 540.862 633.597 543.465C630.357 546.068 631.766 554.7 631.766 556.892C631.906 570.731 618.526 582.788 626.695 599.777C634.864 616.766 633.878 599.64 633.878 599.64Z" fill="#45825B"/>
<path id="big-leaf-right" d="M635.876 542.506C635.876 542.506 647.577 533.503 664.095 539.281C680.477 545.059 680.064 555.809 685.983 557.018C685.983 557.018 668.225 556.884 660.103 552.584C651.982 548.284 642.621 542.371 636.426 545.596C630.232 548.687 635.876 542.506 635.876 542.506Z" fill="#45825B"/>
<path id="morph-right-leaf" d="M637 543C636.6 542.2 635.167 542.667 634.5 543C633.5 544.001 635.5 544.5 636.5 545C637.5 545.5 637.5 544 637 543Z" fill="#45825B"/>
<path id="morph-right-plant" d="M633.494 602.886C633.87 603.638 633.494 606.809 632.392 607.185C630.753 607.185 630.725 606.379 629.838 604.606C628.951 602.832 633.117 602.133 633.494 602.886Z" fill="#45825B"/>
<path id="stem-left" d="M633.878 599.64C633.878 599.64 633.033 577.17 634.16 571.69C635.287 566.209 636.977 563.058 635.005 557.577C633.033 552.097 635.568 547.164 636.695 545.52C637.822 543.876 636.977 540.862 633.597 543.465C630.357 546.068 631.766 554.7 631.766 556.892C631.906 570.731 618.526 582.788 626.695 599.777C634.864 616.766 633.878 599.64 633.878 599.64Z" fill="#45825B"/>
<path id="small-leaf-left" d="M635.265 542.228C635.265 542.228 629.517 537.504 621.63 540.561C613.61 543.618 613.877 549.037 610.936 549.732C610.936 549.732 619.625 549.593 623.502 547.37C627.378 545.146 632.057 542.089 634.998 543.757C638.073 545.424 635.265 542.228 635.265 542.228Z" fill="#45825B"/>
<path id="morph-left-leaf" d="M634.873 542.516C633.983 542.419 633.6 543.877 633.519 544.617C633.818 546 635.321 544.589 636.283 544.019C637.245 543.449 635.984 542.637 634.873 542.516Z" fill="#45825B"/>
<path id="morph-left-plant" d="M633.494 602.886C633.87 603.638 633.494 606.809 632.392 607.185C630.753 607.185 630.725 606.379 629.838 604.606C628.951 602.832 633.117 602.133 633.494 602.886Z" fill="#45825B"/>
</g>
<g id="p-plant3">
<path id="stem3 (Stroke)" fill-rule="evenodd" clip-rule="evenodd" d="M560.801 528.317C562.568 524.57 567.037 522.966 570.783 524.733C587.807 532.763 601.16 546.606 610.861 560.168C620.584 573.761 627.035 587.625 630.057 596.494C631.393 600.415 629.298 604.676 625.377 606.012C621.456 607.348 617.195 605.253 615.859 601.332C613.295 593.807 607.505 581.259 598.661 568.895C589.795 556.5 578.254 544.842 564.384 538.3C560.638 536.533 559.033 532.063 560.801 528.317Z" fill="#45825B"/>
<g id="leaf-head3">
<path id="morph-leaf3" d="M573.048 531.516C573.048 534.736 570.602 537.345 567.584 537.345C564.566 537.345 562.119 534.736 562.119 531.516C562.119 528.297 564.566 525.688 567.584 525.688C570.602 525.688 573.048 528.297 573.048 531.516Z" fill="#45825B"/>
<path id="leaf3" d="M571.688 555.859C576.864 546.149 567.778 535.247 562.588 531.009C566.589 532.403 576.157 533.156 582.429 525.024C590.268 514.859 589.821 510.778 582.171 502.693C574.521 494.608 561.836 495.61 556.531 495.817C551.225 496.025 541.196 490.476 537.831 495.845C534.465 501.214 526.826 500.609 515.256 505.924C503.686 511.239 514.888 516.636 513.77 520.92C512.652 525.203 521.722 535.651 518.667 542.811C515.613 549.97 517.34 546.086 532.649 557.4C547.959 568.714 565.217 567.997 571.688 555.859Z" fill="#2F573E"/>
<g id="leaf-lines3">
<path id="main-line3 (Stroke)" fill-rule="evenodd" clip-rule="evenodd" d="M511.499 508.979C511.84 508.566 512.451 508.508 512.863 508.848C515.426 510.963 519.811 514.166 524.6 516.872C529.423 519.597 534.506 521.73 538.507 521.868C549.17 522.235 558.22 523.473 565.775 531.434C566.143 531.822 566.127 532.435 565.739 532.804C565.35 533.172 564.737 533.156 564.369 532.768C557.379 525.402 549.029 524.17 538.441 523.804C533.942 523.649 528.511 521.308 523.646 518.559C518.746 515.79 514.268 512.52 511.63 510.343C511.217 510.003 511.159 509.392 511.499 508.979Z" fill="#54A06F"/>
<path id="outward-lines3 (Stroke)" fill-rule="evenodd" clip-rule="evenodd" d="M521.041 506.294C521.552 506.453 521.837 506.996 521.678 507.507C520.49 511.322 521.329 514.076 521.764 514.832C522.03 515.296 521.87 515.889 521.406 516.155C520.942 516.422 520.35 516.262 520.083 515.798C519.354 514.529 518.496 511.21 519.828 506.931C519.987 506.42 520.53 506.135 521.041 506.294ZM519.978 530.857C519.473 530.681 519.206 530.128 519.382 529.623C521.23 524.317 525.358 520.273 527.225 518.883C527.654 518.563 528.261 518.652 528.581 519.081C528.9 519.51 528.812 520.118 528.382 520.437C526.715 521.679 522.894 525.432 521.212 530.26C521.036 530.766 520.484 531.033 519.978 530.857ZM538.08 515.007C538.223 518.049 539.042 520.858 539.742 522.486C539.953 522.978 539.726 523.547 539.234 523.759C538.742 523.97 538.172 523.743 537.961 523.251C537.181 521.435 536.299 518.399 536.144 515.098C535.989 511.802 536.555 508.122 538.813 505.155C539.137 504.729 539.745 504.647 540.171 504.971C540.597 505.295 540.679 505.903 540.355 506.328C538.476 508.798 537.936 511.96 538.08 515.007ZM534.984 530.237C538.511 526.798 542.339 524.039 544.806 522.539C545.263 522.261 545.859 522.407 546.137 522.864C546.415 523.321 546.269 523.917 545.812 524.195C543.458 525.627 539.749 528.298 536.337 531.625C532.908 534.969 529.879 538.878 528.733 542.775C528.582 543.288 528.044 543.582 527.53 543.431C527.017 543.28 526.723 542.741 526.874 542.228C528.161 537.852 531.475 533.659 534.984 530.237ZM555.053 498.12C548.863 510.094 553.82 520.987 557.023 524.886C557.362 525.3 557.303 525.911 556.889 526.25C556.475 526.59 555.865 526.53 555.525 526.116C551.991 521.813 546.683 510.091 553.331 497.23C553.577 496.755 554.162 496.569 554.637 496.815C555.112 497.06 555.298 497.645 555.053 498.12ZM543.948 552.771C543.443 552.595 543.176 552.042 543.352 551.537C548.009 538.167 557.982 531.47 562.52 529.764C563.021 529.576 563.579 529.829 563.768 530.33C563.956 530.831 563.702 531.39 563.201 531.578C559.137 533.106 549.629 539.41 545.182 552.174C545.006 552.68 544.454 552.947 543.948 552.771Z" fill="#54A06F"/>
</g>
</g>
</g>
<g id="p-plant1">
<path id="stem1 (Stroke)" fill-rule="evenodd" clip-rule="evenodd" d="M782.68 454.03C768.72 452.122 751.272 453.637 727.374 461.75C690.029 474.428 666.125 499.888 651.329 526.871C636.46 553.986 630.97 582.352 630.455 599.862C630.333 604.002 626.878 607.26 622.738 607.138C618.597 607.017 615.34 603.561 615.461 599.421C616.039 579.772 622.061 549.048 638.176 519.659C654.364 490.138 680.917 461.681 722.552 447.546C748.018 438.901 767.865 436.865 784.712 439.169C801.582 441.475 814.766 448.048 826.871 455.443C830.857 457.878 834.717 460.384 838.561 462.88C858.096 475.564 877.22 487.98 910.355 489.415C914.493 489.594 917.702 493.094 917.523 497.232C917.344 501.37 913.844 504.58 909.706 504.401C872.195 502.777 849.547 487.997 829.838 475.135C826.166 472.739 822.596 470.409 819.052 468.244C807.75 461.339 796.617 455.936 782.68 454.03Z" fill="#45825B"/>
<g id="leaf-head1">
<path id="leaf-morph1" d="M915.494 496.908C915.494 499.926 913.048 502.373 910.03 502.373C907.012 502.373 904.565 499.926 904.565 496.908C904.565 493.89 907.012 491.443 910.03 491.443C913.048 491.443 915.494 493.89 915.494 496.908Z" fill="#45825B"/>
<path id="leaf1" d="M890.39 451.021C882.303 472.244 903.73 492.219 915.455 499.553C906.903 497.735 887.114 498.668 876.375 516.944C862.952 539.789 864.924 548.03 882.682 562.606C900.441 577.182 926.156 571.848 936.967 570.05C947.778 568.251 969.75 577.02 975.252 565.154C980.755 553.288 996.555 552.55 1018.87 538.672C1041.19 524.795 1016.85 516.641 1018.03 507.581C1019.21 498.521 997.938 479.472 1002.34 464.02C1006.74 448.569 1004.21 456.969 969.933 437.763C935.654 418.557 900.5 424.492 890.39 451.021Z" fill="#2F573E"/>
<g id="leaf-lines1">
<path id="main-line1 (Stroke)" fill-rule="evenodd" clip-rule="evenodd" d="M1017.73 527.316C1017.2 528.288 1015.99 528.651 1015.02 528.127C1009.58 525.194 1000.4 520.808 990.63 517.221C980.794 513.612 970.619 510.915 963.079 511.149C943.145 511.768 926.016 510.888 909.51 499.668C908.597 499.047 908.36 497.803 908.981 496.889C909.601 495.976 910.845 495.739 911.759 496.36C927.144 506.818 943.146 507.766 962.955 507.151C971.311 506.891 982.099 509.83 992.008 513.466C1001.98 517.126 1011.33 521.594 1016.92 524.606C1017.89 525.13 1018.25 526.343 1017.73 527.316Z" fill="#54A06F"/>
<path id="outward-lines1 (Stroke)" fill-rule="evenodd" clip-rule="evenodd" d="M1006.93 539.417C1005.84 539.223 1005.12 538.185 1005.31 537.097C1006.76 528.978 1004.33 523.555 1003.24 522.119C1002.58 521.238 1002.75 519.983 1003.63 519.317C1004.51 518.651 1005.77 518.826 1006.43 519.707C1008.25 522.116 1010.87 528.692 1009.25 537.798C1009.06 538.886 1008.02 539.61 1006.93 539.417ZM1001.18 489.041C1002.27 489.271 1002.95 490.333 1002.73 491.413C1000.31 502.757 992.907 512.106 989.445 515.435C988.649 516.201 987.383 516.176 986.617 515.38C985.851 514.584 985.876 513.318 986.672 512.552C989.764 509.578 996.618 500.903 998.813 490.581C999.042 489.501 1000.1 488.811 1001.18 489.041ZM969.785 525.983C968.705 519.79 966.3 514.251 964.446 511.099C963.886 510.147 964.204 508.921 965.157 508.361C966.109 507.801 967.334 508.119 967.894 509.072C969.962 512.588 972.554 518.577 973.726 525.296C974.896 532.006 974.689 539.687 970.833 546.348C970.28 547.304 969.056 547.63 968.1 547.077C967.144 546.524 966.818 545.3 967.371 544.344C970.58 538.801 970.867 532.186 969.785 525.983ZM971.971 492.324C965.639 500.28 958.515 506.92 953.852 510.629C952.987 511.317 951.729 511.173 951.042 510.309C950.354 509.444 950.497 508.186 951.362 507.499C955.813 503.958 962.716 497.528 968.842 489.833C974.999 482.098 980.189 473.309 981.528 465.032C981.704 463.942 982.731 463.201 983.821 463.377C984.912 463.554 985.653 464.581 985.476 465.671C983.973 474.966 978.272 484.409 971.971 492.324ZM939.138 562.896C948.714 536.775 935.745 515.752 928.177 508.595C927.375 507.836 927.339 506.57 928.098 505.768C928.857 504.965 930.123 504.93 930.926 505.689C939.276 513.586 953.179 536.216 942.894 564.272C942.513 565.309 941.365 565.842 940.327 565.462C939.29 565.082 938.758 563.933 939.138 562.896ZM947.995 450.172C949.075 450.401 949.765 451.463 949.535 452.544C943.458 481.128 924.77 497.423 915.919 502.09C914.942 502.605 913.732 502.231 913.217 501.254C912.702 500.277 913.076 499.067 914.053 498.552C921.981 494.371 939.821 479.002 945.623 451.712C945.852 450.632 946.914 449.942 947.995 450.172Z" fill="#54A06F"/>
</g>
</g>
</g>
<g id="p-plant2">
<path id="stem2 (Stroke)" fill-rule="evenodd" clip-rule="evenodd" d="M592.812 490.53C621.121 524.162 630.571 569.993 630.822 601.768C630.855 605.91 627.523 609.295 623.381 609.327C619.239 609.36 615.855 606.029 615.822 601.887C615.588 572.217 606.64 530.25 581.336 500.189C568.79 485.285 552.214 473.277 530.49 466.987C508.722 460.684 481.32 459.99 446.978 468.487C442.958 469.481 438.891 467.028 437.897 463.007C436.902 458.987 439.355 454.92 443.376 453.926C479.709 444.936 509.852 445.395 534.662 452.579C559.516 459.775 578.551 473.588 592.812 490.53Z" fill="#45825B"/>
<g id="leaf-head2">
<path id="morph-leaf2" d="M450.642 461.206C450.642 464.224 448.195 466.67 445.177 466.67C442.159 466.67 439.713 464.224 439.713 461.206C439.713 458.188 442.159 455.741 445.177 455.741C448.195 455.741 450.642 458.188 450.642 461.206Z" fill="#45825B"/>
<path id="leaf2" d="M458.721 426.326C465.957 441.776 451.014 457.929 442.638 464.074C448.944 462.238 463.82 461.838 472.879 474.933C484.202 491.302 483.182 497.584 470.688 509.489C458.195 521.395 438.634 518.826 430.436 518.079C422.237 517.332 406.264 525.12 401.483 516.536C396.703 507.953 384.826 508.277 367.337 499.119C349.848 489.962 367.627 482.503 366.24 475.782C364.852 469.06 379.733 453.609 375.578 442.278C371.422 430.947 373.785 437.1 398.398 420.81C423.011 404.519 449.675 407.014 458.721 426.326Z" fill="#2F573E"/>
<g id="leaf-lines2">
<path id="main-line2 (Stroke)" fill-rule="evenodd" clip-rule="evenodd" d="M367.563 490.548C368.01 491.247 368.939 491.452 369.638 491.006C373.551 488.506 380.182 484.711 387.304 481.482C394.471 478.232 401.944 475.647 407.606 475.404C422.572 474.761 435.355 473.151 447.098 463.83C447.748 463.314 447.856 462.369 447.34 461.719C446.824 461.069 445.879 460.96 445.23 461.476C434.285 470.165 422.35 471.763 407.477 472.402C401.202 472.671 393.284 475.472 386.063 478.746C378.795 482.041 372.038 485.907 368.021 488.473C367.321 488.92 367.117 489.849 367.563 490.548Z" fill="#54A06F"/>
<path id="outward-lines2 (Stroke)" fill-rule="evenodd" clip-rule="evenodd" d="M376.324 499.015C377.128 498.809 377.614 497.991 377.408 497.187C375.875 491.185 377.394 486.988 378.128 485.852C378.578 485.155 378.377 484.225 377.68 483.775C376.983 483.325 376.053 483.525 375.603 484.222C374.373 486.128 372.777 491.199 374.497 497.931C374.702 498.735 375.521 499.22 376.324 499.015ZM377.833 460.958C377.036 461.19 376.578 462.024 376.81 462.82C379.247 471.185 385.314 477.777 388.092 480.079C388.731 480.608 389.678 480.52 390.208 479.881C390.737 479.242 390.648 478.295 390.01 477.765C387.528 475.709 381.912 469.591 379.695 461.98C379.463 461.184 378.629 460.726 377.833 460.958ZM403.405 486.89C403.871 482.19 405.365 477.907 406.579 475.443C406.945 474.699 406.639 473.798 405.895 473.431C405.15 473.065 404.25 473.371 403.883 474.116C402.53 476.864 400.92 481.495 400.415 486.594C399.911 491.685 400.493 497.428 403.751 502.203C404.218 502.889 405.153 503.065 405.838 502.598C406.524 502.13 406.7 501.196 406.233 500.51C403.521 496.535 402.939 491.596 403.405 486.89ZM399.9 461.796C405.085 467.404 410.79 471.983 414.489 474.503C415.175 474.97 416.11 474.793 416.577 474.107C417.044 473.421 416.867 472.487 416.181 472.02C412.65 469.615 407.122 465.181 402.106 459.756C397.064 454.303 392.688 448.008 391.226 441.882C391.033 441.075 390.223 440.576 389.416 440.769C388.609 440.962 388.111 441.772 388.303 442.579C389.945 449.459 394.74 456.216 399.9 461.796ZM428.413 512.84C419.79 493.804 428.338 477.335 433.61 471.554C434.169 470.941 434.125 469.991 433.512 469.432C432.899 468.873 431.949 468.916 431.39 469.529C425.572 475.909 416.414 493.633 425.676 514.08C426.018 514.836 426.908 515.171 427.664 514.829C428.42 514.486 428.755 513.596 428.413 512.84ZM415.521 428.888C414.725 429.12 414.267 429.954 414.499 430.75C420.638 451.826 435.542 462.996 442.432 466.001C443.192 466.332 444.078 465.985 444.409 465.224C444.741 464.464 444.393 463.578 443.633 463.247C437.462 460.555 423.245 450.031 417.384 429.91C417.152 429.113 416.318 428.656 415.521 428.888Z" fill="#54A06F"/>
</g>
</g>
</g>
<g id="p-plant4">
<path id="stem4 (Stroke)" fill-rule="evenodd" clip-rule="evenodd" d="M511.014 396.136C513.754 396.481 515.695 398.983 515.349 401.722C513.641 415.253 517.907 427.093 524.159 436.556C530.449 446.076 538.584 452.919 543.965 456.214C546.32 457.656 547.06 460.734 545.618 463.089C544.176 465.444 541.098 466.184 538.743 464.742C532.223 460.75 522.981 452.913 515.816 442.068C508.613 431.166 503.347 416.958 505.427 400.47C505.773 397.73 508.275 395.79 511.014 396.136Z" fill="#45825B"/>
<g id="leaf-head4">
<path id="moprh-leaf4" d="M514.031 401.096C514.031 403.108 512.4 404.739 510.388 404.739C508.376 404.739 506.745 403.108 506.745 401.096C506.745 399.084 508.376 397.453 510.388 397.453C512.4 397.453 514.031 399.084 514.031 401.096Z" fill="#45825B"/>
<path id="leaf4" d="M519.285 412.969C512.333 411.838 510.305 402.982 510.16 398.695C509.318 401.273 505.99 406.438 499.416 406.477C491.198 406.526 489.294 404.715 488.144 397.683C486.995 390.651 492.425 384.58 494.589 381.959C496.753 379.338 497.817 372.078 501.857 372.447C505.897 372.816 508.552 368.691 515.747 364.861C522.942 361.03 521.344 368.829 523.959 369.921C526.574 371.013 528.377 379.685 533.208 380.907C538.039 382.129 535.391 381.501 535.213 393.686C535.036 405.872 527.976 414.382 519.285 412.969Z" fill="#2F573E"/>
<g id="leaf-lines4">
<path id="main-line4 (Stroke)" fill-rule="evenodd" clip-rule="evenodd" d="M518.616 366.933C518.274 366.923 517.988 367.192 517.977 367.534C517.918 369.45 517.668 372.595 517.111 375.775C516.549 378.976 515.691 382.125 514.455 384.112C511.189 389.365 508.761 394.098 509.205 400.272C509.23 400.614 509.527 400.871 509.868 400.846C510.21 400.822 510.467 400.525 510.443 400.183C510.029 394.428 512.263 389.987 515.509 384.767C516.878 382.565 517.767 379.214 518.333 375.989C518.901 372.744 519.157 369.54 519.217 367.572C519.228 367.23 518.959 366.944 518.616 366.933Z" fill="#54A06F"/>
<path id="outward-lines4 (Stroke)" fill-rule="evenodd" clip-rule="evenodd" d="M513.69 367.948C513.572 368.27 513.738 368.626 514.06 368.743C516.464 369.618 517.541 371.113 517.758 371.628C517.89 371.944 518.254 372.092 518.57 371.959C518.886 371.826 519.034 371.462 518.901 371.147C518.538 370.283 517.18 368.558 514.485 367.577C514.163 367.46 513.807 367.626 513.69 367.948ZM526.314 377.324C526.42 376.998 526.242 376.648 525.917 376.542C522.498 375.425 518.837 375.958 517.405 376.37C517.076 376.464 516.886 376.808 516.98 377.137C517.075 377.466 517.418 377.656 517.748 377.562C519.027 377.195 522.421 376.705 525.532 377.721C525.857 377.828 526.207 377.65 526.314 377.324ZM511.517 380.005C513.011 381.257 514.123 382.764 514.681 383.752C514.85 384.05 515.228 384.156 515.526 383.987C515.825 383.819 515.93 383.44 515.761 383.142C515.139 382.04 513.935 380.413 512.315 379.054C510.696 377.697 508.603 376.558 506.216 376.556C505.873 376.556 505.595 376.834 505.595 377.176C505.595 377.519 505.873 377.797 506.215 377.797C508.202 377.798 510.021 378.75 511.517 380.005ZM520.889 384.653C517.77 385.115 514.88 385.993 513.16 386.668C512.841 386.793 512.683 387.153 512.808 387.472C512.934 387.791 513.293 387.948 513.612 387.823C515.255 387.179 518.054 386.327 521.071 385.88C524.104 385.43 527.27 385.405 529.699 386.333C530.019 386.455 530.378 386.295 530.5 385.975C530.622 385.655 530.462 385.296 530.142 385.174C527.414 384.132 523.993 384.193 520.889 384.653ZM496.846 382.488C505.345 383.98 508.969 390.73 509.712 393.874C509.791 394.207 510.126 394.413 510.459 394.335C510.792 394.256 510.999 393.922 510.92 393.588C510.099 390.119 506.189 382.869 497.061 381.266C496.723 381.207 496.402 381.432 496.343 381.769C496.283 382.107 496.509 382.428 496.846 382.488ZM528.472 397.642C528.578 397.316 528.4 396.966 528.075 396.86C519.459 394.045 512.181 396.525 509.552 398.175C509.261 398.357 509.174 398.74 509.356 399.03C509.538 399.32 509.921 399.408 510.211 399.226C512.566 397.748 519.464 395.352 527.689 398.039C528.015 398.145 528.365 397.968 528.472 397.642Z" fill="#54A06F"/>
</g>
</g>
</g>
<g id="dirt">
<path id="dirt outline" d="M829.698 600.944L829.424 602.313C827.095 601.902 824.904 601.491 822.712 601.081C818.877 600.396 815.178 599.711 811.891 599.163C796.824 596.697 786.276 595.602 775.318 596.697C774.77 596.697 774.36 596.834 773.812 596.834C768.607 597.656 762.032 599.711 754.498 602.039C735.184 608.203 708.611 616.422 684.503 608.477C652.862 597.93 614.098 595.054 590.127 601.492C579.717 604.231 543.418 612.861 515.749 605.738C495.75 600.67 478.08 598.478 456.575 604.231C454.11 604.916 451.37 605.464 448.357 606.149C440.823 607.792 431.645 609.299 423.016 610.669C421.098 610.943 419.181 611.217 417.4 611.491L417.126 610.121C418.907 609.847 420.687 609.573 422.468 609.299C430.824 608.066 439.59 606.56 446.987 605.053C450.411 604.368 453.562 603.683 456.164 602.998C477.943 597.245 495.75 599.437 516.023 604.505C534.514 609.162 562.047 607.518 589.716 600.259C614.235 593.684 652.451 596.56 684.914 607.244C708.474 615.052 734.773 606.834 753.95 600.807C761.895 598.341 768.88 596.149 774.223 595.465C774.496 595.465 774.77 595.328 775.044 595.328C786.276 594.232 797.098 595.328 812.576 597.93C815.863 598.478 819.425 599.163 823.26 599.848C825.315 600.122 827.506 600.533 829.698 600.944Z" fill="#63432E"/>
<path id="large dirt" d="M822.961 600.988C813.509 621.444 773.371 637.096 751.453 645.882C725.836 656.179 738.987 692.974 688.301 702.447C637.616 712.057 612.684 669.359 550.765 678.558C488.846 687.756 496.791 656.179 459.668 643.686C439.119 636.821 428.023 623.778 422.955 610.461C431.722 609.088 440.763 607.578 448.297 605.93C451.311 605.244 454.051 604.695 456.517 604.008C477.887 598.242 495.696 600.438 515.696 605.518C543.368 612.52 579.67 604.008 590.081 601.262C614.054 594.809 652.821 597.83 684.466 608.264C708.439 616.227 735.015 607.852 754.467 601.811C762.001 599.477 768.577 597.418 773.782 596.594C774.33 596.457 774.878 596.457 775.289 596.457C786.248 595.359 796.933 596.457 811.865 598.928C815.427 599.752 818.989 600.301 822.961 600.988Z" fill="#C47B57"/>
</g>
</g>
<g id="grown up pumpkin">
<path id="Vector_3" d="M756.986 476.156C754.378 476.486 752.673 477.527 752.149 477.837C751.626 478.148 749.57 479.028 748.004 481.614C745.368 476.552 741.807 467.041 743.886 454.65C743.872 454.771 743.886 454.649 747.77 453.845C746.271 467.095 749.934 473.984 756.986 476.156Z" fill="#44150E"/>
<path id="Vector_4" d="M817.588 524.427C812.757 533.397 806.194 538.566 800.352 541.607C804.998 538.865 809.962 534.319 813.479 526.738C820.713 510.864 818.663 498.148 809.453 483.677C800.311 469.152 785.414 465.333 776.019 467.255C774.514 467.582 773.049 468.097 771.76 468.693C774.123 467.234 776.648 465.976 779.604 465.255C790.181 462.604 806.502 465.719 815.778 480.136C825.122 494.499 826.716 507.472 817.588 524.427Z" fill="#B9542F"/>
<path id="Vector (Stroke)_3" fill-rule="evenodd" clip-rule="evenodd" d="M779.538 464.987C776.544 465.717 773.992 466.99 771.615 468.457L771.875 468.942C773.148 468.355 774.593 467.847 776.076 467.524C785.362 465.625 800.141 469.398 809.22 483.823L809.221 483.824C813.811 491.037 816.605 497.793 817.358 504.71C818.112 511.624 816.829 518.721 813.229 526.622C809.737 534.147 804.814 538.652 800.212 541.369L800.479 541.851C806.362 538.788 812.969 533.584 817.831 524.557L817.831 524.557C822.412 516.047 824.314 508.514 823.885 501.292C823.456 494.072 820.698 487.192 816.01 479.985C806.659 465.453 790.208 462.312 779.538 464.987ZM774.979 467.226C776.437 466.522 777.983 465.934 779.67 465.522L779.671 465.522C790.155 462.894 806.345 465.984 815.546 480.284L815.547 480.285C820.202 487.442 822.913 494.23 823.335 501.325C823.756 508.419 821.892 515.85 817.345 524.296C814.112 530.298 810.101 534.586 806.053 537.669C808.886 535.005 811.577 531.492 813.729 526.854L813.73 526.852C817.363 518.879 818.672 511.681 817.907 504.651C817.141 497.623 814.305 490.786 809.686 483.528C800.481 468.904 785.468 465.04 775.964 466.985L775.96 466.985L775.96 466.985C775.631 467.057 775.303 467.137 774.979 467.226Z" fill="#7D2B1B"/>
<path id="Vector_5" d="M813.425 526.671C809.908 534.252 804.944 538.798 800.298 541.54C799.452 542 798.606 542.459 797.827 542.865C797.961 542.757 798.095 542.649 798.296 542.487C801.223 540.354 803.997 536.796 805.609 530.969C809.325 517.041 806.173 504.879 797.286 490.259C788.399 475.639 776.309 470.226 769.196 470.865C768.887 470.892 768.578 470.92 768.201 471.002C767.892 471.03 767.637 471.124 767.261 471.206C768.657 470.194 770.107 469.248 771.718 468.504C773.008 467.909 774.405 467.448 775.978 467.067C785.373 465.145 800.203 469.017 809.412 483.488C818.608 498.081 820.713 510.863 813.425 526.671Z" fill="#B9542F"/>
<path id="Vector (Stroke)_4" fill-rule="evenodd" clip-rule="evenodd" d="M766.035 471.754L767.319 471.476C767.458 471.445 767.585 471.413 767.698 471.383C767.742 471.372 767.784 471.361 767.823 471.351C767.968 471.315 768.093 471.288 768.226 471.276L768.244 471.275L768.26 471.271C768.618 471.194 768.912 471.167 769.221 471.139C776.195 470.513 788.198 475.838 797.051 490.402C805.915 504.984 809.033 517.067 805.343 530.897C803.746 536.669 801.005 540.172 798.134 542.264L798.124 542.272L797.654 542.65L797.954 543.109C798.736 542.703 799.584 542.242 800.43 541.783L800.438 541.778C805.127 539.01 810.132 534.423 813.675 526.787C817.336 518.846 818.645 511.648 817.874 504.594C817.104 497.543 814.258 490.659 809.646 483.341L809.645 483.34C800.374 468.772 785.429 464.852 775.923 466.797L775.913 466.799C774.327 467.183 772.912 467.65 771.603 468.254C769.968 469.009 768.502 469.966 767.099 470.983L766.035 471.754ZM768.512 470.664C769.564 469.952 770.657 469.298 771.834 468.755C773.103 468.169 774.481 467.714 776.038 467.336C785.323 465.439 800.034 469.265 809.18 483.636C813.764 490.91 816.568 497.713 817.326 504.654C818.085 511.591 816.802 518.688 813.175 526.555C809.685 534.078 804.764 538.583 800.162 541.3C800.147 541.309 800.132 541.317 800.116 541.325C802.455 539.097 804.554 535.818 805.875 531.043L805.876 531.04C809.618 517.014 806.432 504.774 797.522 490.116C788.601 475.44 776.423 469.939 769.172 470.59L769.168 470.59C768.962 470.609 768.748 470.628 768.512 470.664Z" fill="#7D2B1B"/>
<path id="Vector_6" d="M805.663 531.035C804.105 536.93 801.277 540.421 798.351 542.553C798.216 542.661 798.082 542.769 797.881 542.931C796.498 543.823 795.074 544.526 793.744 544.933C793.824 544.758 793.959 544.65 794.039 544.475C794.106 544.421 794.119 544.3 794.119 544.3C794.882 542.913 795.185 540.679 794.907 537.036C793.869 525.716 789.159 514.366 780.595 499.597C773.07 486.533 765.668 479.117 761.385 476.816C761.331 476.749 761.21 476.736 761.156 476.668C760.86 476.575 760.631 476.428 760.335 476.335C762.347 474.164 764.399 472.181 767.369 471.339C767.624 471.245 767.933 471.217 768.31 471.135C768.619 471.107 768.928 471.08 769.304 470.998C776.363 470.293 788.453 475.705 797.394 490.392C806.16 504.999 809.379 517.107 805.663 531.035Z" fill="#B9542F"/>
<path id="Vector (Stroke)_5" fill-rule="evenodd" clip-rule="evenodd" d="M767.284 471.078C764.239 471.944 762.144 473.977 760.133 476.148L759.837 476.467L760.252 476.598C760.382 476.639 760.498 476.692 760.631 476.753L760.636 476.755C760.749 476.807 760.874 476.864 761.014 476.912C761.033 476.927 761.051 476.939 761.067 476.948C761.099 476.968 761.133 476.983 761.153 476.992L761.156 476.994C761.17 477 761.179 477.004 761.185 477.007L761.206 477.033L761.255 477.059C763.355 478.188 766.251 480.59 769.568 484.353C772.88 488.113 776.602 493.217 780.356 499.735C788.914 514.492 793.6 525.801 794.632 537.06C794.91 540.693 794.599 542.855 793.878 544.168L793.851 544.216L793.846 544.267C793.846 544.267 793.846 544.266 793.846 544.267C793.846 544.267 793.845 544.269 793.845 544.27C793.845 544.272 793.844 544.276 793.843 544.279L793.815 544.302L793.788 544.361C793.763 544.417 793.728 544.465 793.672 544.538L793.667 544.545C793.616 544.612 793.547 544.703 793.494 544.819L793.238 545.377L793.825 545.197C795.186 544.781 796.632 544.065 798.031 543.164L798.043 543.156L798.518 542.773C801.495 540.602 804.357 537.057 805.93 531.107C809.672 517.08 806.419 504.894 797.631 490.251L797.63 490.25C788.656 475.508 776.478 470.005 769.277 470.724L769.262 470.726L769.246 470.729C768.888 470.807 768.594 470.834 768.285 470.861L768.268 470.863L768.251 470.867C768.123 470.894 768.007 470.915 767.892 470.935C767.842 470.944 767.793 470.953 767.744 470.962C767.589 470.991 767.432 471.024 767.284 471.078ZM760.811 476.229C762.731 474.181 764.685 472.388 767.444 471.605L767.455 471.602L767.465 471.599C767.569 471.56 767.69 471.533 767.844 471.504C767.886 471.496 767.931 471.489 767.977 471.48C768.091 471.46 768.219 471.437 768.351 471.409C768.651 471.382 768.967 471.353 769.347 471.271C776.266 470.59 788.257 475.915 797.159 490.536C805.902 505.106 809.087 517.135 805.397 530.965C803.855 536.8 801.062 540.237 798.188 542.331L798.178 542.339L797.72 542.708C796.602 543.427 795.462 544.019 794.374 544.428C794.377 544.415 794.38 544.404 794.383 544.393C795.17 542.93 795.459 540.636 795.182 537.016L795.182 537.011C794.138 525.631 789.405 514.239 780.834 499.46C777.063 492.914 773.321 487.779 769.981 483.989C766.663 480.224 763.731 477.773 761.552 476.593C761.524 476.569 761.497 476.551 761.475 476.537C761.442 476.518 761.409 476.503 761.389 476.494L761.386 476.492C761.372 476.486 761.363 476.482 761.357 476.479L761.319 476.431L761.239 476.406C761.11 476.366 760.994 476.313 760.861 476.252L760.855 476.249C760.841 476.243 760.826 476.236 760.811 476.229Z" fill="#7D2B1B"/>
<path id="Vector_7" d="M794.92 536.915C795.266 540.505 794.895 542.792 794.132 544.179C794.065 544.233 794.052 544.354 794.052 544.354C793.972 544.529 793.838 544.637 793.758 544.812C792.833 545.998 791.839 546.687 790.993 547.146C790.013 547.714 789.046 548.16 787.567 548.245C787.379 548.286 787.258 548.273 787.016 548.247C786.894 548.234 786.894 548.234 786.773 548.22C785.2 548.05 783.086 547.209 780.202 544.998C771.268 538.151 764.142 528.192 756.114 512.992C749.046 499.671 746.653 489.552 747.003 484.629C747.016 484.508 747.029 484.387 747.029 484.387C747.069 484.023 747.095 483.781 747.188 483.485C747.268 483.31 747.228 483.122 747.308 482.947C747.548 482.422 747.789 481.897 748.084 481.439C749.651 478.852 751.706 477.973 752.23 477.662C752.753 477.351 754.404 476.244 757.066 475.981C757.873 475.885 758.855 475.869 759.823 475.973C759.944 475.987 760.119 476.067 760.294 476.147C760.591 476.24 760.82 476.388 761.116 476.481C761.17 476.548 761.291 476.561 761.345 476.628C761.399 476.695 761.399 476.695 761.52 476.708C762.382 477.23 763.419 477.833 764.538 478.811C768.81 482.336 774.624 489.152 780.608 499.476C789.16 514.366 793.869 525.716 794.92 536.915Z" fill="#B9542F"/>
<path id="Vector (Stroke)_6" fill-rule="evenodd" clip-rule="evenodd" d="M747.85 481.293C747.545 481.766 747.299 482.305 747.061 482.823L747.057 482.832C746.998 482.961 746.984 483.09 746.975 483.175C746.975 483.179 746.974 483.183 746.974 483.186C746.963 483.283 746.956 483.33 746.937 483.37L746.93 483.386L746.925 483.402C746.824 483.724 746.795 483.99 746.756 484.344L746.755 484.357M747.85 481.293C749.278 478.936 751.112 477.952 751.86 477.551C751.955 477.5 752.032 477.458 752.089 477.425C752.125 477.403 752.168 477.377 752.216 477.348C752.855 476.959 754.5 475.958 757.036 475.707C757.863 475.608 758.864 475.592 759.853 475.699C759.951 475.71 760.054 475.745 760.139 475.778C760.223 475.811 760.312 475.852 760.394 475.889C760.552 475.94 760.691 476.004 760.814 476.061L760.82 476.063C760.953 476.124 761.069 476.177 761.198 476.218L761.278 476.243L761.316 476.29C761.322 476.293 761.331 476.297 761.345 476.304L761.348 476.305C761.368 476.314 761.401 476.33 761.434 476.349C761.464 476.367 761.503 476.393 761.54 476.433L761.549 476.434L761.61 476.441L761.662 476.472C761.725 476.51 761.788 476.548 761.853 476.587C762.675 477.083 763.66 477.678 764.716 478.601C769.021 482.154 774.853 488.998 780.847 499.338L780.847 499.339C789.404 514.238 794.138 525.63 795.195 536.889C795.542 540.498 795.177 542.852 794.374 544.312L794.348 544.36L794.328 544.375C794.327 544.379 794.327 544.382 794.326 544.385C794.326 544.386 794.326 544.386 794.326 544.387C794.326 544.387 794.326 544.388 794.326 544.387L794.321 544.428L794.303 544.469C794.25 544.584 794.181 544.676 794.129 544.743L794.125 544.75C794.069 544.823 794.034 544.871 794.008 544.927L793.995 544.956L793.975 544.982C793.022 546.203 791.998 546.914 791.128 547.387C790.133 547.963 789.128 548.428 787.603 548.519C787.383 548.564 787.225 548.547 787.001 548.522L786.744 548.494C785.1 548.316 782.939 547.443 780.035 545.216C771.053 538.333 763.904 528.333 755.87 513.121C752.329 506.447 749.956 500.57 748.512 495.74C747.07 490.915 746.549 487.118 746.728 484.609L746.755 484.357M752.125 478.035C752.224 477.981 752.307 477.936 752.37 477.899C752.407 477.877 752.45 477.851 752.498 477.822C753.126 477.44 754.682 476.493 757.093 476.255L757.099 476.255C757.885 476.161 758.846 476.145 759.794 476.247C759.816 476.25 759.862 476.262 759.938 476.291C760.01 476.32 760.09 476.356 760.18 476.397L760.195 476.405L760.211 476.41C760.341 476.45 760.457 476.503 760.59 476.564L760.596 476.567C760.708 476.618 760.833 476.676 760.973 476.724C760.992 476.739 761.01 476.75 761.026 476.76C761.059 476.779 761.092 476.794 761.112 476.803L761.115 476.805C761.129 476.811 761.138 476.815 761.143 476.818C761.168 476.848 761.218 476.905 761.292 476.939C761.336 476.959 761.377 476.967 761.405 476.972C761.412 476.973 761.42 476.974 761.428 476.975C761.473 477.002 761.519 477.03 761.565 477.058C762.388 477.554 763.337 478.127 764.356 479.019L764.362 479.024C768.601 482.521 774.395 489.307 780.369 499.614C788.915 514.493 793.6 525.802 794.646 536.941C794.987 540.48 794.62 542.693 793.909 544.012C793.847 544.082 793.818 544.161 793.804 544.204C793.797 544.228 793.791 544.249 793.787 544.267C793.763 544.312 793.731 544.356 793.685 544.417L793.68 544.423C793.634 544.484 793.572 544.565 793.522 544.666C792.631 545.8 791.678 546.461 790.862 546.904L790.855 546.908C789.895 547.463 788.971 547.888 787.551 547.97L787.529 547.971L787.508 547.976C787.369 548.006 787.289 547.999 787.045 547.972L786.803 547.946C785.299 547.783 783.232 546.973 780.37 544.779C771.483 537.968 764.379 528.052 756.358 512.863C752.831 506.216 750.473 500.372 749.041 495.582C747.608 490.79 747.107 487.067 747.277 484.653L747.287 484.565L747.287 484.562L747.288 484.56L747.303 484.419L747.303 484.418L747.303 484.417C747.342 484.057 747.366 483.842 747.447 483.582C747.499 483.459 747.512 483.338 747.521 483.256C747.521 483.253 747.522 483.249 747.522 483.246C747.532 483.149 747.54 483.102 747.558 483.062C747.801 482.533 748.033 482.026 748.316 481.588L748.32 481.581C749.666 479.359 751.372 478.44 752.125 478.035Z" fill="#7D2B1B"/>
<path id="Vector_8" d="M781.27 552.095C775.576 555.459 767.676 558.278 757.521 557.607C738.3 556.382 728.112 548.113 720.85 532.628C713.534 517.076 719.68 501.635 727.487 494.029C729.741 491.884 732.05 490.358 734.562 489.222C733.313 490.005 732.172 490.923 731.126 492.095C724.501 498.972 719.846 513.656 727.296 529.101C734.746 544.545 744.411 553.125 761.684 555.363C769.957 556.443 776.462 554.636 781.27 552.095Z" fill="#B9542F"/>
<path id="Vector (Stroke)_7" fill-rule="evenodd" clip-rule="evenodd" d="M734.448 488.971C731.908 490.12 729.573 491.664 727.297 493.829L727.295 493.831L727.295 493.831C719.421 501.502 713.225 517.066 720.601 532.746C724.244 540.516 728.633 546.498 734.542 550.69C740.451 554.883 747.856 557.267 757.503 557.882C767.722 558.557 775.677 555.72 781.41 552.332L781.141 551.851C776.378 554.369 769.931 556.161 761.72 555.09L761.719 555.09C753.123 553.976 746.438 551.287 740.977 546.968C735.514 542.647 731.258 536.68 727.544 528.981C720.145 513.642 724.778 499.082 731.325 492.287L731.332 492.279L731.332 492.279C732.359 491.128 733.478 490.227 734.708 489.455L734.448 488.971ZM731.783 491.02C731.49 491.3 731.204 491.595 730.924 491.908C724.222 498.868 719.548 513.674 727.048 529.221C730.784 536.966 735.085 543.011 740.635 547.4C746.188 551.792 752.972 554.512 761.648 555.636C766.595 556.282 770.916 555.904 774.627 554.953C769.902 556.698 764.212 557.773 757.539 557.332L757.538 557.332C747.965 556.722 740.666 554.36 734.861 550.241C729.054 546.121 724.718 540.227 721.1 532.511L721.1 532.511C713.844 517.087 719.938 501.769 727.678 494.227C729.017 492.954 730.374 491.901 731.783 491.02Z" fill="#7D2B1B"/>
<path id="Vector_9" d="M783.62 550.758C782.895 551.231 782.049 551.69 781.203 552.15C776.395 554.691 769.891 556.498 761.617 555.418C744.344 553.18 734.679 544.6 727.229 529.156C719.779 513.711 724.434 499.027 731.06 492.15C732.16 491.045 733.367 490.073 734.495 489.277C735.945 488.331 737.557 487.587 739.155 486.964C738.954 487.126 738.74 487.409 738.471 487.625C738.257 487.908 738.056 488.07 737.841 488.353C733.499 493.946 731.704 507.102 739.355 522.385C747.061 537.734 755.624 546.868 769.379 551.053C775.247 552.852 779.711 552.356 783.042 551.002C783.298 550.907 783.486 550.866 783.62 550.758Z" fill="#B9542F"/>
<path id="Vector (Stroke)_8" fill-rule="evenodd" clip-rule="evenodd" d="M734.336 489.051C733.198 489.855 731.978 490.837 730.864 491.956L730.861 491.959L730.861 491.959C724.157 498.918 719.48 513.726 726.981 529.275C730.717 537.02 735.018 543.066 740.568 547.455C746.121 551.847 752.905 554.567 761.582 555.691C769.917 556.779 776.478 554.959 781.331 552.393L781.334 552.392L781.34 552.389C782.14 551.954 782.951 551.514 783.659 551.061C783.705 551.036 783.75 551.007 783.792 550.973L783.469 550.527C783.44 550.546 783.411 550.565 783.382 550.583C783.356 550.597 783.323 550.61 783.28 550.626C783.24 550.641 783.196 550.656 783.143 550.674L783.133 550.678C783.077 550.697 783.014 550.718 782.946 550.743L782.938 550.746L782.938 550.746C779.67 552.074 775.272 552.572 769.46 550.789L769.459 550.789C755.803 546.634 747.288 537.572 739.602 522.261C731.978 507.036 733.804 494.002 738.059 488.522L738.061 488.519L738.061 488.519C738.158 488.391 738.253 488.289 738.357 488.177L738.36 488.174C738.457 488.071 738.562 487.958 738.67 487.818C738.81 487.703 738.933 487.575 739.038 487.464C739.044 487.458 739.05 487.451 739.057 487.445C739.166 487.33 739.25 487.242 739.328 487.179L740.722 486.058L739.055 486.707C737.447 487.334 735.816 488.086 734.344 489.046L734.336 489.051L734.336 489.051ZM780.945 551.974C776.195 554.455 769.791 556.207 761.653 555.145L761.653 555.144C753.056 554.031 746.371 551.342 740.91 547.023C735.447 542.702 731.191 536.735 727.477 529.036C720.079 513.698 724.711 499.139 731.256 492.343C732.341 491.253 733.534 490.293 734.65 489.505C735.707 488.816 736.854 488.234 738.023 487.727C738.001 487.751 737.978 487.776 737.955 487.801L737.952 487.804C737.849 487.913 737.738 488.033 737.622 488.185C733.192 493.892 731.429 507.17 739.109 522.508L739.109 522.508C746.833 537.896 755.445 547.102 769.298 551.316C774.024 552.765 777.862 552.743 780.945 551.974Z" fill="#7D2B1B"/>
<path id="Vector_10" d="M787.499 548.299C786.426 549.163 785.164 550.067 783.619 550.757C783.431 550.798 783.297 550.906 783.109 550.947C779.777 552.301 775.314 552.797 769.446 550.998C755.691 546.814 747.073 537.612 739.422 522.33C731.716 506.981 733.565 493.891 737.908 488.298C738.122 488.015 738.27 487.786 738.538 487.57C738.752 487.287 738.954 487.125 739.222 486.909C741.53 484.832 744.298 484.152 747.175 483.606C747.148 483.848 747.055 484.144 747.016 484.508C747.003 484.629 746.989 484.75 746.989 484.75C746.639 489.673 749.032 499.792 756.1 513.113C764.074 528.246 771.201 538.204 780.189 545.119C783.072 547.33 785.186 548.171 786.76 548.341C786.881 548.354 786.881 548.354 787.002 548.368C787.19 548.327 787.311 548.34 787.499 548.299Z" fill="#B9542F"/>
<path id="Vector (Stroke)_9" fill-rule="evenodd" clip-rule="evenodd" d="M739.043 486.699L739.042 486.7C738.785 486.907 738.566 487.083 738.339 487.377C738.101 487.574 737.944 487.786 737.786 488C737.754 488.043 737.722 488.087 737.689 488.13C733.26 493.836 731.442 507.048 739.175 522.454C746.846 537.774 755.512 547.047 769.365 551.262C775.276 553.074 779.799 552.584 783.192 551.21C783.305 551.183 783.4 551.139 783.472 551.106L783.48 551.102C783.563 551.064 783.618 551.04 783.678 551.027L783.706 551.02L783.732 551.009C785.307 550.305 786.59 549.384 787.672 548.514L788.582 547.782L787.441 548.03C787.365 548.046 787.303 548.052 787.226 548.059L787.222 548.059C787.157 548.065 787.08 548.072 786.989 548.089L786.79 548.067C785.285 547.904 783.219 547.094 780.357 544.9C771.416 538.022 764.312 528.105 756.344 512.984C752.818 506.337 750.459 500.493 749.027 495.703C747.594 490.911 747.093 487.188 747.264 484.774L747.29 484.537C747.308 484.37 747.339 484.217 747.37 484.068C747.373 484.053 747.376 484.038 747.379 484.023C747.407 483.894 747.435 483.759 747.449 483.636L747.489 483.266L747.123 483.335C744.246 483.881 741.411 484.571 739.043 486.699ZM746.715 484.72L746.714 484.73C746.536 487.239 747.057 491.036 748.499 495.861C749.943 500.691 752.316 506.568 755.857 513.241C763.837 528.387 770.986 538.387 780.021 545.337C782.882 547.531 785.022 548.411 786.656 548.607C785.753 549.288 784.728 549.957 783.531 550.495C783.42 550.522 783.326 550.566 783.256 550.598L783.248 550.602C783.165 550.64 783.11 550.664 783.05 550.677L783.027 550.682L783.005 550.691C779.737 552.019 775.339 552.517 769.526 550.734C755.87 546.58 747.3 537.45 739.668 522.207C731.992 506.915 733.87 493.947 738.125 488.467L738.127 488.465C738.168 488.411 738.205 488.361 738.24 488.314C738.402 488.096 738.518 487.94 738.711 487.785L738.737 487.764L738.758 487.737C738.949 487.484 739.126 487.34 739.395 487.124L739.401 487.119L739.406 487.114C741.549 485.185 744.105 484.487 746.831 483.953C746.831 483.954 746.83 483.954 746.83 483.955C746.799 484.105 746.763 484.282 746.742 484.478L746.715 484.719L746.715 484.72Z" fill="#7D2B1B"/>
</g>
<g id="full pum[kin">
<g id="pumpkin">
<g id="pumpkin body final">
<path id="Vector_11" d="M1114.38 222.046C1090.18 237.513 1066.72 241.342 1048.09 240.933C1063.45 240.524 1082 236.063 1101.04 222.046C1140.86 192.712 1153.01 158.247 1150.26 109.728C1147.51 61.2098 1115.95 31.2435 1090.07 23.2129C1085.79 21.8744 1081.63 21.168 1077.58 20.8706C1085.39 20.4244 1093.34 20.9449 1101.78 23.2129C1131.56 31.2435 1167.89 61.2098 1171.08 109.728C1174.24 158.284 1160.23 192.749 1114.38 222.046Z" fill="#B9542F"/>
<path id="Vector (Stroke)_10" fill-rule="evenodd" clip-rule="evenodd" d="M1094.19 23.0899C1119.84 32.8725 1149.07 62.7723 1151.73 109.646C1153.11 134.041 1150.75 155.028 1142.97 173.648C1135.17 192.283 1121.99 208.433 1101.91 223.227L1101.91 223.228C1094.34 228.798 1086.85 232.884 1079.59 235.817C1090.43 232.988 1101.92 228.27 1113.6 220.811C1136.35 206.269 1151.1 190.517 1159.79 172.474C1168.48 154.424 1171.19 133.942 1169.62 109.824C1166.47 62.0484 1130.7 32.5297 1101.4 24.6296C1098.96 23.974 1096.56 23.4672 1094.19 23.0899ZM1077.49 19.4071C1085.43 18.9537 1093.55 19.4819 1102.16 21.7973L1102.16 21.7976C1132.43 29.9592 1169.3 60.3726 1172.55 109.633L1172.55 109.634C1174.14 134.072 1171.41 155.1 1162.43 173.746C1153.44 192.399 1138.26 208.528 1115.17 223.282L1114.38 222.047L1115.17 223.282C1090.68 238.932 1066.93 242.814 1048.06 242.4L1048.06 239.468C1063.14 239.066 1081.4 234.687 1100.17 220.866C1119.9 206.326 1132.71 190.576 1140.26 172.516C1147.82 154.441 1150.17 133.936 1148.8 109.812C1146.08 61.9137 1114.94 32.466 1089.64 24.6139L1089.63 24.6129C1085.48 23.3122 1081.43 22.6239 1077.47 22.3336L1077.49 19.4071Z" fill="#7D2B1B"/>
<path id="Vector_12" d="M1101.04 222.047C1082 236.063 1063.45 240.525 1048.09 240.934C1045.38 241.008 1042.74 240.934 1040.25 240.785C1040.77 240.748 1041.33 240.673 1041.85 240.636C1052 239.409 1063.75 234.465 1075.79 222.047C1104.23 192.712 1112.9 158.248 1110.93 109.729C1108.96 61.2103 1086.43 31.244 1067.95 23.2134C1067.09 22.8416 1066.24 22.507 1065.42 22.2467C1064.56 21.9493 1063.75 21.7262 1062.89 21.5403C1067.69 20.8711 1072.6 20.5365 1077.58 20.9083C1081.63 21.2057 1085.79 21.9121 1090.07 23.2505C1115.95 31.2812 1147.51 61.2475 1150.26 109.766C1153.01 158.285 1140.86 192.75 1101.04 222.047Z" fill="#B9542F"/>
<path id="Vector (Stroke)_11" fill-rule="evenodd" clip-rule="evenodd" d="M1068.29 22.4215C1068.71 22.3889 1069.14 22.3599 1069.56 22.3348C1088.5 31.2955 1110.44 61.6776 1112.39 109.669C1114.37 158.417 1105.67 193.34 1076.85 223.067L1076.85 223.067C1068.93 231.231 1061.09 236.256 1053.71 239.133C1051.78 239.31 1049.89 239.418 1048.06 239.467L1048.05 239.467C1045.9 239.526 1043.79 239.49 1041.76 239.396L1041.74 239.173C1041.73 239.174 1041.72 239.175 1041.71 239.176C1051.48 237.986 1062.92 233.211 1074.74 221.025C1102.8 192.084 1111.42 158.078 1109.46 109.788C1107.51 61.6134 1085.15 32.2889 1067.36 24.5578L1067.36 24.5577C1066.54 24.199 1065.73 23.8844 1064.98 23.6437L1064.96 23.6377L1064.94 23.6313C1064.14 23.3554 1063.38 23.1477 1062.58 22.9728L1054.54 21.2248L1062.69 20.0876C1067.55 19.409 1072.57 19.0637 1077.69 19.4455C1081.83 19.7501 1086.11 20.4744 1090.51 21.8502C1116.96 30.0603 1148.94 60.5449 1151.73 109.683C1153.11 134.078 1150.75 155.065 1142.97 173.68C1135.17 192.311 1121.99 208.451 1101.91 223.227C1082.61 237.439 1063.76 241.983 1048.13 242.399M1048.09 240.946C1049.93 240.473 1051.8 239.874 1053.71 239.133C1067.6 237.858 1083.68 233.002 1100.17 220.866L1100.17 220.865C1119.9 206.344 1132.71 190.603 1140.26 172.548C1147.82 154.477 1150.17 133.972 1148.8 109.849C1146.08 61.9504 1114.94 32.5027 1089.63 24.6506L1089.63 24.6495C1085.48 23.3489 1081.42 22.6606 1077.47 22.3703L1077.47 22.3702C1074.82 22.1723 1072.18 22.1796 1069.56 22.3348M1048.13 242.399C1045.37 242.475 1042.68 242.399 1040.16 242.248L1040.15 239.322C1040.38 239.305 1040.62 239.28 1040.9 239.252L1040.91 239.25C1041.16 239.225 1041.43 239.196 1041.71 239.176" fill="#7D2B1B"/>
<path id="Vector_13" d="M1075.75 222.047C1063.71 234.464 1051.96 239.372 1041.81 240.636C1041.29 240.71 1040.73 240.748 1040.21 240.785C1035.49 241.194 1031.14 240.822 1027.31 240.078C1027.76 239.855 1028.24 239.632 1028.72 239.335C1028.91 239.223 1029.06 239.112 1029.24 239C1032.92 236.546 1036.98 231.453 1041.07 222.047C1053.86 192.712 1057.76 158.247 1056.87 109.729C1056.09 66.8985 1048.09 38.5681 1040.55 26.9683C1040.4 26.7452 1040.25 26.5221 1040.1 26.2991C1039.58 25.5555 1039.06 24.8862 1038.54 24.2914C1046.49 21.726 1054.38 19.5325 1062.89 21.5773C1063.71 21.7632 1064.56 22.0235 1065.42 22.2837C1066.27 22.5812 1067.09 22.8786 1067.95 23.2504C1086.43 31.281 1108.96 61.2473 1110.93 109.766C1112.86 158.285 1104.2 192.75 1075.75 222.047Z" fill="#B9542F"/>
<path id="Vector (Stroke)_12" fill-rule="evenodd" clip-rule="evenodd" d="M1041.01 25.0462C1041.11 25.1813 1041.2 25.3186 1041.3 25.4581L1041.31 25.4717L1041.77 26.1616L1041.78 26.1685C1045.69 32.181 1049.62 42.3592 1052.68 56.3235C1055.74 70.3172 1057.94 88.2047 1058.33 109.702C1058.33 109.702 1058.33 109.702 1058.33 109.702C1059.23 158.286 1055.33 193.005 1042.41 222.631L1041.07 222.049L1042.41 222.633C1042.41 222.632 1042.41 222.632 1042.41 222.631C1038.74 231.082 1035.02 236.283 1031.41 239.219C1030.66 239.136 1029.92 239.037 1029.2 238.922L1028.49 237.743C1028.48 237.749 1028.47 237.756 1028.46 237.763C1031.79 235.53 1035.69 230.738 1039.72 221.462L1039.72 221.46C1052.39 192.418 1056.29 158.208 1055.4 109.756C1055.01 88.4228 1052.83 70.7297 1049.81 56.9506C1046.79 43.1479 1042.96 33.3633 1039.32 27.7748L1039.33 27.7816L1040.55 26.9682L1039.32 27.7679C1039.32 27.7702 1039.32 27.7725 1039.32 27.7748L1038.89 27.1265C1038.89 27.131 1038.9 27.1354 1038.9 27.1399L1040.1 26.299L1038.88 27.1124L1038.89 27.1265C1038.4 26.4255 1037.91 25.8032 1037.44 25.2569L1035.97 23.5796L1038.09 22.8957C1046.04 20.3329 1054.27 18.0025 1063.23 20.1493C1064.09 20.3468 1064.99 20.619 1065.82 20.8728L1065.87 20.8892L1065.9 20.8987C1066.77 21.1999 1067.63 21.5115 1068.53 21.9054M1040.33 242.247C1035.46 242.667 1030.97 242.283 1027.03 241.518L1022.8 240.696L1026.66 238.767C1026.76 238.714 1026.86 238.664 1026.96 238.616C1027.32 238.438 1027.63 238.285 1027.96 238.086L1027.96 238.082L1027.97 238.077C1028.03 238.042 1028.08 238.005 1028.17 237.947L1028.18 237.943C1028.25 237.894 1028.35 237.83 1028.46 237.763C1028.45 237.769 1028.44 237.774 1028.43 237.78L1029.19 238.921C1028.92 238.879 1028.66 238.834 1028.4 238.788C1028.39 238.787 1028.39 238.787 1028.39 238.786C1028.12 238.739 1027.85 238.69 1027.59 238.639L1027.31 240.078L1027.97 241.39C1028.04 241.354 1028.12 241.315 1028.2 241.274C1028.57 241.093 1029.03 240.865 1029.49 240.588C1029.61 240.516 1029.71 240.445 1029.79 240.393L1029.8 240.388C1029.88 240.33 1029.94 240.293 1030 240.258L1030.03 240.24L1030.06 240.22C1030.51 239.921 1030.96 239.588 1031.41 239.219C1034.11 239.515 1037.02 239.589 1040.09 239.324L1040.1 239.323L1040.19 239.316C1040.7 239.28 1041.17 239.247 1041.6 239.184L1041.62 239.183L1041.63 239.181C1051.42 237.961 1062.87 233.223 1074.7 221.026C1102.76 192.121 1111.39 158.115 1109.46 109.824C1109.46 109.825 1109.46 109.825 1109.46 109.825L1110.93 109.766L1109.46 109.824C1107.5 61.6503 1085.15 32.3262 1067.36 24.5952C1066.57 24.2493 1065.8 23.9684 1064.96 23.6781C1064.97 23.6809 1064.98 23.6837 1064.99 23.6865L1065.42 22.2837L1064.94 23.6687C1064.95 23.6718 1064.96 23.675 1064.96 23.6781C1064.11 23.4178 1063.32 23.1774 1062.57 23.0072L1062.56 23.0052L1062.55 23.0031C1055.16 21.2285 1048.23 22.7995 1041.01 25.0462M1040.34 242.246L1040.21 240.785L1040.32 242.247L1040.33 242.247M1040.34 242.246L1040.42 242.24C1040.9 242.206 1041.47 242.166 1042 242.09C1052.51 240.779 1064.55 235.701 1076.81 223.068C1105.63 193.378 1114.33 158.454 1112.39 109.708L1112.39 109.706C1110.41 60.844 1087.7 30.2359 1068.53 21.9054M1076.81 223.068C1076.81 223.068 1076.81 223.068 1076.81 223.068ZM1042 242.09C1042.01 242.089 1042.01 242.088 1042.02 242.088L1041.81 240.636L1041.99 242.091C1042 242.091 1042 242.09 1042 242.09Z" fill="#7D2B1B"/>
<path id="Vector_14" d="M1041.07 222.047C1036.98 231.453 1032.93 236.546 1029.24 239C1029.06 239.112 1028.91 239.223 1028.72 239.335C1028.24 239.632 1027.79 239.855 1027.31 240.078C1023.37 241.826 1019.88 242.049 1017.24 242.012C1014.04 241.975 1011.1 241.826 1007.16 240.078C1006.71 239.855 1006.23 239.632 1005.75 239.335C1005.56 239.223 1005.41 239.112 1005.23 239C1001.55 236.546 997.494 231.453 993.404 222.047C980.614 192.712 976.711 158.247 977.603 109.729C978.384 66.8986 986.377 38.5682 993.924 26.9683C994.073 26.7453 994.222 26.5222 994.371 26.2991C994.891 25.5555 995.412 24.8863 995.932 24.2915C996.267 23.9197 996.564 23.5107 996.936 23.2504C998.274 22.1722 999.613 21.28 1000.91 20.5736C1008.35 16.3351 1014.6 17.0044 1016.34 17.0044C1017.98 17.0044 1023.7 16.5582 1030.62 19.3838C1032.81 20.2761 1035.16 21.5402 1037.54 23.2504C1037.91 23.5107 1038.2 23.9197 1038.5 24.2915C1039.02 24.8863 1039.54 25.5555 1040.06 26.2991C1040.21 26.5222 1040.36 26.7453 1040.51 26.9683C1040.58 27.0799 1040.66 27.2286 1040.77 27.3401C1042.29 29.7568 1043.86 32.8426 1045.34 36.5977C1051.18 51.2462 1056.27 76.0075 1056.87 109.729C1057.76 158.285 1053.86 192.75 1041.07 222.047Z" fill="#B9542F"/>
<path id="Vector (Stroke)_13" fill-rule="evenodd" clip-rule="evenodd" d="M1015.68 18.4567C1013.35 18.3892 1007.98 18.2336 1001.64 21.8474L1001.63 21.8549L1001.61 21.8621C1000.4 22.5232 999.131 23.3651 997.856 24.3922L997.817 24.4233L997.777 24.4516C997.728 24.4862 997.648 24.5563 997.512 24.7084C997.445 24.7826 997.377 24.862 997.294 24.9599L997.293 24.9608C997.216 25.0511 997.125 25.1574 997.03 25.2641C996.554 25.8087 996.071 26.4286 995.581 27.1264L995.149 27.7748C991.515 33.3633 987.68 43.1479 984.659 56.9506C981.643 70.7297 979.458 88.4225 979.069 109.755C978.178 158.207 982.086 192.418 994.748 221.46L994.749 221.462C998.782 230.738 1002.68 235.53 1006.01 237.763C1006.13 237.832 1006.23 237.898 1006.3 237.947C1006.39 238.005 1006.44 238.042 1006.5 238.077L1006.51 238.082L1006.52 238.086C1006.84 238.285 1007.15 238.438 1007.51 238.616C1007.6 238.659 1007.69 238.704 1007.78 238.751C1011.44 240.366 1014.14 240.509 1017.25 240.545L1017.26 240.545C1019.78 240.581 1023.04 240.368 1026.71 238.742C1027.16 238.534 1027.54 238.339 1027.96 238.086L1027.96 238.082L1027.97 238.077C1028.03 238.042 1028.08 238.005 1028.17 237.947C1028.24 237.898 1028.34 237.832 1028.46 237.763C1031.79 235.53 1035.69 230.738 1039.72 221.462L1039.72 221.46C1052.39 192.455 1056.29 158.245 1055.4 109.756L1055.4 109.755C1054.81 76.1453 1049.73 51.5731 1043.98 37.1404L1043.98 37.1375C1042.54 33.5033 1041.04 30.5349 1039.59 28.2231C1039.5 28.1142 1039.44 28.0147 1039.39 27.947C1039.36 27.9024 1039.34 27.8583 1039.32 27.8312L1039.31 27.8223L1039.29 27.7899C1039.29 27.7845 1039.29 27.7819 1039.29 27.7814L1038.85 27.1264C1038.36 26.4254 1037.88 25.8032 1037.4 25.2569L1037.38 25.2326L1037.36 25.2074C1037.31 25.1545 1037.28 25.1053 1037.24 25.0595C1036.95 24.697 1036.83 24.546 1036.69 24.4516L1036.69 24.4464L1036.68 24.441C1034.39 22.7969 1032.15 21.5896 1030.07 20.742L1030.07 20.7411C1024.12 18.3126 1019.13 18.4163 1016.96 18.4613C1016.72 18.4663 1016.51 18.4706 1016.34 18.4706C1016.16 18.4706 1015.94 18.4642 1015.68 18.4567ZM1015.73 15.5239C1015.98 15.5315 1016.18 15.5378 1016.34 15.5378C1016.5 15.5378 1016.69 15.5335 1016.92 15.5284C1019.09 15.4802 1024.64 15.3571 1031.17 18.0261C1033.48 18.9621 1035.92 20.2813 1038.38 22.0549C1038.9 22.4177 1039.31 22.9497 1039.56 23.2583C1039.58 23.2925 1039.61 23.3238 1039.63 23.352C1040.18 23.9851 1040.73 24.6881 1041.27 25.4581L1041.27 25.4717L1041.73 26.1548C1041.77 26.2091 1041.8 26.2618 1041.82 26.2919L1041.82 26.2931C1041.83 26.3133 1041.84 26.3272 1041.85 26.3381C1041.85 26.341 1041.85 26.3437 1041.85 26.3462L1041.92 26.419L1042.01 26.5577C1043.59 29.0648 1045.19 32.2347 1046.71 36.0576C1052.63 50.9223 1057.74 75.8715 1058.33 109.703L1056.87 109.729L1058.33 109.702C1058.33 109.702 1058.33 109.702 1058.33 109.703C1059.23 158.324 1055.33 193.044 1042.41 222.633C1042.41 222.632 1042.41 222.632 1042.41 222.631L1041.07 222.047L1042.41 222.633C1038.28 232.145 1034.08 237.539 1030.06 240.22L1030.03 240.24L1030 240.258C1029.94 240.293 1029.88 240.33 1029.8 240.388C1029.72 240.44 1029.61 240.513 1029.49 240.588C1029.49 240.586 1029.49 240.585 1029.49 240.584L1028.72 239.335L1029.48 240.592C1029.48 240.591 1029.48 240.589 1029.49 240.588C1028.94 240.925 1028.44 241.175 1027.93 241.41L1027.92 241.414L1027.91 241.419C1023.7 243.284 1019.97 243.517 1017.22 243.478C1013.95 243.44 1010.78 243.286 1006.57 241.419L1006.53 241.405L1006.5 241.39C1006.43 241.354 1006.35 241.315 1006.27 241.274C1005.9 241.093 1005.44 240.865 1004.99 240.588C1004.99 240.589 1004.99 240.591 1004.99 240.592L1005.75 239.335L1004.98 240.584C1004.98 240.585 1004.98 240.586 1004.99 240.588C1004.87 240.516 1004.76 240.445 1004.68 240.393L1004.67 240.388C1004.59 240.33 1004.53 240.293 1004.47 240.258L1004.44 240.24L1004.41 240.22C1000.39 237.538 996.196 232.145 992.06 222.633L993.404 222.047L992.059 222.631C992.059 222.632 992.06 222.632 992.06 222.633C979.143 193.006 975.243 158.287 976.137 109.702C976.529 88.2046 978.731 70.3171 981.794 56.3235C984.85 42.3591 988.783 32.1809 992.695 26.1685L992.7 26.1616L993.16 25.4717L993.169 25.4581C993.716 24.6773 994.269 23.9656 994.829 23.3257L994.835 23.318L994.842 23.3103C994.911 23.2342 994.98 23.1535 995.062 23.0569L995.071 23.0464C995.147 22.9571 995.237 22.8525 995.329 22.7496C995.509 22.5491 995.749 22.2997 996.05 22.0814C996.038 22.0904 996.027 22.0994 996.016 22.1083L996.936 23.2503L996.095 22.049C996.08 22.0597 996.065 22.0705 996.05 22.0814C997.436 20.9677 998.832 20.0366 1000.2 19.2919C1000.2 19.2944 1000.19 19.2969 1000.19 19.2994L1000.91 20.5734L1000.21 19.2847C1000.21 19.2871 1000.21 19.2895 1000.2 19.2919C1007.28 15.2635 1013.38 15.4516 1015.73 15.5239Z" fill="#7D2B1B"/>
<path id="Vector_15" d="M986.414 240.933C967.788 241.342 944.291 237.513 920.087 222.046C874.245 192.712 860.266 158.247 863.426 109.728C866.624 61.2098 902.947 31.2435 932.728 23.2129C941.13 20.9449 949.124 20.4244 956.931 20.8706C952.879 21.168 948.715 21.8744 944.439 23.2129C918.563 31.2435 886.998 61.2098 884.246 109.728C881.495 158.247 893.653 192.712 933.471 222.046C952.507 236.063 971.022 240.524 986.414 240.933Z" fill="#B9542F"/>
<path id="Vector (Stroke)_14" fill-rule="evenodd" clip-rule="evenodd" d="M940.326 23.0854C937.951 23.4632 935.548 23.9712 933.11 24.6292L933.11 24.6293C903.815 32.5289 868.038 62.0477 864.889 109.824C863.32 133.924 866.016 154.397 874.702 172.446C883.386 190.489 898.123 206.251 920.877 220.812C932.558 228.276 944.067 232.995 954.929 235.824C947.669 232.89 940.173 228.802 932.602 223.228L932.602 223.227C912.52 208.433 899.336 192.283 891.542 173.648C883.756 155.028 881.399 134.041 882.782 109.646C885.441 62.7652 914.675 32.8633 940.326 23.0854ZM944.241 22.5751C948.513 22.1387 952.702 22.0983 956.848 22.3352L956.931 20.8712L956.824 19.4087C952.675 19.7132 948.399 20.4376 944.003 21.8135C944.002 21.8136 944.002 21.8138 944.001 21.814L944.24 22.5752C944.24 22.5752 944.241 22.5751 944.241 22.5751ZM932.346 21.7976C940.927 19.4817 949.081 18.9538 957.015 19.4071L957.039 22.3336C953.084 22.6239 949.032 23.3122 944.877 24.6129L944.874 24.6139C919.573 32.466 888.427 61.9137 885.71 109.812C884.343 133.936 886.689 154.441 894.248 172.516C901.801 190.576 914.605 206.326 934.341 220.866C953.112 234.687 971.33 239.066 986.453 239.468L986.447 242.4C967.584 242.814 943.788 238.933 919.297 223.282L919.297 223.282C896.21 208.509 881.036 192.371 872.06 173.718C863.086 155.072 860.372 134.053 861.963 109.634L861.963 109.633C865.209 60.3726 902.08 29.9592 932.346 21.7976Z" fill="#7D2B1B"/>
<path id="Vector_16" d="M994.259 240.784C991.768 240.933 989.128 241.008 986.414 240.933C971.059 240.524 952.507 236.063 933.471 222.046C893.653 192.712 881.495 158.247 884.246 109.728C886.998 61.2098 918.563 31.2435 944.439 23.2128C948.715 21.8744 952.879 21.168 956.931 20.8706C961.913 20.5359 966.821 20.8334 971.617 21.5026C970.799 21.6885 969.944 21.9487 969.089 22.209C968.234 22.5064 967.416 22.8039 966.561 23.1757C948.083 31.2063 925.552 61.1726 923.582 109.691C921.611 158.21 930.274 192.675 958.716 222.009C970.762 234.427 982.51 239.334 992.66 240.599C993.181 240.71 993.739 240.747 994.259 240.784Z" fill="#B9542F"/>
<path id="Vector (Stroke)_15" fill-rule="evenodd" clip-rule="evenodd" d="M964.924 22.3093C962.313 22.1613 959.682 22.1563 957.034 22.3339C953.08 22.6244 949.03 23.3127 944.877 24.6128L944.873 24.6139C919.572 32.466 888.426 61.9137 885.71 109.812C884.342 133.936 886.689 154.441 894.248 172.516C901.8 190.576 914.604 206.326 934.341 220.866C950.895 233.056 967.049 237.901 980.982 239.15C973.544 236.286 965.648 231.262 957.663 223.031L957.663 223.03C928.84 193.304 920.136 158.38 922.116 109.632C924.064 61.6608 945.987 31.284 964.924 22.3093ZM969.543 23.604C970.398 23.3437 971.193 23.1033 971.942 22.9331L979.753 21.1578L971.819 20.0508C966.947 19.371 961.937 19.0652 956.833 19.408L956.824 19.4087C952.674 19.7132 948.398 20.4376 944.002 21.8134C917.551 30.0235 885.568 60.5081 882.782 109.646C881.399 134.041 883.755 155.028 891.542 173.648C899.335 192.283 912.519 208.433 932.601 223.227L932.602 223.228C951.903 237.439 970.752 241.983 986.375 242.4C986.375 242.4 986.374 242.4 986.374 242.4L986.414 240.934L986.375 242.4C989.141 242.475 991.824 242.399 994.346 242.249L994.363 239.322C993.816 239.283 993.368 239.251 992.967 239.165L992.905 239.152L992.841 239.144C983.048 237.924 971.6 233.186 959.768 220.989M959.768 220.989C931.707 192.047 923.085 158.041 925.047 109.751C927.003 61.5767 949.356 32.2521 967.145 24.5211L967.145 24.521C967.941 24.1751 968.709 23.8943 969.543 23.604" fill="#7D2B1B"/>
<path id="Vector_17" d="M1007.16 240.079C1003.33 240.822 998.982 241.194 994.26 240.785C993.739 240.748 993.219 240.674 992.661 240.636C982.511 239.41 970.763 234.465 958.717 222.047C930.275 192.713 921.612 158.248 923.582 109.729C925.553 61.2105 948.083 31.2442 966.561 23.2135C967.417 22.8417 968.272 22.5071 969.09 22.2468C969.945 21.9494 970.763 21.7263 971.618 21.5404C980.132 19.5328 988.014 21.7263 995.97 24.2545C995.449 24.8494 994.929 25.5186 994.408 26.2622C994.26 26.4853 994.111 26.7083 993.962 26.9314C986.378 38.5313 978.421 66.8988 977.641 109.692C976.748 158.211 980.652 192.675 993.442 222.01C997.531 231.416 1001.55 236.51 1005.26 238.963C1005.45 239.075 1005.6 239.186 1005.79 239.298C1006.23 239.633 1006.68 239.893 1007.16 240.079Z" fill="#B9542F"/>
<path id="Vector (Stroke)_16" fill-rule="evenodd" clip-rule="evenodd" d="M993.495 25.0164C986.271 22.7982 979.344 21.2251 971.954 22.9676L971.942 22.9705L971.929 22.9733C971.125 23.1481 970.364 23.3559 969.571 23.6318L969.553 23.6382L969.534 23.6441C968.778 23.8848 967.971 24.1995 967.146 24.5582C949.357 32.2892 927.004 61.6138 925.048 109.788C923.086 158.078 931.708 192.084 959.769 221.026M993.495 25.0164C993.399 25.1492 993.303 25.2841 993.207 25.4212L993.198 25.4348L992.742 26.1179L992.735 26.1288C988.802 32.1432 984.869 42.3327 981.817 56.3011C978.759 70.2994 976.566 88.1868 976.174 109.665C975.281 158.25 979.181 192.968 992.097 222.594C995.781 231.067 999.484 236.278 1003.13 239.212C1000.4 239.514 997.477 239.592 994.386 239.324L994.375 239.323L994.364 239.322C994.143 239.307 993.918 239.283 993.66 239.256L993.628 239.252C993.376 239.226 993.095 239.197 992.799 239.176C983.022 237.985 971.588 233.21 959.769 221.026M1006.05 237.724C1006.16 237.792 1006.26 237.857 1006.33 237.906L1006.34 237.91C1006.43 237.968 1006.48 238.005 1006.54 238.04L1006.6 238.079L1006.67 238.125C1007.03 238.395 1007.35 238.582 1007.69 238.71L1012.46 240.544L1007.44 241.518C1003.5 242.283 999.016 242.668 994.145 242.247C993.875 242.227 993.608 242.199 993.365 242.174L993.321 242.169C993.055 242.141 992.811 242.116 992.563 242.099L992.524 242.097L992.485 242.092C981.971 240.821 969.921 235.704 957.664 223.068C928.842 193.341 920.137 158.417 922.117 109.669C924.102 60.8069 946.809 30.1988 965.977 21.8686C966.856 21.4865 967.753 21.1342 968.626 20.8553C969.532 20.541 970.398 20.3053 971.294 20.1102C980.238 18.005 988.471 20.3331 996.414 22.8569L998.548 23.535L997.073 25.22C996.595 25.7663 996.11 26.3886 995.619 27.0897L995.19 27.7338C995.188 27.7355 995.187 27.7372 995.186 27.7389C991.535 33.3253 987.7 43.1177 984.683 56.9271C981.671 70.7108 979.496 88.4038 979.107 109.719C978.216 158.17 982.124 192.381 994.786 221.424L994.786 221.425C998.823 230.709 1002.69 235.494 1006.05 237.724Z" fill="#7D2B1B"/>
</g>
<path id="stem" d="M1030.62 19.3837C1023.67 16.5209 1017.98 17.0043 1016.34 17.0043C1014.6 17.0043 1008.31 16.2979 1000.91 20.5734C1001.29 4.47493 1005.52 -24.0414 1027.65 -52C1027.53 -51.7026 1024.52 -42.2591 1030.77 -26.867C1020.88 -13.371 1015.97 4.3634 1030.62 19.3837Z" fill="#44150E"/>
</g>
<g id="face-stroke">
<path id="righ- eye-stroke (Stroke)" fill-rule="evenodd" clip-rule="evenodd" d="M1063.35 43.792L1066.19 45.5685C1069.43 47.6013 1073.53 52.1945 1077.8 57.7823C1082.11 63.4189 1086.7 70.2226 1090.94 76.834C1099.43 90.0597 1106.53 102.583 1107.12 103.614L1107.12 103.616L1109.74 108.302L1104.49 107.237C1104.49 107.237 1104.49 107.237 1104.49 107.236C1102.72 106.887 1098.71 106.609 1092.51 106.422C1086.34 106.237 1078.11 106.144 1067.98 106.144C1063.03 106.144 1058.51 106.172 1055.23 106.2C1052.51 106.223 1050.62 106.246 1050.03 106.253C1049.95 106.254 1049.89 106.255 1049.86 106.255L1046.6 106.326L1047.44 103.148C1047.44 103.147 1047.44 103.146 1047.44 103.146C1048.75 98.1954 1052.48 84.2791 1055.91 71.5488C1057.45 65.8095 1058.93 60.3101 1060.1 55.9797L1060.47 54.6019C1061.07 52.3479 1061.58 50.485 1061.93 49.1717C1062.11 48.515 1062.25 47.9959 1062.34 47.6341L1062.46 47.2126L1062.49 47.0964C1062.49 47.077 1062.49 47.0662 1062.5 47.0613C1062.5 47.0583 1062.5 47.0576 1062.5 47.0585L1062.5 47.0471L1063.35 43.792ZM1064.81 47.4739L1064.77 47.6393C1064.7 47.8962 1063.75 51.4446 1062.34 56.6711C1058.58 70.6433 1051.59 96.6085 1049.71 103.745L1049.71 103.749L1049.67 103.913L1049.83 103.909H1049.84C1049.84 103.909 1049.96 103.908 1050.22 103.904C1050.47 103.901 1050.83 103.897 1051.3 103.892C1052.23 103.881 1053.56 103.867 1055.21 103.853C1058.5 103.825 1063.02 103.798 1067.98 103.798C1078.12 103.798 1086.38 103.891 1092.58 104.077C1098.73 104.262 1102.95 104.541 1104.95 104.935L1104.95 104.936L1105.19 104.986L1105.07 104.766C1105.07 104.766 1105.07 104.765 1105.07 104.765C1104.49 103.743 1097.42 91.2676 1088.97 78.101C1084.74 71.5139 1080.19 64.7705 1075.93 59.2068C1071.65 53.595 1067.78 49.3351 1064.95 47.5568C1064.95 47.5567 1064.95 47.5569 1064.95 47.5568L1064.81 47.4739Z" fill="#44150E"/>
<path id="left-eye-stroke (Stroke)" fill-rule="evenodd" clip-rule="evenodd" d="M978.344 37.8965L979.401 41.6315C980.401 45.1603 981.124 50.6315 981.654 56.8039C982.186 63.0016 982.531 69.9904 982.754 76.5998C983.18 89.1934 983.166 100.451 983.164 102.309C983.164 102.402 983.164 102.471 983.164 102.516V105.43L980.231 105.011L980.2 105.005C964.357 101.851 951.356 100.231 941.54 100.231C937.707 100.231 935.118 100.488 933.503 100.738C932.695 100.863 932.131 100.986 931.775 101.075C931.597 101.119 931.47 101.155 931.389 101.179C931.349 101.191 931.32 101.2 931.296 101.208L931.294 101.208C931.29 101.21 931.285 101.211 931.279 101.213L926.89 102.885L928.02 98.2946L928.021 98.2927C929.185 93.5955 931.989 88.1153 936.301 81.9137C940.622 75.6997 946.503 68.6995 953.89 60.9579C959.358 55.2278 964.703 50.1256 968.694 46.4431C970.689 44.6013 972.347 43.1136 973.514 42.0788C974.097 41.5613 974.558 41.1572 974.876 40.8789C974.992 40.7772 975.089 40.692 975.166 40.6248L975.243 40.5584C975.317 40.4934 975.342 40.4711 975.342 40.4715C975.342 40.4715 975.342 40.4712 975.342 40.4715L975.356 40.458L978.344 37.8965ZM976.926 42.2023C976.888 42.2369 976.842 42.2762 976.808 42.3067C976.8 42.3135 976.793 42.3198 976.786 42.3255L976.708 42.3932C976.632 42.4602 976.536 42.544 976.42 42.6448C976.105 42.9204 975.649 43.3209 975.071 43.834C973.914 44.8603 972.267 46.3376 970.285 48.1672C966.319 51.8276 961.012 56.8939 955.587 62.5777C948.251 70.2654 942.457 77.1702 938.227 83.2532C933.989 89.3482 931.364 94.5566 930.298 98.8566C930.298 98.8568 930.298 98.8564 930.298 98.8566L930.238 99.0985L930.691 98.9263H930.734C930.845 98.8937 931.001 98.8498 931.207 98.7984C931.635 98.6919 932.269 98.5549 933.144 98.4195C934.893 98.1489 937.603 97.8852 941.54 97.8852C951.571 97.8852 964.733 99.5351 980.627 102.698L980.818 102.725V102.516C980.818 102.471 980.818 102.402 980.818 102.309C980.82 100.453 980.833 89.2306 980.409 76.679C980.186 70.0899 979.843 63.1458 979.316 57.0047C978.787 50.8386 978.077 45.5648 977.144 42.2712L977.086 42.0653L976.926 42.2023Z" fill="#44150E"/>
<path id="nose-stroke (Stroke)" fill-rule="evenodd" clip-rule="evenodd" d="M1013.95 78.5967L1016.3 82.3724C1020.14 88.4248 1025.23 101.837 1029.39 113.81C1033.56 125.816 1036.86 136.566 1037.13 137.495L1038.34 141.41L1034.34 140.624C1030.99 140.013 1025.51 139.678 1018.02 139.678C1011.61 139.678 1004.85 139.919 999.66 140.165C997.068 140.288 994.872 140.412 993.317 140.507C992.539 140.555 991.923 140.596 991.497 140.625C991.284 140.64 991.12 140.652 991.009 140.661C990.978 140.664 990.952 140.666 990.931 140.667L990.912 140.672L987.767 140.891L988.189 137.865C988.189 137.864 988.19 137.863 988.19 137.862C988.36 136.607 988.864 134.836 989.575 132.755C990.294 130.651 991.25 128.159 992.358 125.434C994.576 119.983 997.424 113.559 1000.26 107.372C1005.91 95.0292 1011.52 83.5845 1012.02 82.5914L1013.95 78.5967ZM1014.21 83.4561L1014.13 83.6255L1014.12 83.633C1013.66 84.5516 1008.04 95.9999 1002.39 108.349C999.563 114.524 996.731 120.913 994.532 126.318C993.432 129.021 992.494 131.468 991.795 133.513C991.089 135.58 990.651 137.167 990.514 138.179L990.514 138.184L990.491 138.35L990.61 138.341C990.612 138.341 990.613 138.341 990.614 138.341C990.635 138.338 990.656 138.336 990.675 138.335C990.714 138.331 990.765 138.327 990.825 138.322C990.946 138.313 991.117 138.3 991.334 138.285C991.767 138.255 992.391 138.214 993.173 138.166C994.739 138.069 996.945 137.945 999.549 137.821C1004.75 137.575 1011.56 137.332 1018.02 137.332C1025.54 137.332 1031.2 137.666 1034.77 138.318L1034.78 138.319L1034.94 138.351L1034.89 138.171C1034.63 137.312 1031.34 126.574 1027.17 114.58C1022.98 102.528 1017.98 89.3986 1014.31 83.6259L1014.31 83.617L1014.21 83.4561Z" fill="#44150E"/>
<path id="mouth-stroke (Stroke)" fill-rule="evenodd" clip-rule="evenodd" d="M902.012 108.721L906.697 114.471L906.712 114.49C906.712 114.49 906.713 114.491 906.714 114.493C906.75 114.536 907.119 114.986 907.814 115.793C908.53 116.626 909.568 117.811 910.879 119.252C913.501 122.133 917.21 126.032 921.607 130.173C930.434 138.485 941.916 147.656 952.907 151.641L952.908 151.642C954.536 152.234 956.127 152.789 957.727 153.347L957.734 153.349L959.289 153.915L960.799 182.492L982.535 183.743L984.784 161.552L987.478 162.119C996.59 164.074 1005.1 165.03 1013.44 165.03C1014.16 165.03 1014.83 165.03 1015.5 164.994L1015.51 164.994L1015.52 164.993C1016.66 164.956 1017.86 164.956 1019.19 164.956H1019.21C1021.31 164.956 1023.59 164.986 1025.98 165.017C1027.34 165.035 1028.73 165.054 1030.15 165.067L1030.16 165.067C1034.14 165.142 1038.25 165.216 1042.48 165.216H1044.67L1047.4 187.836L1068.78 189.756V164.061L1070.91 163.776C1070.91 163.776 1070.91 163.776 1070.92 163.776C1081.3 162.372 1088.15 159.883 1092.16 156.396C1099.25 150.184 1107.42 142.584 1113.85 136.509C1117.07 133.472 1119.85 130.818 1121.83 128.912C1122.83 127.959 1123.62 127.193 1124.17 126.66C1124.45 126.393 1124.66 126.185 1124.81 126.04L1124.98 125.873C1125.03 125.829 1125.04 125.814 1125.04 125.815L1125.05 125.809L1130.15 120.853L1129.23 127.905C1129.23 127.907 1129.23 127.909 1129.23 127.911M1101.61 187.028C1092.99 196.629 1082.78 204.054 1071.28 209.067C1058.55 214.661 1044.93 218.001 1030.86 219.014C1030.86 219.015 1030.85 219.015 1030.85 219.015L1028.22 219.228V190.655L1003.03 189.938L1000.64 217.787L997.966 217.365C977.253 213.845 960.294 206.581 949.737 201.115L949.735 201.114C937.439 194.72 926.173 183.853 917.972 170.498L917.971 170.496C908.487 154.99 903.046 136.202 902.296 116.093C902.296 116.093 902.296 116.093 902.296 116.093L902.012 108.721M1029.39 189.514H1030.57V216.684L1030.67 216.675L1030.68 216.675C1044.5 215.68 1057.86 212.403 1070.34 206.918L1070.34 206.917C1081.52 202.041 1091.46 194.818 1099.87 185.459L1099.87 185.457C1106.59 178.007 1112.32 169.147 1117 159.2C1124.93 142.245 1126.84 128.135 1126.9 127.614L1126.9 127.609L1126.95 127.231L1126.7 127.474C1126.7 127.476 1126.7 127.48 1126.69 127.486M1071.13 166.115L1071.23 166.102C1081.74 164.68 1089.16 162.113 1093.7 158.165L1093.71 158.162C1107.79 145.813 1126.13 128.039 1126.69 127.486M1071.13 166.115V192.322L1045.3 190.003L1042.59 167.562H1042.48C1038.23 167.562 1034.1 167.488 1030.12 167.413C1028.69 167.4 1027.28 167.381 1025.92 167.363C1023.55 167.332 1021.3 167.302 1019.21 167.302C1017.87 167.302 1016.7 167.302 1015.61 167.338C1014.88 167.376 1014.15 167.376 1013.46 167.376H1013.44C1004.91 167.376 996.242 166.399 986.988 164.413C986.988 164.413 986.987 164.413 986.986 164.413L986.855 164.385L984.643 186.214L958.567 184.714L957.028 155.589L956.948 155.56C956.948 155.56 956.948 155.56 956.947 155.56C955.352 155.003 953.749 154.444 952.107 153.847M1029.39 189.514L1029.43 188.342L1000.88 187.529L998.515 215.077L998.36 215.052C998.357 215.052 998.355 215.052 998.353 215.051C977.949 211.582 961.226 204.421 950.816 199.031C938.946 192.859 927.98 182.312 919.972 169.271C910.718 154.141 905.377 135.752 904.64 116.005L904.626 115.643L904.864 115.934C905.355 116.545 911.372 123.757 919.998 131.881C928.868 140.234 940.641 149.689 952.106 153.847M1101.61 187.028C1108.5 179.385 1114.36 170.325 1119.13 160.196L1119.13 160.193C1127.17 142.99 1129.14 128.652 1129.23 127.911" fill="#44150E"/>
</g>
<g id="face-fill">
<path id="right-eye-fill" d="M1104.72 106.086C1100.96 105.342 1088.25 104.971 1067.98 104.971C1058.06 104.971 1049.92 105.082 1049.84 105.082L1048.13 105.119L1048.58 103.446C1051.18 93.5566 1063.52 47.7892 1063.63 47.343L1064.08 45.6328L1065.57 46.5623C1077.73 54.184 1104.94 102.145 1106.09 104.19L1107.47 106.644L1104.72 106.086Z" fill="#44150E"/>
<path id="left-eye-fill" d="M980.429 103.855C964.553 100.695 951.466 99.0589 941.539 99.0589C933.769 99.0589 930.943 100.1 930.906 100.1L928.564 100.992L929.159 98.5756C931.39 89.5783 940.015 77.1976 954.738 61.7684C965.631 50.3544 976.042 41.4314 976.153 41.3199L977.715 39.9814L978.272 41.9519C982.139 55.5966 981.99 100.62 981.99 102.517V104.078L980.429 103.855Z" fill="#44150E"/>
<path id="nose-fill" d="M1034.56 139.473C1031.1 138.841 1025.53 138.506 1018.02 138.506C1005.15 138.506 990.876 139.473 990.727 139.51L989.128 139.621L989.351 138.023C990.578 128.951 1012.14 84.9683 1013.07 83.1094L1014.08 81.0273L1015.3 82.9978C1022.81 94.8208 1035.49 136.089 1036.01 137.837L1036.64 139.882L1034.56 139.473Z" fill="#44150E"/>
<path id="mouth-fill" d="M1029.39 189.515L1001.95 188.734L999.575 216.433L998.163 216.21C977.603 212.715 960.76 205.502 950.276 200.074C938.193 193.791 927.076 183.083 918.971 169.884C909.602 154.567 904.211 135.977 903.468 116.049L903.319 112.183L905.773 115.194C905.996 115.492 930.051 144.603 952.507 152.745C954.143 153.34 955.741 153.897 957.34 154.455L958.158 154.753L959.682 183.604L983.588 184.979L985.819 162.969L987.232 163.267C996.415 165.237 1005 166.204 1013.44 166.204C1014.15 166.204 1014.86 166.204 1015.56 166.167C1016.68 166.129 1017.87 166.129 1019.21 166.129C1022.51 166.129 1026.23 166.204 1030.14 166.241C1034.11 166.315 1038.24 166.39 1042.48 166.39H1043.63L1046.35 188.92L1069.96 191.039V165.088L1071.07 164.94C1081.52 163.527 1088.66 160.999 1092.93 157.281C1107.13 144.826 1125.69 126.831 1125.87 126.645L1128.55 124.043L1128.07 127.761C1127.99 128.355 1126.06 142.595 1118.06 159.697C1113.34 169.736 1107.54 178.696 1100.74 186.243C1092.23 195.724 1082.15 203.048 1070.81 207.993C1058.21 213.533 1044.71 216.842 1030.77 217.845L1029.39 217.957V189.515V189.515Z" fill="#44150E"/>
</g>
<g id="light">
<g id="dimmer light">
<mask id="mask0_23:180" style="mask-type:alpha" maskUnits="userSpaceOnUse" x="912" y="75" width="202" height="203">
<g id="Group">
<path id="5" opacity="0.26" d="M1012.8 277.331C1068.42 277.331 1113.51 232.238 1113.51 176.613C1113.51 120.988 1068.42 75.8955 1012.8 75.8955C957.17 75.8955 912.077 120.988 912.077 176.613C912.077 232.238 957.17 277.331 1012.8 277.331Z" fill="white"/>
<path id="4" opacity="0.63" d="M1012.8 259.188C1058.4 259.188 1095.37 222.218 1095.37 176.614C1095.37 131.009 1058.4 94.0391 1012.8 94.0391C967.191 94.0391 930.221 131.009 930.221 176.614C930.221 222.218 967.191 259.188 1012.8 259.188Z" fill="white"/>
<path id="3" d="M1012.8 241.081C1048.4 241.081 1077.26 212.218 1077.26 176.613C1077.26 141.008 1048.4 112.145 1012.8 112.145C977.191 112.145 948.327 141.008 948.327 176.613C948.327 212.218 977.191 241.081 1012.8 241.081Z" fill="white"/>
<path id="2" d="M1012.79 226.471C1040.33 226.471 1062.65 204.149 1062.65 176.614C1062.65 149.079 1040.33 126.757 1012.79 126.757C985.259 126.757 962.938 149.079 962.938 176.614C962.938 204.149 985.259 226.471 1012.79 226.471Z" fill="white"/>
<path id="1" d="M1012.79 211.859C1032.26 211.859 1048.04 196.079 1048.04 176.613C1048.04 157.147 1032.26 141.367 1012.79 141.367C993.329 141.367 977.549 157.147 977.549 176.613C977.549 196.079 993.329 211.859 1012.79 211.859Z" fill="white"/>
</g>
</mask>
<g mask="url(#mask0_23:180)">
<g id="right eye" style="mix-blend-mode:color">
<path d="M1104.55 105.936C1100.8 105.192 1088.08 104.82 1067.82 104.82C1057.89 104.82 1049.75 104.932 1049.68 104.932L1047.97 104.969L1048.41 103.296C1051.01 93.4062 1063.36 47.6388 1063.47 47.1927L1063.92 45.4824L1065.4 46.4119C1077.56 54.0336 1104.78 101.995 1105.93 104.039L1107.3 106.493L1104.55 105.936Z" fill="#CE8732"/>
</g>
<g id="left eye" style="mix-blend-mode:color">
<path d="M980.263 103.706C964.388 100.545 951.301 98.9095 941.374 98.9095C933.604 98.9095 930.778 99.9505 930.741 99.9505L928.398 100.843L928.993 98.4262C931.224 89.4289 939.85 77.0482 954.573 61.6189C965.466 50.205 975.876 41.282 975.988 41.1705L977.549 39.832L978.107 41.8025C981.973 55.4472 981.825 100.471 981.825 102.367V103.929L980.263 103.706Z" fill="#CE8732"/>
</g>
<g id="nose" style="mix-blend-mode:color">
<path d="M1034.4 139.323C1030.94 138.691 1025.36 138.357 1017.85 138.357C1004.99 138.357 990.71 139.323 990.562 139.361L988.963 139.472L989.186 137.873C990.413 128.802 1011.98 84.8189 1012.91 82.96L1013.91 80.8779L1015.14 82.8484C1022.65 94.6714 1035.33 135.94 1035.85 137.687L1036.48 139.732L1034.4 139.323Z" fill="#CE8732"/>
</g>
<g id="mouth" style="mix-blend-mode:color">
<path d="M1029.23 189.367L1001.79 188.586L999.411 216.284L997.999 216.061C977.439 212.566 960.596 205.354 950.112 199.925C938.029 193.642 926.912 182.935 918.807 169.736C909.438 154.418 904.047 135.829 903.303 115.901L903.155 112.034L905.609 115.046C905.832 115.343 929.887 144.454 952.343 152.596C953.979 153.191 955.577 153.749 957.176 154.307L957.994 154.604L959.518 183.455L983.424 184.831L985.655 162.821L987.068 163.118C996.251 165.089 1004.84 166.055 1013.28 166.055C1013.99 166.055 1014.69 166.055 1015.4 166.018C1016.51 165.981 1017.7 165.981 1019.04 165.981C1022.35 165.981 1026.07 166.055 1029.97 166.092C1033.95 166.167 1038.08 166.241 1042.32 166.241H1043.47L1046.18 188.772L1069.79 190.891V164.94L1070.91 164.791C1081.35 163.378 1088.49 160.85 1092.77 157.132C1106.97 144.677 1125.52 126.683 1125.71 126.497L1128.39 123.894L1127.9 127.612C1127.83 128.207 1125.89 142.447 1117.9 159.549C1113.18 169.587 1107.38 178.547 1100.58 186.095C1092.06 195.575 1081.99 202.9 1070.65 207.844C1058.04 213.384 1044.55 216.693 1030.6 217.697L1029.23 217.808V189.367V189.367Z" fill="#CE8732"/>
</g>
</g>
</g>
<g id="brightest light">
<mask id="mask1_23:180" style="mask-type:alpha" maskUnits="userSpaceOnUse" x="963" y="126" width="100" height="101">
<g id="Group_2">
<path id="2_2" d="M1012.87 226.545C1040.4 226.545 1062.73 204.223 1062.73 176.688C1062.73 149.153 1040.4 126.831 1012.87 126.831C985.334 126.831 963.012 149.153 963.012 176.688C963.012 204.223 985.334 226.545 1012.87 226.545Z" fill="#E1B062" fill-opacity="0.6"/>
<path id="1_2" d="M1012.87 211.934C1032.33 211.934 1048.11 196.154 1048.11 176.688C1048.11 157.222 1032.33 141.442 1012.87 141.442C993.404 141.442 977.624 157.222 977.624 176.688C977.624 196.154 993.404 211.934 1012.87 211.934Z" fill="#F4D892"/>
</g>
</mask>
<g mask="url(#mask1_23:180)">
<path id="nose_2" d="M1034.4 139.323C1030.94 138.691 1025.36 138.357 1017.85 138.357C1004.99 138.357 990.71 139.323 990.561 139.361L988.962 139.472L989.185 137.873C990.412 128.802 1011.98 84.8189 1012.91 82.96L1013.91 80.8779L1015.14 82.8484C1022.65 94.6714 1035.32 135.94 1035.85 137.687L1036.48 139.732L1034.4 139.323Z" fill="#F4D892"/>
<path id="mouth_2" d="M1029.23 189.367L1001.79 188.586L999.411 216.284L997.998 216.061C977.438 212.566 960.596 205.354 950.111 199.925C938.028 193.642 926.912 182.935 918.807 169.736C909.438 154.418 904.047 135.829 903.303 115.901L903.154 112.034L905.608 115.046C905.831 115.343 929.886 144.454 952.342 152.596C953.978 153.191 955.577 153.749 957.175 154.307L957.993 154.604L959.518 183.455L983.424 184.831L985.655 162.821L987.067 163.118C996.251 165.089 1004.84 166.055 1013.28 166.055C1013.98 166.055 1014.69 166.055 1015.4 166.018C1016.51 165.981 1017.7 165.981 1019.04 165.981C1022.35 165.981 1026.07 166.055 1029.97 166.092C1033.95 166.167 1038.08 166.241 1042.32 166.241H1043.47L1046.18 188.772L1069.79 190.891V164.94L1070.91 164.791C1081.35 163.378 1088.49 160.85 1092.77 157.132C1106.97 144.677 1125.52 126.683 1125.71 126.497L1128.38 123.894L1127.9 127.612C1127.83 128.207 1125.89 142.447 1117.9 159.549C1113.18 169.587 1107.38 178.547 1100.57 186.095C1092.06 195.575 1081.99 202.9 1070.65 207.844C1058.04 213.384 1044.55 216.693 1030.6 217.697L1029.23 217.808V189.367V189.367Z" fill="#F4D892"/>
</g>
</g>
</g>
<g id="cut outs">
<g id="left eye_2">
<path id="Vector_18" d="M984.895 102.494L980.772 107.844L939.773 92.0172L920.283 54.7292L926.912 49.317L984.895 102.494Z" fill="#661F18"/>
<path id="Vector (Stroke)_17" fill-rule="evenodd" clip-rule="evenodd" d="M926.926 48.8487L985.374 102.453L980.891 108.27L939.522 92.2995L919.836 54.6374L926.926 48.8487ZM920.731 54.8209L940.026 91.7348L980.653 107.418L984.416 102.536L926.899 49.7851L920.731 54.8209Z" fill="#661F18"/>
<path id="Vector_19" d="M920.283 54.7295C920.283 54.7295 926.261 85.2288 925.42 106.033C925.42 106.033 936.21 101.04 977.856 107.237C977.856 107.237 925.06 68.7293 920.283 54.7295Z" fill="#963D29"/>
<path id="Vector (Stroke)_18" fill-rule="evenodd" clip-rule="evenodd" d="M918.995 54.982L921.525 54.3057C922.048 55.838 923.281 57.8285 925.156 60.1889C927.013 62.5265 929.428 65.1391 932.218 67.9085C937.798 73.4463 944.81 79.5431 951.696 85.2209C958.577 90.8954 965.311 96.1355 970.327 99.958C972.835 101.869 974.911 103.425 976.361 104.502C977.085 105.041 977.653 105.46 978.039 105.745C978.233 105.887 978.38 105.995 978.48 106.068L978.627 106.176L978.628 106.177C978.629 106.177 978.629 106.177 977.856 107.237L978.628 106.177L982.939 109.321L977.662 108.536C956.902 105.446 943.887 105.155 936.099 105.621C932.206 105.855 929.626 106.277 928.042 106.631C927.251 106.807 926.709 106.967 926.376 107.077C926.21 107.132 926.097 107.174 926.031 107.2C925.998 107.213 925.977 107.222 925.967 107.226C925.965 107.227 925.964 107.227 925.963 107.228L924.021 108.126L924.108 105.98C924.524 95.6971 923.253 82.9644 921.866 72.7564C921.174 67.6622 920.455 63.2153 919.91 60.0425C919.638 58.4563 919.408 57.1892 919.247 56.3195C919.167 55.8847 919.104 55.5493 919.06 55.3231C919.039 55.21 919.022 55.1242 919.011 55.067L918.995 54.983C918.995 54.9829 918.995 54.982 920.283 54.7296L918.995 54.982ZM922.811 61.454C923.307 64.435 923.896 68.1999 924.467 72.403C925.778 82.0511 927.006 94.0738 926.788 104.23C926.996 104.178 927.223 104.124 927.47 104.069C929.211 103.68 931.931 103.241 935.942 103.001C943.283 102.561 954.971 102.785 972.923 105.211C971.73 104.317 970.319 103.252 968.736 102.046C963.703 98.2104 956.941 92.9486 950.026 87.246C943.114 81.5468 936.032 75.3916 930.369 69.7717C927.538 66.9623 925.045 64.2696 923.1 61.8216C923.003 61.6987 922.906 61.5762 922.811 61.454ZM925.961 107.229C925.96 107.229 925.961 107.229 925.961 107.229Z" fill="#661F18"/>
</g>
<g id="right eye_2">
<path id="Vector_20" d="M1047.99 105.214L1052.12 110.564L1093.11 94.737L1112.6 57.449L1105.97 52.0367L1047.99 105.214Z" fill="#661F18"/>
<path id="Vector (Stroke)_19" fill-rule="evenodd" clip-rule="evenodd" d="M1105.96 51.5685L1047.51 105.173L1052 110.989L1093.37 95.0192L1113.05 57.3571L1105.96 51.5685ZM1112.16 57.5407L1092.86 94.4546L1052.23 110.138L1048.47 105.255L1105.99 52.5049L1112.16 57.5407Z" fill="#661F18"/>
<path id="Vector_21" d="M1112.6 57.4492C1112.6 57.4492 1106.63 87.9485 1107.47 108.753C1107.47 108.753 1096.68 103.76 1055.03 109.957C1055.03 109.957 1107.83 71.449 1112.6 57.4492Z" fill="#963D29"/>
<path id="Vector (Stroke)_20" fill-rule="evenodd" clip-rule="evenodd" d="M1113.89 57.7018L1111.36 57.0254C1110.84 58.5577 1109.61 60.5482 1107.73 62.9086C1105.88 65.2462 1103.46 67.8588 1100.67 70.6283C1095.09 76.166 1088.08 82.2628 1081.19 87.9406C1074.31 93.6151 1067.58 98.8552 1062.56 102.678C1060.05 104.589 1057.98 106.144 1056.53 107.222C1055.8 107.761 1055.23 108.18 1054.85 108.464C1054.66 108.606 1054.51 108.715 1054.41 108.788L1054.26 108.895L1054.26 108.897C1054.26 108.897 1054.26 108.897 1055.03 109.957L1054.26 108.897L1049.95 112.041L1055.23 111.255C1075.99 108.166 1089 107.874 1096.79 108.341C1100.68 108.574 1103.26 108.997 1104.85 109.35C1105.64 109.527 1106.18 109.687 1106.51 109.796C1106.68 109.851 1106.79 109.894 1106.86 109.92C1106.89 109.933 1106.91 109.941 1106.92 109.946C1106.92 109.946 1106.92 109.947 1106.92 109.947L1108.87 110.846L1108.78 108.7C1108.36 98.4168 1109.63 85.6841 1111.02 75.4762C1111.71 70.382 1112.43 65.935 1112.98 62.7622C1113.25 61.176 1113.48 59.9089 1113.64 59.0392C1113.72 58.6044 1113.78 58.269 1113.83 58.0428C1113.85 57.9297 1113.87 57.8439 1113.88 57.7867L1113.89 57.7028C1113.89 57.7026 1113.89 57.7018 1112.61 57.4493L1113.89 57.7018ZM1110.08 64.1738C1109.58 67.1547 1108.99 70.9196 1108.42 75.1227C1107.11 84.7709 1105.88 96.7936 1106.1 106.95C1105.89 106.898 1105.66 106.844 1105.42 106.789C1103.68 106.4 1100.96 105.961 1096.95 105.721C1089.6 105.281 1077.92 105.504 1059.97 107.931C1061.16 107.037 1062.57 105.971 1064.15 104.765C1069.18 100.93 1075.95 95.6683 1082.86 89.9657C1089.77 84.2665 1096.86 78.1113 1102.52 72.4914C1105.35 69.682 1107.84 66.9893 1109.79 64.5413C1109.88 64.4184 1109.98 64.2959 1110.08 64.1738ZM1106.93 109.948C1106.93 109.949 1106.93 109.949 1106.93 109.948Z" fill="#661F18"/>
</g>
<g id="nose_3">
<g id="cut out">
<path id="Vector_22" d="M985.076 144.154L987.248 136.093L1016.19 110.48L1042.54 136.806L1045.55 144.725L1013.11 138.59L985.076 144.154Z" fill="#661F18"/>
<path id="Vector_23" d="M1016.2 122.139C1016.2 122.139 998.06 134.618 988.321 143.268C988.321 143.268 1026.01 140.645 1040.05 143.268L1016.2 122.139Z" fill="#963D29"/>
<path id="Vector (Stroke)_21" fill-rule="evenodd" clip-rule="evenodd" d="M1016.28 120.871L1043.42 144.914L1039.87 144.251C1032.97 142.962 1020.15 142.955 1008.95 143.284C1003.37 143.447 998.23 143.693 994.483 143.898C992.61 144 991.086 144.092 990.031 144.158C989.503 144.192 989.092 144.218 988.814 144.237C988.675 144.246 988.569 144.253 988.497 144.258L988.391 144.266C988.39 144.266 988.39 144.266 988.321 143.268L988.391 144.266L985.462 144.469L987.657 142.52C992.565 138.161 999.567 132.855 1005.32 128.652C1008.2 126.547 1010.78 124.713 1012.64 123.406C1013.56 122.752 1014.31 122.23 1014.83 121.87C1015.09 121.691 1015.29 121.552 1015.42 121.458L1015.63 121.315C1015.63 121.315 1015.63 121.314 1016.2 122.138L1015.63 121.314L1016.28 120.871ZM1016.12 123.407C1016.07 123.44 1016.02 123.476 1015.97 123.512C1015.46 123.869 1014.71 124.39 1013.79 125.041C1011.94 126.343 1009.37 128.17 1006.5 130.267C1001.59 133.853 995.816 138.212 991.225 142.081C992.11 142.028 993.171 141.966 994.374 141.901C998.133 141.695 1003.29 141.449 1008.89 141.285C1018.47 141.003 1029.45 140.958 1036.88 141.798L1016.12 123.407Z" fill="#661F18"/>
</g>
</g>
<g id="mouth_3">
<path id="Vector_24" d="M1125.94 186.297C1125.94 186.297 1069.3 196.31 1014.52 196.31C964.698 196.25 903.472 183.341 903.472 183.341V194.923C905.101 205.66 927.359 212.838 949.678 215.733C960.476 217.121 977.245 218.93 997.272 219.775L999.625 212.838L1029.6 213.079V215.13V220.258C1042.45 220.016 1055.84 219.292 1069.3 217.784C1118.34 212.355 1125.94 197.878 1125.94 197.878V186.297Z" fill="#661F18"/>
<path id="Vector (Stroke)_22" fill-rule="evenodd" clip-rule="evenodd" d="M903.575 182.852L903.472 183.341C903.575 182.852 903.575 182.852 903.575 182.852L903.619 182.861L903.751 182.889C903.868 182.913 904.043 182.949 904.272 182.996C904.732 183.091 905.413 183.229 906.298 183.405C908.068 183.758 910.652 184.262 913.909 184.867C920.423 186.078 929.627 187.692 940.388 189.309C961.913 192.542 989.648 195.78 1014.52 195.81C1041.88 195.81 1069.71 193.309 1090.71 190.807C1101.21 189.556 1109.99 188.305 1116.16 187.367C1119.24 186.898 1121.66 186.507 1123.32 186.234C1124.14 186.097 1124.78 185.99 1125.2 185.916C1125.42 185.88 1125.58 185.852 1125.69 185.833L1125.85 185.805C1125.85 185.804 1125.85 185.804 1125.94 186.297L1125.85 185.805L1126.44 185.701V198.002L1126.38 198.111L1125.94 197.878C1126.38 198.111 1126.38 198.112 1126.38 198.112L1126.38 198.114L1126.38 198.118L1126.37 198.13C1126.36 198.14 1126.36 198.153 1126.35 198.17C1126.33 198.203 1126.3 198.25 1126.26 198.309C1126.19 198.427 1126.08 198.597 1125.92 198.81C1125.6 199.238 1125.09 199.844 1124.33 200.583C1122.82 202.061 1120.3 204.068 1116.24 206.237C1108.14 210.573 1093.91 215.562 1069.35 218.282C1055.88 219.792 1042.47 220.516 1029.61 220.758L1029.1 220.767V213.576L999.982 213.341L997.625 220.291L997.251 220.275C977.206 219.429 960.422 217.618 949.615 216.23C938.431 214.779 927.24 212.252 918.627 208.732C914.322 206.972 910.638 204.954 907.92 202.681C905.203 200.409 903.41 197.847 902.978 194.998L902.972 194.96V182.725L903.575 182.852ZM1125.44 197.743V186.891C1125.42 186.895 1125.39 186.898 1125.37 186.902C1124.94 186.976 1124.31 187.083 1123.48 187.22C1121.82 187.494 1119.39 187.886 1116.31 188.356C1110.14 189.295 1101.34 190.548 1090.83 191.8C1069.81 194.305 1041.94 196.81 1014.52 196.81C989.575 196.78 961.783 193.534 940.239 190.297C929.465 188.679 920.249 187.063 913.726 185.851C910.464 185.245 907.876 184.74 906.103 184.386C905.216 184.209 904.533 184.071 904.071 183.976C904.037 183.969 904.004 183.962 903.972 183.955V194.884C904.364 197.39 905.962 199.74 908.561 201.913C911.172 204.096 914.753 206.067 919.006 207.806C927.51 211.283 938.608 213.793 949.743 215.238C960.463 216.615 977.076 218.409 996.919 219.26L999.267 212.335L1030.1 212.584V219.748C1042.79 219.498 1055.98 218.774 1069.24 217.288C1093.72 214.578 1107.81 209.614 1115.77 205.355C1119.75 203.226 1122.19 201.274 1123.63 199.867C1124.36 199.164 1124.83 198.597 1125.11 198.212C1125.26 198.019 1125.36 197.872 1125.42 197.776C1125.42 197.764 1125.43 197.753 1125.44 197.743Z" fill="#661F18"/>
<path id="Vector_25" d="M1092.88 205.539C1087.99 206.625 1079.79 207.228 1070.32 207.53V214.105L1044.2 213.502L1041.49 207.832C1031.35 207.832 1021.7 207.711 1014.52 207.771C1004.75 207.832 995.341 207.53 985.81 207.047L983.578 212.537L957.218 212.175L955.71 204.876C954.081 204.755 952.513 204.574 950.884 204.454C927.72 202.342 903.471 194.923 903.471 194.923C905.1 205.66 927.358 212.838 949.677 215.734C960.475 217.121 977.244 218.931 997.271 219.775L999.624 212.838L1029.6 213.08V220.198C1042.45 219.956 1055.84 219.232 1069.29 217.724C1118.34 212.295 1125.94 197.818 1125.94 197.818C1125.94 197.818 1107.3 202.403 1092.88 205.539Z" fill="#963D29"/>
<path id="Vector (Stroke)_23" fill-rule="evenodd" clip-rule="evenodd" d="M904.013 193.151L901.198 192.289L901.639 195.2C902.139 198.495 904.192 201.328 907.051 203.718C909.916 206.114 913.738 208.195 918.114 209.984C926.873 213.564 938.189 216.111 949.439 217.571L949.441 217.571C960.277 218.963 977.1 220.779 997.193 221.626L998.58 221.685L1000.95 214.701L1027.75 214.917V222.085L1029.64 222.05C1042.53 221.808 1055.98 221.081 1069.5 219.565C1094.18 216.834 1108.58 211.81 1116.88 207.369C1121.03 205.146 1123.66 203.067 1125.28 201.491C1126.08 200.704 1126.64 200.045 1127 199.559C1127.18 199.317 1127.31 199.118 1127.41 198.969C1127.45 198.895 1127.49 198.833 1127.52 198.785C1127.53 198.76 1127.54 198.739 1127.55 198.722L1127.57 198.698L1127.57 198.688L1127.58 198.683C1127.58 198.681 1127.58 198.679 1125.94 197.818L1127.58 198.679L1129.49 195.036L1125.49 196.019L1125.94 197.818C1125.49 196.019 1125.49 196.019 1125.49 196.019L1125.49 196.019L1124.67 196.221C1124.13 196.352 1123.35 196.543 1122.36 196.783C1120.39 197.261 1117.61 197.931 1114.39 198.7C1107.93 200.237 1099.68 202.164 1092.49 203.728L1092.48 203.73C1087.78 204.774 1079.74 205.376 1070.26 205.678L1068.47 205.735V212.208L1045.38 211.675L1042.65 205.978H1041.49C1037.23 205.978 1033.04 205.957 1029.08 205.937C1023.66 205.909 1018.66 205.883 1014.51 205.918C1004.78 205.978 995.411 205.678 985.904 205.196L984.589 205.13L982.338 210.666L958.731 210.342L957.241 203.131L955.847 203.028C955.054 202.969 954.273 202.895 953.471 202.82L953.462 202.819C952.674 202.744 951.864 202.668 951.037 202.607C939.582 201.561 927.829 199.201 918.918 197.093C914.465 196.04 910.733 195.052 908.116 194.329C906.808 193.967 905.779 193.671 905.078 193.467C904.728 193.364 904.46 193.285 904.281 193.231C904.191 193.204 904.123 193.184 904.078 193.17L904.028 193.155L904.013 193.151ZM1119.83 201.208C1118.45 201.539 1116.91 201.909 1115.24 202.305C1108.78 203.844 1100.5 205.777 1093.28 207.349C1088.53 208.404 1080.89 209.001 1072.17 209.32V215.523C1094.64 212.763 1107.7 208.078 1115.13 204.101C1117.05 203.074 1118.59 202.094 1119.83 201.208ZM1068.74 215.921L1043.02 215.328L1040.32 209.684C1036.42 209.68 1032.62 209.661 1029.02 209.642C1023.62 209.614 1018.68 209.589 1014.54 209.624L1014.53 209.624C1005.17 209.682 996.138 209.408 987.031 208.963L984.818 214.406L955.704 214.007L954.175 206.607C953.824 206.575 953.475 206.542 953.131 206.51L953.123 206.509C952.321 206.433 951.54 206.36 950.747 206.301L950.731 206.3L950.716 206.298C939.012 205.232 927.065 202.828 918.065 200.699C913.56 199.634 909.782 198.634 907.128 197.901C906.926 197.845 906.73 197.79 906.541 197.737C907.225 198.786 908.183 199.834 909.428 200.875C911.892 202.936 915.335 204.844 919.517 206.553C927.874 209.97 938.847 212.46 949.916 213.896C960.426 215.246 976.616 216.998 995.963 217.863L998.299 210.974L1031.46 211.241V218.306C1043.57 218.034 1056.13 217.322 1068.74 215.921Z" fill="#661F18"/>
</g>
</g>
</g>
<path id="leaves-motion-path" d="M-64.2112 -156.19C17.2578 76.7322 280.263 542.577 680.533 542.577C1080.8 542.577 1388.69 76.7322 1492.59 -156.19" stroke="#45825B" stroke-width="10"/>
</g>
<defs>
<clipPath id="clip0_23:180">
<rect width="1440" height="1024" fill="white"/>
</clipPath>
</defs>
</svg>
