<svg width="1440" height="1024" viewBox="0 0 1440 1024" fill="none" xmlns="http://www.w3.org/2000/svg">
<g id="preloader" clip-path="url(#clip0_23:180)">
<rect width="1440" height="1024" fill="white"/>
<g id="baby pumpkin">
<g id="Vector">
<mask id="path-1-inside-1_23:180" fill="white">
<path d="M748.495 453.27C744.697 456.541 745.078 458.325 745.903 459.803C746.727 461.281 743.21 461.693 743.055 459.181C742.901 456.67 744.865 453.154 746.931 452.501C748.988 451.807 748.495 453.27 748.495 453.27Z"/>
</mask>
<path d="M748.495 453.27C744.697 456.541 745.078 458.325 745.903 459.803C746.727 461.281 743.21 461.693 743.055 459.181C742.901 456.67 744.865 453.154 746.931 452.501C748.988 451.807 748.495 453.27 748.495 453.27Z" fill="#45825B" stroke="#3D5545" stroke-width="0.580782" mask="url(#path-1-inside-1_23:180)"/>
</g>
<g id="Vector_2">
<mask id="path-2-inside-2_23:180" fill="white">
<path d="M739.937 468.414C740.63 471.658 743.578 472.556 746.783 471.871C750.029 471.178 752.313 469.163 751.62 465.918C750.927 462.674 747.485 459.465 744.28 460.149C741.075 460.833 739.252 465.209 739.937 468.414Z"/>
</mask>
<path d="M739.937 468.414C740.63 471.658 743.578 472.556 746.783 471.871C750.029 471.178 752.313 469.163 751.62 465.918C750.927 462.674 747.485 459.465 744.28 460.149C741.075 460.833 739.252 465.209 739.937 468.414Z" fill="#8DC69E" stroke="#45825B" stroke-width="0.580782" mask="url(#path-2-inside-2_23:180)"/>
</g>
</g>
<circle id="Ellipse 7" cx="746.5" cy="453.918" r="1.4" fill="#45825B" stroke="#3D5545" stroke-width="0.2"/>
<g id="whole-plant">
<g id="baby plant split">
<path id="right plant" fill-rule="evenodd" clip-rule="evenodd" d="M658.863 580.55C649.498 582.168 638.008 585.879 638.557 594.663C639.516 607.812 623.353 608.36 623.353 608.36C623.353 608.36 629.38 586.17 645.543 579.321C651.562 576.72 657.2 575.999 661.617 576.14C667.001 575.563 675.364 576.094 683.776 582.257C692.342 588.534 694.435 594.861 695.963 599.482C696.953 602.474 697.706 604.751 699.827 605.835C699.827 605.835 682.669 600.595 676.166 594.115C675.481 593.432 674.785 592.727 674.081 592.013C669.215 587.079 663.93 581.719 658.863 580.55Z" fill="#45825B"/>
<path id="left plant" fill-rule="evenodd" clip-rule="evenodd" d="M585.732 583.986C592.936 578.994 599.863 581.906 599.863 581.906C599.863 581.906 599.966 581.973 600.119 582.081C604.292 583.033 611.389 585.21 616.006 586.942C623.677 589.818 631.21 597.626 630.114 603.927C628.882 610.091 621.896 607.351 621.896 607.351C621.896 607.351 622.718 592.147 610.801 588.037C602.938 585.247 600.189 584.075 598.883 583.361C596.104 583.517 593.031 586.501 590.256 589.196C589.945 589.498 589.637 589.797 589.334 590.087C586.009 593.276 577.42 595.634 577.42 595.634C578.509 595.089 578.913 593.944 579.44 592.452C580.253 590.148 581.359 587.016 585.732 583.986Z" fill="#45825B"/>
</g>
<g id="baby pumpkin plant">
<path id="stem right" d="M633.878 599.64C633.878 599.64 633.033 577.17 634.16 571.69C635.287 566.209 636.977 563.058 635.005 557.577C633.033 552.097 635.568 547.164 636.695 545.52C637.822 543.876 636.977 540.862 633.597 543.465C630.357 546.068 631.766 554.7 631.766 556.892C631.906 570.731 618.526 582.788 626.695 599.777C634.864 616.766 633.878 599.64 633.878 599.64Z" fill="#45825B"/>
<path id="big leaf right" d="M635.876 542.506C635.876 542.506 647.577 533.503 664.095 539.281C680.477 545.059 680.064 555.809 685.983 557.018C685.983 557.018 668.225 556.884 660.103 552.584C651.982 548.284 642.621 542.371 636.426 545.596C630.232 548.687 635.876 542.506 635.876 542.506Z" fill="#45825B"/>
<ellipse id="morph-right-plant" cx="631.337" cy="603.285" rx="4.37166" ry="4.73596" fill="#45825B"/>
<circle id="morph-right-leaf" cx="635.709" cy="543.904" r="1.45722" fill="#45825B"/>
<path id="stem left" d="M633.878 599.64C633.878 599.64 633.033 577.17 634.16 571.69C635.287 566.209 636.977 563.058 635.005 557.577C633.033 552.097 635.568 547.164 636.695 545.52C637.822 543.876 636.977 540.862 633.597 543.465C630.357 546.068 631.766 554.7 631.766 556.892C631.906 570.731 618.526 582.788 626.695 599.777C634.864 616.766 633.878 599.64 633.878 599.64Z" fill="#45825B"/>
<path id="small leaf left" d="M635.265 542.228C635.265 542.228 629.517 537.504 621.63 540.561C613.61 543.618 613.877 549.037 610.936 549.732C610.936 549.732 619.625 549.593 623.502 547.37C627.378 545.146 632.057 542.089 634.998 543.757C638.073 545.424 635.265 542.228 635.265 542.228Z" fill="#45825B"/>
<ellipse id="morph-left-plant" cx="631.337" cy="603.285" rx="4.37166" ry="4.73596" fill="#45825B"/>
<circle id="morph-left-leaf" cx="635.709" cy="543.904" r="1.45722" fill="#45825B"/>
</g>
<g id="p-plant3">
<path id="stem3" d="M622.958 598.913C617.372 582.519 598.477 546.089 567.584 531.517" stroke="#45825B" stroke-width="15" stroke-linecap="round"/>
<g id="leaf-head3">
<ellipse id="morph-leaf3" cx="567.584" cy="531.516" rx="5.46457" ry="5.82888" fill="#45825B"/>
<path id="leaf3" d="M571.688 555.859C576.864 546.149 567.778 535.247 562.588 531.009C566.589 532.403 576.157 533.156 582.429 525.024C590.268 514.859 589.821 510.778 582.171 502.693C574.521 494.608 561.836 495.61 556.531 495.817C551.225 496.025 541.196 490.476 537.831 495.845C534.465 501.214 526.826 500.609 515.256 505.924C503.686 511.239 514.888 516.636 513.77 520.92C512.652 525.203 521.722 535.651 518.667 542.811C515.613 549.97 517.34 546.086 532.649 557.4C547.959 568.714 565.217 567.997 571.688 555.859Z" fill="#2F573E"/>
<g id="leaf-lines3">
<path id="main-line3" d="M565.072 532.1C557.799 524.437 549.099 523.202 538.474 522.835C529.973 522.542 517.447 513.886 512.247 509.595" stroke="#54A06F" stroke-width="1.93794" stroke-linecap="round" stroke-linejoin="round"/>
<path id="outward-lines3" d="M538.851 522.867C537.372 519.424 535.447 511.177 539.584 505.74M545.309 523.366C540.487 526.297 530.237 534.227 527.803 542.5M556.274 525.5C552.905 521.399 547.773 510.091 554.192 497.674M562.86 530.67C558.559 532.286 548.819 538.787 544.267 551.854M527.803 519.659C526.037 520.975 522.062 524.873 520.297 529.94M520.923 515.314C520.341 514.301 519.493 511.264 520.753 507.218" stroke="#54A06F" stroke-width="1.93794" stroke-linecap="round"/>
</g>
</g>
</g>
<g id="p-plant1">
<path id="stem1" d="M622.958 599.642C624.051 562.483 645.982 481.462 724.963 454.649C823.69 421.133 825.876 493.265 910.03 496.908" stroke="#45825B" stroke-width="15" stroke-linecap="round"/>
<g id="leaf-head1">
<circle id="leaf-morph1" cx="910.03" cy="496.908" r="5.46457" fill="#45825B"/>
<path id="leaf1" d="M890.39 451.021C882.303 472.244 903.73 492.219 915.455 499.553C906.903 497.735 887.114 498.668 876.375 516.944C862.952 539.789 864.924 548.03 882.682 562.606C900.441 577.182 926.156 571.848 936.967 570.05C947.778 568.251 969.75 577.02 975.252 565.154C980.755 553.288 996.555 552.55 1018.87 538.672C1041.19 524.795 1016.85 516.641 1018.03 507.581C1019.21 498.521 997.938 479.472 1002.34 464.02C1006.74 448.569 1004.21 456.969 969.933 437.763C935.654 418.557 900.5 424.492 890.39 451.021Z" fill="#2F573E"/>
<g id="leaf-lines1">
<path id="main-line1" d="M910.635 498.014C926.58 508.852 943.146 509.767 963.017 509.15C978.913 508.656 1004.94 520.422 1015.97 526.367" stroke="#54A06F" stroke-width="4" stroke-linecap="round" stroke-linejoin="round"/>
<path id="outward-lines1" d="M966.17 510.085C970.091 516.753 976.166 533.142 969.102 545.346M952.607 509.063C961.721 501.814 980.66 482.923 983.502 465.351M929.551 507.141C937.511 514.669 950.946 536.495 941.016 563.584M914.986 500.32C923.376 495.897 941.64 480.065 947.579 452.128M988.059 513.993C991.336 510.842 998.466 501.83 1000.77 490.997M1004.84 520.913C1006.29 522.836 1008.81 528.835 1007.28 537.447" stroke="#54A06F" stroke-width="4" stroke-linecap="round"/>
</g>
</g>
</g>
<g id="p-plant2">
<path id="stem2" d="M623.322 601.828C622.837 540.382 586.528 426.233 445.177 461.206" stroke="#45825B" stroke-width="15" stroke-linecap="round"/>
<g id="leaf-head2">
<circle id="morph-leaf2" cx="445.177" cy="461.206" r="5.46457" fill="#45825B"/>
<path id="leaf2" d="M458.721 426.326C465.957 441.776 451.014 457.929 442.638 464.074C448.944 462.238 463.82 461.838 472.879 474.933C484.202 491.302 483.182 497.584 470.688 509.489C458.195 521.395 438.634 518.826 430.436 518.079C422.237 517.332 406.264 525.12 401.483 516.536C396.703 507.953 384.826 508.277 367.337 499.119C349.848 489.962 367.627 482.503 366.24 475.782C364.852 469.06 379.733 453.609 375.578 442.278C371.422 430.947 373.785 437.1 398.398 420.81C423.011 404.519 449.675 407.014 458.721 426.326Z" fill="#2F573E"/>
<g id="leaf-lines2">
<path id="main-line2" d="M446.164 462.653C434.82 471.658 422.462 473.263 407.541 473.903C395.605 474.416 376.76 484.675 368.83 489.74" stroke="#54A06F" stroke-width="3.00471" stroke-linecap="round" stroke-linejoin="round"/>
<path id="outward-lines2" d="M405.231 474.779C402.664 479.993 399.023 492.607 404.992 501.357M415.335 473.261C408.105 468.337 392.869 455.236 389.765 442.231M432.5 470.542C426.955 476.622 418.102 493.719 427.044 513.461M443.032 464.624C436.502 461.775 421.941 450.929 415.941 430.33M389.051 478.922C386.421 476.743 380.579 470.388 378.253 462.401M376.866 485.037C375.883 486.558 374.326 491.192 375.953 497.559" stroke="#54A06F" stroke-width="3.00471" stroke-linecap="round"/>
</g>
</g>
</g>
<g id="p-plant4">
<path id="stem4" d="M541.354 460.477C529.453 453.191 506.599 431.114 510.388 401.096" stroke="#45825B" stroke-width="10" stroke-linecap="round"/>
<g id="leaf-head4">
<circle id="moprh-leaf4" cx="510.388" cy="401.096" r="3.64305" fill="#45825B"/>
<path id="leaf4" d="M519.285 412.969C512.332 411.838 510.305 402.982 510.16 398.695C509.318 401.273 505.99 406.438 499.416 406.477C491.198 406.526 489.294 404.715 488.144 397.683C486.994 390.651 492.425 384.58 494.589 381.959C496.753 379.338 497.817 372.078 501.857 372.447C505.897 372.816 508.552 368.691 515.747 364.861C522.941 361.03 521.344 368.829 523.959 369.921C526.574 371.013 528.376 379.685 533.207 380.907C538.038 382.129 535.39 381.501 535.213 393.686C535.036 405.872 527.976 414.382 519.285 412.969Z" fill="#2F573E"/>
<g id="leaf-lines4">
<path id="main-line4" d="M509.824 400.228C509.395 394.264 511.726 389.676 514.982 384.44C517.587 380.251 518.477 371.437 518.597 367.554" stroke="#54A06F" stroke-width="1.24059" stroke-linecap="round" stroke-linejoin="round"/>
<path id="outward-lines4" d="M515.221 383.448C514.041 381.358 510.589 377.179 506.215 377.177M513.386 387.246C516.748 385.928 524.763 383.784 529.92 385.754M510.316 393.731C509.534 390.425 505.767 383.425 496.953 381.877M509.881 398.701C512.373 397.137 519.462 394.699 527.882 397.45M517.576 376.966C518.932 376.577 522.459 376.065 525.724 377.132M518.329 371.388C518.039 370.699 516.822 369.089 514.272 368.16" stroke="#54A06F" stroke-width="1.24059" stroke-linecap="round"/>
</g>
</g>
</g>
<g id="dirt">
<path id="dirt outline" d="M829.698 600.944L829.424 602.313C827.095 601.902 824.903 601.491 822.712 601.081C818.876 600.396 815.178 599.711 811.891 599.163C796.823 596.697 786.276 595.602 775.318 596.697C774.77 596.697 774.359 596.834 773.811 596.834C768.606 597.656 762.031 599.711 754.498 602.039C735.184 608.203 708.611 616.422 684.503 608.477C652.862 597.93 614.097 595.054 590.126 601.492C579.716 604.231 543.418 612.861 515.748 605.738C495.75 600.67 478.08 598.478 456.575 604.231C454.109 604.916 451.37 605.464 448.356 606.149C440.823 607.792 431.645 609.299 423.016 610.669C421.098 610.943 419.18 611.217 417.4 611.491L417.126 610.121C418.906 609.847 420.687 609.573 422.468 609.299C430.823 608.066 439.59 606.56 446.987 605.053C450.411 604.368 453.561 603.683 456.164 602.998C477.943 597.245 495.75 599.437 516.022 604.505C534.514 609.162 562.046 607.518 589.716 600.259C614.234 593.684 652.451 596.56 684.914 607.244C708.474 615.052 734.773 606.834 753.95 600.807C761.894 598.341 768.88 596.149 774.222 595.465C774.496 595.465 774.77 595.328 775.044 595.328C786.276 594.232 797.097 595.328 812.576 597.93C815.863 598.478 819.424 599.163 823.26 599.848C825.314 600.122 827.506 600.533 829.698 600.944Z" fill="#63432E"/>
<path id="large dirt" d="M822.961 600.988C813.509 621.444 773.371 637.096 751.453 645.882C725.836 656.179 738.987 692.974 688.301 702.447C637.616 712.057 612.684 669.359 550.765 678.558C488.846 687.756 496.791 656.179 459.668 643.686C439.119 636.821 428.023 623.778 422.955 610.461C431.722 609.088 440.763 607.578 448.297 605.93C451.311 605.244 454.051 604.695 456.517 604.008C477.887 598.242 495.696 600.438 515.696 605.518C543.368 612.52 579.67 604.008 590.081 601.262C614.054 594.809 652.821 597.83 684.466 608.264C708.439 616.227 735.015 607.852 754.467 601.811C762.001 599.477 768.577 597.418 773.782 596.594C774.33 596.457 774.878 596.457 775.289 596.457C786.248 595.359 796.933 596.457 811.865 598.928C815.427 599.752 818.989 600.301 822.961 600.988Z" fill="#C47B57"/>
</g>
</g>
<g id="grown up pumpkin">
<path id="Vector_3" d="M756.986 476.156C754.378 476.486 752.673 477.527 752.149 477.837C751.626 478.148 749.57 479.028 748.004 481.614C745.368 476.552 741.807 467.041 743.886 454.65C743.872 454.771 743.886 454.649 747.77 453.845C746.271 467.095 749.934 473.984 756.986 476.156Z" fill="#44150E"/>
<path id="Vector_4" d="M817.588 524.427C812.757 533.397 806.194 538.566 800.352 541.607C804.998 538.865 809.962 534.319 813.479 526.738C820.713 510.864 818.663 498.148 809.453 483.677C800.311 469.152 785.414 465.333 776.019 467.255C774.514 467.582 773.049 468.097 771.76 468.693C774.123 467.234 776.648 465.976 779.604 465.255C790.181 462.604 806.502 465.719 815.778 480.136C825.122 494.499 826.716 507.472 817.588 524.427Z" fill="#B9542F" stroke="#7D2B1B" stroke-width="0.551355" stroke-miterlimit="10"/>
<path id="Vector_5" d="M813.425 526.671C809.908 534.252 804.944 538.798 800.298 541.54C799.452 542 798.606 542.459 797.827 542.865C797.961 542.757 798.095 542.649 798.296 542.487C801.223 540.354 803.997 536.796 805.609 530.969C809.325 517.041 806.173 504.879 797.286 490.259C788.399 475.639 776.309 470.226 769.196 470.865C768.887 470.892 768.578 470.92 768.201 471.002C767.892 471.03 767.637 471.124 767.261 471.206C768.657 470.194 770.107 469.248 771.718 468.504C773.008 467.909 774.405 467.448 775.978 467.067C785.373 465.145 800.203 469.017 809.412 483.488C818.608 498.081 820.713 510.863 813.425 526.671Z" fill="#B9542F" stroke="#7D2B1B" stroke-width="0.551355" stroke-miterlimit="10"/>
<path id="Vector_6" d="M805.663 531.035C804.105 536.93 801.277 540.421 798.351 542.553C798.216 542.661 798.082 542.769 797.881 542.931C796.498 543.823 795.074 544.526 793.744 544.933C793.824 544.758 793.959 544.65 794.039 544.475C794.106 544.421 794.119 544.3 794.119 544.3C794.882 542.913 795.185 540.679 794.907 537.036C793.869 525.716 789.159 514.366 780.595 499.597C773.07 486.533 765.668 479.117 761.385 476.816C761.331 476.749 761.21 476.736 761.156 476.668C760.86 476.575 760.631 476.428 760.335 476.335C762.347 474.164 764.399 472.181 767.369 471.339C767.624 471.245 767.933 471.217 768.31 471.135C768.619 471.107 768.928 471.08 769.304 470.998C776.363 470.293 788.453 475.705 797.394 490.392C806.16 504.999 809.379 517.107 805.663 531.035Z" fill="#B9542F" stroke="#7D2B1B" stroke-width="0.551355" stroke-miterlimit="10"/>
<path id="Vector_7" d="M794.92 536.915C795.266 540.505 794.895 542.792 794.132 544.179C794.065 544.233 794.052 544.354 794.052 544.354C793.972 544.529 793.838 544.637 793.758 544.812C792.833 545.998 791.839 546.687 790.993 547.146C790.013 547.714 789.046 548.16 787.567 548.245C787.379 548.286 787.258 548.273 787.016 548.247C786.894 548.234 786.894 548.234 786.773 548.22C785.2 548.05 783.086 547.209 780.202 544.998C771.268 538.151 764.142 528.192 756.114 512.992C749.046 499.671 746.653 489.552 747.003 484.629C747.016 484.508 747.029 484.387 747.029 484.387C747.069 484.024 747.095 483.781 747.188 483.485C747.268 483.31 747.228 483.122 747.308 482.947C747.548 482.422 747.789 481.897 748.084 481.439C749.651 478.852 751.706 477.973 752.23 477.662C752.753 477.351 754.404 476.244 757.066 475.981C757.873 475.885 758.855 475.869 759.823 475.973C759.944 475.987 760.119 476.067 760.294 476.147C760.591 476.24 760.82 476.388 761.116 476.481C761.17 476.548 761.291 476.561 761.345 476.628C761.399 476.695 761.399 476.695 761.52 476.708C762.382 477.23 763.419 477.833 764.538 478.811C768.81 482.336 774.624 489.152 780.608 499.476C789.16 514.366 793.869 525.716 794.92 536.915Z" fill="#B9542F" stroke="#7D2B1B" stroke-width="0.551355" stroke-miterlimit="10"/>
<path id="Vector_8" d="M781.27 552.095C775.576 555.459 767.676 558.278 757.521 557.607C738.3 556.382 728.112 548.113 720.85 532.628C713.534 517.076 719.68 501.635 727.487 494.029C729.741 491.884 732.05 490.358 734.562 489.222C733.313 490.005 732.172 490.923 731.126 492.095C724.501 498.972 719.846 513.656 727.296 529.101C734.746 544.545 744.411 553.125 761.684 555.363C769.957 556.443 776.462 554.636 781.27 552.095Z" fill="#B9542F" stroke="#7D2B1B" stroke-width="0.551355" stroke-miterlimit="10"/>
<path id="Vector_9" d="M783.62 550.758C782.895 551.231 782.049 551.69 781.203 552.15C776.395 554.691 769.891 556.498 761.617 555.418C744.344 553.18 734.679 544.6 727.229 529.156C719.779 513.711 724.434 499.027 731.06 492.15C732.16 491.045 733.367 490.073 734.495 489.277C735.945 488.331 737.557 487.587 739.155 486.964C738.954 487.126 738.74 487.409 738.471 487.625C738.257 487.908 738.056 488.07 737.841 488.353C733.499 493.946 731.704 507.102 739.355 522.385C747.061 537.734 755.624 546.868 769.379 551.053C775.247 552.852 779.711 552.356 783.042 551.002C783.298 550.907 783.486 550.866 783.62 550.758Z" fill="#B9542F" stroke="#7D2B1B" stroke-width="0.551355" stroke-miterlimit="10"/>
<path id="Vector_10" d="M787.499 548.299C786.426 549.163 785.164 550.067 783.619 550.757C783.431 550.798 783.297 550.906 783.109 550.947C779.777 552.301 775.314 552.797 769.446 550.998C755.691 546.814 747.073 537.612 739.422 522.33C731.716 506.981 733.565 493.891 737.908 488.298C738.122 488.015 738.27 487.786 738.538 487.57C738.752 487.287 738.954 487.125 739.222 486.909C741.53 484.832 744.298 484.152 747.175 483.606C747.148 483.848 747.055 484.144 747.016 484.508C747.003 484.629 746.989 484.75 746.989 484.75C746.639 489.673 749.032 499.792 756.1 513.113C764.074 528.246 771.201 538.204 780.189 545.119C783.072 547.329 785.186 548.171 786.76 548.341C786.881 548.354 786.881 548.354 787.002 548.368C787.19 548.327 787.311 548.34 787.499 548.299Z" fill="#B9542F" stroke="#7D2B1B" stroke-width="0.551355" stroke-miterlimit="10"/>
</g>
<g id="full pum[kin">
<g id="pumpkin">
<g id="pumpkin body final">
<path id="Vector_11" d="M1114.38 222.046C1090.18 237.513 1066.72 241.342 1048.09 240.933C1063.45 240.524 1082 236.063 1101.04 222.046C1140.86 192.712 1153.01 158.247 1150.26 109.728C1147.51 61.2098 1115.95 31.2435 1090.07 23.2129C1085.79 21.8744 1081.63 21.168 1077.58 20.8706C1085.39 20.4244 1093.34 20.9449 1101.78 23.2129C1131.56 31.2435 1167.89 61.2098 1171.08 109.728C1174.24 158.284 1160.23 192.749 1114.38 222.046Z" fill="#B9542F" stroke="#7D2B1B" stroke-width="2.93278" stroke-miterlimit="10"/>
<path id="Vector_12" d="M1101.04 222.047C1082 236.063 1063.45 240.525 1048.09 240.934C1045.38 241.008 1042.74 240.934 1040.25 240.785C1040.77 240.748 1041.33 240.673 1041.85 240.636C1052 239.409 1063.75 234.465 1075.79 222.047C1104.23 192.712 1112.9 158.248 1110.93 109.729C1108.96 61.2103 1086.43 31.244 1067.95 23.2134C1067.09 22.8416 1066.24 22.507 1065.42 22.2467C1064.56 21.9493 1063.75 21.7262 1062.89 21.5403C1067.69 20.8711 1072.59 20.5365 1077.58 20.9083C1081.63 21.2057 1085.79 21.9121 1090.07 23.2505C1115.95 31.2812 1147.51 61.2475 1150.26 109.766C1153.01 158.285 1140.86 192.75 1101.04 222.047Z" fill="#B9542F" stroke="#7D2B1B" stroke-width="2.93278" stroke-miterlimit="10"/>
<path id="Vector_13" d="M1075.75 222.047C1063.71 234.464 1051.96 239.372 1041.81 240.636C1041.29 240.71 1040.73 240.748 1040.21 240.785C1035.49 241.194 1031.14 240.822 1027.31 240.078C1027.76 239.855 1028.24 239.632 1028.72 239.335C1028.91 239.223 1029.06 239.112 1029.24 239C1032.92 236.546 1036.98 231.453 1041.07 222.047C1053.86 192.712 1057.76 158.247 1056.87 109.729C1056.09 66.8985 1048.09 38.5681 1040.55 26.9683C1040.4 26.7452 1040.25 26.5221 1040.1 26.2991C1039.58 25.5555 1039.06 24.8862 1038.54 24.2914C1046.49 21.726 1054.38 19.5325 1062.89 21.5773C1063.71 21.7632 1064.56 22.0235 1065.42 22.2837C1066.27 22.5812 1067.09 22.8786 1067.95 23.2504C1086.43 31.281 1108.96 61.2473 1110.93 109.766C1112.86 158.285 1104.2 192.75 1075.75 222.047Z" fill="#B9542F" stroke="#7D2B1B" stroke-width="2.93278" stroke-miterlimit="10"/>
<path id="Vector_14" d="M1041.07 222.047C1036.98 231.453 1032.93 236.546 1029.24 239C1029.06 239.112 1028.91 239.223 1028.72 239.335C1028.24 239.632 1027.79 239.855 1027.31 240.078C1023.37 241.826 1019.88 242.049 1017.24 242.012C1014.04 241.975 1011.1 241.826 1007.16 240.078C1006.71 239.855 1006.23 239.632 1005.75 239.335C1005.56 239.223 1005.41 239.112 1005.23 239C1001.55 236.546 997.494 231.453 993.404 222.047C980.614 192.712 976.711 158.247 977.603 109.729C978.384 66.8986 986.377 38.5682 993.924 26.9683C994.073 26.7453 994.222 26.5222 994.371 26.2991C994.891 25.5555 995.412 24.8863 995.932 24.2915C996.267 23.9197 996.564 23.5107 996.936 23.2504C998.274 22.1722 999.613 21.28 1000.91 20.5736C1008.35 16.3351 1014.6 17.0044 1016.34 17.0044C1017.98 17.0044 1023.7 16.5582 1030.62 19.3838C1032.81 20.2761 1035.16 21.5402 1037.54 23.2504C1037.91 23.5107 1038.2 23.9197 1038.5 24.2915C1039.02 24.8863 1039.54 25.5555 1040.06 26.2991C1040.21 26.5222 1040.36 26.7453 1040.51 26.9683C1040.58 27.0799 1040.66 27.2286 1040.77 27.3401C1042.29 29.7568 1043.86 32.8426 1045.34 36.5977C1051.18 51.2462 1056.27 76.0075 1056.87 109.729C1057.76 158.285 1053.86 192.75 1041.07 222.047Z" fill="#B9542F" stroke="#7D2B1B" stroke-width="2.93278" stroke-miterlimit="10"/>
<path id="Vector_15" d="M986.414 240.933C967.788 241.342 944.291 237.513 920.087 222.046C874.245 192.712 860.266 158.247 863.426 109.728C866.624 61.2098 902.947 31.2435 932.728 23.2129C941.13 20.9449 949.124 20.4244 956.931 20.8706C952.879 21.168 948.715 21.8744 944.439 23.2129C918.563 31.2435 886.998 61.2098 884.246 109.728C881.495 158.247 893.653 192.712 933.471 222.046C952.507 236.063 971.022 240.524 986.414 240.933Z" fill="#B9542F" stroke="#7D2B1B" stroke-width="2.93278" stroke-miterlimit="10"/>
<path id="Vector_16" d="M994.259 240.784C991.768 240.933 989.128 241.008 986.414 240.933C971.059 240.524 952.507 236.063 933.471 222.046C893.653 192.712 881.495 158.247 884.246 109.728C886.998 61.2098 918.563 31.2435 944.439 23.2128C948.715 21.8744 952.879 21.168 956.931 20.8706C961.913 20.5359 966.821 20.8334 971.617 21.5026C970.799 21.6885 969.944 21.9487 969.089 22.209C968.234 22.5064 967.416 22.8039 966.561 23.1757C948.083 31.2063 925.552 61.1726 923.582 109.691C921.611 158.21 930.274 192.675 958.716 222.009C970.762 234.427 982.51 239.334 992.66 240.599C993.181 240.71 993.739 240.747 994.259 240.784Z" fill="#B9542F" stroke="#7D2B1B" stroke-width="2.93278" stroke-miterlimit="10"/>
<path id="Vector_17" d="M1007.16 240.079C1003.33 240.822 998.982 241.194 994.26 240.785C993.739 240.748 993.219 240.674 992.661 240.636C982.511 239.409 970.763 234.465 958.717 222.047C930.275 192.713 921.612 158.248 923.582 109.729C925.553 61.2105 948.083 31.2442 966.561 23.2135C967.417 22.8417 968.272 22.5071 969.09 22.2468C969.945 21.9494 970.763 21.7263 971.618 21.5404C980.132 19.5328 988.014 21.7263 995.97 24.2545C995.449 24.8494 994.929 25.5186 994.408 26.2622C994.26 26.4853 994.111 26.7083 993.962 26.9314C986.378 38.5313 978.421 66.8988 977.641 109.692C976.748 158.211 980.652 192.675 993.442 222.01C997.531 231.416 1001.55 236.51 1005.26 238.963C1005.45 239.075 1005.6 239.186 1005.79 239.298C1006.23 239.633 1006.68 239.893 1007.16 240.079Z" fill="#B9542F" stroke="#7D2B1B" stroke-width="2.93278" stroke-miterlimit="10"/>
</g>
<path id="stem" d="M1030.62 19.3837C1023.67 16.5209 1017.98 17.0043 1016.34 17.0043C1014.6 17.0043 1008.31 16.2979 1000.91 20.5734C1001.29 4.47493 1005.52 -24.0414 1027.65 -52C1027.53 -51.7026 1024.52 -42.2591 1030.77 -26.867C1020.88 -13.371 1015.97 4.36339 1030.62 19.3837Z" fill="#44150E"/>
</g>
<g id="face-stroke">
<path id="righ- eye-stroke" d="M1104.72 106.086C1100.96 105.342 1088.25 104.971 1067.98 104.971C1058.06 104.971 1049.92 105.082 1049.84 105.082L1048.13 105.119L1048.58 103.446C1051.18 93.5566 1063.52 47.7892 1063.63 47.343L1064.08 45.6328L1065.57 46.5623C1077.73 54.184 1104.94 102.145 1106.09 104.19L1107.47 106.644L1104.72 106.086Z" stroke="#44150E" stroke-width="2.34623"/>
<path id="left-eye-stroke" d="M980.429 103.855C964.553 100.695 951.466 99.0589 941.539 99.0589C933.769 99.0589 930.943 100.1 930.906 100.1L928.564 100.992L929.159 98.5756C931.39 89.5783 940.015 77.1976 954.738 61.7684C965.631 50.3544 976.042 41.4314 976.153 41.3199L977.715 39.9814L978.272 41.9519C982.139 55.5966 981.99 100.62 981.99 102.517V104.078L980.429 103.855Z" stroke="#44150E" stroke-width="2.34623"/>
<path id="nose-stroke" d="M1034.56 139.473C1031.1 138.841 1025.53 138.506 1018.02 138.506C1005.15 138.506 990.876 139.473 990.727 139.51L989.128 139.621L989.351 138.023C990.578 128.951 1012.14 84.9683 1013.07 83.1094L1014.08 81.0273L1015.3 82.9978C1022.81 94.8208 1035.49 136.089 1036.01 137.837L1036.64 139.882L1034.56 139.473Z" stroke="#44150E" stroke-width="2.34623"/>
<path id="mouth-stroke" d="M1029.39 189.515L1001.95 188.734L999.575 216.433L998.163 216.21C977.603 212.715 960.76 205.502 950.276 200.074C938.193 193.791 927.076 183.083 918.971 169.884C909.602 154.567 904.211 135.977 903.468 116.049L903.319 112.183L905.773 115.194C905.996 115.492 930.051 144.603 952.507 152.745C954.143 153.34 955.741 153.897 957.34 154.455L958.158 154.753L959.682 183.604L983.588 184.979L985.819 162.969L987.232 163.267C996.415 165.237 1005 166.204 1013.44 166.204C1014.15 166.204 1014.86 166.204 1015.56 166.167C1016.68 166.129 1017.87 166.129 1019.21 166.129C1022.51 166.129 1026.23 166.204 1030.14 166.241C1034.11 166.315 1038.24 166.39 1042.48 166.39H1043.63L1046.35 188.92L1069.96 191.039V165.088L1071.07 164.94C1081.52 163.527 1088.66 160.999 1092.93 157.281C1107.13 144.826 1125.69 126.831 1125.87 126.645L1128.55 124.043L1128.07 127.761C1127.99 128.355 1126.06 142.595 1118.06 159.697C1113.34 169.736 1107.54 178.696 1100.74 186.243C1092.23 195.724 1082.15 203.048 1070.81 207.993C1058.21 213.533 1044.71 216.842 1030.77 217.845L1029.39 217.957V189.515V189.515Z" stroke="#44150E" stroke-width="2.34623"/>
</g>
<g id="face-fill">
<path id="right-eye-fill" d="M1104.72 106.086C1100.96 105.342 1088.25 104.971 1067.98 104.971C1058.06 104.971 1049.92 105.082 1049.84 105.082L1048.13 105.119L1048.58 103.446C1051.18 93.5566 1063.52 47.7892 1063.63 47.343L1064.08 45.6328L1065.57 46.5623C1077.73 54.184 1104.94 102.145 1106.09 104.19L1107.47 106.644L1104.72 106.086Z" fill="#44150E"/>
<path id="left-eye-fill" d="M980.429 103.855C964.553 100.695 951.466 99.0589 941.539 99.0589C933.769 99.0589 930.943 100.1 930.906 100.1L928.564 100.992L929.159 98.5756C931.39 89.5783 940.015 77.1976 954.738 61.7684C965.631 50.3544 976.042 41.4314 976.153 41.3199L977.715 39.9814L978.272 41.9519C982.139 55.5966 981.99 100.62 981.99 102.517V104.078L980.429 103.855Z" fill="#44150E"/>
<path id="nose-fill" d="M1034.56 139.473C1031.1 138.841 1025.53 138.506 1018.02 138.506C1005.15 138.506 990.876 139.473 990.727 139.51L989.128 139.621L989.351 138.023C990.578 128.951 1012.14 84.9683 1013.07 83.1094L1014.08 81.0273L1015.3 82.9978C1022.81 94.8208 1035.49 136.089 1036.01 137.837L1036.64 139.882L1034.56 139.473Z" fill="#44150E"/>
<path id="mouth-fill" d="M1029.39 189.515L1001.95 188.734L999.575 216.433L998.163 216.21C977.603 212.715 960.76 205.502 950.276 200.074C938.193 193.791 927.076 183.083 918.971 169.884C909.602 154.567 904.211 135.977 903.468 116.049L903.319 112.183L905.773 115.194C905.996 115.492 930.051 144.603 952.507 152.745C954.143 153.34 955.741 153.897 957.34 154.455L958.158 154.753L959.682 183.604L983.588 184.979L985.819 162.969L987.232 163.267C996.415 165.237 1005 166.204 1013.44 166.204C1014.15 166.204 1014.86 166.204 1015.56 166.167C1016.68 166.129 1017.87 166.129 1019.21 166.129C1022.51 166.129 1026.23 166.204 1030.14 166.241C1034.11 166.315 1038.24 166.39 1042.48 166.39H1043.63L1046.35 188.92L1069.96 191.039V165.088L1071.07 164.94C1081.52 163.527 1088.66 160.999 1092.93 157.281C1107.13 144.826 1125.69 126.831 1125.87 126.645L1128.55 124.043L1128.07 127.761C1127.99 128.355 1126.06 142.595 1118.06 159.697C1113.34 169.736 1107.54 178.696 1100.74 186.243C1092.23 195.724 1082.15 203.048 1070.81 207.993C1058.21 213.533 1044.71 216.842 1030.77 217.845L1029.39 217.957V189.515V189.515Z" fill="#44150E"/>
</g>
<g id="light">
<g id="dimmer light">
<mask id="mask0_23:180" style="mask-type:alpha" maskUnits="userSpaceOnUse" x="912" y="75" width="202" height="203">
<g id="Group">
<path id="5" opacity="0.26" d="M1012.8 277.331C1068.42 277.331 1113.51 232.238 1113.51 176.613C1113.51 120.988 1068.42 75.8955 1012.8 75.8955C957.17 75.8955 912.077 120.988 912.077 176.613C912.077 232.238 957.17 277.331 1012.8 277.331Z" fill="white"/>
<path id="4" opacity="0.63" d="M1012.8 259.188C1058.4 259.188 1095.37 222.218 1095.37 176.614C1095.37 131.009 1058.4 94.0391 1012.8 94.0391C967.191 94.0391 930.221 131.009 930.221 176.614C930.221 222.218 967.191 259.188 1012.8 259.188Z" fill="white"/>
<path id="3" d="M1012.8 241.081C1048.4 241.081 1077.26 212.218 1077.26 176.613C1077.26 141.008 1048.4 112.145 1012.8 112.145C977.191 112.145 948.327 141.008 948.327 176.613C948.327 212.218 977.191 241.081 1012.8 241.081Z" fill="white"/>
<path id="2" d="M1012.79 226.471C1040.33 226.471 1062.65 204.149 1062.65 176.614C1062.65 149.079 1040.33 126.757 1012.79 126.757C985.259 126.757 962.938 149.079 962.938 176.614C962.938 204.149 985.259 226.471 1012.79 226.471Z" fill="white"/>
<path id="1" d="M1012.79 211.859C1032.26 211.859 1048.04 196.079 1048.04 176.613C1048.04 157.147 1032.26 141.367 1012.79 141.367C993.329 141.367 977.549 157.147 977.549 176.613C977.549 196.079 993.329 211.859 1012.79 211.859Z" fill="white"/>
</g>
</mask>
<g mask="url(#mask0_23:180)">
<g id="right eye" style="mix-blend-mode:color">
<path d="M1104.55 105.936C1100.8 105.192 1088.08 104.82 1067.82 104.82C1057.89 104.82 1049.75 104.932 1049.68 104.932L1047.97 104.969L1048.41 103.296C1051.01 93.4062 1063.36 47.6388 1063.47 47.1927L1063.92 45.4824L1065.4 46.4119C1077.56 54.0336 1104.78 101.995 1105.93 104.039L1107.3 106.493L1104.55 105.936Z" fill="#CE8732"/>
</g>
<g id="left eye" style="mix-blend-mode:color">
<path d="M980.263 103.706C964.388 100.545 951.301 98.9095 941.374 98.9095C933.604 98.9095 930.778 99.9505 930.741 99.9505L928.398 100.843L928.993 98.4262C931.224 89.4288 939.85 77.0482 954.573 61.6189C965.466 50.205 975.876 41.282 975.988 41.1705L977.549 39.832L978.107 41.8025C981.973 55.4472 981.825 100.471 981.825 102.367V103.929L980.263 103.706Z" fill="#CE8732"/>
</g>
<g id="nose" style="mix-blend-mode:color">
<path d="M1034.4 139.323C1030.94 138.691 1025.36 138.357 1017.85 138.357C1004.99 138.357 990.71 139.323 990.562 139.361L988.963 139.472L989.186 137.873C990.413 128.802 1011.98 84.8189 1012.91 82.96L1013.91 80.8779L1015.14 82.8484C1022.65 94.6714 1035.33 135.94 1035.85 137.687L1036.48 139.732L1034.4 139.323Z" fill="#CE8732"/>
</g>
<g id="mouth" style="mix-blend-mode:color">
<path d="M1029.23 189.367L1001.79 188.586L999.411 216.284L997.999 216.061C977.439 212.566 960.596 205.354 950.112 199.925C938.029 193.642 926.912 182.935 918.807 169.736C909.438 154.418 904.047 135.829 903.303 115.901L903.155 112.034L905.609 115.046C905.832 115.343 929.887 144.454 952.343 152.596C953.979 153.191 955.577 153.749 957.176 154.307L957.994 154.604L959.518 183.455L983.424 184.831L985.655 162.821L987.068 163.118C996.251 165.089 1004.84 166.055 1013.28 166.055C1013.99 166.055 1014.69 166.055 1015.4 166.018C1016.51 165.981 1017.7 165.981 1019.04 165.981C1022.35 165.981 1026.07 166.055 1029.97 166.092C1033.95 166.167 1038.08 166.241 1042.32 166.241H1043.47L1046.18 188.772L1069.79 190.891V164.94L1070.91 164.791C1081.35 163.378 1088.49 160.85 1092.77 157.132C1106.97 144.677 1125.52 126.683 1125.71 126.497L1128.39 123.894L1127.9 127.612C1127.83 128.207 1125.89 142.447 1117.9 159.549C1113.18 169.587 1107.38 178.547 1100.58 186.095C1092.06 195.575 1081.99 202.9 1070.65 207.844C1058.04 213.384 1044.55 216.693 1030.6 217.697L1029.23 217.808V189.367V189.367Z" fill="#CE8732"/>
</g>
</g>
</g>
<g id="brightest light">
<mask id="mask1_23:180" style="mask-type:alpha" maskUnits="userSpaceOnUse" x="963" y="126" width="100" height="101">
<g id="Group_2">
<path id="2_2" d="M1012.87 226.545C1040.4 226.545 1062.73 204.223 1062.73 176.688C1062.73 149.153 1040.4 126.831 1012.87 126.831C985.334 126.831 963.012 149.153 963.012 176.688C963.012 204.223 985.334 226.545 1012.87 226.545Z" fill="#E1B062" fill-opacity="0.6"/>
<path id="1_2" d="M1012.87 211.934C1032.33 211.934 1048.11 196.154 1048.11 176.688C1048.11 157.222 1032.33 141.442 1012.87 141.442C993.404 141.442 977.624 157.222 977.624 176.688C977.624 196.154 993.404 211.934 1012.87 211.934Z" fill="#F4D892"/>
</g>
</mask>
<g mask="url(#mask1_23:180)">
<path id="nose_2" d="M1034.4 139.323C1030.94 138.691 1025.36 138.357 1017.85 138.357C1004.99 138.357 990.71 139.323 990.561 139.361L988.962 139.472L989.185 137.873C990.412 128.802 1011.98 84.8189 1012.91 82.96L1013.91 80.8779L1015.14 82.8484C1022.65 94.6714 1035.32 135.94 1035.85 137.687L1036.48 139.732L1034.4 139.323Z" fill="#F4D892"/>
<path id="mouth_2" d="M1029.23 189.367L1001.79 188.586L999.411 216.284L997.998 216.061C977.438 212.566 960.596 205.354 950.111 199.925C938.028 193.642 926.912 182.935 918.807 169.736C909.438 154.418 904.047 135.829 903.303 115.901L903.154 112.034L905.608 115.046C905.831 115.343 929.886 144.454 952.342 152.596C953.978 153.191 955.577 153.749 957.175 154.307L957.993 154.604L959.518 183.455L983.424 184.831L985.655 162.821L987.067 163.118C996.251 165.089 1004.84 166.055 1013.28 166.055C1013.98 166.055 1014.69 166.055 1015.4 166.018C1016.51 165.981 1017.7 165.981 1019.04 165.981C1022.35 165.981 1026.07 166.055 1029.97 166.092C1033.95 166.167 1038.08 166.241 1042.32 166.241H1043.47L1046.18 188.772L1069.79 190.891V164.94L1070.91 164.791C1081.35 163.378 1088.49 160.85 1092.77 157.132C1106.97 144.677 1125.52 126.683 1125.71 126.497L1128.38 123.894L1127.9 127.612C1127.83 128.207 1125.89 142.447 1117.9 159.549C1113.18 169.587 1107.38 178.547 1100.57 186.095C1092.06 195.575 1081.99 202.9 1070.65 207.844C1058.04 213.384 1044.55 216.693 1030.6 217.697L1029.23 217.808V189.367V189.367Z" fill="#F4D892"/>
</g>
</g>
</g>
<g id="cut outs">
<g id="left eye_2">
<path id="Vector_18" d="M984.896 102.494L980.772 107.844L939.774 92.0172L920.284 54.7292L926.913 49.317L984.896 102.494Z" fill="#661F18" stroke="#661F18" stroke-width="0.70832" stroke-miterlimit="10"/>
<path id="Vector_19" d="M920.283 54.7295C920.283 54.7295 926.261 85.2288 925.42 106.033C925.42 106.033 936.21 101.04 977.856 107.237C977.856 107.237 925.06 68.7293 920.283 54.7295Z" fill="#963D29" stroke="#661F18" stroke-width="2.62489" stroke-miterlimit="10"/>
</g>
<g id="right eye_2">
<path id="Vector_20" d="M1047.99 105.214L1052.12 110.564L1093.11 94.737L1112.6 57.449L1105.97 52.0367L1047.99 105.214Z" fill="#661F18" stroke="#661F18" stroke-width="0.70832" stroke-miterlimit="10"/>
<path id="Vector_21" d="M1112.6 57.4492C1112.6 57.4492 1106.63 87.9485 1107.47 108.753C1107.47 108.753 1096.68 103.76 1055.03 109.957C1055.03 109.957 1107.83 71.449 1112.6 57.4492Z" fill="#963D29" stroke="#661F18" stroke-width="2.62489" stroke-miterlimit="10"/>
</g>
<g id="nose_3">
<g id="cut out">
<path id="Vector_22" d="M985.076 144.154L987.248 136.093L1016.19 110.48L1042.54 136.806L1045.55 144.725L1013.11 138.59L985.076 144.154Z" fill="#661F18"/>
<path id="Vector_23" d="M1016.2 122.139C1016.2 122.139 998.06 134.618 988.321 143.268C988.321 143.268 1026.01 140.645 1040.05 143.268L1016.2 122.139Z" fill="#963D29" stroke="#661F18" stroke-width="2" stroke-miterlimit="10"/>
</g>
</g>
<g id="mouth_3">
<path id="Vector_24" d="M1125.94 186.297C1125.94 186.297 1069.3 196.31 1014.52 196.31C964.698 196.25 903.472 183.341 903.472 183.341V194.923C905.101 205.66 927.359 212.838 949.678 215.733C960.476 217.121 977.245 218.93 997.272 219.775L999.625 212.838L1029.6 213.079V215.13V220.258C1042.45 220.016 1055.84 219.292 1069.3 217.784C1118.34 212.355 1125.94 197.878 1125.94 197.878V186.297Z" fill="#661F18" stroke="#661F18" stroke-miterlimit="10"/>
<path id="Vector_25" d="M1092.88 205.539C1087.99 206.625 1079.79 207.228 1070.32 207.53V214.105L1044.2 213.502L1041.49 207.832C1031.35 207.832 1021.7 207.711 1014.52 207.771C1004.75 207.832 995.341 207.53 985.81 207.047L983.578 212.537L957.218 212.175L955.71 204.876C954.081 204.755 952.513 204.574 950.884 204.454C927.72 202.342 903.471 194.923 903.471 194.923C905.1 205.66 927.358 212.838 949.677 215.734C960.475 217.121 977.244 218.931 997.271 219.775L999.624 212.838L1029.6 213.08V220.198C1042.45 219.956 1055.84 219.232 1069.29 217.724C1118.34 212.295 1125.94 197.818 1125.94 197.818C1125.94 197.818 1107.3 202.403 1092.88 205.539Z" fill="#963D29" stroke="#661F18" stroke-width="3.7058" stroke-miterlimit="10"/>
</g>
</g>
</g>
<g id="leaves">
<path id="Vector_26" d="M605.12 565.443C607.647 567.372 610.427 568.945 613.383 570.118C616.556 570.978 627.753 573.14 632.288 574.921C636.823 576.702 651.432 583.098 653.356 582.792C655.279 582.486 659.239 581.629 659.576 580.893C659.913 580.157 650.038 567.323 648.95 563.857C647.863 560.391 647.245 556.547 649.773 556.221C652.3 555.895 648.889 551.662 652.716 550.447C656.542 549.232 662.494 557.004 662.69 559.171C662.69 559.171 665.542 554.245 664.966 551.607C664.391 548.97 657.59 541.105 656.418 535.227C655.247 529.348 665.816 513.416 682.497 513.341C699.178 513.267 703.753 526.641 697.467 537.116C693.615 543.851 691.471 551.427 691.222 559.184C691.222 559.184 702.111 559.424 704.212 550.296C706.312 541.168 709.699 527.287 711.426 524.814C713.154 522.341 712.339 526.716 714.937 524.938C717.535 523.161 720.828 520.515 723.734 520.659C726.641 520.803 719.679 543.137 728.707 545.492C737.735 547.847 740.594 539.66 741.417 532.024C742.24 524.388 743.007 511.682 758.559 506.935C774.11 502.189 799.977 522.942 813.114 518.276C826.25 513.61 831.509 511.865 833.404 514.217C835.299 516.569 820.085 520.58 814.74 530.299C809.396 540.018 801.787 571.552 775.746 577.132C749.706 582.712 750.628 570.967 736.783 572.637C725.22 573.869 721.898 579.173 719.868 586.849C717.838 594.526 732.48 605.389 745.483 600.365C758.487 595.341 758.088 583.881 771.737 580.044C785.386 576.206 794.09 583.162 801.286 584.974C808.482 586.787 817.938 587.558 818.717 589.102C819.496 590.646 812.04 595.243 808.865 604.769C805.689 614.295 784.874 613.662 787.841 626.002C790.808 638.342 808.185 637.399 818.571 623.164C828.957 608.928 857.606 615.821 871.876 633.339C886.146 650.857 888.302 685.083 901.97 692.235C915.637 699.387 927.846 699.341 929.088 703.768C930.33 708.195 910.055 705.733 896.829 700.861C883.603 695.989 830.484 739.912 790.584 715.401C750.683 690.889 769.385 658.502 754.938 649.806C740.491 641.11 729.121 626.998 721.609 626.524C714.097 626.051 702.09 635.389 709.592 649.51C717.095 663.631 749.611 680.901 754.597 709.599C759.584 738.296 749.626 750.947 760.85 760.838C772.074 770.728 775.072 770.024 774.082 772.835C773.091 775.646 754.664 767.204 746.072 760.003C737.48 752.802 715.735 767.176 692.346 748.151C668.957 729.127 656.165 691.512 662.949 678C669.734 664.489 672.292 651.119 661.551 644.714C650.811 638.31 640.364 678.634 637.12 679.225C633.877 679.817 629.207 688.065 625.809 687.695C622.411 687.325 628.9 675.756 624.14 674.466C619.38 673.176 610.914 669.594 608.846 655.292C606.777 640.989 610.373 633.14 624.051 626.644C637.728 620.149 611.196 625.504 616.64 611.675C622.083 597.846 646.263 594.381 649.24 593.074C652.217 591.767 653.382 590.52 650.638 588.076C647.893 585.631 630.132 578.978 624.319 578.69C618.506 578.401 604.585 574.397 602.22 572.423C600.795 569.693 605.12 565.443 605.12 565.443Z" fill="#C18972"/>
<path id="Vector_27" d="M760.238 603.45C763.115 603.372 765.968 602.901 768.718 602.05C771.444 600.857 780.57 596.032 784.779 594.713C788.988 593.393 802.921 589.606 804.105 588.302C805.288 586.999 807.596 584.155 807.417 583.448C807.237 582.742 792.993 579.334 790.26 577.52C787.527 575.705 784.912 573.359 786.511 571.699C788.109 570.039 783.302 569.002 785.312 565.984C787.323 562.965 795.929 565.045 797.296 566.453C797.296 566.453 796.515 561.384 794.613 559.861C792.712 558.337 783.454 556.673 779.294 553.215C775.134 549.756 773.556 532.599 785.282 523.101C797.008 513.603 807.819 520.39 809.325 531.295C810.426 538.199 813.21 544.725 817.432 550.306C817.432 550.306 825.25 544.308 821.556 536.718C817.862 529.128 812.38 517.476 812.197 514.764C812.013 512.052 813.919 515.581 814.744 512.863C815.569 510.146 816.391 506.425 818.524 504.881C820.656 503.336 828.409 522.939 836.113 519.478C843.818 516.018 841.193 508.658 837.443 502.837C833.694 497.017 827.03 487.672 835.31 475.538C843.59 463.403 873.606 463.308 880.228 452.598C886.85 441.888 889.57 437.686 892.24 438.262C894.911 438.838 886.452 450.266 888.193 460.108C889.934 469.949 902.447 496.37 887.24 515.029C872.033 533.687 866.023 524.929 857.203 533.94C849.744 541.351 850.408 546.952 853.328 553.484C856.249 560.017 872.739 559.342 879.064 548.457C885.388 537.571 878.609 529.76 886.062 519.341C893.515 508.921 903.6 508.869 909.704 506.066C915.808 503.262 922.917 498.448 924.342 499.089C925.767 499.731 923.113 507.177 926.275 515.654C929.437 524.132 914.393 535.476 923.483 542.449C932.574 549.421 944.298 538.921 943.553 523.057C942.808 507.194 966.928 495.804 986.929 500.007C1006.93 504.211 1027.86 526.991 1041.56 524.266C1055.25 521.542 1063.84 514.596 1067.23 516.997C1070.61 519.398 1054.91 529.152 1042.82 533.225C1030.73 537.298 1018.16 598.178 976.111 603.584C934.063 608.99 928.892 575.689 913.769 577.772C898.646 579.855 882.622 576.398 877.054 580.319C871.486 584.241 868.31 597.588 881.61 603.242C894.91 608.895 927.643 602.593 947.433 619.893C967.223 637.192 967.372 651.702 980.899 652.282C994.426 652.861 996.141 650.67 997.037 653.202C997.932 655.734 980.144 660.249 970 660.065C959.856 659.881 952.665 682.273 925.377 682.177C898.088 682.081 867.735 662.948 864.86 649.632C861.984 636.316 856.208 625.492 844.999 627.083C833.791 628.674 849.286 662.865 847.333 665.117C845.38 667.368 846.762 675.796 844.155 677.461C841.548 679.126 839.566 667.339 835.477 669.13C831.387 670.92 823.384 673.203 813.814 664.345C804.245 655.487 802.331 647.946 808.297 635.647C814.262 623.347 798.581 642.126 794.58 629.346C790.579 616.567 805.672 600.445 807.031 597.843C808.39 595.241 808.506 593.706 805.183 593.547C801.861 593.387 785.559 598.779 781.294 601.868C777.029 604.957 764.938 610.033 762.15 609.988C759.597 608.88 760.238 603.45 760.238 603.45Z" fill="#C18972"/>
<path id="Vector_28" d="M479.123 620.116C479.78 622.047 480.7 623.879 481.855 625.56C483.239 627.152 488.433 632.305 490.214 634.875C491.994 637.444 497.493 646.072 498.628 646.596C499.762 647.121 502.178 648.079 502.621 647.807C503.063 647.536 502.387 637.168 503.046 634.933C503.704 632.697 504.749 630.428 506.212 631.158C507.676 631.887 507.371 628.412 509.844 629.132C512.317 629.852 512.712 636.12 512.042 637.345C512.042 637.345 515.321 635.739 515.957 634.128C516.593 632.517 515.779 625.896 517.255 622.345C518.732 618.793 530.056 614.08 538.972 620.001C547.887 625.921 545.547 634.682 538.454 638.019C533.995 640.231 530.146 643.502 527.241 647.547C527.241 647.547 532.958 651.565 537.339 647.452C541.72 643.338 548.484 637.152 550.288 636.451C552.093 635.751 550.095 637.791 552.115 637.772C554.134 637.753 556.834 637.519 558.332 638.635C559.829 639.75 548.139 649.164 552.108 653.645C556.078 658.126 560.526 654.784 563.693 651.009C566.86 647.234 571.81 640.738 581.793 643.765C591.776 646.792 598.144 667.094 606.811 669.302C615.479 671.509 618.905 672.458 619.074 674.388C619.243 676.319 609.703 673.02 603.382 676.289C597.061 679.559 581.739 693.644 565.869 687.313C549.999 680.982 554.687 675.052 546.713 670.995C540.111 667.52 536.445 669.159 532.621 672.524C528.796 675.89 532.717 686.91 541.441 688.879C550.165 690.849 554.048 684.6 562.692 687.432C571.337 690.263 573.49 697.08 576.676 700.617C579.863 704.154 584.627 707.944 584.49 709.045C584.354 710.146 578.738 709.931 573.642 713.873C568.546 717.815 557.68 710.04 554.852 717.676C552.024 725.312 561.62 731.018 572.241 727.143C582.862 723.269 595.666 737.179 597.011 751.612C598.355 766.046 587.275 785.055 592.002 793.75C596.73 802.444 603.252 806.782 602.332 809.585C601.412 812.388 591.488 803.831 586.181 796.509C580.874 789.187 536.874 793.613 524.37 766.294C511.866 738.976 533.405 728.4 528.813 718.604C524.222 708.808 523.205 697.225 519.372 694.288C515.538 691.352 505.803 692.038 504.755 702.243C503.708 712.449 514.864 733.27 507.267 750.344C499.67 767.418 489.843 770.601 492.291 779.882C494.738 789.163 496.587 789.859 495.055 791.003C493.523 792.147 486.719 781.064 484.714 774.157C482.708 767.25 465.985 767.14 460.319 748.644C454.653 730.149 461.278 705.535 469.721 700.759C478.164 695.983 484.304 689.772 480.869 682.522C477.434 675.272 457.459 693.026 455.519 692.183C453.579 691.339 448.144 694.065 446.465 692.654C444.786 691.243 452.378 687.397 450.303 685.009C448.227 682.62 444.996 677.687 449.004 669.326C453.012 660.965 457.733 658.068 467.343 659.493C476.952 660.919 460.9 654.293 468.742 648.869C476.584 643.444 490.707 650.238 492.76 650.605C494.814 650.972 495.88 650.724 495.291 648.441C494.702 646.158 487.615 636.266 484.621 634.035C481.626 631.804 475.638 624.697 475.083 622.8C475.299 620.836 479.123 620.116 479.123 620.116Z" fill="#C18972"/>
<path id="Vector_29" d="M859.093 664.655C860.574 665.213 862.125 665.564 863.702 665.7C865.338 665.655 870.986 665.078 873.404 665.277C875.821 665.475 883.702 666.43 884.575 666.007C885.449 665.585 887.214 664.607 887.269 664.207C887.325 663.807 880.778 659.098 879.763 657.6C878.748 656.101 877.903 654.354 879.061 653.836C880.219 653.317 877.987 651.785 879.637 650.656C881.287 649.526 885.238 652.381 885.642 653.388C885.642 653.388 886.296 650.626 885.644 649.449C884.992 648.273 880.623 645.495 879.222 642.856C877.821 640.218 880.578 631.092 888.521 628.66C896.463 626.227 900.56 631.955 899.064 637.86C898.192 641.629 898.255 645.555 899.248 649.294C899.248 649.294 904.474 647.844 904.168 643.184C903.862 638.524 903.488 631.41 903.957 629.98C904.427 628.551 904.665 630.757 905.649 629.535C906.633 628.313 907.824 626.577 909.23 626.228C910.637 625.879 910.517 637.543 915.158 637.371C919.8 637.198 919.99 632.878 919.289 629.114C918.587 625.35 917.133 619.172 923.868 614.671C930.602 610.17 945.908 616.363 951.503 612.247C957.098 608.132 959.355 606.543 960.595 607.393C961.836 608.244 955.157 612.345 954.001 617.754C952.845 623.163 953.734 639.313 942.118 645.719C930.502 652.125 929.259 646.384 922.897 649.171C917.561 651.421 916.737 654.431 916.868 658.388C917 662.345 925.537 665.427 931.017 661.16C936.497 656.893 934.666 651.479 940.624 647.685C946.581 643.891 951.728 645.962 955.418 645.793C959.109 645.625 963.728 644.634 964.32 645.259C964.913 645.885 962.016 649.151 961.867 654.156C961.718 659.16 951.703 661.849 954.885 667.315C958.068 672.781 966.217 669.834 969.13 661.544C972.042 653.255 986.689 652.429 996.002 658.743C1005.32 665.057 1011.25 681.089 1018.79 682.54C1026.33 683.991 1032.14 682.215 1033.37 684.15C1034.59 686.085 1024.58 687.823 1017.57 687.397C1010.57 686.971 991.534 715.576 968.999 709.606C946.464 703.636 950.741 685.485 942.608 683.408C934.474 681.332 927.031 676.228 923.382 677.081C919.732 677.934 915.345 684.118 920.945 689.783C926.545 695.447 944.522 699.021 951.01 712.007C957.499 724.992 954.563 732.464 961.331 735.573C968.1 738.683 969.428 737.916 969.359 739.4C969.289 740.885 959.294 739.502 954.166 737.298C949.038 735.095 940.729 745.082 926.853 739.359C912.976 733.636 901.489 717.514 902.788 710.088C904.087 702.662 903.391 695.911 897.353 694.396C891.315 692.882 892.111 713.636 890.649 714.385C889.187 715.133 888.142 719.742 886.469 720.054C884.796 720.366 886.233 713.909 883.778 713.977C881.324 714.045 876.775 713.552 873.74 707.02C870.705 700.488 871.295 696.223 876.885 691.157C882.476 686.09 870.593 692.459 871.208 685.074C871.822 677.689 882.854 672.56 884.086 671.508C885.318 670.456 885.695 669.694 884.037 668.921C882.378 668.148 872.957 667.524 870.144 668.221C867.331 668.918 860.12 669.007 858.71 668.405C857.639 667.306 859.093 664.655 859.093 664.655Z" fill="#C8BDB4"/>
<path id="Vector_30" d="M903.883 538.133C905.914 537.503 907.848 536.597 909.631 535.44C911.328 534.043 916.841 528.774 919.567 526.991C922.294 525.208 931.436 519.722 932.014 518.553C932.591 517.385 933.656 514.893 933.385 514.423C933.114 513.954 922.29 514.361 919.978 513.609C917.667 512.857 915.33 511.702 916.131 510.197C916.931 508.692 913.301 508.91 914.119 506.351C914.937 503.792 921.48 503.561 922.738 504.296C922.738 504.296 921.154 500.829 919.492 500.119C917.831 499.409 910.908 500.067 907.248 498.425C903.587 496.783 898.984 484.835 905.398 475.707C911.812 466.579 920.879 469.273 924.162 476.766C926.347 481.481 929.65 485.591 933.786 488.737C933.786 488.737 938.13 482.89 933.963 478.202C929.796 473.514 923.533 466.28 922.852 464.378C922.171 462.476 924.243 464.618 924.278 462.511C924.314 460.405 924.144 457.581 925.348 456.052C926.551 454.522 936.042 466.986 940.821 462.976C945.599 458.965 942.239 454.228 938.391 450.816C934.543 447.404 927.908 442.055 931.336 431.73C934.764 421.405 956.096 415.348 958.633 406.372C961.171 397.395 962.253 393.849 964.27 393.728C966.286 393.607 962.587 403.463 965.822 410.15C969.057 416.837 983.317 433.224 976.285 449.594C969.253 465.965 963.202 460.904 958.756 469.104C954.953 475.89 956.562 479.76 959.964 483.846C963.367 487.933 974.96 484.161 977.251 475.118C979.541 466.076 973.135 461.846 976.322 452.911C979.51 443.977 986.673 441.928 990.446 438.706C994.22 435.484 998.3 430.625 999.443 430.799C1000.59 430.973 1000.21 436.825 1004.18 442.253C1008.15 447.682 999.747 458.791 1007.63 461.961C1015.51 465.131 1021.72 455.287 1017.97 444.097C1014.22 432.907 1029.07 419.954 1044.15 418.968C1059.23 417.982 1078.74 430.087 1087.93 425.407C1097.12 420.727 1101.82 414.049 1104.71 415.09C1107.61 416.13 1098.42 426.234 1090.64 431.558C1082.87 436.882 1086.28 482.903 1057.46 495.156C1028.65 507.41 1018.22 484.64 1007.88 489.146C997.549 493.653 985.45 494.379 982.285 498.293C979.119 502.207 979.568 512.38 990.175 513.767C1000.78 515.154 1022.79 504.119 1040.37 512.535C1057.96 520.951 1061.01 531.292 1070.75 529.008C1080.49 526.723 1081.26 524.814 1082.42 526.445C1083.57 528.076 1071.83 534.852 1064.58 536.745C1057.32 538.638 1056.75 556.077 1037.32 561.453C1017.89 566.829 992.417 559.21 987.671 550.266C982.924 541.322 976.62 534.739 968.969 538.112C961.319 541.486 979.277 562.832 978.345 564.831C977.412 566.83 980.105 572.578 978.589 574.288C977.072 575.998 973.271 567.969 970.725 570.065C968.18 572.16 962.95 575.389 954.346 570.967C945.742 566.545 942.851 561.538 944.6 551.556C946.348 541.575 939.003 558.126 933.565 549.79C928.126 541.454 935.592 526.92 936.031 524.789C936.47 522.658 936.24 521.538 933.845 522.087C931.449 522.635 920.947 529.742 918.54 532.801C916.133 535.86 908.562 541.9 906.569 542.424C904.529 542.142 903.883 538.133 903.883 538.133Z" fill="#C8BDB4"/>
<path id="Vector_31" d="M540.364 598.704C541.37 600.368 542.6 601.887 544.02 603.216C545.634 604.416 551.527 608.153 553.71 610.182C555.893 612.211 562.778 619.124 563.942 619.38C565.106 619.636 567.554 620.033 567.912 619.689C568.269 619.345 565.527 609.822 565.686 607.603C565.845 605.385 566.357 603.056 567.869 603.435C569.382 603.815 568.39 600.639 570.843 600.802C573.295 600.966 574.94 606.726 574.565 608.006C574.565 608.006 577.295 605.836 577.56 604.204C577.825 602.572 575.717 596.568 576.37 592.956C577.023 589.343 586.622 582.627 596.14 586.315C605.659 590.004 605.261 598.649 599.328 603.214C595.621 606.191 592.698 610.029 590.813 614.394C590.813 614.394 596.962 616.966 600.209 612.234C603.456 607.501 608.503 600.348 610.042 599.324C611.582 598.301 610.135 600.612 612.014 600.18C613.893 599.748 616.363 598.977 617.986 599.709C619.609 600.441 610.627 611.613 615.241 614.975C619.854 618.336 623.322 614.31 625.505 610.142C627.689 605.974 630.98 598.903 640.905 599.676C650.829 600.449 660.902 618.063 669.432 618.342C677.963 618.621 681.35 618.802 681.901 620.566C682.453 622.331 672.886 621.214 667.658 625.558C662.431 629.902 651.014 646.172 634.928 643.528C618.842 640.885 622.005 634.397 613.744 632.252C606.881 630.368 603.797 632.648 600.916 636.569C598.036 640.49 603.936 649.956 612.471 650.001C621.006 650.046 623.354 643.426 631.99 644.291C640.626 645.157 644.022 651.068 647.714 653.71C651.405 656.353 656.619 658.907 656.716 659.961C656.812 661.015 651.533 661.968 647.584 666.687C643.636 671.406 631.921 666.39 630.84 674.086C629.758 681.783 639.868 685.132 648.981 679.342C658.095 673.551 672.866 683.887 677.059 697.063C681.252 710.239 674.792 730.228 680.971 737.361C687.15 744.494 694.115 747.199 693.828 750C693.54 752.801 682.545 746.862 676.106 741.128C669.666 735.393 629.544 748.546 612.322 725.652C595.1 702.757 613.027 688.481 606.752 680.294C600.476 672.107 597.169 661.521 592.996 659.571C588.824 657.62 579.887 660.257 580.989 669.983C582.091 679.709 596.733 696.825 593.127 714.296C589.522 731.767 581.008 736.75 585.18 744.898C589.352 753.045 591.217 753.314 590.022 754.695C588.826 756.075 580.226 747.142 576.95 741.117C573.673 735.091 558.058 738.42 549.009 722.345C539.959 706.271 541.122 681.972 548.021 675.789C554.921 669.605 559.381 662.557 554.702 656.505C550.022 650.453 535.014 671.099 533.034 670.71C531.053 670.322 526.541 673.978 524.688 673.007C522.836 672.037 529.131 666.894 526.709 665.094C524.288 663.295 520.27 659.36 522.304 650.745C524.339 642.131 528.15 638.462 537.4 637.819C546.649 637.176 530.334 634.294 536.541 627.63C542.748 620.966 557.299 624.399 559.288 624.32C561.277 624.24 562.221 623.791 561.207 621.784C560.193 619.777 551.57 612.013 548.324 610.548C545.078 609.083 538.048 603.688 537.144 602.034C536.945 600.159 540.364 598.704 540.364 598.704Z" fill="#C8BDB4"/>
<path id="Vector_32" d="M756.121 498.957C757.278 498.483 758.365 497.851 759.35 497.081C760.272 496.175 763.229 492.802 764.735 491.616C766.24 490.43 771.313 486.741 771.591 486.027C771.869 485.313 772.364 483.797 772.181 483.536C771.998 483.275 765.676 484.074 764.283 483.753C762.889 483.432 761.46 482.876 761.851 481.953C762.242 481.029 760.127 481.345 760.473 479.803C760.82 478.261 764.643 477.787 765.418 478.152C765.418 478.152 764.31 476.203 763.3 475.873C762.289 475.543 758.267 476.287 756.037 475.514C753.807 474.741 750.491 467.978 753.777 462.297C757.063 456.616 762.515 457.726 764.827 461.947C766.351 464.597 768.5 466.834 771.086 468.463C771.086 468.463 773.329 464.812 770.645 462.281C767.96 459.749 763.915 455.835 763.418 454.755C762.921 453.676 764.245 454.824 764.157 453.588C764.069 452.351 763.823 450.706 764.449 449.747C765.075 448.788 771.282 455.601 773.875 453.003C776.467 450.406 774.253 447.804 771.821 446.004C769.39 444.204 765.225 441.412 766.699 435.185C768.173 428.957 780.36 424.303 781.382 418.912C782.405 413.52 782.855 411.386 784.031 411.211C785.206 411.036 783.549 417.003 785.79 420.754C788.032 424.505 797.237 433.369 793.964 443.326C790.691 453.283 786.883 450.63 784.702 455.666C782.825 459.839 783.968 462.024 786.173 464.242C788.379 466.46 794.977 463.65 795.851 458.232C796.725 452.815 792.752 450.668 794.157 445.268C795.563 439.867 799.654 438.296 801.698 436.212C803.743 434.129 805.882 431.07 806.561 431.113C807.24 431.156 807.322 434.604 809.929 437.58C812.536 440.556 808.188 447.5 812.971 448.95C817.753 450.399 820.882 444.309 818.106 437.946C815.331 431.583 823.36 423.224 832.145 421.866C840.931 420.507 852.989 426.591 858.132 423.373C863.276 420.154 865.684 415.998 867.434 416.458C869.185 416.918 864.324 423.314 860.043 426.837C855.762 430.359 860.143 457.15 843.893 465.822C827.643 474.494 820.351 461.691 814.528 464.867C808.705 468.043 801.653 469.095 800 471.552C798.348 474.009 799.138 479.948 805.426 480.211C811.713 480.475 824.036 472.869 834.778 476.89C845.519 480.912 847.841 486.813 853.43 484.97C859.019 483.128 859.375 481.969 860.133 482.865C860.892 483.761 854.365 488.34 850.213 489.824C846.06 491.309 846.628 501.558 835.52 505.714C824.413 509.87 809.092 506.724 805.848 501.729C802.603 496.734 798.568 493.202 794.259 495.575C789.951 497.948 801.58 509.527 801.137 510.746C800.694 511.966 802.569 515.195 801.769 516.276C800.969 517.356 798.326 512.848 796.943 514.208C795.559 515.568 792.662 517.73 787.391 515.584C782.121 513.439 780.167 510.654 780.675 504.715C781.183 498.775 777.736 508.854 774.117 504.251C770.499 499.648 774.121 490.744 774.268 489.473C774.415 488.201 774.223 487.557 772.847 488.003C771.472 488.448 765.685 493.156 764.433 495.073C763.181 496.99 759.057 500.922 757.917 501.332C756.707 501.273 756.121 498.957 756.121 498.957Z" fill="#C8BDB4"/>
<path id="Vector_33" d="M379.754 671.836C382.636 669.183 385.14 666.147 387.195 662.812C388.916 659.146 393.929 646.019 397.059 640.898C400.189 635.776 411.072 619.419 411.111 617.018C411.149 614.618 410.952 609.628 410.13 609.06C409.308 608.493 391.613 617.721 387.17 618.297C382.728 618.872 377.927 618.795 378.07 615.657C378.212 612.519 372.342 615.75 371.682 610.844C371.022 605.939 381.732 600.385 384.406 600.613C384.406 600.613 379.03 596.093 375.703 596.225C372.376 596.356 361.373 602.921 353.982 603.08C346.591 603.238 329.489 586.986 332.954 566.724C336.42 546.462 353.641 543.782 365.026 553.662C372.387 559.785 381.134 564.016 390.503 565.985C390.503 565.985 393.116 552.82 382.475 548.309C371.834 543.797 355.694 536.704 353.057 534.076C350.421 531.448 355.562 533.377 353.957 529.842C352.351 526.307 349.838 521.741 350.633 518.244C351.428 514.748 377.075 527.996 381.86 517.545C386.646 507.093 377.31 501.864 368.209 499.224C359.108 496.585 343.836 492.922 341.384 473.027C338.933 453.131 369.658 426.195 366.79 409.248C363.921 392.301 362.922 385.543 366.183 383.748C369.444 381.953 371.073 401.282 381.741 409.857C392.409 418.433 429.094 434.444 430.322 467.25C431.551 500.056 417.479 496.413 416.557 513.576C415.589 527.876 421.324 533.047 430.217 537.161C439.109 541.275 455.426 525.836 452.095 508.974C448.764 492.112 434.758 490.133 433.005 472.742C431.252 455.351 441.557 446.281 445.293 437.937C449.028 429.593 451.98 418.28 454.022 417.667C456.064 417.053 460.059 427.091 470.954 432.992C481.85 438.893 476.644 464.022 492.267 463.072C507.89 462.122 510.449 440.829 495.369 425.164C480.29 409.499 494.769 376.207 519.091 362.651C543.414 349.096 585.451 353.834 597.052 338.782C608.654 323.729 611.2 308.901 616.843 308.345C622.486 307.789 615.173 331.869 606.435 346.875C597.698 361.881 639.734 435.793 601.453 478.955C563.172 522.116 527.814 492.457 514.171 508.123C500.528 523.79 480.961 534.558 478.785 543.574C476.608 552.59 485.393 569.17 504.146 563.098C522.899 557.027 550.81 521.272 586.734 521.386C622.658 521.501 635.904 536.306 650.312 524.808C664.719 513.31 664.502 509.52 667.706 511.326C670.909 513.132 656.726 533.684 646.148 542.565C635.569 551.446 648.395 580.929 620.299 605.229C592.202 629.529 543.781 636.972 528.814 625.834C513.847 614.696 498.15 608.718 488.081 620.378C478.012 632.037 524.77 653.383 524.797 657.447C524.824 661.511 533.848 668.952 532.675 672.997C531.502 677.041 518.831 666.679 516.249 672.179C513.667 677.679 507.511 687.185 489.696 686.622C471.881 686.059 463.112 680.008 458.136 662.011C453.161 644.014 454.011 677.368 438.372 667.789C422.733 658.21 423.678 628.118 422.724 624.224C421.771 620.33 420.505 618.647 416.95 621.453C413.396 624.259 401.528 644.386 399.939 651.38C398.349 658.373 390.518 674.41 387.616 676.857C383.996 677.999 379.754 671.836 379.754 671.836Z" fill="#B9542F"/>
<path id="Vector_34" d="M569.742 511.902C573.657 511.787 577.538 511.134 581.276 509.962C584.979 508.32 597.368 501.691 603.088 499.874C608.809 498.056 627.748 492.833 629.351 491.045C630.953 489.257 634.075 485.359 633.825 484.392C633.576 483.424 614.162 478.799 610.43 476.322C606.698 473.845 603.122 470.64 605.286 468.364C607.45 466.087 600.899 464.681 603.615 460.543C606.331 456.405 618.06 459.228 619.931 461.153C619.931 461.153 618.832 454.216 616.233 452.135C613.634 450.054 601.021 447.802 595.334 443.078C589.648 438.354 587.38 414.871 603.277 401.837C619.173 388.803 633.936 398.065 636.061 412.99C637.609 422.438 641.443 431.365 647.229 438.993C647.229 438.993 657.83 430.761 652.749 420.381C647.669 410 640.125 394.064 639.857 390.351C639.588 386.639 642.207 391.465 643.311 387.743C644.414 384.02 645.509 378.925 648.401 376.805C651.293 374.684 661.982 401.499 672.446 396.741C682.91 391.982 679.285 381.914 674.141 373.956C668.996 365.998 659.861 353.224 671.048 336.589C682.234 319.955 723.094 319.744 732.034 305.064C740.973 290.383 744.647 284.624 748.286 285.405C751.926 286.187 740.49 301.854 742.928 315.322C745.366 328.791 762.582 364.926 742.011 390.511C721.44 416.095 713.199 404.121 701.254 416.481C691.152 426.647 692.095 434.312 696.116 443.247C700.136 452.182 722.579 451.214 731.113 436.295C739.647 421.375 730.365 410.701 740.438 396.417C750.511 382.132 764.239 382.034 772.529 378.18C780.819 374.325 790.462 367.715 792.406 368.59C794.351 369.464 790.79 379.664 795.152 391.262C799.515 402.859 779.115 418.429 791.538 427.95C803.961 437.471 819.848 423.064 818.724 401.349C817.6 379.635 850.355 363.977 877.609 369.677C904.864 375.378 933.511 406.506 952.139 402.739C970.766 398.972 982.407 389.441 987.033 392.718C991.66 395.996 970.356 409.392 953.922 415.001C937.488 420.609 920.802 503.985 863.601 511.5C806.401 519.014 799.131 473.44 778.559 476.333C757.988 479.225 736.151 474.536 728.598 479.92C721.046 485.303 716.816 503.584 734.959 511.287C753.103 518.991 797.617 510.275 824.677 533.904C851.736 557.533 852.04 577.396 870.457 578.153C888.874 578.91 891.194 575.906 892.43 579.369C893.666 582.833 869.485 589.062 855.674 588.838C841.864 588.613 832.231 619.287 795.084 619.23C757.937 619.172 716.485 593.061 712.479 574.84C708.473 556.618 700.534 541.816 685.287 544.024C670.041 546.233 691.37 592.998 688.728 596.086C686.085 599.173 688.024 610.707 684.488 612.994C680.951 615.28 678.171 599.149 672.616 601.611C667.062 604.073 656.183 607.22 643.095 595.119C630.007 583.019 627.35 572.702 635.385 555.847C643.421 538.993 622.205 564.744 616.67 547.26C611.135 529.776 631.569 507.665 633.401 504.099C635.233 500.532 635.379 498.432 630.856 498.222C626.332 498.012 604.178 505.438 598.394 509.678C592.61 513.919 576.186 520.9 572.39 520.846C568.907 519.337 569.742 511.902 569.742 511.902Z" fill="#B9542F"/>
<path id="Vector_35" d="M442.025 532.635C445.651 531.984 449.172 530.837 452.487 529.228C455.706 527.188 466.316 519.304 471.387 516.82C476.458 514.335 493.357 506.847 494.601 504.963C495.845 503.079 498.21 499.022 497.845 498.158C497.479 497.294 478.778 495.697 474.963 493.915C471.148 492.133 467.378 489.653 469.077 487.237C470.776 484.821 464.487 484.425 466.442 480.202C468.397 475.98 479.7 476.971 481.707 478.499C481.707 478.499 479.725 472.207 477.02 470.635C474.314 469.063 462.267 468.726 456.324 465.128C450.381 461.53 445.026 440.026 458.014 425.704C471.003 411.381 486.018 417.933 490.058 431.504C492.803 440.068 497.604 447.829 504.042 454.112C504.042 454.112 512.767 444.988 506.605 436.05C500.444 427.111 491.224 413.354 490.461 409.942C489.697 406.53 492.801 410.65 493.313 407.038C493.826 403.425 494.14 398.539 496.538 396.166C498.935 393.794 512.586 417.221 521.664 411.344C530.742 405.467 525.978 396.617 520.092 389.938C514.206 383.26 503.941 372.662 512.05 355.65C520.159 338.637 558.145 332.756 564.434 317.873C570.722 302.989 573.344 297.126 576.838 297.346C580.332 297.566 571.858 313.714 575.987 325.889C580.117 338.064 601.128 369.243 585.525 395.877C569.921 422.51 560.599 412.532 551.194 425.678C543.2 436.529 545.137 443.52 550.112 451.262C555.088 459.005 575.834 454.983 581.712 439.933C587.591 424.883 577.48 416.257 584.877 401.583C592.275 386.91 605.033 384.909 612.213 380.174C619.394 375.439 627.452 367.956 629.382 368.497C631.312 369.039 629.408 379.012 635.07 389.181C640.731 399.35 623.903 416.654 636.777 423.772C649.651 430.89 662.441 415.294 658.394 395.274C654.347 375.255 682.658 356.149 708.803 357.653C734.948 359.158 765.902 384.094 782.712 378.003C799.522 371.911 809.035 361.436 813.793 363.838C818.55 366.239 800.58 381.65 786.066 389.148C771.551 396.645 767.549 476.435 715.369 491.376C663.189 506.317 650.127 464.983 631.388 470.533C612.648 476.083 591.684 474.764 585.401 480.817C579.119 486.87 577.709 504.444 595.654 509.077C613.599 513.71 653.809 499.419 682.25 517.609C710.691 535.799 713.719 554.212 730.958 552.353C748.198 550.494 749.941 547.379 751.57 550.425C753.198 553.472 731.561 562.624 718.681 564.337C705.801 566.05 701.078 595.891 666.509 601.006C631.94 606.12 589.767 587.627 583.521 571.254C577.276 554.881 567.844 542.232 553.964 546.405C540.084 550.579 566.392 591.063 564.36 594.299C562.327 597.536 565.726 607.983 562.751 610.599C559.777 613.215 554.961 598.614 550.134 601.675C545.306 604.735 535.619 609.173 521.77 599.75C507.922 590.328 504.023 581.112 509.171 564.334C514.318 547.556 498.138 574.433 490.571 558.958C483.005 543.483 498.961 520.096 500.173 516.528C501.385 512.959 501.231 510.987 496.993 511.421C492.755 511.856 473.169 521.838 468.374 526.583C463.579 531.327 449.263 540.099 445.724 540.577C442.275 539.66 442.025 532.635 442.025 532.635Z" fill="#C18972"/>
<path id="Vector_36" d="M447.594 625.717C449.784 624.644 451.829 623.286 453.671 621.681C455.385 619.828 460.854 613.008 463.669 610.538C466.484 608.069 475.988 600.328 476.479 598.937C476.97 597.546 477.829 594.609 477.463 594.144C477.097 593.679 465.031 596.157 462.342 595.765C459.653 595.373 456.883 594.543 457.578 592.74C458.273 590.937 454.237 591.857 454.811 588.894C455.385 585.93 462.682 584.449 464.189 585.019C464.189 585.019 461.952 581.509 459.996 581.041C458.041 580.574 450.377 582.596 446.058 581.479C441.74 580.362 434.99 568.105 440.954 556.877C446.917 545.649 457.429 546.907 462.107 554.52C465.182 559.288 469.43 563.181 474.481 565.86C474.481 565.86 478.565 558.624 473.273 554.258C467.98 549.891 460.001 543.122 458.985 541.161C457.968 539.2 460.574 541.164 460.332 538.844C460.091 536.523 459.524 533.454 460.667 531.549C461.811 529.644 474.103 541.551 478.918 536.25C483.733 530.948 479.338 526.377 474.573 523.352C469.809 520.327 461.664 515.698 464.124 503.715C466.584 491.733 489.662 481.079 491.305 470.746C492.947 460.412 493.686 456.314 495.928 455.803C498.17 455.292 495.344 466.809 499.859 473.546C504.374 480.282 522.531 495.603 516.843 514.9C511.155 534.197 503.703 529.775 499.82 539.615C496.468 547.78 498.786 551.728 503.142 555.577C507.498 559.427 519.976 553.109 521.333 542.749C522.69 532.389 514.952 528.945 517.328 518.536C519.704 508.126 527.451 504.532 531.246 500.286C535.041 496.039 538.961 489.937 540.265 489.914C541.569 489.891 541.928 496.388 547.097 501.604C552.266 506.821 544.344 520.598 553.592 522.6C562.84 524.602 568.479 512.626 562.787 501.041C557.096 489.456 571.991 472.445 588.745 468.533C605.498 464.621 628.96 474.255 638.626 467.39C648.293 460.526 652.663 452.311 656.045 452.911C659.426 453.51 650.486 466.33 642.49 473.636C634.494 480.942 644.458 530.841 613.831 549.704C583.204 568.567 568.479 545.519 557.509 552.407C546.538 559.294 533.087 562.362 530.065 567.254C527.044 572.146 528.905 583.234 540.968 582.767C553.031 582.301 576.197 566.053 597.014 571.996C617.831 577.938 622.627 588.722 633.228 584.386C643.828 580.05 644.442 577.808 645.948 579.384C647.454 580.959 635.217 590.602 627.348 594.042C619.479 597.481 621.167 616.74 600.127 626.29C579.088 635.839 549.547 632.252 543.038 623.32C536.528 614.389 528.589 608.341 520.473 613.482C512.357 618.622 535.317 638.695 534.54 641.065C533.763 643.435 537.546 649.242 536.076 651.405C534.606 653.567 529.278 645.463 526.707 648.242C524.136 651.021 518.711 655.548 508.486 652.306C498.261 649.065 494.355 644.108 494.98 632.818C495.605 621.529 489.591 641.083 482.388 632.949C475.184 624.815 481.603 607.453 481.81 605.03C482.017 602.608 481.611 601.421 479.001 602.473C476.392 603.525 465.581 613.3 463.294 617.111C461.007 620.922 453.336 628.976 451.175 629.925C448.852 629.998 447.594 625.717 447.594 625.717Z" fill="#C8BDB4"/>
<path id="Vector_37" d="M386.755 473.455C387.998 472.846 389.159 472.075 390.205 471.164C391.178 470.112 394.283 466.24 395.881 464.838C397.479 463.436 402.875 459.041 403.154 458.251C403.432 457.461 403.92 455.794 403.712 455.53C403.504 455.266 396.654 456.673 395.128 456.451C393.601 456.228 392.028 455.757 392.423 454.733C392.817 453.709 390.526 454.232 390.852 452.55C391.178 450.867 395.32 450.026 396.176 450.35C396.176 450.35 394.906 448.357 393.796 448.091C392.686 447.826 388.335 448.974 385.883 448.34C383.431 447.706 379.599 440.747 382.985 434.373C386.37 427.998 392.338 428.712 394.994 433.034C396.74 435.741 399.152 437.951 402.019 439.472C402.019 439.472 404.338 435.364 401.333 432.885C398.329 430.406 393.799 426.563 393.222 425.45C392.645 424.337 394.124 425.452 393.987 424.134C393.849 422.817 393.528 421.075 394.177 419.993C394.826 418.911 401.805 425.671 404.538 422.662C407.272 419.652 404.777 417.057 402.072 415.339C399.367 413.622 394.743 410.994 396.139 404.191C397.536 397.388 410.638 391.34 411.571 385.473C412.503 379.606 412.922 377.28 414.195 376.99C415.468 376.699 413.864 383.238 416.427 387.063C418.991 390.887 429.299 399.585 426.07 410.541C422.841 421.496 418.61 418.986 416.405 424.572C414.502 429.208 415.818 431.449 418.291 433.635C420.764 435.82 427.848 432.233 428.619 426.351C429.389 420.47 424.996 418.515 426.345 412.605C427.694 406.695 432.092 404.654 434.247 402.244C436.401 399.833 438.627 396.369 439.367 396.356C440.107 396.342 440.311 400.031 443.246 402.993C446.18 405.954 441.683 413.776 446.933 414.912C452.184 416.049 455.385 409.25 452.154 402.673C448.922 396.096 457.379 386.438 466.89 384.217C476.402 381.996 489.722 387.465 495.21 383.568C500.698 379.671 503.179 375.007 505.099 375.347C507.019 375.688 501.943 382.966 497.403 387.114C492.864 391.262 498.521 419.591 481.133 430.3C463.745 441.009 455.385 427.924 449.157 431.835C442.929 435.745 435.292 437.487 433.576 440.264C431.861 443.041 432.917 449.336 439.766 449.071C446.615 448.806 459.767 439.582 471.585 442.956C483.404 446.33 486.127 452.452 492.145 449.99C498.163 447.528 498.512 446.256 499.367 447.15C500.222 448.045 493.274 453.52 488.807 455.472C484.339 457.425 485.298 468.359 473.353 473.78C461.408 479.202 444.637 477.165 440.941 472.094C437.246 467.024 432.738 463.591 428.131 466.509C423.523 469.427 436.558 480.823 436.117 482.169C435.675 483.514 437.823 486.811 436.989 488.039C436.154 489.267 433.129 484.666 431.67 486.243C430.21 487.821 427.13 490.391 421.325 488.551C415.52 486.71 413.302 483.896 413.657 477.487C414.012 471.077 410.598 482.179 406.508 477.561C402.419 472.943 406.063 463.086 406.18 461.711C406.298 460.335 406.067 459.662 404.586 460.259C403.104 460.856 396.966 466.406 395.668 468.569C394.37 470.733 390.015 475.305 388.788 475.844C387.469 475.886 386.755 473.455 386.755 473.455Z" fill="#C8BDB4"/>
</g>
<path id="leaves-motion-path" d="M78 157C145.167 310.5 362 617.5 692 617.5C1022 617.5 1275.83 310.5 1361.5 157" stroke="#45825B" stroke-width="10"/>
</g>
<defs>
<clipPath id="clip0_23:180">
<rect width="1440" height="1024" fill="white"/>
</clipPath>
</defs>
</svg>
