<svg width="1441" height="900" viewBox="0 0 1441 900" fill="none" xmlns="http://www.w3.org/2000/svg">
<g id="Preloader-done">
<rect width="1440" height="900" transform="translate(0.773926)" fill="white"/>
<g id="scarf">
<path id="neck" d="M849.467 688.77C759.467 751.47 672.467 692.07 662.367 664.57C654.167 642.07 659.367 592.67 661.567 575.37C716.267 594.37 788.367 609.67 814.767 601.47C816.067 601.07 817.267 600.67 818.567 600.07V600.17C827.567 617.77 840.167 647.07 849.067 686.77C849.267 687.47 849.367 688.07 849.467 688.77Z" fill="black"/>
<g id="tassels">
<path id="top" d="M920.64 697.174C912.061 637.588 897.515 561.45 876.922 534.508C869.722 547.408 861.122 560.908 851.822 572.508C843.222 583.208 833.922 592.208 824.422 597.408C833.822 615.608 846.422 645.208 855.322 685.108C856.211 689.032 857.063 693.054 857.871 697.174H920.64Z" fill="black"/>
<path id="bottom" d="M857.871 697.174C862.146 718.99 865.181 743.555 866.022 770.809C866.072 772.531 866.113 774.265 866.146 776.009H866.122V798.874C866.094 800.281 866.06 801.692 866.022 803.109C866.022 803.109 866.056 803.112 866.122 803.117V827.709C866.122 827.709 870.222 828.109 876.622 827.509V802.899C878.798 802.699 881.263 802.401 883.922 801.909V826.509C887.222 825.909 890.722 825.009 894.422 823.809V799.209C896.822 798.409 899.322 797.509 901.822 796.409L901.822 821.009C905.322 819.509 908.822 817.709 912.322 815.509V790.908C914.822 789.408 917.222 787.709 919.722 785.709V810.209C923.322 807.309 926.822 804.009 930.222 800.209V776.009H929.952C930.042 775.909 930.132 775.809 930.222 775.709C930.222 775.709 929.422 766.409 927.522 751.409C925.977 737.372 923.684 718.315 920.64 697.174H857.871Z" fill="black"/>
</g>
</g>
</g>
</svg>
