<svg width="1440" height="1024" viewBox="0 0 1440 1024" fill="none" xmlns="http://www.w3.org/2000/svg">
<g id="preloader">
<rect width="1440" height="1024" fill="white"/>
<g id="baby pumpkin">
<g id="Vector">
<mask id="path-1-inside-1_23:180" fill="white">
<path d="M864.262 391.182C859.05 395.671 859.573 398.12 860.705 400.149C861.837 402.177 857.009 402.743 856.797 399.295C856.584 395.848 859.28 391.023 862.116 390.127C864.94 389.174 864.262 391.182 864.262 391.182Z"/>
</mask>
<path d="M864.262 391.182C859.05 395.671 859.573 398.12 860.705 400.149C861.837 402.177 857.009 402.743 856.797 399.295C856.584 395.848 859.28 391.023 862.116 390.127C864.94 389.174 864.262 391.182 864.262 391.182Z" fill="#45825B" stroke="#3D5545" stroke-width="0.580782" mask="url(#path-1-inside-1_23:180)"/>
</g>
<g id="Vector_2">
<mask id="path-2-inside-2_23:180" fill="white">
<path d="M852.517 411.967C853.468 416.421 857.515 417.652 861.913 416.713C866.368 415.761 869.503 412.996 868.552 408.543C867.601 404.089 862.876 399.685 858.477 400.624C854.079 401.564 851.577 407.57 852.517 411.967Z"/>
</mask>
<path d="M852.517 411.967C853.468 416.421 857.515 417.652 861.913 416.713C866.368 415.761 869.503 412.996 868.552 408.543C867.601 404.089 862.876 399.685 858.477 400.624C854.079 401.564 851.577 407.57 852.517 411.967Z" fill="#8DC69E" stroke="#45825B" stroke-width="0.580782" mask="url(#path-2-inside-2_23:180)"/>
</g>
</g>
<g id="grown up pumpkin">
<path id="Vector_3" d="M871.333 420.666C867.725 420.629 865.213 421.725 864.443 422.05C863.673 422.375 860.714 423.188 858.101 426.412C855.462 419.037 852.393 405.44 857.531 388.979C857.49 389.141 857.466 382.676 862.963 388.61C858.454 406.347 862.149 416.397 871.333 420.666Z" fill="#44150E"/>
<path id="Vector_4" d="M944.733 497.605C936.491 508.901 926.604 514.704 918.093 517.751C924.921 514.888 932.519 509.633 938.715 499.981C951.512 479.745 951.096 462.072 941.273 440.677C931.551 419.222 912.007 411.252 898.873 412.113C896.765 412.277 894.678 412.704 892.813 413.273C896.299 411.73 899.966 410.491 904.121 410.062C918.998 408.429 940.609 415.709 950.533 437.043C960.559 458.315 960.307 476.252 944.733 497.605Z" fill="#B9542F" stroke="#7D2B1B" stroke-width="0.551355" stroke-miterlimit="10"/>
<path id="Vector_5" d="M938.654 499.881C932.458 509.533 924.86 514.788 918.032 517.651C916.796 518.118 915.559 518.585 914.425 518.991C914.627 518.869 914.83 518.747 915.134 518.565C919.51 516.21 923.947 511.89 927.225 504.267C934.876 486.021 932.858 468.897 923.501 447.36C914.144 425.823 898.713 416.208 888.923 415.749C888.497 415.729 888.072 415.709 887.545 415.75C887.119 415.73 886.754 415.812 886.227 415.852C888.314 414.736 890.462 413.721 892.793 413.01C894.657 412.441 896.643 412.075 898.852 411.85C911.986 410.989 931.429 419.02 941.252 440.415C951.035 461.972 951.512 479.745 938.654 499.881Z" fill="#B9542F" stroke="#7D2B1B" stroke-width="0.551355" stroke-miterlimit="10"/>
<path id="Vector_6" d="M927.286 504.367C924.068 512.092 919.571 516.311 915.195 518.665C914.992 518.787 914.789 518.909 914.485 519.091C912.439 520.045 910.372 520.736 908.487 521.041C908.629 520.818 908.831 520.697 908.973 520.474C909.075 520.413 909.115 520.251 909.115 520.251C910.411 518.507 911.24 515.527 911.541 510.52C912.241 494.934 907.954 478.623 899.063 456.943C891.268 437.777 882.586 426.312 877.192 422.384C877.131 422.283 876.969 422.243 876.908 422.141C876.522 421.959 876.239 421.716 875.853 421.534C878.993 418.958 882.154 416.645 886.349 416.054C886.714 415.973 887.14 415.993 887.667 415.952C888.092 415.972 888.518 415.991 889.045 415.95C898.774 416.308 914.205 425.923 923.623 447.561C932.818 469.058 934.936 486.121 927.286 504.367Z" fill="#B9542F" stroke="#7D2B1B" stroke-width="0.551355" stroke-miterlimit="10"/>
<path id="Vector_7" d="M911.582 510.359C911.382 515.304 910.451 518.345 909.155 520.089C909.054 520.15 909.014 520.312 909.014 520.312C908.872 520.535 908.669 520.657 908.528 520.88C907.049 522.32 905.57 523.071 904.334 523.538C902.895 524.127 901.497 524.554 899.47 524.393C899.206 524.414 899.044 524.373 898.72 524.293C898.557 524.252 898.557 524.252 898.395 524.212C896.287 523.686 893.57 522.148 890.061 518.604C879.19 507.628 871.357 492.757 863.277 470.591C856.15 451.161 854.783 436.954 856.178 430.326C856.218 430.164 856.259 430.001 856.259 430.001C856.38 429.515 856.461 429.191 856.643 428.805C856.785 428.582 856.764 428.319 856.906 428.096C857.331 427.427 857.757 426.758 858.243 426.19C860.855 422.965 863.814 422.152 864.584 421.827C865.354 421.503 867.806 420.305 871.475 420.444C872.589 420.463 873.927 420.624 875.225 420.948C875.387 420.988 875.61 421.13 875.833 421.272C876.218 421.454 876.502 421.697 876.887 421.879C876.948 421.98 877.11 422.02 877.171 422.122C877.232 422.223 877.232 422.223 877.394 422.263C878.469 423.134 879.767 424.146 881.106 425.686C886.257 431.276 892.892 441.627 899.103 456.782C907.954 478.623 912.241 494.935 911.582 510.359Z" fill="#B9542F" stroke="#7D2B1B" stroke-width="0.551355" stroke-miterlimit="10"/>
<path id="Vector_8" d="M890.189 528.453C881.821 531.966 870.553 534.325 856.87 531.518C830.963 526.269 818.651 513.125 811.665 490.715C804.618 468.203 815.855 448.353 827.889 439.467C831.353 436.971 834.778 435.327 838.405 434.25C836.561 435.082 834.839 436.117 833.198 437.517C822.907 445.632 813.838 464.731 821.088 487.12C828.338 509.51 839.879 522.979 862.949 529.244C873.997 532.255 883.178 531.012 890.189 528.453Z" fill="#B9542F" stroke="#7D2B1B" stroke-width="0.551355" stroke-miterlimit="10"/>
<path id="Vector_9" d="M893.634 527.073C892.56 527.58 891.324 528.048 890.088 528.515C883.077 531.074 873.896 532.317 862.847 529.306C839.778 523.04 828.236 509.572 820.986 487.182C813.737 464.792 822.805 445.694 833.097 437.579C834.798 436.28 836.622 435.185 838.304 434.312C840.451 433.297 842.782 432.586 845.072 432.037C844.768 432.219 844.424 432.564 844.019 432.808C843.674 433.152 843.37 433.335 843.026 433.68C836.078 440.475 831.184 458.03 838.738 480.237C846.352 502.545 856.293 516.563 874.215 524.818C881.859 528.359 888.021 528.516 892.803 527.297C893.168 527.215 893.432 527.195 893.634 527.073Z" fill="#B9542F" stroke="#7D2B1B" stroke-width="0.551355" stroke-miterlimit="10"/>
<path id="Vector_10" d="M899.368 524.453C897.747 525.427 895.863 526.422 893.634 527.072C893.37 527.093 893.168 527.215 892.904 527.235C888.122 528.455 881.96 528.297 874.316 524.756C856.394 516.501 846.392 502.382 838.839 480.175C831.224 457.867 836.179 440.413 843.127 433.618C843.471 433.273 843.714 432.99 844.12 432.746C844.464 432.401 844.768 432.219 845.173 431.975C848.698 429.581 852.59 429.173 856.603 428.967C856.522 429.291 856.34 429.676 856.218 430.163C856.178 430.325 856.137 430.487 856.137 430.487C854.743 437.116 856.11 451.322 863.236 470.753C871.256 492.818 879.089 507.688 890.021 518.765C893.53 522.31 896.247 523.848 898.355 524.373C898.517 524.414 898.517 524.414 898.679 524.454C898.943 524.433 899.105 524.474 899.368 524.453Z" fill="#B9542F" stroke="#7D2B1B" stroke-width="0.551355" stroke-miterlimit="10"/>
</g>
<g id="leaf 1 - long">
<path id="stem" d="M739.5 422.5C693.1 476.1 687.166 586.5 690 635L749.5 646.5C736.5 626 713 571 723 515C735.5 445 750 417.5 820.5 396.5C876.9 379.7 980 415.166 1024.5 435C939 360.5 797.5 355.5 739.5 422.5Z" fill="#45825B" stroke="#3D5545"/>
<g id="leaf head">
<path id="leaf" d="M994.545 368.522C983.445 397.65 1012.85 425.065 1028.95 435.131C1017.21 432.636 990.048 433.916 975.309 458.999C956.887 490.354 959.593 501.664 983.966 521.669C1008.34 541.675 1043.63 534.355 1058.47 531.886C1073.31 529.418 1103.46 541.452 1111.02 525.166C1118.57 508.881 1140.25 507.868 1170.88 488.821C1201.51 469.775 1168.11 458.584 1169.73 446.149C1171.35 433.714 1142.15 407.57 1148.19 386.363C1154.24 365.156 1150.76 376.686 1103.72 350.326C1056.67 323.966 1008.42 332.111 994.545 368.522Z" fill="#45825B" stroke="#223D2B"/>
<g id="leaf lines">
<path id="main line" d="M1022.33 433.018C1044.21 447.894 1066.95 449.149 1094.22 448.302C1116.04 447.624 1151.76 463.773 1166.9 471.932" stroke="#54A06F" stroke-width="4" stroke-linecap="round" stroke-linejoin="round"/>
<path id="outward lines" d="M1098.55 449.586C1103.93 458.738 1112.27 481.23 1102.58 497.98M1079.94 448.184C1092.44 438.234 1118.44 412.306 1122.34 388.19M1048.29 445.546C1059.22 455.877 1077.66 485.833 1064.03 523.011M1028.3 436.184C1039.82 430.113 1064.88 408.384 1073.03 370.04M1128.59 454.95C1133.09 450.624 1142.88 438.255 1146.04 423.388M1151.62 464.446C1153.62 467.086 1157.08 475.319 1154.98 487.14" stroke="#54A06F" stroke-width="4" stroke-linecap="round"/>
</g>
<circle id="morph leaf" cx="1024" cy="435" r="0.5" fill="#3D5545" stroke="#223D2B"/>
</g>
</g>
<g id="leaf 2">
<g id="stem_2">
<mask id="path-16-inside-3_23:180" fill="white">
<path d="M621.526 502.615C625.266 507.425 648.56 526.167 659.526 539.116C670.559 552.241 684.015 570.602 682.342 586.759C680.601 602.74 691.14 597.713 690.013 586.856C688.954 576.176 688.238 554.279 667.076 535.141C645.915 516.004 633.32 503.918 626.085 498.777C619.526 494.116 617.786 497.806 621.526 502.615Z"/>
</mask>
<path d="M621.526 502.615C625.266 507.425 648.56 526.167 659.526 539.116C670.559 552.241 684.015 570.602 682.342 586.759C680.601 602.74 691.14 597.713 690.013 586.856C688.954 576.176 688.238 554.279 667.076 535.141C645.915 516.004 633.32 503.918 626.085 498.777C619.526 494.116 617.786 497.806 621.526 502.615Z" fill="#45825B" stroke="#3D5545" stroke-width="2" mask="url(#path-16-inside-3_23:180)"/>
</g>
<g id="leaf head_2">
<path id="leaf_2" d="M630.158 531.526C637.263 518.199 624.792 503.235 617.669 497.419C623.16 499.332 636.292 500.366 644.9 489.205C655.659 475.253 655.045 469.653 644.546 458.556C634.046 447.46 616.637 448.835 609.355 449.12C602.073 449.405 588.309 441.789 583.69 449.158C579.071 456.527 568.586 455.696 552.706 462.991C536.827 470.285 552.202 477.693 550.668 483.572C549.133 489.45 561.581 503.79 557.389 513.617C553.196 523.443 555.566 518.112 576.579 533.64C597.591 549.168 621.277 548.184 630.158 531.526Z" fill="#45825B" stroke="#223D2B" stroke-width="0.484484"/>
<g id="leaf lines_2">
<path id="main line_2" d="M620.721 498.838C611.105 490.358 600.253 488.374 587.093 487.124C576.565 486.125 560.375 476.193 553.596 471.352" stroke="#54A06F" stroke-width="1.93794" stroke-linecap="round" stroke-linejoin="round"/>
<path id="outward lines_2" d="M585.091 486.244C583.061 481.518 580.419 470.2 586.097 462.738M593.954 488.049C587.337 492.071 573.268 502.955 569.928 514.31M609.003 491.239C604.38 485.61 597.336 470.091 606.146 453.048M618.043 496.953C612.14 499.172 598.771 508.093 592.524 526.028M570.977 481.841C568.553 483.647 563.098 488.998 560.675 495.952M560.485 475.877C559.687 474.488 558.522 470.32 560.252 464.766" stroke="#54A06F" stroke-width="1.93794" stroke-linecap="round"/>
</g>
<circle id="morph leaf_2" cx="620.039" cy="497.783" r="0.242242" transform="rotate(-172.797 620.039 497.783)" fill="#3D5545" stroke="#223D2B" stroke-width="0.484484"/>
</g>
</g>
<g id="baby plant split">
<path id="right plant" fill-rule="evenodd" clip-rule="evenodd" d="M730.777 534.297C717.925 536.518 702.156 541.611 702.91 553.666C704.226 571.713 682.042 572.465 682.042 572.465C682.042 572.465 690.314 542.01 712.497 532.61C720.759 529.039 728.499 528.05 734.562 528.244C741.952 527.452 753.428 528.182 764.971 536.64C776.728 545.254 779.6 553.939 781.697 560.281C783.056 564.388 784.089 567.512 787 569C787 569 763.451 561.809 754.526 552.915C753.586 551.978 752.631 551.01 751.664 550.029C744.986 543.257 737.731 535.9 730.777 534.297Z" fill="#45825B"/>
<path id="left plant" fill-rule="evenodd" clip-rule="evenodd" d="M630.408 539.014C640.296 532.162 649.803 536.159 649.803 536.159C649.803 536.159 649.944 536.251 650.154 536.399C655.882 537.706 665.623 540.695 671.958 543.07C682.486 547.018 692.826 557.734 691.322 566.382C689.63 574.842 680.042 571.082 680.042 571.082C680.042 571.082 681.17 550.214 664.815 544.574C654.023 540.745 650.25 539.136 648.457 538.156C644.643 538.37 640.425 542.466 636.617 546.164C636.19 546.579 635.768 546.989 635.352 547.387C630.789 551.765 619 555 619 555C620.495 554.252 621.049 552.681 621.772 550.633C622.889 547.471 624.407 543.172 630.408 539.014Z" fill="#45825B"/>
</g>
<g id="baby pumpkin plant">
<path id="right plant_2" fill-rule="evenodd" clip-rule="evenodd" d="M698.428 483.106C698.404 483.144 698.38 483.182 698.354 483.219C696.808 485.476 693.328 492.245 696.034 499.767C698.166 505.69 697.18 509.631 695.91 514.711C695.567 516.082 695.203 517.537 694.875 519.136C693.328 526.658 694.488 557.497 694.488 557.497C694.488 557.497 695.841 581.003 684.629 557.685C677.649 543.169 682.132 531.276 686.464 519.784C689.09 512.816 691.661 505.996 691.588 498.827C691.588 498.285 691.526 497.456 691.449 496.44C691.099 491.818 690.456 483.328 694.101 480.398C695.479 479.337 696.55 478.956 697.334 479.004C698.75 477.968 714.351 467.097 735.96 474.656C749.66 479.488 754.801 486.854 758.566 492.247C760.979 495.705 762.826 498.352 766 499C766 499 741.628 498.816 730.481 492.914C729.227 492.25 727.952 491.558 726.664 490.859C716.696 485.453 705.956 479.626 698.428 483.106Z" fill="#45825B"/>
<path id="left plant_2" fill-rule="evenodd" clip-rule="evenodd" d="M677.678 476.413C688.502 472.217 696.391 478.702 696.391 478.702C696.391 478.702 696.512 478.839 696.688 479.053C699.123 478.572 699.557 481.464 698.354 483.219C696.808 485.476 693.328 492.245 696.034 499.767C698.166 505.69 697.18 509.631 695.91 514.711C695.567 516.082 695.203 517.537 694.875 519.136C693.328 526.658 694.488 557.497 694.488 557.497C694.488 557.497 695.841 581.003 684.629 557.685C677.649 543.169 682.132 531.276 686.464 519.784C689.09 512.816 691.661 505.996 691.588 498.827C691.588 498.285 691.526 497.456 691.449 496.44C691.099 491.818 690.456 483.328 694.101 480.398C694.182 480.336 694.261 480.277 694.34 480.219C690.753 479.647 685.99 482.419 681.706 484.912C681.212 485.2 680.725 485.484 680.246 485.758C674.925 488.809 663 489 663 489C664.58 488.627 665.485 487.26 666.662 485.483C668.492 482.72 670.978 478.966 677.678 476.413Z" fill="#45825B"/>
</g>
<g id="leaf 3">
<g id="stem_3">
<mask id="path-25-inside-4_23:180" fill="white">
<path d="M496.245 376.465C496.245 376.465 543.988 349.449 599.398 369.729C654.659 390.213 739.801 417.159 688.91 599.464L677.901 590.552C677.901 590.552 697.489 523.46 673.077 457.928C648.665 392.396 592.597 363.174 501.787 392.436C410.773 421.549 496.245 376.465 496.245 376.465Z"/>
</mask>
<path d="M496.245 376.465C496.245 376.465 543.988 349.449 599.398 369.729C654.659 390.213 739.801 417.159 688.91 599.464L677.901 590.552C677.901 590.552 697.489 523.46 673.077 457.928C648.665 392.396 592.597 363.174 501.787 392.436C410.773 421.549 496.245 376.465 496.245 376.465Z" fill="#45825B" stroke="#3D5545" stroke-width="2" mask="url(#path-25-inside-4_23:180)"/>
</g>
<g id="leaf head_3">
<path id="leaf_3" d="M481.088 349.628C491.02 370.833 470.511 393.002 459.015 401.436C467.67 398.916 488.087 398.367 500.52 416.34C516.061 438.805 514.661 447.428 497.514 463.768C480.366 480.107 453.52 476.582 442.268 475.557C431.015 474.531 409.092 485.22 402.531 473.439C395.97 461.658 379.669 462.103 355.666 449.535C331.663 436.967 356.064 426.73 354.16 417.504C352.255 408.279 372.68 387.073 366.976 371.522C361.273 355.97 364.515 364.415 398.296 342.057C432.077 319.699 468.673 323.122 481.088 349.628Z" fill="#45825B" stroke="#223D2B" stroke-width="0.751178"/>
<g id="leaf lines_3">
<path id="main line_3" d="M463.854 399.486C448.285 411.845 431.323 414.047 410.846 414.926C394.464 415.63 368.599 429.71 357.715 436.662" stroke="#54A06F" stroke-width="3.00471" stroke-linecap="round" stroke-linejoin="round"/>
<path id="outward lines_3" d="M407.675 416.129C404.152 423.284 399.154 440.596 407.346 452.606M421.542 414.046C411.619 407.287 390.708 389.306 386.447 371.456M445.101 410.313C437.491 418.659 425.339 442.123 437.613 469.218M459.556 402.191C450.593 398.281 430.609 383.395 422.375 355.124M385.468 421.815C381.858 418.824 373.841 410.101 370.648 399.139M368.744 430.207C367.396 432.295 365.258 438.655 367.491 447.394" stroke="#54A06F" stroke-width="3.00471" stroke-linecap="round"/>
</g>
<circle id="morph leaf_3" r="0.375589" transform="matrix(-0.997266 0.0738899 0.0738899 0.997266 462.713 401.064)" fill="#3D5545" stroke="#223D2B" stroke-width="0.751178"/>
</g>
</g>
<g id="leaf 4">
<g id="stem_4">
<mask id="path-30-inside-5_23:180" fill="white">
<path d="M576.024 363.615C576.024 363.615 533.219 360.589 535.905 321.458C538.591 282.327 548.22 266.039 541.721 273.907C535.222 281.775 529.41 315.969 530.671 326.194C532.113 336.469 541.461 361.918 558.702 365.369C575.943 368.819 576.024 363.615 576.024 363.615Z"/>
</mask>
<path d="M576.024 363.615C576.024 363.615 533.219 360.589 535.905 321.458C538.591 282.327 548.22 266.039 541.721 273.907C535.222 281.775 529.41 315.969 530.671 326.194C532.113 336.469 541.461 361.918 558.702 365.369C575.943 368.819 576.024 363.615 576.024 363.615Z" fill="#45825B" stroke="#3D5545" stroke-width="2" mask="url(#path-30-inside-5_23:180)"/>
</g>
<g id="leaf head_4">
<path id="leaf_4" d="M555.211 293.295C545.669 291.744 542.886 279.589 542.687 273.705C541.531 277.243 536.964 284.332 527.941 284.386C516.662 284.453 514.048 281.968 512.471 272.316C510.893 262.665 518.346 254.333 521.316 250.735C524.286 247.138 525.747 237.174 531.291 237.68C536.836 238.187 540.48 232.525 550.354 227.268C560.229 222.011 558.037 232.715 561.626 234.213C565.215 235.712 567.689 247.614 574.319 249.291C580.949 250.968 577.315 250.107 577.072 266.831C576.828 283.555 567.139 295.235 555.211 293.295Z" fill="#45825B" stroke="#223D2B" stroke-width="0.310147"/>
<g id="leaf lines_4">
<path id="main line_4" d="M542.225 275.809C541.637 267.622 544.836 261.326 549.305 254.14C552.88 248.391 554.102 236.294 554.267 230.964" stroke="#54A06F" stroke-width="1.24059" stroke-linecap="round" stroke-linejoin="round"/>
<path id="outward lines_4" d="M549.633 252.778C548.014 249.911 543.275 244.176 537.273 244.172M547.114 257.992C551.73 256.182 562.73 253.24 569.807 255.944M542.901 266.893C541.828 262.355 536.657 252.748 524.561 250.623M542.304 273.713C545.724 271.568 555.453 268.221 567.01 271.996M552.866 243.883C554.726 243.349 559.567 242.646 564.048 244.111M553.899 236.227C553.501 235.281 551.83 233.071 548.331 231.797" stroke="#54A06F" stroke-width="1.24059" stroke-linecap="round"/>
</g>
<circle id="morph leaf_4" r="0.155074" transform="matrix(0.501441 -0.865192 -0.865192 -0.501441 541.953 275.053)" fill="#3D5545" stroke="#223D2B" stroke-width="0.310147"/>
</g>
</g>
<g id="dirt">
<path id="dirt outline" d="M976.245 574.287L975.869 576.167C972.674 575.603 969.666 575.039 966.658 574.475C961.394 573.535 956.318 572.595 951.806 571.843C931.126 568.46 916.651 566.956 901.611 568.46C900.859 568.46 900.295 568.648 899.543 568.648C892.399 569.776 883.375 572.595 873.035 575.791C846.528 584.251 810.057 595.531 776.969 584.627C733.542 570.152 680.339 566.204 647.44 575.039C633.152 578.799 583.333 590.643 545.357 580.867C517.91 573.911 493.658 570.904 464.143 578.799C460.759 579.739 456.999 580.491 452.863 581.431C442.523 583.687 429.928 585.755 418.084 587.635C415.452 588.011 412.82 588.387 410.376 588.763L410 586.883C412.444 586.507 414.888 586.131 417.332 585.755C428.8 584.063 440.831 581.995 450.983 579.927C455.683 578.987 460.007 578.047 463.579 577.107C493.47 569.212 517.91 572.219 545.733 579.175C571.113 585.567 608.9 583.311 646.876 573.347C680.527 564.324 732.978 568.272 777.533 582.935C809.869 593.651 845.964 582.371 872.283 574.099C883.187 570.716 892.775 567.708 900.107 566.768C900.483 566.768 900.859 566.58 901.235 566.58C916.651 565.076 931.502 566.58 952.746 570.152C957.258 570.904 962.146 571.843 967.41 572.783C970.23 573.159 973.237 573.723 976.245 574.287Z" fill="#63432E"/>
<path id="large dirt" d="M967 574.348C954.027 602.425 898.939 623.906 868.857 635.965C833.698 650.098 851.748 700.597 782.183 713.599C712.617 726.789 678.399 668.187 593.417 680.812C508.435 693.437 519.339 650.098 468.388 632.95C440.186 623.529 424.957 605.628 418 587.35C430.033 585.466 442.442 583.393 452.783 581.132C456.919 580.19 460.679 579.436 464.063 578.494C493.393 570.58 517.835 573.595 545.285 580.567C583.264 590.177 633.088 578.494 647.377 574.725C680.279 565.869 733.487 570.015 776.918 584.335C809.821 595.264 846.295 583.77 872.993 575.479C883.334 572.276 892.359 569.449 899.503 568.319C900.255 568.13 901.007 568.13 901.571 568.13C916.612 566.623 931.277 568.13 951.771 571.522C956.659 572.653 961.548 573.406 967 574.348Z" fill="#C47B57"/>
</g>
<g id="full pum[kin">
<g id="pumpkin">
<g id="pumpkin body final">
<path id="Vector_11" d="M838.02 685.122C804.801 706.349 772.603 711.605 747.038 711.044C768.112 710.482 793.575 704.359 819.701 685.122C874.351 644.861 891.037 597.559 887.261 530.968C883.485 464.378 840.163 423.249 804.648 412.228C798.78 410.391 793.065 409.421 787.503 409.013C798.219 408.401 809.138 409.115 820.722 412.228C861.595 423.249 911.448 464.378 915.837 530.968C920.174 597.61 900.937 644.912 838.02 685.122Z" fill="#B9542F" stroke="#7D2B1B" stroke-width="2.93278" stroke-miterlimit="10"/>
<path id="Vector_12" d="M819.7 685.122C793.574 704.36 768.112 710.483 747.037 711.044C743.312 711.146 739.689 711.044 736.271 710.84C736.985 710.789 737.75 710.687 738.465 710.636C752.395 708.952 768.52 702.165 785.053 685.122C824.089 644.862 835.978 597.559 833.273 530.969C830.569 464.378 799.646 423.25 774.286 412.228C773.112 411.718 771.939 411.259 770.816 410.901C769.642 410.493 768.52 410.187 767.346 409.932C773.929 409.013 780.664 408.554 787.502 409.064C793.064 409.473 798.779 410.442 804.647 412.279C840.162 423.301 883.484 464.429 887.26 531.02C891.036 597.61 874.351 644.913 819.7 685.122Z" fill="#B9542F" stroke="#7D2B1B" stroke-width="2.93278" stroke-miterlimit="10"/>
<path id="Vector_13" d="M785.001 685.122C768.468 702.166 752.344 708.901 738.413 710.636C737.699 710.738 736.934 710.789 736.219 710.84C729.739 711.402 723.769 710.891 718.513 709.871C719.125 709.565 719.788 709.258 720.452 708.85C720.707 708.697 720.911 708.544 721.166 708.391C726.218 705.023 731.78 698.032 737.393 685.122C754.946 644.862 760.304 597.56 759.079 530.969C758.008 472.185 747.037 433.302 736.678 417.382C736.474 417.076 736.27 416.77 736.066 416.463C735.352 415.443 734.637 414.524 733.923 413.708C744.843 410.187 755.661 407.176 767.346 409.983C768.468 410.238 769.642 410.595 770.816 410.952C771.989 411.361 773.112 411.769 774.286 412.279C799.646 423.301 830.569 464.429 833.273 531.02C835.927 597.611 824.037 644.913 785.001 685.122Z" fill="#B9542F" stroke="#7D2B1B" stroke-width="2.93278" stroke-miterlimit="10"/>
<path id="Vector_14" d="M737.393 685.122C731.78 698.032 726.218 705.023 721.167 708.391C720.911 708.544 720.707 708.697 720.452 708.85C719.789 709.258 719.177 709.564 718.513 709.87C713.104 712.269 708.308 712.575 704.685 712.524C700.296 712.473 696.265 712.269 690.856 709.87C690.244 709.564 689.581 709.258 688.917 708.85C688.662 708.697 688.458 708.544 688.203 708.391C683.151 705.023 677.589 698.032 671.976 685.122C654.423 644.861 649.065 597.559 650.29 530.968C651.361 472.185 662.332 433.302 672.691 417.382C672.895 417.075 673.099 416.769 673.303 416.463C674.017 415.443 674.732 414.524 675.446 413.708C675.905 413.197 676.314 412.636 676.824 412.279C678.661 410.799 680.498 409.574 682.284 408.605C692.489 402.788 701.062 403.706 703.46 403.706C705.705 403.706 713.564 403.094 723.055 406.972C726.065 408.197 729.28 409.932 732.546 412.279C733.056 412.636 733.464 413.197 733.872 413.708C734.587 414.524 735.301 415.443 736.016 416.463C736.22 416.769 736.424 417.075 736.628 417.382C736.73 417.535 736.832 417.739 736.985 417.892C739.077 421.209 741.22 425.444 743.261 430.598C751.273 450.702 758.264 484.687 759.08 530.968C760.305 597.61 754.947 644.912 737.393 685.122Z" fill="#B9542F" stroke="#7D2B1B" stroke-width="2.93278" stroke-miterlimit="10"/>
<path id="Vector_15" d="M662.383 711.044C636.819 711.605 604.569 706.349 571.351 685.122C508.434 644.861 489.248 597.559 493.585 530.968C497.973 464.378 547.827 423.249 588.7 412.228C600.232 409.115 611.203 408.401 621.919 409.013C616.357 409.421 610.642 410.391 604.774 412.228C569.258 423.249 525.936 464.378 522.16 530.968C518.384 597.559 535.07 644.861 589.72 685.122C615.846 704.359 641.258 710.482 662.383 711.044Z" fill="#B9542F" stroke="#7D2B1B" stroke-width="2.93278" stroke-miterlimit="10"/>
<path id="Vector_16" d="M673.15 710.84C669.731 711.044 666.108 711.146 662.383 711.044C641.309 710.482 615.846 704.359 589.72 685.122C535.07 644.861 518.384 597.559 522.16 530.968C525.936 464.378 569.258 423.249 604.773 412.228C610.641 410.391 616.356 409.421 621.918 409.013C628.756 408.554 635.492 408.962 642.074 409.88C640.951 410.135 639.778 410.493 638.604 410.85C637.431 411.258 636.308 411.666 635.134 412.177C609.774 423.198 578.851 464.326 576.147 530.917C573.442 597.508 585.332 644.81 624.368 685.071C640.9 702.114 657.025 708.85 670.956 710.584C671.67 710.738 672.435 710.789 673.15 710.84Z" fill="#B9542F" stroke="#7D2B1B" stroke-width="2.93278" stroke-miterlimit="10"/>
<path id="Vector_17" d="M690.857 709.871C685.601 710.891 679.631 711.402 673.151 710.84C672.436 710.789 671.722 710.687 670.957 710.636C657.026 708.952 640.901 702.166 624.369 685.122C585.333 644.862 573.443 597.56 576.148 530.969C578.852 464.378 609.775 423.25 635.135 412.228C636.309 411.718 637.483 411.259 638.605 410.901C639.779 410.493 640.901 410.187 642.075 409.932C653.76 407.176 664.578 410.187 675.498 413.657C674.784 414.473 674.069 415.392 673.355 416.412C673.151 416.719 672.947 417.025 672.742 417.331C662.333 433.251 651.413 472.185 650.341 530.918C649.117 597.508 654.475 644.811 672.028 685.071C677.641 697.981 683.152 704.972 688.255 708.34C688.51 708.493 688.714 708.646 688.969 708.799C689.582 709.258 690.194 709.616 690.857 709.871Z" fill="#B9542F" stroke="#7D2B1B" stroke-width="2.93278" stroke-miterlimit="10"/>
</g>
<path id="stem_5" d="M723.054 406.973C713.512 403.043 705.705 403.707 703.46 403.707C701.061 403.707 692.438 402.737 682.283 408.605C682.793 386.511 688.611 347.373 718.972 309C718.819 309.408 714.686 322.369 723.258 343.494C709.685 362.017 702.949 386.357 723.054 406.973Z" fill="#44150E"/>
</g>
<g id="face">
<path id="right eye" d="M824.752 525.97C819.598 524.949 802.146 524.439 774.336 524.439C760.712 524.439 749.537 524.592 749.435 524.592L747.088 524.643L747.7 522.347C751.272 508.773 768.213 445.959 768.366 445.346L768.979 442.999L771.02 444.275C787.706 454.735 825.058 520.561 826.639 523.367L828.528 526.735L824.752 525.97Z" fill="#44150E" stroke="#44150E" stroke-width="2.34623"/>
<path id="left eye" d="M654.169 522.907C632.38 518.57 614.418 516.325 600.794 516.325C590.129 516.325 586.251 517.753 586.2 517.753L582.985 518.978L583.802 515.661C586.863 503.313 598.702 486.321 618.909 465.144C633.86 449.479 648.147 437.232 648.3 437.079L650.444 435.242L651.209 437.947C656.516 456.674 656.312 518.468 656.312 521.07V523.213L654.169 522.907Z" fill="#44150E" stroke="#44150E" stroke-width="2.34623"/>
<path id="nose" d="M728.464 571.791C723.718 570.924 716.064 570.464 705.757 570.464C688.101 570.464 668.507 571.791 668.303 571.842L666.108 571.995L666.414 569.801C668.098 557.35 697.694 496.985 698.97 494.434L700.348 491.576L702.032 494.281C712.339 510.507 729.739 567.148 730.454 569.546L731.321 572.352L728.464 571.791Z" fill="#44150E" stroke="#44150E" stroke-width="2.34623"/>
<path id="mouth" d="M721.371 640.474L683.713 639.402L680.447 677.418L678.508 677.111C650.29 672.315 627.174 662.416 612.784 654.966C596.201 646.342 580.943 631.646 569.819 613.531C556.961 592.508 549.562 566.994 548.541 539.644L548.337 534.337L551.705 538.47C552.011 538.878 585.026 578.833 615.846 590.008C618.091 590.824 620.286 591.59 622.48 592.355L623.602 592.763L625.694 632.36L658.505 634.248L661.567 604.04L663.506 604.448C676.109 607.153 687.897 608.48 699.48 608.48C700.449 608.48 701.419 608.48 702.388 608.429C703.919 608.378 705.552 608.378 707.389 608.378C711.931 608.378 717.033 608.48 722.391 608.531C727.851 608.633 733.515 608.735 739.332 608.735H740.914L744.639 639.657L777.041 642.566V606.949L778.572 606.745C792.911 604.806 802.708 601.336 808.576 596.233C828.069 579.139 853.532 554.442 853.787 554.187L857.461 550.615L856.797 555.717C856.695 556.534 854.042 576.077 843.071 599.55C836.59 613.327 828.63 625.625 819.292 635.983C807.607 648.995 793.778 659.048 778.215 665.834C760.917 673.437 742.394 677.979 723.259 679.357L721.371 679.51V640.474V640.474Z" fill="#44150E" stroke="#44150E" stroke-width="2.34623"/>
</g>
<g id="light">
<g id="dimmer light">
<mask id="mask0_23:180" style="mask-type:alpha" maskUnits="userSpaceOnUse" x="560" y="484" width="277" height="277">
<g id="Group">
<path id="5" opacity="0.26" d="M698.59 761C774.934 761 836.823 699.111 836.823 622.767C836.823 546.423 774.934 484.534 698.59 484.534C622.246 484.534 560.357 546.423 560.357 622.767C560.357 699.111 622.246 761 698.59 761Z" fill="white"/>
<path id="4" opacity="0.63" d="M698.59 736.099C761.181 736.099 811.922 685.359 811.922 622.767C811.922 560.176 761.181 509.436 698.59 509.436C635.999 509.436 585.258 560.176 585.258 622.767C585.258 685.359 635.999 736.099 698.59 736.099Z" fill="white"/>
<path id="3" d="M698.59 711.248C747.457 711.248 787.072 671.634 787.072 622.767C787.072 573.9 747.457 534.285 698.59 534.285C649.723 534.285 610.109 573.9 610.109 622.767C610.109 671.634 649.723 711.248 698.59 711.248Z" fill="white"/>
<path id="2" d="M698.589 691.195C736.38 691.195 767.016 660.559 767.016 622.768C767.016 584.976 736.38 554.34 698.589 554.34C660.797 554.34 630.161 584.976 630.161 622.768C630.161 660.559 660.797 691.195 698.589 691.195Z" fill="white"/>
<path id="1" d="M698.589 671.14C725.305 671.14 746.963 649.483 746.963 622.767C746.963 596.05 725.305 574.393 698.589 574.393C671.873 574.393 650.215 596.05 650.215 622.767C650.215 649.483 671.873 671.14 698.589 671.14Z" fill="white"/>
</g>
</mask>
<g mask="url(#mask0_23:180)">
<g id="right eye_2" style="mix-blend-mode:color">
<path d="M824.525 525.763C819.372 524.743 801.92 524.233 774.11 524.233C760.486 524.233 749.311 524.386 749.209 524.386L746.862 524.437L747.474 522.141C751.046 508.567 767.987 445.753 768.14 445.14L768.753 442.793L770.794 444.069C787.48 454.529 824.832 520.355 826.413 523.161L828.302 526.529L824.525 525.763Z" fill="#CE8732"/>
</g>
<g id="left eye_2" style="mix-blend-mode:color">
<path d="M653.94 522.702C632.152 518.365 614.19 516.12 600.566 516.12C589.901 516.12 586.023 517.548 585.972 517.548L582.757 518.773L583.574 515.456C586.635 503.108 598.474 486.115 618.681 464.939C633.632 449.274 647.919 437.027 648.072 436.874L650.216 435.037L650.981 437.742C656.288 456.469 656.084 518.263 656.084 520.865V523.008L653.94 522.702Z" fill="#CE8732"/>
</g>
<g id="nose_2" style="mix-blend-mode:color">
<path d="M728.236 571.587C723.49 570.72 715.836 570.26 705.529 570.26C687.873 570.26 668.279 571.587 668.075 571.638L665.88 571.791L666.186 569.597C667.87 557.146 697.466 496.781 698.742 494.23L700.12 491.372L701.804 494.077C712.111 510.303 729.511 566.944 730.226 569.342L731.093 572.148L728.236 571.587Z" fill="#CE8732"/>
</g>
<g id="mouth_2" style="mix-blend-mode:color">
<path d="M721.145 640.27L683.486 639.198L680.221 677.213L678.282 676.907C650.064 672.111 626.948 662.211 612.558 654.761C595.975 646.138 580.717 631.442 569.593 613.327C556.735 592.304 549.335 566.79 548.315 539.44L548.111 534.133L551.479 538.266C551.785 538.674 584.8 578.629 615.62 589.804C617.865 590.62 620.059 591.385 622.254 592.151L623.376 592.559L625.468 632.156L658.279 634.044L661.34 603.836L663.28 604.244C675.883 606.949 687.671 608.276 699.254 608.276C700.223 608.276 701.193 608.276 702.162 608.225C703.693 608.173 705.326 608.173 707.163 608.173C711.705 608.173 716.807 608.276 722.165 608.327C727.625 608.429 733.289 608.531 739.106 608.531H740.688L744.413 639.453L776.815 642.362V606.745L778.346 606.541C792.685 604.602 802.482 601.132 808.35 596.029C827.843 578.935 853.305 554.238 853.561 553.982L857.235 550.411L856.571 555.513C856.469 556.33 853.816 575.873 842.845 599.346C836.364 613.123 828.404 625.421 819.066 635.779C807.381 648.791 793.552 658.844 777.989 665.63C760.691 673.233 742.168 677.775 723.033 679.153L721.145 679.306V640.27V640.27Z" fill="#CE8732"/>
</g>
</g>
</g>
<g id="brightest light">
<mask id="mask1_23:180" style="mask-type:alpha" maskUnits="userSpaceOnUse" x="630" y="554" width="138" height="138">
<g id="Group_2">
<path id="2_2" d="M698.692 691.297C736.483 691.297 767.12 660.661 767.12 622.869C767.12 585.078 736.483 554.441 698.692 554.441C660.9 554.441 630.264 585.078 630.264 622.869C630.264 660.661 660.9 691.297 698.692 691.297Z" fill="#E1B062" fill-opacity="0.6"/>
<path id="1_2" d="M698.692 671.243C725.408 671.243 747.066 649.585 747.066 622.869C747.066 596.153 725.408 574.495 698.692 574.495C671.976 574.495 650.318 596.153 650.318 622.869C650.318 649.585 671.976 671.243 698.692 671.243Z" fill="#F4D892"/>
</g>
</mask>
<g mask="url(#mask1_23:180)">
<path id="nose_3" d="M728.236 571.587C723.49 570.72 715.836 570.26 705.529 570.26C687.873 570.26 668.279 571.587 668.075 571.638L665.88 571.791L666.186 569.597C667.87 557.146 697.466 496.781 698.742 494.23L700.12 491.372L701.804 494.077C712.111 510.303 729.511 566.944 730.226 569.342L731.093 572.148L728.236 571.587Z" fill="#F4D892"/>
<path id="mouth_3" d="M721.144 640.27L683.486 639.198L680.22 677.213L678.281 676.907C650.063 672.111 626.948 662.211 612.558 654.761C595.974 646.138 580.717 631.442 569.593 613.327C556.734 592.304 549.335 566.79 548.315 539.44L548.111 534.133L551.478 538.266C551.785 538.674 584.799 578.629 615.62 589.804C617.865 590.62 620.059 591.385 622.253 592.151L623.376 592.559L625.468 632.156L658.279 634.044L661.34 603.836L663.279 604.244C675.883 606.949 687.67 608.276 699.254 608.276C700.223 608.276 701.193 608.276 702.162 608.225C703.693 608.173 705.326 608.173 707.163 608.173C711.704 608.173 716.807 608.276 722.165 608.327C727.625 608.429 733.289 608.531 739.106 608.531H740.688L744.413 639.453L776.815 642.362V606.745L778.346 606.541C792.685 604.602 802.482 601.132 808.35 596.029C827.843 578.935 853.305 554.238 853.56 553.982L857.234 550.411L856.571 555.513C856.469 556.33 853.816 575.873 842.845 599.346C836.364 613.123 828.404 625.421 819.066 635.779C807.381 648.791 793.552 658.844 777.989 665.63C760.691 673.233 742.168 677.775 723.032 679.153L721.144 679.306V640.27V640.27Z" fill="#F4D892"/>
</g>
</g>
</g>
<g id="cut outs">
<g id="left eye_3">
<path id="Vector_18" d="M660.298 521.04L654.639 528.382L598.37 506.66L571.62 455.483L580.718 448.055L660.298 521.04Z" fill="#661F18" stroke="#661F18" stroke-width="0.70832" stroke-miterlimit="10"/>
<path id="Vector_19" d="M571.619 455.483C571.619 455.483 579.824 497.343 578.669 525.896C578.669 525.896 593.479 519.043 650.637 527.549C650.637 527.549 578.176 474.698 571.619 455.483Z" fill="#963D29" stroke="#661F18" stroke-width="2.62489" stroke-miterlimit="10"/>
</g>
<g id="right eye_3">
<path id="Vector_20" d="M746.898 524.772L752.557 532.115L808.827 510.393L835.577 459.216L826.478 451.787L746.898 524.772Z" fill="#661F18" stroke="#661F18" stroke-width="0.70832" stroke-miterlimit="10"/>
<path id="Vector_21" d="M835.577 459.216C835.577 459.216 827.372 501.075 828.527 529.629C828.527 529.629 813.718 522.776 756.56 531.282C756.56 531.282 829.021 478.43 835.577 459.216Z" fill="#963D29" stroke="#661F18" stroke-width="2.62489" stroke-miterlimit="10"/>
</g>
<g id="nose_4">
<g id="cut out">
<path id="Vector_22" d="M660.546 578.217L663.527 567.152L703.248 532L739.41 568.131L743.546 579L699.016 570.579L660.546 578.217Z" fill="#661F18"/>
<path id="Vector_23" d="M703.261 548C703.261 548 678.367 565.128 665 577C665 577 716.724 573.399 736 577L703.261 548Z" fill="#963D29" stroke="#661F18" stroke-width="2" stroke-miterlimit="10"/>
</g>
</g>
<g id="mouth_4">
<path id="Vector_24" d="M853.875 636.057C853.875 636.057 776.136 649.8 700.963 649.8C632.578 649.717 548.546 632 548.546 632V647.896C550.782 662.632 581.331 672.484 611.963 676.458C626.783 678.362 649.798 680.846 677.285 682.005L680.513 672.484L721.66 672.815V675.63V682.667C739.294 682.336 757.674 681.343 776.136 679.273C843.444 671.822 853.875 651.952 853.875 651.952V636.057Z" fill="#661F18" stroke="#661F18" stroke-miterlimit="10"/>
<path id="Vector_25" d="M808.506 662.467C801.8 663.957 790.541 664.785 777.543 665.199V674.223L741.695 673.395L737.969 665.613C724.061 665.613 710.814 665.447 700.962 665.53C687.55 665.613 674.635 665.199 661.554 664.536L658.491 672.07L622.312 671.573L620.242 661.556C618.007 661.39 615.854 661.142 613.619 660.976C581.828 658.079 548.546 647.896 548.546 647.896C550.781 662.632 581.331 672.484 611.963 676.458C626.783 678.362 649.798 680.846 677.284 682.005L680.513 672.484L721.66 672.815V682.584C739.294 682.253 757.673 681.26 776.135 679.19C843.444 671.739 853.875 651.869 853.875 651.869C853.875 651.869 828.293 658.161 808.506 662.467Z" fill="#963D29" stroke="#661F18" stroke-width="3.7058" stroke-miterlimit="10"/>
</g>
</g>
</g>
</g>
</svg>
