<svg width="1441" height="900" viewBox="0 0 1441 900" fill="none" xmlns="http://www.w3.org/2000/svg">
<g id="Preloader-done">
<rect width="1440" height="900" transform="translate(0.773926)" fill="white"/>
<g id="scarf">
<g id="scarf final">
<path id="neck" d="M844.134 690.86C754.134 753.56 672.467 692.07 662.367 664.57C654.167 642.07 659.367 592.67 661.567 575.37C716.267 594.37 788.367 609.67 814.767 601.47C816.067 601.07 817.267 600.67 818.567 600.07V600.17C832.383 627.188 839.827 660.713 844.134 690.86Z" fill="black"/>
<g id="tassels">
<path id="top" d="M888.85 734.806C908.556 734.806 923.696 717.354 920.466 697.915C910.318 636.839 893.784 556.568 876.922 534.508C869.722 547.408 861.122 560.908 851.822 572.508C843.222 583.208 833.922 592.208 824.422 597.408C837.156 622.064 849.116 671.87 856.915 708.721C860.118 723.857 873.379 734.806 888.85 734.806V734.806Z" fill="black"/>
<path id="bottom" d="M880.67 656.868C862.153 658.885 849.58 676.259 853.276 694.515C857.384 714.805 861.49 737.646 862 754.162C862.049 755.884 862.091 757.618 862.124 759.362H862.1V782.227C862.071 783.634 862.038 785.045 862 786.462C862 786.462 862.034 786.465 862.1 786.47V811.062C862.1 811.062 866.2 811.462 872.6 810.862V786.252C874.775 786.052 877.241 785.754 879.9 785.262V809.862C883.2 809.262 886.7 808.362 890.4 807.162V782.562C892.8 781.762 895.3 780.862 897.8 779.762L897.8 804.362C901.3 802.862 904.8 801.062 908.3 798.862V774.261C910.8 772.761 913.2 771.062 915.7 769.062V793.562C919.3 790.662 922.8 787.362 926.2 783.562V759.362C925.665 760.021 925.15 756.441 926.2 759.062C926.2 729.982 921.308 706.034 916.767 683.748C913.346 666.959 897.704 655.012 880.67 656.868V656.868Z" fill="black"/>
</g>
</g>
</g>
</g>
</svg>
