<svg width="1441" height="900" viewBox="0 0 1441 900" fill="none" xmlns="http://www.w3.org/2000/svg">
<g id="Preloader-done">
<rect width="1440" height="900" transform="translate(0.773926)" fill="white"/>
<g id="snowflakes">
<g id="snowflake-1complete">
<path id="drawsvg-snowflake" d="M247.071 322.189C374.256 220.019 463.206 174.222 619.151 202.115C775.096 230.007 862.577 344.113 912.023 406.238" stroke="black" stroke-width="3" stroke-linecap="round"/>
<path id="extra-line" d="M299.371 281.948L247.591 321.739" stroke="black" stroke-width="3" stroke-linecap="round"/>
<g id="snowflake1">
<path id="Vector 8" d="M235.725 315.373L244.318 250.637" stroke="black" stroke-width="3" stroke-linecap="round"/>
<path id="Vector 9" d="M247.72 321.906L299.242 281.781" stroke="black" stroke-width="3" stroke-linecap="round"/>
<path id="Vector 10" d="M251.476 335.23L316.312 343.029" stroke="black" stroke-width="3" stroke-linecap="round"/>
<path id="Vector 11" d="M244.355 347.013L284.909 398.198" stroke="black" stroke-width="3" stroke-linecap="round"/>
<path id="Vector 12" d="M232.056 350.417L223.731 415.188" stroke="black" stroke-width="3" stroke-linecap="round"/>
<path id="Vector 13" d="M220.034 343.933L168.679 384.272" stroke="black" stroke-width="3" stroke-linecap="round"/>
<path id="Vector 14" d="M216.223 330.626L151.355 323.096" stroke="black" stroke-width="3" stroke-linecap="round"/>
<path id="Vector 15" d="M223.295 318.813L182.529 267.796" stroke="black" stroke-width="3" stroke-linecap="round"/>
</g>
</g>
<g id="snowflake2">
<path id="Vector 8_2" d="M523.844 179.935L532.437 115.199" stroke="black" stroke-width="3" stroke-linecap="round"/>
<path id="Vector 9_2" d="M535.839 186.469L587.361 146.343" stroke="black" stroke-width="3" stroke-linecap="round"/>
<path id="Vector 10_2" d="M539.595 199.792L604.431 207.591" stroke="black" stroke-width="3" stroke-linecap="round"/>
<path id="Vector 11_2" d="M532.474 211.576L573.028 262.76" stroke="black" stroke-width="3" stroke-linecap="round"/>
<path id="Vector 12_2" d="M520.175 214.98L511.85 279.75" stroke="black" stroke-width="3" stroke-linecap="round"/>
<path id="Vector 13_2" d="M508.153 208.496L456.798 248.834" stroke="black" stroke-width="3" stroke-linecap="round"/>
<path id="Vector 14_2" d="M504.342 195.189L439.474 187.658" stroke="black" stroke-width="3" stroke-linecap="round"/>
<path id="Vector 15_2" d="M511.414 183.375L470.648 132.359" stroke="black" stroke-width="3" stroke-linecap="round"/>
</g>
<g id="snowflake3">
<path id="Vector 8_3" d="M1018.92 247.44L1039.85 89.7573" stroke="black" stroke-width="6" stroke-linecap="round"/>
<path id="Vector 9_3" d="M1048.14 263.354L1173.63 165.618" stroke="black" stroke-width="6" stroke-linecap="round"/>
<path id="Vector 10_3" d="M1057.29 295.808L1215.21 314.804" stroke="black" stroke-width="6" stroke-linecap="round"/>
<path id="Vector 11_3" d="M1039.94 324.509L1138.72 449.185" stroke="black" stroke-width="6" stroke-linecap="round"/>
<path id="Vector 12_3" d="M1009.98 332.801L989.705 490.569" stroke="black" stroke-width="6" stroke-linecap="round"/>
<path id="Vector 13_3" d="M980.701 317.008L855.61 415.264" stroke="black" stroke-width="6" stroke-linecap="round"/>
<path id="Vector 14_3" d="M971.417 284.594L813.412 266.252" stroke="black" stroke-width="6" stroke-linecap="round"/>
<path id="Vector 15_3" d="M988.644 255.819L889.346 131.554" stroke="black" stroke-width="6" stroke-linecap="round"/>
</g>
<g id="snowflake4">
<path id="Vector 8_4" d="M1227.48 538.145L1236.07 473.409" stroke="black" stroke-width="3" stroke-linecap="round"/>
<path id="Vector 9_4" d="M1239.47 544.678L1290.99 504.553" stroke="black" stroke-width="3" stroke-linecap="round"/>
<path id="Vector 10_4" d="M1243.23 558.002L1308.06 565.801" stroke="black" stroke-width="3" stroke-linecap="round"/>
<path id="Vector 11_4" d="M1236.11 569.785L1276.66 620.97" stroke="black" stroke-width="3" stroke-linecap="round"/>
<path id="Vector 12_4" d="M1223.81 573.189L1215.48 637.96" stroke="black" stroke-width="3" stroke-linecap="round"/>
<path id="Vector 13_4" d="M1211.79 566.705L1160.43 607.044" stroke="black" stroke-width="3" stroke-linecap="round"/>
<path id="Vector 14_4" d="M1207.97 553.398L1143.11 545.868" stroke="black" stroke-width="3" stroke-linecap="round"/>
<path id="Vector 15_4" d="M1215.05 541.585L1174.28 490.568" stroke="black" stroke-width="3" stroke-linecap="round"/>
</g>
<g id="snowflake5">
<path id="Vector 8_5" d="M890.511 743.822L899.104 679.086" stroke="black" stroke-width="3" stroke-linecap="round"/>
<path id="Vector 9_5" d="M902.506 750.355L954.028 710.23" stroke="black" stroke-width="3" stroke-linecap="round"/>
<path id="Vector 10_5" d="M906.262 763.679L971.099 771.478" stroke="black" stroke-width="3" stroke-linecap="round"/>
<path id="Vector 11_5" d="M899.141 775.462L939.695 826.647" stroke="black" stroke-width="3" stroke-linecap="round"/>
<path id="Vector 12_5" d="M886.842 778.866L878.517 843.637" stroke="black" stroke-width="3" stroke-linecap="round"/>
<path id="Vector 13_5" d="M874.82 772.383L823.465 812.721" stroke="black" stroke-width="3" stroke-linecap="round"/>
<path id="Vector 14_5" d="M871.009 759.075L806.141 751.545" stroke="black" stroke-width="3" stroke-linecap="round"/>
<path id="Vector 15_5" d="M878.081 747.262L837.315 696.246" stroke="black" stroke-width="3" stroke-linecap="round"/>
</g>
<g id="snowflake6">
<path id="Vector 8_6" d="M504.75 568.123L525.681 410.44" stroke="black" stroke-width="6" stroke-linecap="round"/>
<path id="Vector 9_6" d="M533.967 584.038L659.463 486.301" stroke="black" stroke-width="6" stroke-linecap="round"/>
<path id="Vector 10_6" d="M543.116 616.491L701.043 635.487" stroke="black" stroke-width="6" stroke-linecap="round"/>
<path id="Vector 11_6" d="M525.77 645.192L624.552 769.868" stroke="black" stroke-width="6" stroke-linecap="round"/>
<path id="Vector 12_6" d="M495.812 653.484L475.535 811.252" stroke="black" stroke-width="6" stroke-linecap="round"/>
<path id="Vector 13_6" d="M466.53 637.691L341.44 735.947" stroke="black" stroke-width="6" stroke-linecap="round"/>
<path id="Vector 14_6" d="M457.247 605.277L299.242 586.935" stroke="black" stroke-width="6" stroke-linecap="round"/>
<path id="Vector 15_6" d="M474.473 576.502L375.175 452.238" stroke="black" stroke-width="6" stroke-linecap="round"/>
</g>
</g>
</g>
</svg>
