<svg width="1441" height="900" viewBox="0 0 1441 900" fill="none" xmlns="http://www.w3.org/2000/svg">
<g id="Preloader-done">
<rect width="1440" height="900" transform="translate(0.773926)" fill="white"/>
<g id="cow-whole">
<g id="cow-body">
<path id="nose" d="M629.493 466.925C623.193 483.825 604.793 465.425 594.593 459.925C584.393 454.425 580.893 462.725 581.093 469.025C581.393 475.325 592.093 472.325 592.093 479.225C592.093 483.925 575.293 490.725 564.793 494.525L543.793 482.525C543.793 482.525 545.389 428.162 571.393 413.225C576.793 412.925 583.493 413.425 592.393 413.925C593.193 420.025 594.593 426.925 597.093 432.025C602.593 443.525 635.793 450.125 629.493 466.925Z" fill="black"/>
</g>
</g>
<g id="scarf">
<rect id="mask1" x="649.514" y="535.169" width="278.753" height="237.556" fill="#C4C4C4"/>
<rect id="mask2" x="788.891" y="528.656" width="169.208" height="314.634" fill="#C4C4C4"/>
</g>
<g id="name">
<rect id="mask-arctic-foods" x="243.257" y="198.999" width="627.752" height="646.712" fill="#C4C4C4"/>
</g>
</g>
</svg>
