<svg width="1441" height="900" viewBox="0 0 1441 900" fill="none" xmlns="http://www.w3.org/2000/svg">
<g id="Preloader-done">
<rect width="1440" height="900" transform="translate(0.773926)" fill="white"/>
<g id="snowflakes">
<g id="snowflake-1complete">
<path id="drawsvg-snowflake" d="M283.104 294.372C398.53 206.173 463.206 174.222 619.151 202.115C775.096 230.007 862.577 344.113 912.023 406.238" stroke="black" stroke-width="3" stroke-linecap="round"/>
<path id="extra-line" d="M247.72 321.906L299.242 281.781" stroke="black" stroke-width="3" stroke-linecap="round"/>
<g id="snowflake1">
<path id="Vector 8" d="M235.725 315.373L244.318 250.637" stroke="black" stroke-width="3" stroke-linecap="round"/>
<path id="Vector 9" d="M247.72 321.906L299.242 281.781" stroke="black" stroke-width="3" stroke-linecap="round"/>
<path id="Vector 10" d="M251.476 335.23L316.312 343.029" stroke="black" stroke-width="3" stroke-linecap="round"/>
<path id="Vector 11" d="M244.355 347.013L284.909 398.198" stroke="black" stroke-width="3" stroke-linecap="round"/>
<path id="Vector 12" d="M232.056 350.417L223.731 415.188" stroke="black" stroke-width="3" stroke-linecap="round"/>
<path id="Vector 13" d="M220.034 343.933L168.679 384.272" stroke="black" stroke-width="3" stroke-linecap="round"/>
<path id="Vector 14" d="M216.223 330.626L151.355 323.096" stroke="black" stroke-width="3" stroke-linecap="round"/>
<path id="Vector 15" d="M223.295 318.813L182.529 267.796" stroke="black" stroke-width="3" stroke-linecap="round"/>
</g>
</g>
<g id="snowflake2">
<path id="Vector 8_2" d="M523.844 179.935L532.437 115.199" stroke="black" stroke-width="3" stroke-linecap="round"/>
<path id="Vector 9_2" d="M535.839 186.469L587.361 146.343" stroke="black" stroke-width="3" stroke-linecap="round"/>
<path id="Vector 10_2" d="M539.595 199.792L604.431 207.591" stroke="black" stroke-width="3" stroke-linecap="round"/>
<path id="Vector 11_2" d="M532.474 211.576L573.028 262.76" stroke="black" stroke-width="3" stroke-linecap="round"/>
<path id="Vector 12_2" d="M520.175 214.98L511.85 279.75" stroke="black" stroke-width="3" stroke-linecap="round"/>
<path id="Vector 13_2" d="M508.153 208.496L456.798 248.834" stroke="black" stroke-width="3" stroke-linecap="round"/>
<path id="Vector 14_2" d="M504.342 195.189L439.474 187.658" stroke="black" stroke-width="3" stroke-linecap="round"/>
<path id="Vector 15_2" d="M511.414 183.375L470.648 132.359" stroke="black" stroke-width="3" stroke-linecap="round"/>
</g>
<g id="snowflake3">
<path id="Vector 8_3" d="M1018.92 247.44L1039.85 89.7573" stroke="black" stroke-width="6" stroke-linecap="round"/>
<path id="Vector 9_3" d="M1048.14 263.354L1173.63 165.618" stroke="black" stroke-width="6" stroke-linecap="round"/>
<path id="Vector 10_3" d="M1057.29 295.808L1215.21 314.804" stroke="black" stroke-width="6" stroke-linecap="round"/>
<path id="Vector 11_3" d="M1039.94 324.509L1138.72 449.185" stroke="black" stroke-width="6" stroke-linecap="round"/>
<path id="Vector 12_3" d="M1009.98 332.801L989.705 490.569" stroke="black" stroke-width="6" stroke-linecap="round"/>
<path id="Vector 13_3" d="M980.701 317.008L855.61 415.264" stroke="black" stroke-width="6" stroke-linecap="round"/>
<path id="Vector 14_3" d="M971.417 284.594L813.412 266.252" stroke="black" stroke-width="6" stroke-linecap="round"/>
<path id="Vector 15_3" d="M988.644 255.819L889.346 131.554" stroke="black" stroke-width="6" stroke-linecap="round"/>
</g>
<g id="snowflake4">
<path id="Vector 8_4" d="M1227.48 538.145L1236.07 473.409" stroke="black" stroke-width="3" stroke-linecap="round"/>
<path id="Vector 9_4" d="M1239.47 544.678L1290.99 504.553" stroke="black" stroke-width="3" stroke-linecap="round"/>
<path id="Vector 10_4" d="M1243.23 558.002L1308.06 565.801" stroke="black" stroke-width="3" stroke-linecap="round"/>
<path id="Vector 11_4" d="M1236.11 569.785L1276.66 620.97" stroke="black" stroke-width="3" stroke-linecap="round"/>
<path id="Vector 12_4" d="M1223.81 573.189L1215.48 637.96" stroke="black" stroke-width="3" stroke-linecap="round"/>
<path id="Vector 13_4" d="M1211.79 566.705L1160.43 607.044" stroke="black" stroke-width="3" stroke-linecap="round"/>
<path id="Vector 14_4" d="M1207.97 553.398L1143.11 545.868" stroke="black" stroke-width="3" stroke-linecap="round"/>
<path id="Vector 15_4" d="M1215.05 541.585L1174.28 490.568" stroke="black" stroke-width="3" stroke-linecap="round"/>
</g>
<g id="snowflake5">
<path id="Vector 8_5" d="M890.511 743.822L899.104 679.086" stroke="black" stroke-width="3" stroke-linecap="round"/>
<path id="Vector 9_5" d="M902.506 750.355L954.028 710.23" stroke="black" stroke-width="3" stroke-linecap="round"/>
<path id="Vector 10_5" d="M906.262 763.679L971.099 771.478" stroke="black" stroke-width="3" stroke-linecap="round"/>
<path id="Vector 11_5" d="M899.141 775.462L939.695 826.647" stroke="black" stroke-width="3" stroke-linecap="round"/>
<path id="Vector 12_5" d="M886.842 778.866L878.517 843.637" stroke="black" stroke-width="3" stroke-linecap="round"/>
<path id="Vector 13_5" d="M874.82 772.383L823.465 812.721" stroke="black" stroke-width="3" stroke-linecap="round"/>
<path id="Vector 14_5" d="M871.009 759.075L806.141 751.545" stroke="black" stroke-width="3" stroke-linecap="round"/>
<path id="Vector 15_5" d="M878.081 747.262L837.315 696.246" stroke="black" stroke-width="3" stroke-linecap="round"/>
</g>
<g id="snowflake6">
<path id="Vector 8_6" d="M504.75 568.123L525.681 410.44" stroke="black" stroke-width="6" stroke-linecap="round"/>
<path id="Vector 9_6" d="M533.967 584.038L659.463 486.301" stroke="black" stroke-width="6" stroke-linecap="round"/>
<path id="Vector 10_6" d="M543.116 616.491L701.043 635.487" stroke="black" stroke-width="6" stroke-linecap="round"/>
<path id="Vector 11_6" d="M525.77 645.192L624.552 769.868" stroke="black" stroke-width="6" stroke-linecap="round"/>
<path id="Vector 12_6" d="M495.812 653.484L475.535 811.252" stroke="black" stroke-width="6" stroke-linecap="round"/>
<path id="Vector 13_6" d="M466.53 637.691L341.44 735.947" stroke="black" stroke-width="6" stroke-linecap="round"/>
<path id="Vector 14_6" d="M457.247 605.277L299.242 586.935" stroke="black" stroke-width="6" stroke-linecap="round"/>
<path id="Vector 15_6" d="M474.473 576.502L375.175 452.238" stroke="black" stroke-width="6" stroke-linecap="round"/>
</g>
</g>
<g id="cow-whole">
<g id="cow-body">
<g id="horn-back">
<path id="hornb-fill" d="M824.511 372.476C824.511 372.476 786.494 345.894 785.167 316.545C785.167 316.545 773.867 365.283 803.014 384.035L824.511 372.476Z" fill="white"/>
<path id="hornb-stroke" d="M824.113 372.864C810.792 364.367 784.484 340.707 785.823 314.04C783.165 330.482 782.839 367.457 802.793 383.814" stroke="black" stroke-width="3" stroke-linecap="round"/>
</g>
<g id="cow-shape">
<path id="cow mouth" d="M593.062 539.955C592.562 539.955 592.162 539.855 591.662 539.855C591.562 539.855 591.562 539.855 591.562 539.855C590.362 539.755 589.162 539.555 587.862 539.355C574.262 537.355 556.262 530.955 547.862 512.055C543.362 501.955 542.062 492.955 543.962 484.255C544.262 482.855 544.662 481.455 545.162 480.055" stroke="black" stroke-width="3" stroke-miterlimit="10"/>
<g id="tongue">
<path id="tongue_2" d="M557.163 486.604C557.163 486.604 479.863 482.404 456.263 494.504C456.263 494.504 427.563 507.604 442.863 518.604C458.163 529.604 479.263 524.204 495.263 518.604C511.263 513.004 577.063 501.904 584.063 500.404L557.163 486.604Z" fill="white" stroke="black" stroke-width="3" stroke-miterlimit="10" stroke-linecap="round" stroke-linejoin="round"/>
<path id="Vector 6" d="M548.049 490.726C530.727 492.903 493.356 498.166 482.452 501.801" stroke="black" stroke-width="3" stroke-linecap="round" stroke-linejoin="round"/>
</g>
<path id="cow fill" d="M1015.63 496.669C1015.63 496.669 953.326 559.069 897.026 486.469C897.026 486.469 887.826 509.269 873.526 534.569C866.326 547.469 857.726 560.969 848.426 572.569C839.826 583.269 830.526 592.369 821.026 597.569C818.426 598.969 815.826 600.069 813.226 600.969C786.826 609.169 714.726 593.769 660.026 574.869C630.026 564.469 605.326 552.969 596.326 543.669C595.726 543.069 595.226 542.469 594.826 541.869C594.726 541.669 594.526 541.569 594.426 541.369C594.326 541.169 594.226 541.069 594.026 540.869C593.926 540.769 593.926 540.669 593.826 540.569C593.726 540.469 593.726 540.369 593.626 540.269C593.526 540.069 593.426 539.969 593.426 539.769C584.926 522.169 577.926 505.769 565.426 494.369C560.626 490.069 555.126 486.469 548.426 483.769C547.126 483.269 545.826 482.769 544.426 482.369C544.426 482.369 553.626 414.169 572.026 413.169C577.426 412.869 584.126 413.369 593.026 413.869C614.526 415.069 649.026 415.969 709.626 405.069C709.726 405.069 709.826 405.069 710.026 404.969C777.326 392.569 822.726 353.269 859.326 361.769C908.526 373.269 943.126 475.269 1015.63 496.669Z" fill="white"/>
<path id="cow-outline" d="M1016.26 498.407C969.499 486.233 921.285 418.128 905.945 398.718C841.587 319.736 817.002 384.607 712.778 405.35C608.554 426.094 582.245 406.362 566.561 416.481C554.014 424.576 546.155 464.714 543.793 483.771C575.668 492.878 586.798 530.318 595.905 544.484C605.012 558.651 673.821 584.96 722.897 595.078C771.973 605.197 802.836 612.28 832.18 592.043C855.656 575.853 885.549 515.864 897.562 487.893C941.609 546.549 995.046 519.342 1016.26 498.407Z" stroke="black" stroke-width="3" stroke-linecap="round"/>
</g>
<path id="cow spot" d="M1016.26 497.669C1016.26 497.669 953.958 560.069 897.658 487.469C897.658 487.469 888.458 510.269 874.158 535.569C866.958 548.469 858.358 562.069 849.058 573.569C848.058 573.369 846.958 573.169 845.958 572.869C845.158 572.669 844.458 572.569 843.758 572.369C843.358 572.269 843.058 572.169 842.658 572.169C841.858 571.969 841.158 571.769 840.358 571.569C840.058 571.469 839.658 571.369 839.358 571.269C838.658 571.069 838.058 570.969 837.358 570.769C836.758 570.669 836.258 570.469 835.658 570.269C835.158 570.169 834.658 569.969 834.158 569.869C833.058 569.569 832.058 569.269 830.958 568.869C829.858 568.569 828.858 568.169 827.758 567.869C826.758 567.569 825.758 567.169 824.858 566.869C823.858 566.569 822.958 566.169 821.958 565.769C821.758 565.669 821.458 565.569 821.158 565.469C820.558 565.269 819.858 564.969 819.258 564.669C818.658 564.469 818.058 564.169 817.458 563.969C816.458 563.569 815.458 563.169 814.558 562.769C813.858 562.469 813.158 562.169 812.458 561.869C811.958 561.669 811.458 561.469 810.958 561.169C810.358 560.869 809.658 560.569 809.058 560.269C808.658 560.069 808.258 559.869 807.858 559.769C807.258 559.469 806.558 559.169 805.958 558.869C805.458 558.669 804.858 558.369 804.358 558.069C803.858 557.769 803.258 557.569 802.758 557.269C802.258 556.969 801.758 556.769 801.258 556.469C800.758 556.269 800.258 555.969 799.758 555.669C799.058 555.369 798.458 554.969 797.858 554.569C797.558 554.369 797.158 554.169 796.858 554.069C796.058 553.569 795.258 553.169 794.458 552.669C794.258 552.569 793.958 552.369 793.758 552.269C793.158 551.869 792.558 551.569 791.958 551.169C791.358 550.869 790.758 550.469 790.258 550.069C789.858 549.869 789.558 549.669 789.258 549.369C788.658 548.969 788.058 548.569 787.558 548.269C786.858 547.869 786.258 547.369 785.658 546.969C785.358 546.769 785.158 546.669 784.858 546.469C784.258 546.069 783.658 545.569 783.058 545.169C782.558 544.869 782.058 544.469 781.658 544.169C781.358 543.969 781.158 543.769 780.858 543.569C780.058 542.969 779.358 542.469 778.558 541.869C777.658 541.169 776.658 540.469 775.758 539.669C775.158 539.169 774.558 538.669 773.958 538.169C773.358 537.669 772.758 537.169 772.158 536.669C770.958 535.669 769.758 534.669 768.558 533.569C768.058 533.069 767.558 532.669 767.058 532.169C766.858 532.069 766.758 531.869 766.558 531.669C766.058 531.269 765.658 530.769 765.158 530.369C764.258 529.469 763.358 528.669 762.358 527.769C761.658 527.069 760.958 526.369 760.258 525.669L760.058 525.469C759.258 524.669 758.558 523.869 757.758 523.169C756.958 522.269 756.158 521.369 755.258 520.469C754.358 519.469 753.458 518.469 752.558 517.469C751.958 516.769 751.358 516.169 750.858 515.469C750.358 514.869 749.858 514.269 749.358 513.669C748.958 513.169 748.558 512.769 748.258 512.269C747.458 511.269 746.758 510.369 745.958 509.369C745.558 508.769 745.058 508.169 744.658 507.669C743.658 506.369 742.758 505.169 741.858 503.869C741.558 503.469 741.258 503.069 741.058 502.669C740.958 502.469 740.858 502.369 740.758 502.169C740.458 501.669 740.058 501.169 739.758 500.669C739.158 499.769 738.558 498.869 737.958 497.969C737.658 497.569 737.458 497.169 737.158 496.769C737.058 496.569 736.858 496.369 736.758 496.069C736.558 495.769 736.358 495.369 736.058 494.969C735.258 493.569 734.358 492.269 733.558 490.869C733.158 490.069 732.658 489.369 732.258 488.569C732.058 488.269 731.958 487.969 731.758 487.669C731.358 486.969 731.058 486.369 730.658 485.669C730.458 485.369 730.358 485.069 730.158 484.669C729.658 483.669 729.158 482.669 728.658 481.669C728.358 481.169 728.158 480.569 727.858 480.069C727.658 479.569 727.358 479.069 727.158 478.569C725.258 474.669 723.558 470.669 722.058 466.669C721.858 466.069 721.658 465.569 721.358 464.969C721.158 464.369 720.858 463.769 720.658 463.169C720.258 462.069 719.858 460.969 719.458 459.769C718.258 456.269 717.158 452.669 716.258 449.069C715.758 447.369 715.358 445.569 714.958 443.869C714.958 443.769 714.958 443.669 714.858 443.569C714.758 442.969 714.558 442.369 714.458 441.869C714.358 441.269 714.158 440.669 714.058 440.069C713.758 438.869 713.558 437.569 713.358 436.369C713.258 435.769 713.158 435.169 713.058 434.569C712.558 432.069 712.258 429.469 711.858 426.869C711.758 426.369 711.758 425.769 711.658 425.269C711.658 425.169 711.658 425.069 711.658 424.869C711.558 423.869 711.458 422.869 711.358 421.769C711.358 421.469 711.258 421.269 711.258 420.969C711.158 420.169 711.058 419.269 711.058 418.469C711.058 417.969 710.958 417.569 710.958 417.069C710.858 415.869 710.758 414.769 710.758 413.569C710.658 412.169 710.658 410.769 710.558 409.269C710.558 408.769 710.558 408.269 710.558 407.869C710.558 407.169 710.558 406.469 710.558 405.869C710.658 405.869 710.758 405.869 710.958 405.769C777.958 393.569 823.358 354.269 859.958 362.769C909.158 374.269 943.758 476.269 1016.26 497.669Z" fill="black"/>
<path id="nose" d="M629.493 466.925C623.193 483.825 604.793 465.425 594.593 459.925C584.393 454.425 580.893 462.725 581.093 469.025C581.393 475.325 592.093 472.325 592.093 479.225C592.093 483.925 575.293 490.725 564.793 494.525L543.793 482.525C543.793 482.525 552.993 414.325 571.393 413.225C576.793 412.925 583.493 413.425 592.393 413.925C593.193 420.025 594.593 426.925 597.093 432.025C602.593 443.525 635.793 450.125 629.493 466.925Z" fill="black"/>
<g id="horn-front">
<path id="hornf-fill" d="M869.12 380.558C869.12 380.558 913.62 367.458 924.22 340.058C924.22 340.058 919.42 389.858 885.82 398.358L869.12 380.558Z" fill="white"/>
<path id="hornf-stroke" d="M869.374 381.052C884.706 377.237 917.177 363.181 924.396 337.475C921.681 353.908 910.222 389.063 886.1 398.219" stroke="black" stroke-width="3" stroke-linecap="round"/>
</g>
</g>
<g id="eyes">
<path id="shiveringeye" d="M850.382 411.616L797.635 422.815L844.625 450.954" stroke="#FAFAFA" stroke-width="7" stroke-linecap="round"/>
<path id="closedeye" d="M785.144 434.31C794.72 416.632 826.638 397.481 855.61 422.279" stroke="white" stroke-width="7" stroke-linecap="round"/>
<g id="openeye">
<path id="Vector" d="M786.847 422.93C788.547 414.53 793.447 406.83 800.547 401.73C807.547 396.53 816.747 394.13 825.847 395.43C830.347 396.03 834.747 397.63 838.747 400.03C842.747 402.43 846.247 405.63 849.047 409.53C851.847 413.33 853.747 417.83 854.847 422.53C855.847 427.23 855.847 432.13 854.947 436.83C853.947 441.53 852.047 446.03 849.347 449.93C846.647 453.83 843.047 457.23 839.047 459.63C835.047 462.13 830.447 463.63 825.847 464.33C821.247 465.03 816.547 464.63 812.147 463.53C803.347 461.23 795.747 455.33 791.347 447.93C786.647 440.33 785.047 431.33 786.847 422.93ZM786.847 422.93C786.047 427.13 786.047 431.53 786.947 435.63C787.847 439.83 789.647 443.73 792.147 447.13C794.647 450.53 797.847 453.33 801.347 455.53C804.947 457.63 808.847 458.93 812.847 459.53C820.847 460.63 828.947 458.43 835.147 453.83C841.347 449.33 845.647 442.53 847.147 435.13C848.647 427.73 847.347 419.83 843.347 413.23C839.447 406.63 832.847 401.43 825.047 399.33C821.147 398.33 817.047 397.93 812.947 398.53C808.847 399.13 804.847 400.43 801.247 402.63C797.647 404.83 794.447 407.73 792.047 411.23C789.347 414.73 787.647 418.73 786.847 422.93Z" fill="white"/>
<ellipse id="Ellipse 3" cx="806.643" cy="418.552" rx="4.87251" ry="8.88266" transform="rotate(18.5824 806.643 418.552)" fill="white"/>
</g>
</g>
<g id="snowflake-final">
<path id="Vector 8_7" d="M474.497 416.152L478.924 382.803" stroke="black" stroke-width="3" stroke-linecap="round"/>
<path id="Vector 9_7" d="M480.676 419.518L507.218 398.847" stroke="black" stroke-width="3" stroke-linecap="round"/>
<path id="Vector 10_7" d="M482.612 426.381L516.012 430.399" stroke="black" stroke-width="3" stroke-linecap="round"/>
<path id="Vector 11_7" d="M478.943 432.451L499.835 458.82" stroke="black" stroke-width="3" stroke-linecap="round"/>
<path id="Vector 12_7" d="M472.607 434.205L468.318 467.572" stroke="black" stroke-width="3" stroke-linecap="round"/>
<path id="Vector 13_7" d="M466.414 430.865L439.958 451.646" stroke="black" stroke-width="3" stroke-linecap="round"/>
<path id="Vector 14_7" d="M464.451 424.01L431.033 420.13" stroke="black" stroke-width="3" stroke-linecap="round"/>
<path id="Vector 15_7" d="M468.094 417.924L447.093 391.643" stroke="black" stroke-width="3" stroke-linecap="round"/>
</g>
</g>
<g id="scarf">
<path id="neck" d="M849.467 688.769C759.467 751.469 672.467 692.069 662.367 664.569C654.167 642.069 659.367 592.669 661.567 575.369C716.267 594.369 788.367 609.669 814.767 601.469C816.067 601.069 817.267 600.669 818.567 600.069V600.169C827.567 617.769 840.167 647.069 849.067 686.769C849.267 687.469 849.367 688.069 849.467 688.769Z" fill="black"/>
<path id="tassels" d="M927.997 776.669C928.087 776.57 928.177 776.47 928.267 776.369C928.267 776.369 927.467 767.069 925.567 752.069C919.667 698.469 902.867 571.669 874.967 535.169C867.767 548.069 859.167 561.569 849.867 573.169C841.267 583.869 831.967 592.869 822.467 598.069C831.867 616.269 844.467 645.869 853.367 685.769C858.967 710.469 863.067 739.069 864.067 771.469C864.117 773.192 864.158 774.925 864.191 776.669H864.167V799.535C864.139 800.942 864.105 802.353 864.067 803.769C864.067 803.769 864.101 803.773 864.167 803.778V828.369C864.167 828.369 868.267 828.769 874.667 828.169V803.56C876.843 803.36 879.308 803.062 881.967 802.569V827.169C885.267 826.569 888.767 825.669 892.467 824.469V799.869C894.867 799.069 897.367 798.169 899.867 797.069L899.867 821.669C903.367 820.169 906.867 818.369 910.367 816.169V791.569C912.867 790.069 915.267 788.369 917.767 786.37V810.869C921.367 807.969 924.867 804.669 928.267 800.869V776.669H927.997Z" fill="black"/>
</g>
<g id="shiver-right">
<path id="shiver3r" d="M914.603 308.409L960.977 299.278L946.798 343.946L994.228 335.979L978.729 379.19L1028.27 373.554L1015.15 419.387L1063.63 412.585L1049.98 457.836" stroke="#297CAA" stroke-width="6" stroke-linecap="round"/>
<path id="shiver2r" d="M983.639 309.446L1030.01 300.314L1015.83 344.982L1063.26 337.015L1047.76 380.226L1097.31 374.59L1084.18 420.423L1132.67 413.621L1119.02 458.872" stroke="#297CAA" stroke-width="6" stroke-linecap="round"/>
<path id="shiver1r" d="M978.72 242.807L1025.09 233.675L1010.92 278.343L1058.35 270.376L1042.85 313.588L1092.39 307.951L1079.26 353.784L1127.75 346.983L1114.1 392.233" stroke="#297CAA" stroke-width="6" stroke-linecap="round"/>
</g>
<g id="shiver-left">
<path id="shiver3l" d="M822.467 256.9L777.49 242.372L786.312 288.399L740.15 274.904L750.454 319.639L701.921 308.21L709.558 355.269L662.211 342.807L670.44 389.35" stroke="#297CAA" stroke-width="6" stroke-linecap="round"/>
<path id="shiver2l" d="M753.789 249.802L708.812 235.274L717.635 281.301L671.472 267.806L681.777 312.542L633.244 301.112L640.881 348.172L593.533 335.709L601.763 382.252" stroke="#297CAA" stroke-width="6" stroke-linecap="round"/>
<path id="shiver1l" d="M766.518 184.205L721.541 169.678L730.364 215.704L684.202 202.209L694.506 246.945L645.973 235.516L653.61 282.575L606.262 270.113L614.492 316.656" stroke="#297CAA" stroke-width="6" stroke-linecap="round"/>
</g>
<g id="name">
<g id="arctic foods">
<path id="a" d="M362.483 560.688C366.078 555.725 372.549 551.472 382.975 551.472C394.48 551.472 403.827 556.434 403.827 569.55V589.755C403.827 595.426 404.187 598.971 404.546 601.807H396.637C395.918 598.616 395.918 595.426 395.918 592.59H395.558C393.042 596.844 386.211 603.224 376.504 603.224C369.313 603.224 360.685 599.68 360.685 589.755C360.685 572.031 384.773 571.322 395.558 571.322V569.904C395.558 562.106 390.885 558.561 382.616 558.561C375.785 558.561 372.19 561.042 367.875 565.651L362.483 560.688ZM395.558 576.639C383.335 576.994 369.673 579.12 369.673 588.691C369.673 592.945 372.549 595.781 377.942 595.781C385.132 595.781 395.558 591.172 395.558 576.639Z" fill="black"/>
<path id="r" d="M415.689 592.945V561.397V552.89H423.958V569.55H424.318C428.632 556.789 436.182 551.826 443.372 551.826C444.091 551.826 444.81 551.826 445.529 552.181V559.979C444.81 559.979 444.091 559.979 443.372 559.979C432.946 559.979 425.396 574.158 424.318 582.665V593.299V601.806H415.689V592.945Z" fill="black"/>
<path id="c" d="M491.912 589.754C490.833 592.236 484.362 602.515 470.7 602.515C458.476 602.515 446.612 594.363 446.612 577.348C446.612 562.46 455.96 551.117 470.7 551.117C485.8 551.117 490.474 562.46 491.193 563.524L483.643 567.068C482.205 563.878 477.891 558.207 470.341 558.207C462.072 558.207 455.241 564.942 455.241 576.639C455.241 588.337 461.712 595.426 470.341 595.426C478.61 595.426 483.283 589.045 484.721 586.564L491.912 589.754Z" fill="black"/>
<path id="t" d="M525.346 559.27H511.684V589.4C511.684 593.654 512.763 595.781 517.437 595.781C520.672 595.781 523.908 594.717 525.706 594.008V601.098C523.548 601.807 520.672 602.87 515.998 602.87C508.808 602.87 503.056 600.743 503.056 590.109V559.27H493.708V552.535H503.056L504.134 538.711H511.325V552.535H524.986V559.27H525.346Z" fill="black"/>
<path id="i" d="M533.974 601.098V592.59V561.043V552.535H542.603V561.043V592.59V601.098H533.974ZM533.974 542.256V531.267H542.603V542.256H533.974Z" fill="black"/>
<path id="c_2" d="M597.245 589.754C596.167 592.236 589.695 602.515 576.033 602.515C563.81 602.515 551.946 594.363 551.946 577.348C551.946 562.46 561.293 551.117 576.033 551.117C591.133 551.117 595.807 562.46 596.526 563.524L588.976 567.068C587.538 563.878 583.224 558.207 575.674 558.207C567.405 558.207 560.574 564.942 560.574 576.639C560.574 588.337 567.045 595.426 575.674 595.426C583.943 595.426 588.617 589.045 590.055 586.564L597.245 589.754Z" fill="black"/>
<path id="f" d="M617.384 552.535H627.091V546.155C627.091 533.394 633.922 530.558 641.832 530.558C644.708 530.558 646.505 530.913 647.584 531.267V538.357C646.146 538.002 644.348 537.648 642.191 537.648C636.798 537.648 635.36 540.129 635.36 545.8V552.181H647.584V558.916H635.36V592.236V600.743H626.732V592.236V558.916H617.025V552.535H617.384Z" fill="black"/>
<path id="o" d="M649.734 576.994C649.734 563.524 659.441 551.117 674.901 551.117C690.36 551.117 700.067 563.169 700.067 576.994C700.067 590.463 690.36 602.515 674.901 602.515C659.441 602.515 649.734 590.463 649.734 576.994ZM691.079 576.994C691.079 565.296 683.529 558.207 674.901 558.207C665.913 558.207 658.722 565.296 658.722 576.994C658.722 588.691 665.913 595.78 674.901 595.78C683.529 595.78 691.079 588.691 691.079 576.994Z" fill="black"/>
<path id="o2" d="M705.829 576.994C705.829 563.524 715.536 551.117 730.995 551.117C746.454 551.117 756.162 563.169 756.162 576.994C756.162 590.463 746.454 602.515 730.995 602.515C715.536 602.515 705.829 590.463 705.829 576.994ZM747.174 576.994C747.174 565.296 739.624 558.207 730.995 558.207C722.007 558.207 714.817 565.296 714.817 576.994C714.817 588.691 722.007 595.78 730.995 595.78C739.983 595.78 747.174 588.691 747.174 576.994Z" fill="black"/>
<path id="d" d="M762.266 576.994C762.266 561.397 771.973 551.472 784.915 551.472C794.263 551.472 798.577 556.789 801.094 561.397H801.453V540.483V531.976H810.082V540.483V593.299V601.807H801.813V592.59H801.453C798.577 597.908 793.903 602.87 784.915 602.87C771.973 602.516 762.266 592.591 762.266 576.994ZM771.254 576.639C771.254 587.628 776.287 595.426 785.994 595.426C794.263 595.426 801.813 589.755 801.813 576.994V576.639C801.813 564.587 794.982 558.207 785.994 558.207C776.646 558.207 771.254 565.296 771.254 576.639Z" fill="black"/>
<path id="s" d="M823.031 588.336C826.266 590.818 831.3 595.78 841.007 595.78C847.118 595.78 853.949 593.299 853.949 587.628C853.949 581.247 846.04 580.893 839.569 579.829C830.94 578.766 819.435 576.993 819.435 566.005C819.435 557.852 825.907 550.763 838.849 550.763C849.635 550.763 857.545 556.08 860.421 559.27L855.387 564.587C852.871 562.106 847.478 557.498 839.569 557.498C833.816 557.498 827.704 559.979 827.704 565.296C827.704 570.613 834.176 571.322 841.007 572.385C849.276 573.449 861.859 575.221 861.859 586.919C861.859 595.426 855.028 602.87 841.007 602.87C828.423 602.87 820.873 597.198 817.638 593.654L823.031 588.336Z" fill="black"/>
</g>
<rect id="mask" x="243.257" y="198.999" width="627.752" height="646.712" fill="#C4C4C4"/>
</g>
</g>
</svg>
