<svg width="1440" height="1024" viewBox="0 0 1440 1024" fill="none" xmlns="http://www.w3.org/2000/svg">
<g id="preloader">
<rect width="1440" height="1024" fill="white"/>
<g id="baby pumpkin">
<g id="Vector">
<mask id="path-1-inside-1_23:180" fill="white">
<path d="M748.495 453.27C744.697 456.541 745.078 458.325 745.903 459.803C746.727 461.281 743.21 461.693 743.055 459.181C742.901 456.67 744.865 453.154 746.931 452.501C748.988 451.807 748.495 453.27 748.495 453.27Z"/>
</mask>
<path d="M748.495 453.27C744.697 456.541 745.078 458.325 745.903 459.803C746.727 461.281 743.21 461.693 743.055 459.181C742.901 456.67 744.865 453.154 746.931 452.501C748.988 451.807 748.495 453.27 748.495 453.27Z" fill="#45825B" stroke="#3D5545" stroke-width="0.580782" mask="url(#path-1-inside-1_23:180)"/>
</g>
<g id="Vector_2">
<mask id="path-2-inside-2_23:180" fill="white">
<path d="M739.937 468.414C740.63 471.658 743.578 472.556 746.783 471.871C750.029 471.178 752.313 469.163 751.62 465.918C750.927 462.674 747.485 459.465 744.28 460.149C741.075 460.833 739.252 465.209 739.937 468.414Z"/>
</mask>
<path d="M739.937 468.414C740.63 471.658 743.578 472.556 746.783 471.871C750.029 471.178 752.313 469.163 751.62 465.918C750.927 462.674 747.485 459.465 744.28 460.149C741.075 460.833 739.252 465.209 739.937 468.414Z" fill="#8DC69E" stroke="#45825B" stroke-width="0.580782" mask="url(#path-2-inside-2_23:180)"/>
</g>
</g>
<circle id="Ellipse 7" cx="746.5" cy="453.918" r="1.4" fill="#45825B" stroke="#3D5545" stroke-width="0.2"/>
<g id="whole-plant">
<g id="baby plant split">
<path id="right plant" fill-rule="evenodd" clip-rule="evenodd" d="M658.863 580.55C649.498 582.168 638.008 585.879 638.557 594.663C639.516 607.812 623.353 608.36 623.353 608.36C623.353 608.36 629.38 586.17 645.543 579.321C651.562 576.72 657.2 575.999 661.617 576.14C667.001 575.563 675.364 576.094 683.776 582.257C692.342 588.534 694.435 594.861 695.963 599.482C696.953 602.474 697.706 604.751 699.827 605.835C699.827 605.835 682.669 600.595 676.166 594.115C675.481 593.432 674.785 592.727 674.081 592.013C669.215 587.079 663.93 581.719 658.863 580.55Z" fill="#45825B"/>
<path id="left plant" fill-rule="evenodd" clip-rule="evenodd" d="M585.732 583.986C592.936 578.994 599.863 581.906 599.863 581.906C599.863 581.906 599.966 581.973 600.119 582.081C604.292 583.033 611.389 585.21 616.006 586.942C623.677 589.818 631.21 597.626 630.114 603.927C628.882 610.091 621.896 607.351 621.896 607.351C621.896 607.351 622.718 592.147 610.801 588.037C602.938 585.247 600.189 584.075 598.883 583.361C596.104 583.517 593.031 586.501 590.256 589.196C589.945 589.498 589.637 589.797 589.334 590.087C586.009 593.276 577.42 595.634 577.42 595.634C578.509 595.089 578.913 593.944 579.44 592.452C580.253 590.148 581.359 587.016 585.732 583.986Z" fill="#45825B"/>
</g>
<g id="baby pumpkin plant">
<path id="right plant_2" fill-rule="evenodd" clip-rule="evenodd" d="M636.75 545.438C636.732 545.465 636.714 545.493 636.696 545.52C635.569 547.164 633.034 552.097 635.006 557.577C636.558 561.893 635.84 564.764 634.915 568.465C634.665 569.465 634.4 570.524 634.16 571.689C633.098 576.855 633.788 597.115 633.871 599.425C634.983 600.283 635.709 601.692 635.709 603.285C635.709 605.9 633.752 608.021 631.337 608.021C628.923 608.021 626.966 605.9 626.966 603.285C626.966 602.542 627.124 601.839 627.405 601.213C627.177 600.764 626.94 600.286 626.695 599.777C621.61 589.2 624.876 580.535 628.032 572.161C629.946 567.085 631.819 562.115 631.766 556.892C631.766 556.497 631.72 555.893 631.664 555.153L631.664 555.153L631.664 555.153C631.409 551.785 630.941 545.599 633.597 543.465C634.129 543.055 634.599 542.784 635.007 542.626C635.215 542.511 635.455 542.446 635.709 542.446C635.733 542.446 635.757 542.447 635.781 542.448C635.84 542.445 635.897 542.445 635.953 542.449C636.984 541.694 648.351 533.774 664.096 539.281C674.078 542.802 677.824 548.169 680.566 552.098C682.325 554.617 683.671 556.546 685.983 557.018C685.983 557.018 668.225 556.884 660.104 552.584C659.19 552.1 658.261 551.596 657.322 551.087C650.06 547.147 642.235 542.902 636.75 545.438Z" fill="#45825B"/>
<path id="left plant_2" fill-rule="evenodd" clip-rule="evenodd" d="M621.63 540.561C629.517 537.504 635.265 542.228 635.265 542.228C635.265 542.228 635.347 542.321 635.466 542.466C635.545 542.453 635.626 542.446 635.709 542.446C635.733 542.446 635.757 542.447 635.78 542.448C636.544 542.413 636.98 542.893 637.118 543.531C637.149 543.65 637.166 543.775 637.166 543.903C637.166 543.917 637.166 543.931 637.165 543.945C637.177 544.474 637.016 545.052 636.695 545.52C635.569 547.164 633.033 552.097 635.005 557.577C636.558 561.893 635.84 564.764 634.915 568.465C634.665 569.465 634.4 570.524 634.16 571.689C633.098 576.855 633.788 597.115 633.871 599.425C634.983 600.284 635.709 601.692 635.709 603.285C635.709 605.901 633.752 608.021 631.337 608.021C628.923 608.021 626.965 605.901 626.965 603.285C626.965 602.542 627.123 601.839 627.405 601.213C627.176 600.764 626.94 600.286 626.695 599.777C621.609 589.2 624.876 580.535 628.032 572.162C629.946 567.085 631.819 562.115 631.766 556.892C631.766 556.497 631.72 555.893 631.664 555.153C631.409 551.786 630.941 545.599 633.597 543.465C633.656 543.42 633.714 543.376 633.771 543.334C631.158 542.917 627.687 544.937 624.565 546.754L624.565 546.754C624.205 546.963 623.85 547.17 623.502 547.37C619.625 549.593 610.936 549.732 610.936 549.732C612.087 549.46 612.747 548.464 613.604 547.169C614.938 545.156 616.749 542.421 621.63 540.561Z" fill="#45825B"/>
</g>
<g id="p-plant3">
<path id="stem3" d="M622.958 598.913C617.372 582.519 598.477 546.089 567.584 531.517" stroke="#45825B" stroke-width="15" stroke-linecap="round"/>
<g id="leaf-head3">
<ellipse id="morph-leaf3" cx="567.584" cy="531.516" rx="5.46457" ry="5.82888" fill="#45825B"/>
<path id="leaf3" d="M571.688 555.859C576.864 546.149 567.778 535.247 562.588 531.009C566.589 532.403 576.157 533.156 582.429 525.024C590.268 514.859 589.821 510.778 582.171 502.693C574.521 494.608 561.836 495.61 556.531 495.817C551.225 496.025 541.196 490.476 537.831 495.845C534.465 501.214 526.826 500.609 515.256 505.924C503.686 511.239 514.888 516.636 513.77 520.92C512.652 525.203 521.722 535.651 518.667 542.811C515.613 549.97 517.34 546.086 532.649 557.4C547.959 568.714 565.217 567.997 571.688 555.859Z" fill="#2F573E"/>
<g id="leaf-lines3">
<path id="main-line3" d="M586.494 529.556C576.878 521.076 566.026 519.092 552.866 517.842C542.338 516.843 526.148 506.911 519.369 502.07" stroke="#54A06F" stroke-width="1.93794" stroke-linecap="round" stroke-linejoin="round"/>
<path id="outward-lines3" d="M538.852 522.868C537.372 519.425 535.447 511.178 539.584 505.741M545.309 524.183C540.488 527.114 530.237 535.044 527.804 543.317M556.274 526.507C552.906 522.406 547.773 511.098 554.192 498.681M562.861 530.67C558.559 532.287 548.819 538.788 544.267 551.855M528.568 519.66C526.801 520.976 522.827 524.874 521.062 529.941M520.924 515.315C520.342 514.302 519.493 511.265 520.753 507.219" stroke="#54A06F" stroke-width="1.93794" stroke-linecap="round"/>
</g>
</g>
</g>
<g id="p-plant1">
<path id="stem1" d="M622.958 599.642C624.051 562.483 645.982 481.462 724.963 454.649C823.69 421.133 825.876 493.265 910.03 496.908" stroke="#45825B" stroke-width="15" stroke-linecap="round"/>
<g id="leaf-head1">
<circle id="leaf-morph1" cx="910.03" cy="496.908" r="5.46457" fill="#45825B"/>
<path id="leaf1" d="M890.39 451.021C882.303 472.244 903.73 492.219 915.455 499.553C906.903 497.735 887.114 498.668 876.375 516.944C862.952 539.789 864.924 548.03 882.682 562.606C900.441 577.182 926.156 571.848 936.967 570.05C947.778 568.251 969.75 577.02 975.252 565.154C980.755 553.288 996.555 552.55 1018.87 538.672C1041.19 524.795 1016.85 516.641 1018.03 507.581C1019.21 498.521 997.938 479.472 1002.34 464.02C1006.74 448.569 1004.21 456.969 969.933 437.763C935.654 418.557 900.5 424.492 890.39 451.021Z" fill="#2F573E"/>
<g id="leaf-lines1">
<path id="main-line1" d="M910.635 498.014C926.58 508.852 943.146 509.767 963.017 509.15C978.913 508.656 1004.94 520.422 1015.97 526.367" stroke="#54A06F" stroke-width="4" stroke-linecap="round" stroke-linejoin="round"/>
<path id="outward-lines1" d="M966.17 510.085C970.091 516.753 976.166 533.142 969.102 545.346M952.607 509.063C961.721 501.814 980.66 482.923 983.502 465.351M929.551 507.141C937.511 514.669 950.946 536.495 941.016 563.584M914.986 500.32C923.376 495.897 941.64 480.065 947.579 452.128M988.059 513.993C991.336 510.842 998.466 501.83 1000.77 490.997M1004.84 520.913C1006.29 522.836 1008.81 528.835 1007.28 537.447" stroke="#54A06F" stroke-width="4" stroke-linecap="round"/>
</g>
</g>
</g>
<g id="p-plant2">
<path id="stem2" d="M623.322 601.828C622.837 540.382 586.528 426.233 445.177 461.206" stroke="#45825B" stroke-width="15" stroke-linecap="round"/>
<g id="leaf-head2">
<circle id="morph-leaf2" cx="445.177" cy="461.206" r="5.46457" fill="#45825B"/>
<path id="leaf2" d="M458.721 426.326C465.957 441.776 451.014 457.929 442.638 464.074C448.944 462.238 463.82 461.838 472.879 474.933C484.202 491.302 483.182 497.584 470.688 509.489C458.195 521.395 438.634 518.826 430.436 518.079C422.237 517.332 406.264 525.12 401.483 516.536C396.703 507.953 384.826 508.277 367.337 499.119C349.848 489.962 367.627 482.503 366.24 475.782C364.852 469.06 379.733 453.609 375.578 442.278C371.422 430.947 373.785 437.1 398.398 420.81C423.011 404.519 449.675 407.014 458.721 426.326Z" fill="#2F573E"/>
<g id="leaf-lines2">
<path id="main-line2" d="M446.164 462.653C434.82 471.658 422.462 473.263 407.541 473.903C395.605 474.416 376.76 484.675 368.83 489.74" stroke="#54A06F" stroke-width="3.00471" stroke-linecap="round" stroke-linejoin="round"/>
<path id="outward-lines2" d="M405.231 474.779C402.664 479.993 399.023 492.607 404.992 501.357M415.335 473.261C408.105 468.337 392.869 455.236 389.765 442.231M432.5 470.542C426.955 476.622 418.102 493.719 427.044 513.461M443.032 464.624C436.502 461.775 421.941 450.929 415.941 430.33M389.051 478.922C386.421 476.743 380.579 470.388 378.253 462.401M376.866 485.037C375.883 486.558 374.326 491.192 375.953 497.559" stroke="#54A06F" stroke-width="3.00471" stroke-linecap="round"/>
</g>
</g>
</g>
<g id="p-plant4">
<path id="stem4" d="M541.354 460.477C529.453 453.191 506.599 431.114 510.388 401.096" stroke="#45825B" stroke-width="10" stroke-linecap="round"/>
<g id="leaf-head4">
<circle id="moprh-leaf4" cx="510.388" cy="401.096" r="3.64305" fill="#45825B"/>
<path id="leaf4" d="M519.285 412.969C512.332 411.838 510.305 402.982 510.16 398.695C509.318 401.273 505.99 406.438 499.416 406.477C491.198 406.526 489.294 404.715 488.144 397.683C486.994 390.651 492.425 384.58 494.589 381.959C496.753 379.338 497.817 372.078 501.857 372.447C505.897 372.816 508.552 368.691 515.747 364.861C522.941 361.03 521.344 368.829 523.959 369.921C526.574 371.013 528.376 379.685 533.207 380.907C538.038 382.129 535.39 381.501 535.213 393.686C535.036 405.872 527.976 414.382 519.285 412.969Z" fill="#2F573E"/>
<g id="leaf-lines4">
<path id="main-line4" d="M509.824 400.228C509.395 394.264 511.726 389.676 514.982 384.44C517.587 380.251 518.477 371.437 518.597 367.554" stroke="#54A06F" stroke-width="1.24059" stroke-linecap="round" stroke-linejoin="round"/>
<path id="outward-lines4" d="M515.221 383.448C514.041 381.358 510.589 377.179 506.215 377.177M513.386 387.246C516.748 385.928 524.763 383.784 529.92 385.754M510.316 393.731C509.534 390.425 505.767 383.425 496.953 381.877M509.881 398.701C512.373 397.137 519.462 394.699 527.882 397.45M517.576 376.966C518.932 376.577 522.459 376.065 525.724 377.132M518.329 371.388C518.039 370.699 516.822 369.089 514.272 368.16" stroke="#54A06F" stroke-width="1.24059" stroke-linecap="round"/>
</g>
</g>
</g>
<g id="dirt">
<path id="dirt outline" d="M829.698 600.944L829.424 602.313C827.095 601.902 824.903 601.491 822.712 601.081C818.876 600.396 815.178 599.711 811.891 599.163C796.823 596.697 786.276 595.602 775.318 596.697C774.77 596.697 774.359 596.834 773.811 596.834C768.606 597.656 762.031 599.711 754.498 602.039C735.184 608.203 708.611 616.422 684.503 608.477C652.862 597.93 614.097 595.054 590.126 601.492C579.716 604.231 543.418 612.861 515.748 605.738C495.75 600.67 478.08 598.478 456.575 604.231C454.109 604.916 451.37 605.464 448.356 606.149C440.823 607.792 431.645 609.299 423.016 610.669C421.098 610.943 419.18 611.217 417.4 611.491L417.126 610.121C418.906 609.847 420.687 609.573 422.468 609.299C430.823 608.066 439.59 606.56 446.987 605.053C450.411 604.368 453.561 603.683 456.164 602.998C477.943 597.245 495.75 599.437 516.022 604.505C534.514 609.162 562.046 607.518 589.716 600.259C614.234 593.684 652.451 596.56 684.914 607.244C708.474 615.052 734.773 606.834 753.95 600.807C761.894 598.341 768.88 596.149 774.222 595.465C774.496 595.465 774.77 595.328 775.044 595.328C786.276 594.232 797.097 595.328 812.576 597.93C815.863 598.478 819.424 599.163 823.26 599.848C825.314 600.122 827.506 600.533 829.698 600.944Z" fill="#63432E"/>
<path id="large dirt" d="M822.961 600.988C813.509 621.444 773.371 637.096 751.453 645.882C725.836 656.179 738.987 692.974 688.301 702.447C637.616 712.057 612.684 669.359 550.765 678.558C488.846 687.756 496.791 656.179 459.668 643.686C439.119 636.821 428.023 623.778 422.955 610.461C431.722 609.088 440.763 607.578 448.297 605.93C451.311 605.244 454.051 604.695 456.517 604.008C477.887 598.242 495.696 600.438 515.696 605.518C543.368 612.52 579.67 604.008 590.081 601.262C614.054 594.809 652.821 597.83 684.466 608.264C708.439 616.227 735.015 607.852 754.467 601.811C762.001 599.477 768.577 597.418 773.782 596.594C774.33 596.457 774.878 596.457 775.289 596.457C786.248 595.359 796.933 596.457 811.865 598.928C815.427 599.752 818.989 600.301 822.961 600.988Z" fill="#C47B57"/>
</g>
</g>
<g id="grown up pumpkin">
<path id="Vector_3" d="M756.986 476.156C754.378 476.486 752.673 477.527 752.149 477.837C751.626 478.148 749.57 479.028 748.004 481.614C745.368 476.552 741.807 467.041 743.886 454.65C743.872 454.771 743.886 454.649 747.77 453.845C746.271 467.095 749.934 473.984 756.986 476.156Z" fill="#44150E"/>
<path id="Vector_4" d="M817.588 524.427C812.757 533.397 806.194 538.566 800.352 541.607C804.998 538.865 809.962 534.319 813.479 526.738C820.713 510.864 818.663 498.148 809.453 483.677C800.311 469.152 785.414 465.333 776.019 467.255C774.514 467.582 773.049 468.097 771.76 468.693C774.123 467.234 776.648 465.976 779.604 465.255C790.181 462.604 806.502 465.719 815.778 480.136C825.122 494.499 826.716 507.472 817.588 524.427Z" fill="#B9542F" stroke="#7D2B1B" stroke-width="0.551355" stroke-miterlimit="10"/>
<path id="Vector_5" d="M813.425 526.671C809.908 534.252 804.944 538.798 800.298 541.54C799.452 542 798.606 542.459 797.827 542.865C797.961 542.757 798.095 542.649 798.296 542.487C801.223 540.354 803.997 536.796 805.609 530.969C809.325 517.041 806.173 504.879 797.286 490.259C788.399 475.639 776.309 470.226 769.196 470.865C768.887 470.892 768.578 470.92 768.201 471.002C767.892 471.03 767.637 471.124 767.261 471.206C768.657 470.194 770.107 469.248 771.718 468.504C773.008 467.909 774.405 467.448 775.978 467.067C785.373 465.145 800.203 469.017 809.412 483.488C818.608 498.081 820.713 510.863 813.425 526.671Z" fill="#B9542F" stroke="#7D2B1B" stroke-width="0.551355" stroke-miterlimit="10"/>
<path id="Vector_6" d="M805.663 531.035C804.105 536.93 801.277 540.421 798.351 542.553C798.216 542.661 798.082 542.769 797.881 542.931C796.498 543.823 795.074 544.526 793.744 544.933C793.824 544.758 793.959 544.65 794.039 544.475C794.106 544.421 794.119 544.3 794.119 544.3C794.882 542.913 795.185 540.679 794.907 537.036C793.869 525.716 789.159 514.366 780.595 499.597C773.07 486.533 765.668 479.117 761.385 476.816C761.331 476.749 761.21 476.736 761.156 476.668C760.86 476.575 760.631 476.428 760.335 476.335C762.347 474.164 764.399 472.181 767.369 471.339C767.624 471.245 767.933 471.217 768.31 471.135C768.619 471.107 768.928 471.08 769.304 470.998C776.363 470.293 788.453 475.705 797.394 490.392C806.16 504.999 809.379 517.107 805.663 531.035Z" fill="#B9542F" stroke="#7D2B1B" stroke-width="0.551355" stroke-miterlimit="10"/>
<path id="Vector_7" d="M794.92 536.915C795.266 540.505 794.895 542.792 794.132 544.179C794.065 544.233 794.052 544.354 794.052 544.354C793.972 544.529 793.838 544.637 793.758 544.812C792.833 545.998 791.839 546.687 790.993 547.146C790.013 547.714 789.046 548.16 787.567 548.245C787.379 548.286 787.258 548.273 787.016 548.247C786.894 548.234 786.894 548.234 786.773 548.22C785.2 548.05 783.086 547.209 780.202 544.998C771.268 538.151 764.142 528.192 756.114 512.992C749.046 499.671 746.653 489.552 747.003 484.629C747.016 484.508 747.029 484.387 747.029 484.387C747.069 484.024 747.095 483.781 747.188 483.485C747.268 483.31 747.228 483.122 747.308 482.947C747.548 482.422 747.789 481.897 748.084 481.439C749.651 478.852 751.706 477.973 752.23 477.662C752.753 477.351 754.404 476.244 757.066 475.981C757.873 475.885 758.855 475.869 759.823 475.973C759.944 475.987 760.119 476.067 760.294 476.147C760.591 476.24 760.82 476.388 761.116 476.481C761.17 476.548 761.291 476.561 761.345 476.628C761.399 476.695 761.399 476.695 761.52 476.708C762.382 477.23 763.419 477.833 764.538 478.811C768.81 482.336 774.624 489.152 780.608 499.476C789.16 514.366 793.869 525.716 794.92 536.915Z" fill="#B9542F" stroke="#7D2B1B" stroke-width="0.551355" stroke-miterlimit="10"/>
<path id="Vector_8" d="M781.27 552.095C775.576 555.459 767.676 558.278 757.521 557.607C738.3 556.382 728.112 548.113 720.85 532.628C713.534 517.076 719.68 501.635 727.487 494.029C729.741 491.884 732.05 490.358 734.562 489.222C733.313 490.005 732.172 490.923 731.126 492.095C724.501 498.972 719.846 513.656 727.296 529.101C734.746 544.545 744.411 553.125 761.684 555.363C769.957 556.443 776.462 554.636 781.27 552.095Z" fill="#B9542F" stroke="#7D2B1B" stroke-width="0.551355" stroke-miterlimit="10"/>
<path id="Vector_9" d="M783.62 550.758C782.895 551.231 782.049 551.69 781.203 552.15C776.395 554.691 769.891 556.498 761.617 555.418C744.344 553.18 734.679 544.6 727.229 529.156C719.779 513.711 724.434 499.027 731.06 492.15C732.16 491.045 733.367 490.073 734.495 489.277C735.945 488.331 737.557 487.587 739.155 486.964C738.954 487.126 738.74 487.409 738.471 487.625C738.257 487.908 738.056 488.07 737.841 488.353C733.499 493.946 731.704 507.102 739.355 522.385C747.061 537.734 755.624 546.868 769.379 551.053C775.247 552.852 779.711 552.356 783.042 551.002C783.298 550.907 783.486 550.866 783.62 550.758Z" fill="#B9542F" stroke="#7D2B1B" stroke-width="0.551355" stroke-miterlimit="10"/>
<path id="Vector_10" d="M787.499 548.299C786.426 549.163 785.164 550.067 783.619 550.757C783.431 550.798 783.297 550.906 783.109 550.947C779.777 552.301 775.314 552.797 769.446 550.998C755.691 546.814 747.073 537.612 739.422 522.33C731.716 506.981 733.565 493.891 737.908 488.298C738.122 488.015 738.27 487.786 738.538 487.57C738.752 487.287 738.954 487.125 739.222 486.909C741.53 484.832 744.298 484.152 747.175 483.606C747.148 483.848 747.055 484.144 747.016 484.508C747.003 484.629 746.989 484.75 746.989 484.75C746.639 489.673 749.032 499.792 756.1 513.113C764.074 528.246 771.201 538.204 780.189 545.119C783.072 547.329 785.186 548.171 786.76 548.341C786.881 548.354 786.881 548.354 787.002 548.368C787.19 548.327 787.311 548.34 787.499 548.299Z" fill="#B9542F" stroke="#7D2B1B" stroke-width="0.551355" stroke-miterlimit="10"/>
</g>
<g id="full pum[kin">
<g id="pumpkin">
<g id="pumpkin body final">
<path id="Vector_11" d="M720.97 703.558C696.767 719.024 673.307 722.854 654.68 722.445C670.035 722.036 688.587 717.574 707.623 703.558C747.442 674.224 759.599 639.759 756.848 591.24C754.097 542.722 722.532 512.755 696.655 504.725C692.38 503.386 688.216 502.68 684.163 502.382C691.971 501.936 699.927 502.457 708.367 504.725C738.147 512.755 774.471 542.722 777.668 591.24C780.829 639.796 766.812 674.261 720.97 703.558Z" fill="#B9542F" stroke="#7D2B1B" stroke-width="2.93278" stroke-miterlimit="10"/>
<path id="Vector_12" d="M707.622 703.558C688.587 717.575 670.034 722.036 654.679 722.445C651.965 722.52 649.325 722.445 646.834 722.297C647.355 722.26 647.913 722.185 648.433 722.148C658.583 720.921 670.332 715.976 682.378 703.558C710.82 674.224 719.482 639.759 717.512 591.241C715.541 542.722 693.011 512.756 674.533 504.725C673.678 504.353 672.823 504.019 672.005 503.758C671.15 503.461 670.332 503.238 669.476 503.052C674.273 502.383 679.18 502.048 684.162 502.42C688.215 502.717 692.379 503.424 696.654 504.762C722.531 512.793 754.096 542.759 756.847 591.278C759.598 639.796 747.441 674.261 707.622 703.558Z" fill="#B9542F" stroke="#7D2B1B" stroke-width="2.93278" stroke-miterlimit="10"/>
<path id="Vector_13" d="M682.34 703.558C670.294 715.976 658.546 720.884 648.396 722.148C647.875 722.222 647.318 722.259 646.797 722.297C642.075 722.706 637.725 722.334 633.896 721.59C634.342 721.367 634.825 721.144 635.309 720.847C635.495 720.735 635.643 720.623 635.829 720.512C639.51 718.058 643.563 712.965 647.652 703.558C660.442 674.224 664.346 639.759 663.453 591.24C662.673 548.41 654.679 520.08 647.132 508.48C646.983 508.257 646.834 508.034 646.686 507.811C646.165 507.067 645.645 506.398 645.124 505.803C653.08 503.238 660.962 501.044 669.476 503.089C670.294 503.275 671.149 503.535 672.004 503.795C672.86 504.093 673.678 504.39 674.533 504.762C693.011 512.793 715.541 542.759 717.512 591.278C719.445 639.796 710.782 674.261 682.34 703.558Z" fill="#B9542F" stroke="#7D2B1B" stroke-width="2.93278" stroke-miterlimit="10"/>
<path id="Vector_14" d="M647.653 703.558C643.563 712.965 639.511 718.058 635.83 720.512C635.644 720.624 635.495 720.735 635.309 720.847C634.826 721.144 634.38 721.367 633.897 721.59C629.956 723.338 626.461 723.561 623.821 723.523C620.624 723.486 617.687 723.338 613.746 721.59C613.299 721.367 612.816 721.144 612.333 720.847C612.147 720.735 611.998 720.624 611.812 720.512C608.132 718.058 604.079 712.965 599.989 703.558C587.2 674.224 583.296 639.759 584.188 591.241C584.969 548.41 592.963 520.08 600.51 508.48C600.659 508.257 600.807 508.034 600.956 507.811C601.476 507.067 601.997 506.398 602.518 505.803C602.852 505.431 603.15 505.022 603.521 504.762C604.86 503.684 606.198 502.792 607.5 502.085C614.935 497.847 621.181 498.516 622.929 498.516C624.565 498.516 630.29 498.07 637.206 500.896C639.399 501.788 641.741 503.052 644.121 504.762C644.493 505.022 644.79 505.431 645.088 505.803C645.608 506.398 646.129 507.067 646.649 507.811C646.798 508.034 646.946 508.257 647.095 508.48C647.17 508.592 647.244 508.74 647.355 508.852C648.88 511.268 650.441 514.354 651.928 518.109C657.766 532.758 662.859 557.519 663.454 591.241C664.346 639.796 660.442 674.261 647.653 703.558Z" fill="#B9542F" stroke="#7D2B1B" stroke-width="2.93278" stroke-miterlimit="10"/>
<path id="Vector_15" d="M593 722.445C574.373 722.854 550.876 719.024 526.672 703.558C480.831 674.224 466.851 639.759 470.012 591.24C473.209 542.722 509.533 512.755 539.313 504.725C547.716 502.457 555.709 501.936 563.517 502.382C559.464 502.68 555.3 503.386 551.025 504.725C525.148 512.755 493.583 542.722 490.832 591.24C488.081 639.759 500.238 674.224 540.057 703.558C559.093 717.574 577.608 722.036 593 722.445Z" fill="#B9542F" stroke="#7D2B1B" stroke-width="2.93278" stroke-miterlimit="10"/>
<path id="Vector_16" d="M600.844 722.296C598.353 722.445 595.714 722.519 592.999 722.445C577.645 722.036 559.092 717.574 540.057 703.558C500.238 674.224 488.08 639.759 490.832 591.24C493.583 542.722 525.148 512.755 551.024 504.725C555.3 503.386 559.464 502.68 563.516 502.382C568.498 502.048 573.406 502.345 578.202 503.014C577.384 503.2 576.529 503.46 575.674 503.721C574.819 504.018 574.001 504.316 573.146 504.687C554.668 512.718 532.137 542.684 530.167 591.203C528.196 639.722 536.859 674.187 565.301 703.521C577.347 715.939 589.096 720.846 599.246 722.11C599.766 722.222 600.324 722.259 600.844 722.296Z" fill="#B9542F" stroke="#7D2B1B" stroke-width="2.93278" stroke-miterlimit="10"/>
<path id="Vector_17" d="M613.746 721.59C609.917 722.334 605.567 722.706 600.845 722.297C600.324 722.26 599.804 722.185 599.246 722.148C589.096 720.921 577.348 715.976 565.302 703.559C536.86 674.224 528.197 639.759 530.168 591.241C532.138 542.722 554.669 512.756 573.147 504.725C574.002 504.353 574.857 504.019 575.675 503.759C576.53 503.461 577.348 503.238 578.203 503.052C586.717 501.044 594.599 503.238 602.555 505.766C602.035 506.361 601.514 507.03 600.994 507.774C600.845 507.997 600.696 508.22 600.548 508.443C592.963 520.043 585.007 548.411 584.226 591.204C583.334 639.722 587.237 674.187 600.027 703.521C604.117 712.928 608.132 718.021 611.85 720.475C612.036 720.587 612.185 720.698 612.37 720.81C612.817 721.144 613.263 721.405 613.746 721.59Z" fill="#B9542F" stroke="#7D2B1B" stroke-width="2.93278" stroke-miterlimit="10"/>
</g>
<path id="stem" d="M637.205 500.895C630.253 498.033 624.564 498.516 622.928 498.516C621.181 498.516 614.898 497.81 607.499 502.085C607.871 485.987 612.109 457.47 634.231 429.512C634.119 429.809 631.108 439.253 637.354 454.645C627.464 468.141 622.556 485.875 637.205 500.895Z" fill="#44150E"/>
</g>
<g id="face-stroke">
<path id="righ- eye-stroke" d="M711.303 587.598C707.548 586.854 694.832 586.482 674.57 586.482C664.643 586.482 656.501 586.594 656.427 586.594L654.716 586.631L655.162 584.958C657.765 575.068 670.108 529.301 670.22 528.855L670.666 527.145L672.153 528.074C684.311 535.696 711.526 583.657 712.678 585.701L714.054 588.155L711.303 587.598Z" stroke="#44150E" stroke-width="2.34623"/>
<path id="left-eye-stroke" d="M587.014 585.367C571.139 582.207 558.052 580.571 548.125 580.571C540.355 580.571 537.529 581.612 537.492 581.612L535.15 582.504L535.745 580.087C537.975 571.09 546.601 558.709 561.324 543.28C572.217 531.866 582.627 522.943 582.739 522.832L584.3 521.493L584.858 523.464C588.725 537.108 588.576 582.132 588.576 584.028V585.59L587.014 585.367Z" stroke="#44150E" stroke-width="2.34623"/>
<path id="nose-stroke" d="M641.147 620.984C637.689 620.352 632.112 620.018 624.602 620.018C611.738 620.018 597.461 620.984 597.313 621.022L595.714 621.133L595.937 619.534C597.164 610.463 618.728 566.48 619.657 564.621L620.661 562.539L621.888 564.51C629.398 576.332 642.076 617.601 642.597 619.349L643.229 621.393L641.147 620.984Z" stroke="#44150E" stroke-width="2.34623"/>
<path id="mouth-stroke" d="M635.979 671.027L608.54 670.246L606.161 697.944L604.748 697.721C584.188 694.226 567.346 687.014 556.862 681.586C544.778 675.302 533.662 664.595 525.557 651.396C516.188 636.078 510.797 617.489 510.053 597.561L509.905 593.694L512.358 596.706C512.581 597.003 536.636 626.114 559.092 634.257C560.728 634.852 562.327 635.409 563.926 635.967L564.744 636.264L566.268 665.115L590.174 666.491L592.405 644.481L593.818 644.778C603.001 646.749 611.589 647.715 620.029 647.715C620.735 647.715 621.442 647.715 622.148 647.678C623.263 647.641 624.453 647.641 625.792 647.641C629.1 647.641 632.818 647.715 636.722 647.753C640.7 647.827 644.827 647.901 649.066 647.901H650.218L652.932 670.432L676.541 672.551V646.6L677.656 646.451C688.104 645.039 695.242 642.51 699.518 638.792C713.72 626.338 732.272 608.343 732.458 608.157L735.135 605.554L734.652 609.272C734.577 609.867 732.644 624.107 724.651 641.209C719.929 651.247 714.129 660.208 707.325 667.755C698.811 677.236 688.736 684.56 677.396 689.505C664.792 695.044 651.296 698.353 637.354 699.357L635.979 699.469V671.027V671.027Z" stroke="#44150E" stroke-width="2.34623"/>
</g>
<g id="face-fill">
<path id="right-eye-fill" d="M711.303 587.598C707.548 586.854 694.832 586.482 674.57 586.482C664.643 586.482 656.501 586.594 656.427 586.594L654.716 586.631L655.162 584.958C657.765 575.068 670.108 529.301 670.22 528.855L670.666 527.145L672.153 528.074C684.311 535.696 711.526 583.657 712.678 585.701L714.054 588.155L711.303 587.598Z" fill="#44150E"/>
<path id="left-eye-fill" d="M587.014 585.367C571.139 582.207 558.052 580.571 548.125 580.571C540.355 580.571 537.529 581.612 537.492 581.612L535.15 582.504L535.745 580.087C537.975 571.09 546.601 558.709 561.324 543.28C572.217 531.866 582.627 522.943 582.739 522.832L584.3 521.493L584.858 523.464C588.725 537.108 588.576 582.132 588.576 584.028V585.59L587.014 585.367Z" fill="#44150E"/>
<path id="nose-fill" d="M641.147 620.984C637.689 620.352 632.112 620.018 624.602 620.018C611.738 620.018 597.461 620.984 597.313 621.022L595.714 621.133L595.937 619.534C597.164 610.463 618.728 566.48 619.657 564.621L620.661 562.539L621.888 564.51C629.398 576.332 642.076 617.601 642.597 619.349L643.229 621.393L641.147 620.984Z" fill="#44150E"/>
<path id="mouth-fill" d="M635.979 671.027L608.54 670.246L606.161 697.944L604.748 697.721C584.188 694.226 567.346 687.014 556.862 681.586C544.778 675.302 533.662 664.595 525.557 651.396C516.188 636.078 510.797 617.489 510.053 597.561L509.905 593.694L512.358 596.706C512.581 597.003 536.636 626.114 559.092 634.257C560.728 634.852 562.327 635.409 563.926 635.967L564.744 636.264L566.268 665.115L590.174 666.491L592.405 644.481L593.818 644.778C603.001 646.749 611.589 647.715 620.029 647.715C620.735 647.715 621.442 647.715 622.148 647.678C623.263 647.641 624.453 647.641 625.792 647.641C629.1 647.641 632.818 647.715 636.722 647.753C640.7 647.827 644.827 647.901 649.066 647.901H650.218L652.932 670.432L676.541 672.551V646.6L677.656 646.451C688.104 645.039 695.242 642.51 699.518 638.792C713.72 626.338 732.272 608.343 732.458 608.157L735.135 605.554L734.652 609.272C734.577 609.867 732.644 624.107 724.651 641.209C719.929 651.247 714.129 660.208 707.325 667.755C698.811 677.236 688.736 684.56 677.396 689.505C664.792 695.044 651.296 698.353 637.354 699.357L635.979 699.469V671.027V671.027Z" fill="#44150E"/>
</g>
<g id="light">
<g id="dimmer light">
<mask id="mask0_23:180" style="mask-type:alpha" maskUnits="userSpaceOnUse" x="518" y="557" width="203" height="202">
<g id="Group">
<path id="5" opacity="0.26" d="M619.38 758.843C675.005 758.843 720.098 713.75 720.098 658.125C720.098 602.5 675.005 557.407 619.38 557.407C563.755 557.407 518.662 602.5 518.662 658.125C518.662 713.75 563.755 758.843 619.38 758.843Z" fill="white"/>
<path id="4" opacity="0.63" d="M619.381 740.7C664.985 740.7 701.955 703.73 701.955 658.125C701.955 612.521 664.985 575.551 619.381 575.551C573.776 575.551 536.806 612.521 536.806 658.125C536.806 703.73 573.776 740.7 619.381 740.7Z" fill="white"/>
<path id="3" d="M619.381 722.593C654.985 722.593 683.849 693.73 683.849 658.125C683.849 622.52 654.985 593.656 619.381 593.656C583.776 593.656 554.912 622.52 554.912 658.125C554.912 693.73 583.776 722.593 619.381 722.593Z" fill="white"/>
<path id="2" d="M619.38 707.983C646.915 707.983 669.237 685.661 669.237 658.126C669.237 630.59 646.915 608.269 619.38 608.269C591.844 608.269 569.522 630.59 569.522 658.126C569.522 685.661 591.844 707.983 619.38 707.983Z" fill="white"/>
<path id="1" d="M619.38 693.37C638.846 693.37 654.626 677.59 654.626 658.125C654.626 638.659 638.846 622.879 619.38 622.879C599.914 622.879 584.134 638.659 584.134 658.125C584.134 677.59 599.914 693.37 619.38 693.37Z" fill="white"/>
</g>
</mask>
<g mask="url(#mask0_23:180)">
<g id="right eye" style="mix-blend-mode:color">
<path d="M711.138 587.447C707.383 586.704 694.668 586.332 674.405 586.332C664.479 586.332 656.336 586.443 656.262 586.443L654.552 586.481L654.998 584.808C657.6 574.918 669.944 529.151 670.055 528.704L670.502 526.994L671.989 527.924C684.146 535.545 711.361 583.506 712.514 585.551L713.89 588.005L711.138 587.447Z" fill="#CE8732"/>
</g>
<g id="left eye" style="mix-blend-mode:color">
<path d="M586.848 585.217C570.973 582.057 557.886 580.421 547.959 580.421C540.189 580.421 537.363 581.462 537.326 581.462L534.984 582.355L535.579 579.938C537.809 570.941 546.435 558.56 561.158 543.131C572.051 531.717 582.461 522.794 582.573 522.682L584.134 521.344L584.692 523.314C588.559 536.959 588.41 581.983 588.41 583.879V585.44L586.848 585.217Z" fill="#CE8732"/>
</g>
<g id="nose" style="mix-blend-mode:color">
<path d="M640.981 620.835C637.523 620.203 631.946 619.868 624.436 619.868C611.572 619.868 597.295 620.835 597.147 620.872L595.548 620.984L595.771 619.385C596.998 610.313 618.562 566.331 619.491 564.472L620.495 562.39L621.722 564.36C629.232 576.183 641.91 617.452 642.431 619.199L643.063 621.244L640.981 620.835Z" fill="#CE8732"/>
</g>
<g id="mouth" style="mix-blend-mode:color">
<path d="M635.814 670.878L608.376 670.097L605.996 697.796L604.583 697.573C584.023 694.078 567.181 686.865 556.697 681.437C544.614 675.154 533.497 664.446 525.392 651.248C516.023 635.93 510.632 617.34 509.888 597.413L509.74 593.546L512.194 596.557C512.417 596.855 536.471 625.966 558.928 634.108C560.563 634.703 562.162 635.261 563.761 635.818L564.579 636.116L566.103 664.967L590.009 666.342L592.24 644.332L593.653 644.63C602.836 646.6 611.424 647.567 619.864 647.567C620.57 647.567 621.277 647.567 621.983 647.53C623.099 647.493 624.288 647.493 625.627 647.493C628.936 647.493 632.654 647.567 636.557 647.604C640.536 647.679 644.662 647.753 648.901 647.753H650.053L652.767 670.283L676.376 672.403V646.452L677.491 646.303C687.939 644.89 695.077 642.362 699.353 638.644C713.555 626.189 732.108 608.194 732.293 608.009L734.97 605.406L734.487 609.124C734.413 609.719 732.479 623.958 724.486 641.061C719.764 651.099 713.964 660.059 707.16 667.606C698.646 677.087 688.571 684.411 677.231 689.356C664.628 694.896 651.132 698.205 637.189 699.209L635.814 699.32V670.878V670.878Z" fill="#CE8732"/>
</g>
</g>
</g>
<g id="brightest light">
<mask id="mask1_23:180" style="mask-type:alpha" maskUnits="userSpaceOnUse" x="569" y="608" width="101" height="101">
<g id="Group_2">
<path id="2_2" d="M619.455 708.057C646.99 708.057 669.312 685.735 669.312 658.2C669.312 630.665 646.99 608.343 619.455 608.343C591.919 608.343 569.598 630.665 569.598 658.2C569.598 685.735 591.919 708.057 619.455 708.057Z" fill="#E1B062" fill-opacity="0.6"/>
<path id="1_2" d="M619.455 693.446C638.92 693.446 654.7 677.665 654.7 658.2C654.7 638.734 638.92 622.954 619.455 622.954C599.989 622.954 584.209 638.734 584.209 658.2C584.209 677.665 599.989 693.446 619.455 693.446Z" fill="#F4D892"/>
</g>
</mask>
<g mask="url(#mask1_23:180)">
<path id="nose_2" d="M640.981 620.835C637.523 620.203 631.946 619.868 624.436 619.868C611.572 619.868 597.295 620.835 597.147 620.872L595.548 620.984L595.771 619.385C596.998 610.313 618.562 566.331 619.491 564.472L620.495 562.39L621.722 564.36C629.232 576.183 641.91 617.452 642.431 619.199L643.063 621.244L640.981 620.835Z" fill="#F4D892"/>
<path id="mouth_2" d="M635.814 670.878L608.376 670.097L605.996 697.796L604.583 697.573C584.023 694.078 567.181 686.865 556.697 681.437C544.614 675.154 533.497 664.446 525.392 651.248C516.023 635.93 510.632 617.34 509.888 597.413L509.74 593.546L512.194 596.557C512.417 596.855 536.471 625.966 558.928 634.108C560.563 634.703 562.162 635.261 563.761 635.818L564.579 636.116L566.103 664.967L590.009 666.342L592.24 644.332L593.653 644.63C602.836 646.6 611.424 647.567 619.864 647.567C620.57 647.567 621.277 647.567 621.983 647.53C623.099 647.493 624.288 647.493 625.627 647.493C628.936 647.493 632.654 647.567 636.557 647.604C640.536 647.679 644.662 647.753 648.901 647.753H650.053L652.767 670.283L676.376 672.403V646.452L677.491 646.303C687.939 644.89 695.077 642.362 699.353 638.644C713.555 626.189 732.108 608.194 732.293 608.009L734.97 605.406L734.487 609.124C734.413 609.719 732.479 623.958 724.486 641.061C719.764 651.099 713.964 660.059 707.16 667.606C698.646 677.087 688.571 684.411 677.231 689.356C664.628 694.896 651.132 698.205 637.189 699.209L635.814 699.32V670.878V670.878Z" fill="#F4D892"/>
</g>
</g>
</g>
<g id="cut outs">
<g id="left eye_2">
<path id="Vector_18" d="M591.481 584.006L587.357 589.356L546.359 573.529L526.869 536.241L533.498 530.829L591.481 584.006Z" fill="#661F18" stroke="#661F18" stroke-width="0.70832" stroke-miterlimit="10"/>
<path id="Vector_19" d="M526.868 536.241C526.868 536.241 532.846 566.74 532.005 587.545C532.005 587.545 542.795 582.552 584.441 588.749C584.441 588.749 531.645 550.241 526.868 536.241Z" fill="#963D29" stroke="#661F18" stroke-width="2.62489" stroke-miterlimit="10"/>
</g>
<g id="right eye_2">
<path id="Vector_20" d="M654.578 586.726L658.701 592.076L699.699 576.249L719.189 538.961L712.56 533.548L654.578 586.726Z" fill="#661F18" stroke="#661F18" stroke-width="0.70832" stroke-miterlimit="10"/>
<path id="Vector_21" d="M719.19 538.961C719.19 538.961 713.212 569.46 714.054 590.264C714.054 590.264 703.263 585.271 661.618 591.469C661.618 591.469 714.413 552.961 719.19 538.961Z" fill="#963D29" stroke="#661F18" stroke-width="2.62489" stroke-miterlimit="10"/>
</g>
<g id="nose_3">
<g id="cut out">
<path id="Vector_22" d="M591.661 625.666L593.833 617.604L622.774 591.992L649.123 618.318L652.136 626.237L619.691 620.101L591.661 625.666Z" fill="#661F18"/>
<path id="Vector_23" d="M622.783 603.65C622.783 603.65 604.646 616.13 594.906 624.78C594.906 624.78 632.593 622.157 646.638 624.78L622.783 603.65Z" fill="#963D29" stroke="#661F18" stroke-width="2" stroke-miterlimit="10"/>
</g>
</g>
<g id="mouth_3">
<path id="Vector_24" d="M732.523 667.808C732.523 667.808 675.881 677.822 621.109 677.822C571.284 677.761 510.057 664.853 510.057 664.853V676.434C511.686 687.171 533.945 694.35 556.264 697.245C567.061 698.633 583.831 700.442 603.857 701.287L606.21 694.35L636.19 694.591V696.642V701.769C649.038 701.528 662.429 700.804 675.881 699.296C724.923 693.867 732.523 679.39 732.523 679.39V667.808Z" fill="#661F18" stroke="#661F18" stroke-miterlimit="10"/>
<path id="Vector_25" d="M699.466 687.051C694.58 688.137 686.376 688.74 676.906 689.042V695.617L650.787 695.014L648.072 689.343C637.938 689.343 628.287 689.223 621.108 689.283C611.336 689.343 601.926 689.042 592.395 688.559L590.164 694.048L563.803 693.687L562.295 686.388C560.666 686.267 559.098 686.086 557.469 685.965C534.306 683.854 510.057 676.435 510.057 676.435C511.685 687.172 533.944 694.35 556.263 697.245C567.06 698.633 583.83 700.443 603.857 701.287L606.209 694.35L636.189 694.591V701.709C649.037 701.468 662.429 700.744 675.88 699.236C724.922 693.807 732.522 679.33 732.522 679.33C732.522 679.33 713.883 683.914 699.466 687.051Z" fill="#963D29" stroke="#661F18" stroke-width="3.7058" stroke-miterlimit="10"/>
</g>
</g>
</g>
<g id="leaves">
<path id="Vector_26" d="M549.12 594.443C551.647 596.372 554.427 597.945 557.383 599.118C560.556 599.978 571.753 602.14 576.288 603.921C580.823 605.702 595.432 612.098 597.356 611.792C599.279 611.486 603.239 610.629 603.576 609.893C603.913 609.157 594.038 596.323 592.95 592.857C591.863 589.391 591.245 585.547 593.773 585.221C596.3 584.895 592.889 580.662 596.716 579.447C600.542 578.232 606.494 586.004 606.69 588.171C606.69 588.171 609.542 583.245 608.966 580.607C608.391 577.97 601.59 570.105 600.418 564.227C599.247 558.348 609.816 542.416 626.497 542.341C643.178 542.267 647.753 555.641 641.467 566.116C637.615 572.851 635.471 580.427 635.222 588.184C635.222 588.184 646.111 588.424 648.212 579.296C650.312 570.168 653.699 556.287 655.426 553.814C657.154 551.341 656.339 555.716 658.937 553.938C661.535 552.161 664.828 549.515 667.734 549.659C670.641 549.803 663.679 572.137 672.707 574.492C681.735 576.847 684.594 568.66 685.417 561.024C686.24 553.388 687.007 540.682 702.559 535.935C718.11 531.189 743.977 551.942 757.114 547.276C770.25 542.61 775.509 540.865 777.404 543.217C779.299 545.569 764.085 549.58 758.74 559.299C753.396 569.018 745.787 600.552 719.746 606.132C693.706 611.712 694.628 599.967 680.783 601.637C669.22 602.869 665.898 608.173 663.868 615.849C661.838 623.526 676.48 634.389 689.483 629.365C702.487 624.341 702.088 612.881 715.737 609.044C729.386 605.206 738.09 612.162 745.286 613.974C752.482 615.787 761.938 616.558 762.717 618.102C763.496 619.646 756.04 624.243 752.865 633.769C749.689 643.295 728.874 642.662 731.841 655.002C734.808 667.342 752.185 666.399 762.571 652.164C772.957 637.928 801.606 644.821 815.876 662.339C830.146 679.857 832.302 714.083 845.97 721.235C859.637 728.387 871.846 728.341 873.088 732.768C874.33 737.195 854.055 734.733 840.829 729.861C827.603 724.989 774.484 768.912 734.584 744.401C694.683 719.889 713.385 687.502 698.938 678.806C684.491 670.11 673.121 655.998 665.609 655.524C658.097 655.051 646.09 664.389 653.592 678.51C661.095 692.631 693.611 709.901 698.597 738.599C703.584 767.296 693.626 779.947 704.85 789.838C716.074 799.728 719.072 799.024 718.082 801.835C717.091 804.646 698.664 796.204 690.072 789.003C681.48 781.802 659.735 796.176 636.346 777.151C612.957 758.127 600.165 720.512 606.949 707C613.734 693.489 616.292 680.119 605.551 673.714C594.811 667.31 584.364 707.634 581.12 708.225C577.877 708.817 573.207 717.065 569.809 716.695C566.411 716.325 572.9 704.756 568.14 703.466C563.38 702.176 554.914 698.594 552.846 684.292C550.777 669.989 554.373 662.14 568.051 655.644C581.728 649.149 555.196 654.504 560.64 640.675C566.083 626.846 590.263 623.381 593.24 622.074C596.217 620.767 597.382 619.52 594.638 617.076C591.893 614.631 574.132 607.978 568.319 607.69C562.506 607.401 548.585 603.397 546.22 601.423C544.795 598.693 549.12 594.443 549.12 594.443Z" fill="#C18972"/>
<path id="Vector_27" d="M704.238 632.45C707.115 632.372 709.968 631.901 712.718 631.05C715.444 629.857 724.57 625.032 728.779 623.713C732.988 622.393 746.921 618.606 748.105 617.302C749.288 615.999 751.596 613.155 751.417 612.448C751.237 611.742 736.993 608.334 734.26 606.52C731.527 604.705 728.912 602.359 730.511 600.699C732.109 599.039 727.302 598.002 729.312 594.984C731.323 591.965 739.929 594.045 741.296 595.453C741.296 595.453 740.515 590.384 738.613 588.861C736.712 587.337 727.454 585.673 723.294 582.215C719.134 578.756 717.556 561.599 729.282 552.101C741.008 542.603 751.819 549.39 753.325 560.295C754.426 567.199 757.21 573.725 761.432 579.306C761.432 579.306 769.25 573.308 765.556 565.718C761.862 558.128 756.38 546.476 756.197 543.764C756.013 541.052 757.919 544.581 758.744 541.863C759.569 539.146 760.391 535.425 762.524 533.881C764.656 532.336 772.409 551.939 780.113 548.478C787.818 545.018 785.193 537.658 781.443 531.837C777.694 526.017 771.03 516.672 779.31 504.538C787.59 492.403 817.606 492.308 824.228 481.598C830.85 470.888 833.57 466.686 836.24 467.262C838.911 467.838 830.452 479.266 832.193 489.108C833.934 498.949 846.447 525.37 831.24 544.029C816.033 562.687 810.023 553.929 801.203 562.94C793.744 570.351 794.408 575.952 797.328 582.484C800.249 589.017 816.739 588.342 823.064 577.457C829.388 566.571 822.609 558.76 830.062 548.341C837.515 537.921 847.6 537.869 853.704 535.066C859.808 532.262 866.917 527.448 868.342 528.089C869.767 528.731 867.113 536.177 870.275 544.654C873.437 553.132 858.393 564.476 867.483 571.449C876.574 578.421 888.298 567.921 887.553 552.057C886.808 536.194 910.928 524.804 930.929 529.007C950.929 533.211 971.858 555.991 985.555 553.266C999.253 550.542 1007.84 543.596 1011.23 545.997C1014.61 548.398 998.913 558.152 986.82 562.225C974.727 566.298 962.159 627.178 920.111 632.584C878.063 637.99 872.892 604.689 857.769 606.772C842.646 608.855 826.622 605.398 821.054 609.319C815.486 613.241 812.31 626.588 825.61 632.242C838.91 637.895 871.643 631.593 891.433 648.893C911.223 666.192 911.372 680.702 924.899 681.282C938.426 681.861 940.141 679.67 941.037 682.202C941.932 684.734 924.144 689.249 914 689.065C903.856 688.881 896.665 711.273 869.377 711.177C842.088 711.081 811.735 691.948 808.86 678.632C805.984 665.316 800.208 654.492 788.999 656.083C777.791 657.674 793.286 691.865 791.333 694.117C789.38 696.368 790.762 704.796 788.155 706.461C785.548 708.126 783.566 696.339 779.477 698.13C775.387 699.92 767.384 702.203 757.814 693.345C748.245 684.487 746.331 676.946 752.297 664.647C758.262 652.347 742.581 671.126 738.58 658.346C734.579 645.567 749.672 629.445 751.031 626.843C752.39 624.241 752.506 622.706 749.183 622.547C745.861 622.387 729.559 627.779 725.294 630.868C721.029 633.957 708.938 639.033 706.15 638.988C703.597 637.88 704.238 632.45 704.238 632.45Z" fill="#C18972"/>
<path id="Vector_28" d="M423.123 649.116C423.78 651.047 424.7 652.879 425.855 654.56C427.239 656.152 432.433 661.305 434.214 663.875C435.994 666.444 441.493 675.072 442.628 675.596C443.762 676.121 446.178 677.079 446.621 676.807C447.063 676.536 446.387 666.168 447.046 663.933C447.704 661.697 448.749 659.428 450.212 660.158C451.676 660.887 451.371 657.412 453.844 658.132C456.317 658.852 456.712 665.12 456.042 666.345C456.042 666.345 459.321 664.739 459.957 663.128C460.593 661.517 459.779 654.896 461.255 651.345C462.732 647.793 474.056 643.08 482.972 649.001C491.887 654.921 489.547 663.682 482.454 667.019C477.995 669.231 474.146 672.502 471.241 676.547C471.241 676.547 476.958 680.565 481.339 676.452C485.72 672.338 492.484 666.152 494.288 665.451C496.093 664.751 494.095 666.791 496.115 666.772C498.134 666.753 500.834 666.519 502.332 667.635C503.829 668.75 492.139 678.164 496.108 682.645C500.078 687.126 504.526 683.784 507.693 680.009C510.86 676.234 515.81 669.738 525.793 672.765C535.776 675.792 542.144 696.094 550.811 698.302C559.479 700.509 562.905 701.458 563.074 703.388C563.243 705.319 553.703 702.02 547.382 705.289C541.061 708.559 525.739 722.644 509.869 716.313C493.999 709.982 498.687 704.052 490.713 699.995C484.111 696.52 480.445 698.159 476.621 701.524C472.796 704.89 476.717 715.91 485.441 717.879C494.165 719.849 498.048 713.6 506.692 716.432C515.337 719.263 517.49 726.08 520.676 729.617C523.863 733.154 528.627 736.944 528.49 738.045C528.354 739.146 522.738 738.931 517.642 742.873C512.546 746.815 501.68 739.04 498.852 746.676C496.024 754.312 505.62 760.018 516.241 756.143C526.862 752.269 539.666 766.179 541.011 780.612C542.355 795.046 531.275 814.055 536.002 822.75C540.73 831.444 547.252 835.782 546.332 838.585C545.412 841.388 535.488 832.831 530.181 825.509C524.874 818.187 480.874 822.613 468.37 795.294C455.866 767.976 477.405 757.4 472.813 747.604C468.222 737.808 467.205 726.225 463.372 723.288C459.538 720.352 449.803 721.038 448.755 731.243C447.708 741.449 458.864 762.27 451.267 779.344C443.67 796.418 433.843 799.601 436.291 808.882C438.738 818.163 440.587 818.859 439.055 820.003C437.523 821.147 430.719 810.064 428.714 803.157C426.708 796.25 409.985 796.14 404.319 777.644C398.653 759.149 405.278 734.535 413.721 729.759C422.164 724.983 428.304 718.772 424.869 711.522C421.434 704.272 401.459 722.026 399.519 721.183C397.579 720.339 392.144 723.065 390.465 721.654C388.786 720.243 396.378 716.397 394.303 714.009C392.227 711.62 388.996 706.687 393.004 698.326C397.012 689.965 401.733 687.068 411.343 688.493C420.952 689.919 404.9 683.293 412.742 677.869C420.584 672.444 434.707 679.238 436.76 679.605C438.814 679.972 439.88 679.724 439.291 677.441C438.702 675.158 431.615 665.266 428.621 663.035C425.626 660.804 419.638 653.697 419.083 651.8C419.299 649.836 423.123 649.116 423.123 649.116Z" fill="#C18972"/>
<path id="Vector_29" d="M803.093 693.655C804.574 694.213 806.125 694.564 807.702 694.7C809.338 694.655 814.986 694.078 817.404 694.277C819.821 694.475 827.702 695.43 828.575 695.007C829.449 694.585 831.214 693.607 831.269 693.207C831.325 692.807 824.778 688.098 823.763 686.6C822.748 685.101 821.903 683.354 823.061 682.836C824.219 682.317 821.987 680.785 823.637 679.656C825.287 678.526 829.238 681.381 829.642 682.388C829.642 682.388 830.296 679.626 829.644 678.449C828.992 677.273 824.623 674.495 823.222 671.856C821.821 669.218 824.578 660.092 832.521 657.66C840.463 655.227 844.56 660.955 843.064 666.86C842.192 670.629 842.255 674.555 843.248 678.294C843.248 678.294 848.474 676.844 848.168 672.184C847.862 667.524 847.488 660.41 847.957 658.98C848.427 657.551 848.665 659.757 849.649 658.535C850.633 657.313 851.824 655.577 853.23 655.228C854.637 654.879 854.517 666.543 859.158 666.371C863.8 666.198 863.99 661.878 863.289 658.114C862.587 654.35 861.133 648.172 867.868 643.671C874.602 639.17 889.908 645.363 895.503 641.247C901.098 637.132 903.355 635.543 904.595 636.393C905.836 637.244 899.157 641.345 898.001 646.754C896.845 652.163 897.734 668.313 886.118 674.719C874.502 681.125 873.259 675.384 866.897 678.171C861.561 680.421 860.737 683.431 860.868 687.388C861 691.345 869.537 694.427 875.017 690.16C880.497 685.893 878.666 680.479 884.624 676.685C890.581 672.891 895.728 674.962 899.418 674.793C903.109 674.625 907.728 673.634 908.32 674.259C908.913 674.885 906.016 678.151 905.867 683.156C905.718 688.16 895.703 690.849 898.885 696.315C902.068 701.781 910.217 698.834 913.13 690.544C916.042 682.255 930.689 681.429 940.002 687.743C949.315 694.057 955.246 710.089 962.787 711.54C970.328 712.991 976.142 711.215 977.368 713.15C978.595 715.085 968.575 716.823 961.572 716.397C954.568 715.971 935.534 744.576 912.999 738.606C890.464 732.636 894.741 714.485 886.608 712.408C878.474 710.332 871.031 705.228 867.382 706.081C863.732 706.934 859.345 713.118 864.945 718.783C870.545 724.447 888.522 728.021 895.01 741.007C901.499 753.992 898.563 761.464 905.331 764.573C912.1 767.683 913.428 766.916 913.359 768.4C913.289 769.885 903.294 768.502 898.166 766.298C893.038 764.095 884.729 774.082 870.853 768.359C856.976 762.636 845.489 746.514 846.788 739.088C848.087 731.662 847.391 724.911 841.353 723.396C835.315 721.882 836.111 742.636 834.649 743.385C833.187 744.133 832.142 748.742 830.469 749.054C828.796 749.366 830.233 742.909 827.778 742.977C825.324 743.045 820.775 742.552 817.74 736.02C814.705 729.488 815.295 725.223 820.885 720.157C826.476 715.09 814.593 721.459 815.208 714.074C815.822 706.689 826.854 701.56 828.086 700.508C829.318 699.456 829.695 698.694 828.037 697.921C826.378 697.148 816.957 696.524 814.144 697.221C811.331 697.918 804.12 698.007 802.71 697.405C801.639 696.306 803.093 693.655 803.093 693.655Z" fill="#C8BDB4"/>
<path id="Vector_30" d="M847.883 567.133C849.914 566.503 851.848 565.597 853.631 564.44C855.328 563.043 860.841 557.774 863.567 555.991C866.294 554.208 875.436 548.722 876.014 547.553C876.591 546.385 877.656 543.893 877.385 543.423C877.114 542.954 866.29 543.361 863.978 542.609C861.667 541.857 859.33 540.702 860.131 539.197C860.931 537.692 857.301 537.91 858.119 535.351C858.937 532.792 865.48 532.561 866.738 533.296C866.738 533.296 865.154 529.829 863.492 529.119C861.831 528.409 854.908 529.067 851.248 527.425C847.587 525.783 842.984 513.835 849.398 504.707C855.812 495.579 864.879 498.273 868.162 505.766C870.347 510.481 873.65 514.591 877.786 517.737C877.786 517.737 882.13 511.89 877.963 507.202C873.796 502.514 867.533 495.28 866.852 493.378C866.171 491.476 868.243 493.618 868.278 491.511C868.314 489.405 868.144 486.581 869.348 485.052C870.551 483.522 880.042 495.986 884.821 491.976C889.599 487.965 886.239 483.228 882.391 479.816C878.543 476.404 871.908 471.055 875.336 460.73C878.764 450.405 900.096 444.348 902.633 435.372C905.171 426.395 906.253 422.849 908.27 422.728C910.286 422.607 906.587 432.463 909.822 439.15C913.057 445.837 927.317 462.224 920.285 478.594C913.253 494.965 907.202 489.904 902.756 498.104C898.953 504.89 900.562 508.76 903.964 512.846C907.367 516.933 918.96 513.161 921.251 504.118C923.541 495.076 917.135 490.846 920.322 481.911C923.51 472.977 930.673 470.928 934.446 467.706C938.22 464.484 942.3 459.625 943.443 459.799C944.587 459.973 944.21 465.825 948.179 471.253C952.148 476.682 943.747 487.791 951.628 490.961C959.509 494.131 965.719 484.287 961.971 473.097C958.223 461.907 973.07 448.954 988.149 447.968C1003.23 446.982 1022.74 459.087 1031.93 454.407C1041.12 449.727 1045.82 443.049 1048.71 444.09C1051.61 445.13 1042.42 455.234 1034.64 460.558C1026.87 465.882 1030.28 511.903 1001.46 524.156C972.652 536.41 962.218 513.64 951.884 518.146C941.549 522.653 929.45 523.379 926.285 527.293C923.119 531.207 923.568 541.38 934.175 542.767C944.783 544.154 966.788 533.119 984.374 541.535C1001.96 549.951 1005.01 560.292 1014.75 558.008C1024.49 555.723 1025.26 553.814 1026.42 555.445C1027.57 557.076 1015.83 563.852 1008.58 565.745C1001.32 567.638 1000.75 585.077 981.32 590.453C961.89 595.829 936.417 588.21 931.671 579.266C926.924 570.322 920.62 563.739 912.969 567.112C905.319 570.486 923.277 591.832 922.345 593.831C921.412 595.83 924.105 601.578 922.589 603.288C921.072 604.998 917.271 596.969 914.725 599.065C912.18 601.16 906.95 604.389 898.346 599.967C889.742 595.545 886.851 590.538 888.6 580.556C890.348 570.575 883.003 587.126 877.565 578.79C872.126 570.454 879.592 555.92 880.031 553.789C880.47 551.658 880.24 550.538 877.845 551.087C875.449 551.635 864.947 558.742 862.54 561.801C860.133 564.86 852.562 570.9 850.569 571.424C848.529 571.142 847.883 567.133 847.883 567.133Z" fill="#C8BDB4"/>
<path id="Vector_31" d="M484.364 627.704C485.37 629.368 486.6 630.887 488.02 632.216C489.634 633.416 495.527 637.153 497.71 639.182C499.893 641.211 506.778 648.124 507.942 648.38C509.106 648.636 511.554 649.033 511.912 648.689C512.269 648.345 509.527 638.822 509.686 636.603C509.845 634.385 510.357 632.056 511.869 632.435C513.382 632.815 512.39 629.639 514.843 629.802C517.295 629.966 518.94 635.726 518.565 637.006C518.565 637.006 521.295 634.836 521.56 633.204C521.825 631.572 519.717 625.568 520.37 621.956C521.023 618.343 530.622 611.627 540.14 615.315C549.659 619.004 549.261 627.649 543.328 632.214C539.621 635.191 536.698 639.029 534.813 643.394C534.813 643.394 540.962 645.966 544.209 641.234C547.456 636.501 552.503 629.348 554.042 628.324C555.582 627.301 554.135 629.612 556.014 629.18C557.893 628.748 560.363 627.977 561.986 628.709C563.609 629.441 554.627 640.613 559.241 643.975C563.854 647.336 567.322 643.31 569.505 639.142C571.689 634.974 574.98 627.903 584.905 628.676C594.829 629.449 604.902 647.063 613.432 647.342C621.963 647.621 625.35 647.802 625.901 649.566C626.453 651.331 616.886 650.214 611.658 654.558C606.431 658.902 595.014 675.172 578.928 672.528C562.842 669.885 566.005 663.397 557.744 661.252C550.881 659.368 547.797 661.648 544.916 665.569C542.036 669.49 547.936 678.956 556.471 679.001C565.006 679.046 567.354 672.426 575.99 673.291C584.626 674.157 588.022 680.068 591.714 682.71C595.405 685.353 600.619 687.907 600.716 688.961C600.812 690.015 595.533 690.968 591.584 695.687C587.636 700.406 575.921 695.39 574.84 703.086C573.758 710.783 583.868 714.132 592.981 708.342C602.095 702.551 616.866 712.887 621.059 726.063C625.252 739.239 618.792 759.228 624.971 766.361C631.15 773.494 638.115 776.199 637.828 779C637.54 781.801 626.545 775.862 620.106 770.128C613.666 764.393 573.544 777.546 556.322 754.652C539.1 731.757 557.027 717.481 550.752 709.294C544.476 701.107 541.169 690.521 536.996 688.571C532.824 686.62 523.887 689.257 524.989 698.983C526.091 708.709 540.733 725.825 537.127 743.296C533.522 760.767 525.008 765.75 529.18 773.898C533.352 782.045 535.217 782.314 534.022 783.695C532.826 785.075 524.226 776.142 520.95 770.117C517.673 764.091 502.058 767.42 493.009 751.345C483.959 735.271 485.122 710.972 492.021 704.789C498.921 698.605 503.381 691.557 498.702 685.505C494.022 679.453 479.014 700.099 477.034 699.71C475.053 699.322 470.541 702.978 468.688 702.007C466.836 701.037 473.131 695.894 470.709 694.094C468.288 692.295 464.27 688.36 466.304 679.745C468.339 671.131 472.15 667.462 481.4 666.819C490.649 666.176 474.334 663.294 480.541 656.63C486.748 649.966 501.299 653.399 503.288 653.32C505.277 653.24 506.221 652.791 505.207 650.784C504.193 648.777 495.57 641.013 492.324 639.548C489.078 638.083 482.048 632.688 481.144 631.034C480.945 629.159 484.364 627.704 484.364 627.704Z" fill="#C8BDB4"/>
<path id="Vector_32" d="M700.121 527.957C701.278 527.483 702.365 526.851 703.35 526.081C704.272 525.175 707.229 521.802 708.735 520.616C710.24 519.43 715.313 515.741 715.591 515.027C715.869 514.313 716.364 512.797 716.181 512.536C715.998 512.275 709.676 513.074 708.283 512.753C706.889 512.432 705.46 511.876 705.851 510.953C706.242 510.029 704.127 510.345 704.473 508.803C704.82 507.261 708.643 506.787 709.418 507.152C709.418 507.152 708.31 505.203 707.3 504.873C706.289 504.543 702.267 505.287 700.037 504.514C697.807 503.741 694.491 496.978 697.777 491.297C701.063 485.616 706.515 486.726 708.827 490.947C710.351 493.597 712.5 495.834 715.086 497.463C715.086 497.463 717.329 493.812 714.645 491.281C711.96 488.749 707.915 484.835 707.418 483.755C706.921 482.676 708.245 483.824 708.157 482.588C708.069 481.351 707.823 479.706 708.449 478.747C709.075 477.788 715.282 484.601 717.875 482.003C720.467 479.406 718.253 476.804 715.821 475.004C713.39 473.204 709.225 470.412 710.699 464.185C712.173 457.957 724.36 453.303 725.382 447.912C726.405 442.52 726.855 440.386 728.031 440.211C729.206 440.036 727.549 446.003 729.79 449.754C732.032 453.505 741.237 462.369 737.964 472.326C734.691 482.283 730.883 479.63 728.702 484.666C726.825 488.839 727.968 491.024 730.173 493.242C732.379 495.46 738.977 492.65 739.851 487.232C740.725 481.815 736.752 479.668 738.157 474.268C739.563 468.867 743.654 467.296 745.698 465.212C747.743 463.129 749.882 460.07 750.561 460.113C751.24 460.156 751.322 463.604 753.929 466.58C756.536 469.556 752.188 476.5 756.971 477.95C761.753 479.399 764.882 473.309 762.106 466.946C759.331 460.583 767.36 452.224 776.145 450.866C784.931 449.507 796.989 455.591 802.132 452.373C807.276 449.154 809.684 444.998 811.434 445.458C813.185 445.918 808.324 452.314 804.043 455.837C799.762 459.359 804.143 486.15 787.893 494.822C771.643 503.494 764.351 490.691 758.528 493.867C752.705 497.043 745.653 498.095 744 500.552C742.348 503.009 743.138 508.948 749.426 509.211C755.713 509.475 768.036 501.869 778.778 505.89C789.519 509.912 791.841 515.813 797.43 513.97C803.019 512.128 803.375 510.969 804.133 511.865C804.892 512.761 798.365 517.34 794.213 518.824C790.06 520.309 790.628 530.558 779.52 534.714C768.413 538.87 753.092 535.724 749.848 530.729C746.603 525.734 742.568 522.202 738.259 524.575C733.951 526.948 745.58 538.527 745.137 539.746C744.694 540.966 746.569 544.195 745.769 545.276C744.969 546.356 742.326 541.848 740.943 543.208C739.559 544.568 736.662 546.73 731.391 544.584C726.121 542.439 724.167 539.654 724.675 533.715C725.183 527.775 721.736 537.854 718.117 533.251C714.499 528.648 718.121 519.744 718.268 518.473C718.415 517.201 718.223 516.557 716.847 517.003C715.472 517.448 709.685 522.156 708.433 524.073C707.181 525.99 703.057 529.922 701.917 530.332C700.707 530.273 700.121 527.957 700.121 527.957Z" fill="#C8BDB4"/>
<path id="Vector_33" d="M323.754 700.836C326.636 698.183 329.14 695.147 331.195 691.812C332.916 688.146 337.929 675.019 341.059 669.898C344.189 664.776 355.072 648.419 355.111 646.018C355.149 643.618 354.952 638.628 354.13 638.06C353.308 637.493 335.613 646.721 331.17 647.297C326.728 647.872 321.927 647.795 322.07 644.657C322.212 641.519 316.342 644.75 315.682 639.844C315.022 634.939 325.732 629.385 328.406 629.613C328.406 629.613 323.03 625.093 319.703 625.225C316.376 625.356 305.373 631.921 297.982 632.08C290.591 632.238 273.489 615.986 276.954 595.724C280.42 575.462 297.641 572.782 309.026 582.662C316.387 588.785 325.134 593.016 334.503 594.985C334.503 594.985 337.116 581.82 326.475 577.309C315.834 572.797 299.694 565.704 297.057 563.076C294.421 560.448 299.562 562.377 297.957 558.842C296.351 555.307 293.838 550.741 294.633 547.244C295.428 543.748 321.075 556.996 325.86 546.545C330.646 536.093 321.31 530.864 312.209 528.224C303.108 525.585 287.836 521.922 285.384 502.027C282.933 482.131 313.658 455.195 310.79 438.248C307.921 421.301 306.922 414.543 310.183 412.748C313.444 410.953 315.073 430.282 325.741 438.857C336.409 447.433 373.094 463.444 374.322 496.25C375.551 529.056 361.479 525.413 360.557 542.576C359.589 556.876 365.324 562.047 374.217 566.161C383.109 570.275 399.426 554.836 396.095 537.974C392.764 521.112 378.758 519.133 377.005 501.742C375.252 484.351 385.557 475.281 389.293 466.937C393.028 458.593 395.98 447.28 398.022 446.667C400.064 446.053 404.059 456.091 414.954 461.992C425.85 467.893 420.644 493.022 436.267 492.072C451.89 491.122 454.449 469.829 439.369 454.164C424.29 438.499 438.769 405.207 463.091 391.651C487.414 378.096 529.451 382.834 541.052 367.782C552.654 352.729 555.2 337.901 560.843 337.345C566.486 336.789 559.173 360.869 550.435 375.875C541.698 390.881 583.734 464.793 545.453 507.955C507.172 551.116 471.814 521.457 458.171 537.123C444.528 552.79 424.961 563.558 422.785 572.574C420.608 581.59 429.393 598.17 448.146 592.098C466.899 586.027 494.81 550.272 530.734 550.386C566.658 550.501 579.904 565.306 594.312 553.808C608.719 542.31 608.502 538.52 611.706 540.326C614.909 542.132 600.726 562.684 590.148 571.565C579.569 580.446 592.395 609.929 564.299 634.229C536.202 658.529 487.781 665.972 472.814 654.834C457.847 643.696 442.15 637.718 432.081 649.378C422.012 661.037 468.77 682.383 468.797 686.447C468.824 690.511 477.848 697.952 476.675 701.997C475.502 706.041 462.831 695.679 460.249 701.179C457.667 706.679 451.511 716.185 433.696 715.622C415.881 715.059 407.112 709.008 402.136 691.011C397.161 673.014 398.011 706.368 382.372 696.789C366.733 687.21 367.678 657.118 366.724 653.224C365.771 649.33 364.505 647.647 360.95 650.453C357.396 653.259 345.528 673.386 343.939 680.38C342.349 687.373 334.518 703.41 331.616 705.857C327.996 706.999 323.754 700.836 323.754 700.836Z" fill="#B9542F"/>
<path id="Vector_34" d="M513.742 540.902C517.657 540.787 521.538 540.134 525.276 538.962C528.979 537.32 541.368 530.691 547.088 528.874C552.809 527.056 571.748 521.833 573.351 520.045C574.953 518.257 578.075 514.359 577.825 513.392C577.576 512.424 558.162 507.799 554.43 505.322C550.698 502.845 547.122 499.64 549.286 497.364C551.45 495.087 544.899 493.681 547.615 489.543C550.331 485.405 562.06 488.228 563.931 490.153C563.931 490.153 562.832 483.216 560.233 481.135C557.634 479.054 545.021 476.802 539.334 472.078C533.648 467.354 531.38 443.871 547.277 430.837C563.173 417.803 577.936 427.065 580.061 441.99C581.609 451.438 585.443 460.365 591.229 467.993C591.229 467.993 601.83 459.761 596.749 449.381C591.669 439 584.125 423.064 583.857 419.351C583.588 415.639 586.207 420.465 587.311 416.743C588.414 413.02 589.509 407.925 592.401 405.805C595.293 403.684 605.982 430.499 616.446 425.741C626.91 420.982 623.285 410.914 618.141 402.956C612.996 394.998 603.861 382.224 615.048 365.589C626.234 348.955 667.094 348.744 676.034 334.064C684.973 319.383 688.647 313.624 692.286 314.405C695.926 315.187 684.49 330.854 686.928 344.322C689.366 357.791 706.582 393.926 686.011 419.511C665.44 445.095 657.199 433.121 645.254 445.481C635.152 455.647 636.095 463.312 640.116 472.247C644.136 481.182 666.579 480.214 675.113 465.295C683.647 450.375 674.365 439.701 684.438 425.417C694.511 411.132 708.239 411.034 716.529 407.18C724.819 403.325 734.462 396.715 736.406 397.59C738.351 398.464 734.79 408.664 739.152 420.262C743.515 431.859 723.115 447.429 735.538 456.95C747.961 466.471 763.848 452.064 762.724 430.349C761.6 408.635 794.355 392.977 821.609 398.677C848.864 404.378 877.511 435.506 896.139 431.739C914.766 427.972 926.407 418.441 931.033 421.718C935.66 424.996 914.356 438.392 897.922 444.001C881.488 449.609 864.802 532.985 807.601 540.5C750.401 548.014 743.131 502.44 722.559 505.333C701.988 508.225 680.151 503.536 672.598 508.92C665.046 514.303 660.816 532.584 678.959 540.287C697.103 547.991 741.617 539.275 768.677 562.904C795.736 586.533 796.04 606.396 814.457 607.153C832.874 607.91 835.194 604.906 836.43 608.369C837.666 611.833 813.485 618.062 799.674 617.838C785.864 617.613 776.231 648.287 739.084 648.23C701.937 648.172 660.485 622.061 656.479 603.84C652.473 585.618 644.534 570.816 629.287 573.024C614.041 575.233 635.37 621.998 632.728 625.086C630.085 628.173 632.024 639.707 628.488 641.994C624.951 644.28 622.171 628.149 616.616 630.611C611.062 633.073 600.183 636.22 587.095 624.119C574.007 612.019 571.35 601.702 579.385 584.847C587.421 567.993 566.205 593.744 560.67 576.26C555.135 558.776 575.569 536.665 577.401 533.099C579.233 529.532 579.379 527.432 574.856 527.222C570.332 527.012 548.178 534.438 542.394 538.678C536.61 542.919 520.186 549.9 516.39 549.846C512.907 548.337 513.742 540.902 513.742 540.902Z" fill="#B9542F"/>
<path id="Vector_35" d="M386.025 561.635C389.651 560.984 393.172 559.837 396.487 558.228C399.706 556.188 410.316 548.304 415.387 545.82C420.458 543.335 437.357 535.847 438.601 533.963C439.845 532.079 442.21 528.022 441.845 527.158C441.479 526.294 422.778 524.697 418.963 522.915C415.148 521.133 411.378 518.653 413.077 516.237C414.776 513.821 408.487 513.425 410.442 509.202C412.397 504.98 423.7 505.971 425.707 507.499C425.707 507.499 423.725 501.207 421.02 499.635C418.314 498.063 406.267 497.726 400.324 494.128C394.381 490.53 389.026 469.026 402.014 454.704C415.003 440.381 430.018 446.933 434.058 460.504C436.803 469.068 441.604 476.829 448.042 483.112C448.042 483.112 456.767 473.988 450.605 465.05C444.444 456.111 435.224 442.354 434.461 438.942C433.697 435.53 436.801 439.65 437.313 436.038C437.826 432.425 438.14 427.539 440.538 425.166C442.935 422.794 456.586 446.221 465.664 440.344C474.742 434.467 469.978 425.617 464.092 418.938C458.206 412.26 447.941 401.662 456.05 384.65C464.159 367.637 502.145 361.756 508.434 346.873C514.722 331.989 517.344 326.126 520.838 326.346C524.332 326.566 515.858 342.714 519.987 354.889C524.117 367.064 545.128 398.243 529.525 424.877C513.921 451.51 504.599 441.532 495.194 454.678C487.2 465.529 489.137 472.52 494.112 480.262C499.088 488.005 519.834 483.983 525.712 468.933C531.591 453.883 521.48 445.257 528.877 430.583C536.275 415.91 549.033 413.909 556.213 409.174C563.394 404.439 571.452 396.956 573.382 397.497C575.312 398.039 573.408 408.012 579.07 418.181C584.731 428.35 567.903 445.654 580.777 452.772C593.651 459.89 606.441 444.294 602.394 424.274C598.347 404.255 626.658 385.149 652.803 386.653C678.948 388.158 709.902 413.094 726.712 407.003C743.522 400.911 753.035 390.436 757.793 392.838C762.55 395.239 744.58 410.65 730.066 418.148C715.551 425.645 711.549 505.435 659.369 520.376C607.189 535.317 594.127 493.983 575.388 499.533C556.648 505.083 535.684 503.764 529.401 509.817C523.119 515.87 521.709 533.444 539.654 538.077C557.599 542.71 597.809 528.419 626.25 546.609C654.691 564.799 657.719 583.212 674.958 581.353C692.198 579.494 693.941 576.379 695.57 579.425C697.198 582.472 675.561 591.624 662.681 593.337C649.801 595.05 645.078 624.891 610.509 630.006C575.94 635.12 533.767 616.627 527.521 600.254C521.276 583.881 511.844 571.232 497.964 575.405C484.084 579.579 510.392 620.063 508.36 623.299C506.327 626.536 509.726 636.983 506.751 639.599C503.777 642.215 498.961 627.614 494.134 630.675C489.306 633.735 479.619 638.173 465.77 628.75C451.922 619.328 448.023 610.112 453.171 593.334C458.318 576.556 442.138 603.433 434.571 587.958C427.005 572.483 442.961 549.096 444.173 545.528C445.385 541.959 445.231 539.987 440.993 540.421C436.755 540.856 417.169 550.838 412.374 555.583C407.579 560.327 393.263 569.099 389.724 569.577C386.275 568.66 386.025 561.635 386.025 561.635Z" fill="#C18972"/>
<path id="Vector_36" d="M391.594 654.717C393.784 653.644 395.829 652.286 397.671 650.681C399.385 648.828 404.854 642.008 407.669 639.538C410.484 637.069 419.988 629.328 420.479 627.937C420.97 626.546 421.829 623.609 421.463 623.144C421.097 622.679 409.031 625.157 406.342 624.765C403.653 624.373 400.883 623.543 401.578 621.74C402.273 619.937 398.237 620.857 398.811 617.894C399.385 614.93 406.682 613.449 408.189 614.019C408.189 614.019 405.952 610.509 403.996 610.041C402.041 609.574 394.377 611.596 390.058 610.479C385.74 609.362 378.99 597.105 384.954 585.877C390.917 574.649 401.429 575.907 406.107 583.52C409.182 588.288 413.43 592.181 418.481 594.86C418.481 594.86 422.565 587.624 417.273 583.258C411.98 578.891 404.001 572.122 402.985 570.161C401.968 568.2 404.574 570.164 404.332 567.844C404.091 565.523 403.524 562.454 404.667 560.549C405.811 558.644 418.103 570.551 422.918 565.25C427.733 559.948 423.338 555.377 418.573 552.352C413.809 549.327 405.664 544.698 408.124 532.715C410.584 520.733 433.662 510.079 435.305 499.746C436.947 489.412 437.686 485.314 439.928 484.803C442.17 484.292 439.344 495.809 443.859 502.546C448.374 509.282 466.531 524.603 460.843 543.9C455.155 563.197 447.703 558.775 443.82 568.615C440.468 576.78 442.786 580.728 447.142 584.577C451.498 588.427 463.976 582.109 465.333 571.749C466.69 561.389 458.952 557.945 461.328 547.536C463.704 537.126 471.451 533.532 475.246 529.286C479.041 525.039 482.961 518.937 484.265 518.914C485.569 518.891 485.928 525.388 491.097 530.604C496.266 535.821 488.344 549.598 497.592 551.6C506.84 553.602 512.479 541.626 506.787 530.041C501.096 518.456 515.991 501.445 532.745 497.533C549.498 493.621 572.96 503.255 582.626 496.39C592.293 489.526 596.663 481.311 600.045 481.911C603.426 482.51 594.486 495.33 586.49 502.636C578.494 509.942 588.458 559.841 557.831 578.704C527.204 597.567 512.479 574.519 501.509 581.407C490.538 588.294 477.087 591.362 474.065 596.254C471.044 601.146 472.905 612.234 484.968 611.767C497.031 611.301 520.197 595.053 541.014 600.996C561.831 606.938 566.627 617.722 577.228 613.386C587.828 609.05 588.442 606.808 589.948 608.384C591.454 609.959 579.217 619.602 571.348 623.042C563.479 626.481 565.167 645.74 544.127 655.29C523.088 664.839 493.547 661.252 487.038 652.32C480.528 643.389 472.589 637.341 464.473 642.482C456.357 647.622 479.317 667.695 478.54 670.065C477.763 672.435 481.546 678.242 480.076 680.405C478.606 682.567 473.278 674.463 470.707 677.242C468.136 680.021 462.711 684.548 452.486 681.306C442.261 678.065 438.355 673.108 438.98 661.818C439.605 650.529 433.591 670.083 426.388 661.949C419.184 653.815 425.603 636.453 425.81 634.03C426.017 631.608 425.611 630.421 423.001 631.473C420.392 632.525 409.581 642.3 407.294 646.111C405.007 649.922 397.336 657.976 395.175 658.925C392.852 658.998 391.594 654.717 391.594 654.717Z" fill="#C8BDB4"/>
<path id="Vector_37" d="M330.755 502.455C331.998 501.846 333.159 501.075 334.205 500.164C335.178 499.112 338.283 495.24 339.881 493.838C341.479 492.436 346.875 488.041 347.154 487.251C347.432 486.461 347.92 484.794 347.712 484.53C347.504 484.266 340.654 485.673 339.128 485.451C337.601 485.228 336.028 484.757 336.423 483.733C336.817 482.709 334.526 483.232 334.852 481.55C335.178 479.867 339.32 479.026 340.176 479.35C340.176 479.35 338.906 477.357 337.796 477.091C336.686 476.826 332.335 477.974 329.883 477.34C327.431 476.706 323.599 469.747 326.985 463.373C330.37 456.998 336.338 457.712 338.994 462.034C340.74 464.741 343.152 466.951 346.019 468.472C346.019 468.472 348.338 464.364 345.333 461.885C342.329 459.406 337.799 455.563 337.222 454.45C336.645 453.337 338.124 454.452 337.987 453.134C337.849 451.817 337.528 450.075 338.177 448.993C338.826 447.911 345.805 454.671 348.538 451.662C351.272 448.652 348.777 446.057 346.072 444.339C343.367 442.622 338.743 439.994 340.139 433.191C341.536 426.388 354.638 420.34 355.571 414.473C356.503 408.606 356.922 406.28 358.195 405.99C359.468 405.699 357.864 412.238 360.427 416.063C362.991 419.887 373.299 428.585 370.07 439.541C366.841 450.496 362.61 447.986 360.405 453.572C358.502 458.208 359.818 460.449 362.291 462.635C364.764 464.82 371.848 461.233 372.619 455.351C373.389 449.47 368.996 447.515 370.345 441.605C371.694 435.695 376.092 433.654 378.247 431.244C380.401 428.833 382.627 425.369 383.367 425.356C384.107 425.342 384.311 429.031 387.246 431.993C390.18 434.954 385.683 442.776 390.933 443.912C396.184 445.049 399.385 438.25 396.154 431.673C392.922 425.096 401.379 415.438 410.89 413.217C420.402 410.996 433.722 416.465 439.21 412.568C444.698 408.671 447.179 404.007 449.099 404.347C451.019 404.688 445.943 411.966 441.403 416.114C436.864 420.262 442.521 448.591 425.133 459.3C407.745 470.009 399.385 456.924 393.157 460.835C386.929 464.745 379.292 466.487 377.576 469.264C375.861 472.041 376.917 478.336 383.766 478.071C390.615 477.806 403.767 468.582 415.585 471.956C427.404 475.33 430.127 481.452 436.145 478.99C442.163 476.528 442.512 475.256 443.367 476.15C444.222 477.045 437.274 482.52 432.807 484.472C428.339 486.425 429.298 497.359 417.353 502.78C405.408 508.202 388.637 506.165 384.941 501.094C381.246 496.024 376.738 492.591 372.131 495.509C367.523 498.427 380.558 509.823 380.117 511.169C379.675 512.514 381.823 515.811 380.989 517.039C380.154 518.267 377.129 513.666 375.67 515.243C374.21 516.821 371.13 519.391 365.325 517.551C359.52 515.71 357.302 512.896 357.657 506.487C358.012 500.077 354.598 511.179 350.508 506.561C346.419 501.943 350.063 492.086 350.18 490.711C350.298 489.335 350.067 488.662 348.586 489.259C347.104 489.856 340.966 495.406 339.668 497.569C338.37 499.733 334.015 504.305 332.788 504.844C331.469 504.886 330.755 502.455 330.755 502.455Z" fill="#C8BDB4"/>
</g>
<path id="leaves-motion-path" d="M44 176.5C111.167 330 328 637 658 637C988 637 1241.83 330 1327.5 176.5" stroke="#45825B" stroke-width="10"/>
</g>
</svg>
