<svg width="1440" height="1024" viewBox="0 0 1440 1024" fill="none" xmlns="http://www.w3.org/2000/svg">
<g id="preloader" clip-path="url(#clip0_23:180)">
<rect width="1440" height="1024" fill="white"/>
<g id="grown up pumpkin">
<path id="pumpkin-stem" d="M766.654 442.032C766.353 442.07 766.155 442.191 766.095 442.226C766.034 442.262 765.796 442.364 765.615 442.663C765.31 442.078 764.898 440.977 765.139 439.544C765.137 439.558 765.139 439.544 765.588 439.451C765.415 440.984 765.838 441.781 766.654 442.032Z" fill="#44150E"/>
<g id="pumpkin-body">
<g id="Group 7">
<path id="Vector" d="M773.665 447.616C773.106 448.654 772.347 449.252 771.671 449.604C772.209 449.286 772.783 448.761 773.19 447.884C774.026 446.047 773.789 444.576 772.724 442.902C771.666 441.222 769.943 440.78 768.856 441.003C768.682 441.04 768.513 441.1 768.364 441.169C768.637 441 768.929 440.855 769.271 440.771C770.495 440.465 772.383 440.825 773.456 442.493C774.536 444.154 774.721 445.655 773.665 447.616Z" fill="#B9542F"/>
<path id="Vector (Stroke)" fill-rule="evenodd" clip-rule="evenodd" d="M769.263 440.74C768.916 440.824 768.621 440.972 768.346 441.141L768.376 441.198C768.523 441.13 768.691 441.071 768.862 441.034C769.936 440.814 771.646 441.25 772.696 442.919L772.696 442.919C773.227 443.754 773.551 444.535 773.638 445.335C773.725 446.135 773.577 446.956 773.16 447.87C772.756 448.74 772.187 449.262 771.654 449.576L771.685 449.632C772.366 449.277 773.13 448.675 773.692 447.631L773.692 447.631C774.222 446.647 774.442 445.775 774.393 444.94C774.343 444.105 774.024 443.309 773.482 442.475C772.4 440.794 770.497 440.431 769.263 440.74ZM768.735 440.999C768.904 440.918 769.083 440.85 769.278 440.802L769.278 440.802C770.491 440.498 772.364 440.855 773.428 442.51L773.428 442.51C773.967 443.338 774.28 444.123 774.329 444.944C774.378 445.764 774.162 446.624 773.636 447.601C773.262 448.295 772.798 448.791 772.33 449.148C772.658 448.84 772.969 448.433 773.218 447.897L773.218 447.897C773.638 446.974 773.79 446.142 773.701 445.328C773.613 444.515 773.285 443.724 772.75 442.885C771.685 441.193 769.949 440.746 768.849 440.971L768.849 440.971L768.849 440.971C768.811 440.979 768.773 440.989 768.735 440.999Z" fill="#7D2B1B"/>
</g>
<g id="Group 6">
<path id="Vector_2" d="M773.183 447.876C772.776 448.753 772.202 449.279 771.665 449.596C771.567 449.649 771.469 449.702 771.379 449.749C771.394 449.737 771.41 449.724 771.433 449.705C771.772 449.459 772.093 449.047 772.279 448.373C772.709 446.762 772.344 445.355 771.316 443.664C770.288 441.972 768.89 441.346 768.067 441.42C768.031 441.423 767.995 441.427 767.952 441.436C767.916 441.439 767.887 441.45 767.843 441.46C768.005 441.343 768.172 441.233 768.359 441.147C768.508 441.078 768.67 441.025 768.851 440.981C769.938 440.759 771.654 441.206 772.719 442.88C773.783 444.569 774.026 446.047 773.183 447.876Z" fill="#B9542F"/>
<path id="Vector (Stroke)_2" fill-rule="evenodd" clip-rule="evenodd" d="M767.701 441.523L767.85 441.491C767.866 441.487 767.88 441.483 767.893 441.48C767.899 441.479 767.903 441.478 767.908 441.476C767.925 441.472 767.939 441.469 767.955 441.468L767.957 441.468L767.959 441.467C768 441.458 768.034 441.455 768.07 441.452C768.876 441.379 770.265 441.995 771.289 443.68C772.314 445.367 772.675 446.765 772.248 448.365C772.064 449.032 771.746 449.438 771.414 449.68L771.413 449.681L771.359 449.724L771.394 449.777C771.484 449.73 771.582 449.677 771.68 449.624L771.681 449.623C772.223 449.303 772.802 448.773 773.212 447.889C773.636 446.971 773.787 446.138 773.698 445.322C773.609 444.506 773.279 443.71 772.746 442.863L772.746 442.863C771.673 441.178 769.945 440.725 768.845 440.95L768.844 440.95C768.66 440.994 768.497 441.048 768.345 441.118C768.156 441.205 767.986 441.316 767.824 441.434L767.701 441.523ZM767.988 441.397C768.109 441.315 768.236 441.239 768.372 441.176C768.519 441.108 768.678 441.056 768.858 441.012C769.932 440.792 771.634 441.235 772.692 442.897C773.222 443.739 773.547 444.526 773.634 445.329C773.722 446.131 773.574 446.952 773.154 447.862C772.75 448.733 772.181 449.254 771.649 449.568C771.647 449.569 771.645 449.57 771.644 449.571C771.914 449.313 772.157 448.934 772.31 448.381L772.31 448.381C772.743 446.759 772.374 445.343 771.344 443.647C770.312 441.949 768.903 441.313 768.064 441.388L768.064 441.388C768.04 441.391 768.015 441.393 767.988 441.397Z" fill="#7D2B1B"/>
</g>
<g id="Group 5">
<path id="Vector_3" d="M772.285 448.38C772.105 449.062 771.778 449.466 771.439 449.712C771.424 449.725 771.408 449.737 771.385 449.756C771.225 449.859 771.06 449.94 770.906 449.988C770.916 449.967 770.931 449.955 770.94 449.935C770.948 449.928 770.95 449.914 770.95 449.914C771.038 449.754 771.073 449.496 771.041 449.074C770.921 447.765 770.376 446.452 769.385 444.743C768.515 443.232 767.658 442.374 767.163 442.108C767.157 442.1 767.143 442.099 767.137 442.091C767.102 442.08 767.076 442.063 767.042 442.052C767.274 441.801 767.512 441.572 767.855 441.474C767.885 441.463 767.921 441.46 767.964 441.451C768 441.447 768.036 441.444 768.079 441.435C768.896 441.353 770.294 441.979 771.329 443.678C772.343 445.368 772.715 446.769 772.285 448.38Z" fill="#B9542F"/>
<path id="Vector (Stroke)_3" fill-rule="evenodd" clip-rule="evenodd" d="M767.845 441.445C767.493 441.545 767.251 441.78 767.018 442.031L766.984 442.068L767.032 442.083C767.047 442.088 767.06 442.094 767.076 442.101L767.076 442.102C767.089 442.108 767.104 442.114 767.12 442.12C767.122 442.121 767.124 442.123 767.126 442.124C767.13 442.126 767.134 442.128 767.136 442.129L767.137 442.129C767.138 442.13 767.139 442.13 767.14 442.131L767.142 442.134L767.148 442.137C767.391 442.267 767.726 442.545 768.11 442.981C768.493 443.415 768.923 444.006 769.358 444.76C770.348 446.467 770.89 447.775 771.009 449.078C771.041 449.498 771.005 449.748 770.922 449.9L770.919 449.905L770.918 449.911C770.918 449.911 770.918 449.911 770.918 449.911C770.918 449.911 770.918 449.912 770.918 449.912C770.918 449.912 770.918 449.912 770.918 449.913L770.915 449.915L770.911 449.922C770.908 449.929 770.904 449.934 770.898 449.943L770.897 449.943C770.892 449.951 770.883 449.962 770.877 449.975L770.848 450.04L770.916 450.019C771.073 449.971 771.24 449.888 771.402 449.784L771.404 449.783L771.459 449.739C771.803 449.487 772.134 449.077 772.316 448.389C772.749 446.766 772.373 445.357 771.356 443.663L771.356 443.663C770.318 441.957 768.909 441.321 768.076 441.404L768.074 441.404L768.072 441.405C768.031 441.414 767.997 441.417 767.961 441.42L767.959 441.42L767.957 441.42C767.943 441.424 767.929 441.426 767.916 441.428C767.91 441.429 767.904 441.43 767.899 441.431C767.881 441.435 767.863 441.439 767.845 441.445ZM767.097 442.041C767.319 441.804 767.545 441.596 767.864 441.506L767.865 441.506L767.866 441.505C767.878 441.501 767.892 441.497 767.91 441.494C767.915 441.493 767.92 441.492 767.926 441.491C767.939 441.489 767.954 441.486 767.969 441.483C768.004 441.48 768.04 441.477 768.084 441.467C768.885 441.388 770.272 442.004 771.301 443.696C772.313 445.381 772.681 446.773 772.254 448.373C772.076 449.048 771.753 449.445 771.42 449.687L771.419 449.688L771.366 449.731C771.237 449.814 771.105 449.883 770.979 449.93C770.98 449.928 770.98 449.927 770.98 449.926C771.071 449.757 771.105 449.491 771.073 449.073L771.073 449.072C770.952 447.756 770.404 446.438 769.413 444.728C768.977 443.971 768.544 443.377 768.157 442.938C767.774 442.503 767.434 442.219 767.182 442.083C767.179 442.08 767.176 442.078 767.173 442.076C767.17 442.074 767.166 442.072 767.164 442.071L767.163 442.071C767.162 442.07 767.16 442.07 767.16 442.07L767.155 442.064L767.146 442.061C767.131 442.057 767.118 442.05 767.102 442.043L767.102 442.043C767.1 442.042 767.098 442.042 767.097 442.041Z" fill="#7D2B1B"/>
</g>
<g id="Group 4">
<path id="Vector_4" d="M771.042 449.06C771.082 449.475 771.04 449.74 770.951 449.9C770.944 449.907 770.942 449.921 770.942 449.921C770.933 449.941 770.917 449.953 770.908 449.974C770.801 450.111 770.686 450.19 770.588 450.244C770.475 450.309 770.363 450.361 770.192 450.371C770.17 450.375 770.156 450.374 770.128 450.371C770.114 450.369 770.114 450.369 770.1 450.368C769.918 450.348 769.673 450.251 769.34 449.995C768.306 449.203 767.482 448.051 766.553 446.293C765.736 444.752 765.459 443.581 765.499 443.011C765.501 442.997 765.502 442.983 765.502 442.983C765.507 442.941 765.51 442.913 765.521 442.879C765.53 442.859 765.525 442.837 765.535 442.817C765.563 442.756 765.59 442.695 765.624 442.642C765.806 442.343 766.043 442.242 766.104 442.206C766.165 442.17 766.356 442.042 766.664 442.011C766.757 442 766.87 441.998 766.982 442.01C766.996 442.012 767.017 442.021 767.037 442.03C767.071 442.041 767.098 442.058 767.132 442.069C767.138 442.077 767.152 442.078 767.158 442.086C767.165 442.094 767.165 442.094 767.179 442.095C767.278 442.156 767.398 442.225 767.528 442.339C768.022 442.746 768.695 443.535 769.387 444.729C770.376 446.451 770.921 447.764 771.042 449.06Z" fill="#B9542F"/>
<path id="Vector (Stroke)_4" fill-rule="evenodd" clip-rule="evenodd" d="M765.597 442.625C765.562 442.68 765.534 442.743 765.506 442.802L765.506 442.804C765.499 442.818 765.497 442.833 765.496 442.843C765.496 442.844 765.496 442.844 765.496 442.845C765.495 442.856 765.494 442.861 765.492 442.866L765.491 442.868L765.49 442.87C765.479 442.907 765.475 442.938 765.471 442.979L765.471 442.98M765.597 442.625C765.763 442.353 765.975 442.239 766.061 442.193C766.072 442.187 766.081 442.182 766.088 442.178C766.092 442.176 766.097 442.173 766.102 442.169C766.176 442.124 766.367 442.008 766.66 441.979C766.756 441.968 766.872 441.966 766.986 441.978C766.997 441.98 767.009 441.984 767.019 441.988C767.029 441.991 767.039 441.996 767.049 442C767.067 442.006 767.083 442.014 767.097 442.02L767.098 442.021C767.113 442.028 767.127 442.034 767.142 442.038L767.151 442.041L767.155 442.047C767.156 442.047 767.157 442.048 767.159 442.048L767.159 442.049C767.161 442.05 767.165 442.051 767.169 442.054C767.172 442.056 767.177 442.059 767.181 442.063L767.182 442.063L767.189 442.064L767.195 442.068C767.202 442.072 767.21 442.077 767.217 442.081C767.312 442.139 767.426 442.207 767.548 442.314C768.047 442.725 768.721 443.517 769.414 444.713L769.415 444.713C770.404 446.437 770.952 447.754 771.074 449.057C771.114 449.474 771.072 449.747 770.979 449.916L770.976 449.921L770.974 449.923C770.974 449.923 770.974 449.924 770.974 449.924C770.974 449.924 770.974 449.924 770.974 449.924C770.974 449.924 770.974 449.924 770.974 449.924L770.973 449.929L770.971 449.934C770.965 449.947 770.957 449.958 770.951 449.965L770.95 449.966C770.944 449.975 770.94 449.98 770.937 449.987L770.935 449.99L770.933 449.993C770.823 450.134 770.704 450.217 770.604 450.271C770.489 450.338 770.372 450.392 770.196 450.402C770.171 450.407 770.152 450.405 770.126 450.403L770.097 450.399C769.907 450.379 769.657 450.278 769.321 450.02C768.282 449.224 767.455 448.067 766.525 446.307C766.116 445.535 765.841 444.855 765.674 444.297C765.507 443.739 765.447 443.299 765.468 443.009L765.471 442.98M766.092 442.249C766.103 442.242 766.113 442.237 766.12 442.233C766.125 442.23 766.13 442.227 766.135 442.224C766.208 442.18 766.388 442.07 766.667 442.043L766.667 442.043C766.758 442.032 766.869 442.03 766.979 442.042C766.982 442.042 766.987 442.044 766.996 442.047C767.004 442.05 767.013 442.054 767.024 442.059L767.026 442.06L767.027 442.061C767.042 442.065 767.056 442.071 767.071 442.079L767.072 442.079C767.085 442.085 767.099 442.091 767.115 442.097C767.118 442.099 767.12 442.1 767.122 442.101C767.125 442.103 767.129 442.105 767.132 442.106L767.132 442.106C767.134 442.107 767.135 442.108 767.135 442.108C767.138 442.111 767.144 442.118 767.152 442.122C767.157 442.124 767.162 442.125 767.165 442.126C767.166 442.126 767.167 442.126 767.168 442.126C767.173 442.129 767.179 442.132 767.184 442.136C767.279 442.193 767.389 442.259 767.507 442.362L767.508 442.363C767.998 442.768 768.668 443.553 769.359 444.745C770.348 446.466 770.89 447.774 771.011 449.063C771.05 449.472 771.008 449.728 770.926 449.881C770.918 449.889 770.915 449.898 770.913 449.903C770.913 449.906 770.912 449.908 770.911 449.91C770.909 449.916 770.905 449.921 770.9 449.928L770.899 449.928C770.894 449.935 770.887 449.945 770.881 449.956C770.778 450.088 770.667 450.164 770.573 450.215L770.572 450.216C770.461 450.28 770.354 450.329 770.19 450.339L770.188 450.339L770.185 450.339C770.169 450.343 770.16 450.342 770.132 450.339L770.104 450.336C769.929 450.317 769.69 450.223 769.359 449.97C768.331 449.182 767.51 448.035 766.582 446.278C766.174 445.509 765.901 444.833 765.735 444.278C765.569 443.724 765.511 443.294 765.531 443.014L765.532 443.004L765.532 443.004L765.532 443.003L765.534 442.987L765.534 442.987L765.534 442.987C765.539 442.945 765.541 442.92 765.551 442.89C765.557 442.876 765.558 442.862 765.559 442.853C765.559 442.852 765.559 442.852 765.559 442.851C765.561 442.84 765.562 442.835 765.564 442.83C765.592 442.769 765.619 442.71 765.651 442.66L765.652 442.659C765.807 442.402 766.005 442.296 766.092 442.249Z" fill="#7D2B1B"/>
</g>
<g id="Group 3">
<path id="Vector_5" d="M769.463 450.817C768.805 451.206 767.891 451.532 766.716 451.454C764.492 451.313 763.314 450.356 762.474 448.565C761.628 446.766 762.338 444.98 763.242 444.1C763.502 443.852 763.769 443.675 764.06 443.544C763.916 443.634 763.784 443.74 763.663 443.876C762.896 444.672 762.358 446.37 763.22 448.157C764.081 449.943 765.199 450.936 767.198 451.195C768.155 451.32 768.907 451.111 769.463 450.817Z" fill="#B9542F"/>
<path id="Vector (Stroke)_5" fill-rule="evenodd" clip-rule="evenodd" d="M764.047 443.514C763.753 443.647 763.483 443.826 763.22 444.076L763.219 444.076L763.219 444.076C762.309 444.964 761.592 446.764 762.445 448.578C762.867 449.477 763.374 450.169 764.058 450.654C764.741 451.139 765.598 451.415 766.714 451.486C767.896 451.564 768.816 451.236 769.479 450.844L769.448 450.788C768.897 451.079 768.152 451.287 767.202 451.163L767.202 451.163C766.207 451.034 765.434 450.723 764.802 450.223C764.17 449.723 763.678 449.033 763.248 448.143C762.392 446.368 762.928 444.684 763.686 443.898L763.687 443.897L763.687 443.897C763.805 443.764 763.935 443.659 764.077 443.57L764.047 443.514ZM763.739 443.751C763.705 443.784 763.672 443.818 763.639 443.854C762.864 444.659 762.323 446.372 763.191 448.17C763.623 449.066 764.121 449.765 764.763 450.273C765.405 450.781 766.19 451.096 767.194 451.226C767.766 451.301 768.266 451.257 768.695 451.147C768.148 451.349 767.49 451.473 766.718 451.422L766.718 451.422C765.611 451.352 764.766 451.078 764.095 450.602C763.423 450.125 762.921 449.443 762.503 448.551L762.503 448.551C761.663 446.767 762.368 444.995 763.264 444.122C763.419 443.975 763.576 443.853 763.739 443.751Z" fill="#7D2B1B"/>
</g>
<g id="Group 2">
<path id="Vector_6" d="M769.735 450.662C769.651 450.717 769.554 450.77 769.456 450.823C768.899 451.117 768.147 451.326 767.19 451.201C765.192 450.943 764.074 449.95 763.212 448.163C762.35 446.377 762.889 444.678 763.655 443.883C763.782 443.755 763.922 443.642 764.052 443.55C764.22 443.441 764.407 443.355 764.592 443.283C764.568 443.301 764.544 443.334 764.512 443.359C764.488 443.392 764.464 443.411 764.44 443.443C763.937 444.09 763.73 445.612 764.615 447.38C765.506 449.156 766.497 450.212 768.088 450.697C768.767 450.905 769.283 450.847 769.668 450.691C769.698 450.68 769.72 450.675 769.735 450.662Z" fill="#B9542F"/>
<path id="Vector (Stroke)_6" fill-rule="evenodd" clip-rule="evenodd" d="M764.034 443.524C763.902 443.617 763.761 443.731 763.632 443.86L763.632 443.861L763.632 443.861C762.856 444.666 762.315 446.379 763.183 448.178C763.615 449.074 764.113 449.773 764.755 450.281C765.397 450.789 766.182 451.103 767.186 451.233C768.15 451.359 768.909 451.149 769.47 450.852L769.471 450.852L769.471 450.851C769.564 450.801 769.658 450.75 769.74 450.698C769.745 450.695 769.75 450.691 769.755 450.688L769.718 450.636C769.714 450.638 769.711 450.64 769.708 450.642C769.705 450.644 769.701 450.646 769.696 450.647C769.691 450.649 769.686 450.651 769.68 450.653L769.679 450.653C769.672 450.656 769.665 450.658 769.657 450.661L769.656 450.661L769.656 450.661C769.278 450.815 768.77 450.872 768.097 450.666L768.097 450.666C766.517 450.186 765.532 449.137 764.643 447.366C763.761 445.605 763.972 444.097 764.465 443.463L764.465 443.463L764.465 443.463C764.476 443.448 764.487 443.436 764.499 443.423L764.5 443.423C764.511 443.411 764.523 443.398 764.535 443.382C764.552 443.368 764.566 443.354 764.578 443.341C764.579 443.34 764.579 443.339 764.58 443.339C764.593 443.325 764.602 443.315 764.611 443.308L764.773 443.178L764.58 443.253C764.394 443.326 764.205 443.413 764.035 443.524L764.034 443.524L764.034 443.524ZM769.426 450.803C768.876 451.09 768.135 451.293 767.194 451.17L767.194 451.17C766.2 451.041 765.426 450.73 764.795 450.231C764.163 449.731 763.67 449.04 763.241 448.15C762.385 446.376 762.921 444.691 763.678 443.905C763.803 443.779 763.941 443.668 764.07 443.577C764.193 443.497 764.325 443.43 764.461 443.371C764.458 443.374 764.455 443.377 764.453 443.38L764.452 443.38C764.44 443.393 764.427 443.407 764.414 443.424C763.902 444.084 763.698 445.62 764.586 447.395L764.586 447.395C765.48 449.175 766.476 450.24 768.078 450.727C768.625 450.895 769.069 450.892 769.426 450.803Z" fill="#7D2B1B"/>
</g>
<g id="Group 1">
<path id="Vector_7" d="M770.184 450.378C770.06 450.478 769.914 450.583 769.735 450.663C769.713 450.667 769.698 450.68 769.676 450.685C769.291 450.841 768.774 450.899 768.096 450.69C766.504 450.206 765.508 449.142 764.622 447.374C763.731 445.599 763.945 444.084 764.447 443.437C764.472 443.405 764.489 443.378 764.52 443.353C764.545 443.32 764.568 443.302 764.599 443.277C764.866 443.036 765.187 442.958 765.519 442.895C765.516 442.923 765.505 442.957 765.501 442.999C765.499 443.013 765.498 443.027 765.498 443.027C765.457 443.596 765.734 444.767 766.552 446.308C767.474 448.058 768.299 449.21 769.338 450.01C769.672 450.266 769.916 450.363 770.098 450.383C770.112 450.385 770.112 450.385 770.126 450.386C770.148 450.381 770.162 450.383 770.184 450.378Z" fill="#B9542F"/>
<path id="Vector (Stroke)_7" fill-rule="evenodd" clip-rule="evenodd" d="M764.578 443.252L764.578 443.252C764.548 443.276 764.523 443.296 764.497 443.33C764.469 443.353 764.451 443.378 764.433 443.402C764.429 443.407 764.425 443.412 764.422 443.417C763.909 444.077 763.699 445.606 764.594 447.388C765.481 449.16 766.483 450.233 768.086 450.72C768.77 450.93 769.293 450.873 769.685 450.714C769.699 450.711 769.71 450.706 769.718 450.702L769.719 450.702C769.728 450.698 769.735 450.695 769.742 450.693L769.745 450.693L769.748 450.691C769.93 450.61 770.079 450.503 770.204 450.403L770.309 450.318L770.177 450.347C770.168 450.348 770.161 450.349 770.152 450.35L770.152 450.35C770.144 450.351 770.135 450.351 770.125 450.353L770.102 450.351C769.928 450.332 769.689 450.238 769.357 449.984C768.323 449.189 767.501 448.042 766.58 446.292C766.172 445.524 765.899 444.848 765.733 444.293C765.568 443.739 765.51 443.308 765.529 443.029L765.532 443.002C765.534 442.982 765.538 442.965 765.542 442.947C765.542 442.946 765.542 442.944 765.543 442.942C765.546 442.927 765.549 442.912 765.551 442.897L765.555 442.855L765.513 442.863C765.18 442.926 764.852 443.006 764.578 443.252ZM765.466 443.023L765.466 443.024C765.445 443.314 765.505 443.754 765.672 444.312C765.839 444.87 766.114 445.55 766.523 446.322C767.446 448.074 768.273 449.231 769.319 450.035C769.65 450.289 769.897 450.391 770.086 450.413C769.982 450.492 769.863 450.57 769.725 450.632C769.712 450.635 769.701 450.64 769.693 450.644L769.692 450.644C769.682 450.649 769.676 450.651 769.669 450.653L769.666 450.653L769.664 450.654C769.286 450.808 768.777 450.866 768.105 450.659C766.525 450.179 765.534 449.123 764.651 447.359C763.763 445.59 763.98 444.09 764.472 443.456L764.472 443.456C764.477 443.45 764.481 443.444 764.485 443.439C764.504 443.413 764.518 443.395 764.54 443.377L764.543 443.375L764.545 443.372C764.567 443.343 764.588 443.326 764.619 443.301L764.62 443.3L764.62 443.3C764.868 443.077 765.164 442.996 765.479 442.934C765.479 442.934 765.479 442.934 765.479 442.934C765.475 442.952 765.471 442.972 765.469 442.995L765.466 443.023L765.466 443.023Z" fill="#7D2B1B"/>
</g>
</g>
</g>
<g id="whole-plant">
<g id="baby plant split">
<path id="right plant" fill-rule="evenodd" clip-rule="evenodd" d="M658.348 604.747C648.984 606.366 637.494 610.077 638.043 618.86C639.002 632.01 622.838 632.557 622.838 632.557C622.838 632.557 628.865 610.367 645.028 603.519C651.047 600.917 656.685 600.196 661.103 600.337C666.487 599.76 674.849 600.291 683.261 606.454C691.828 612.731 693.92 619.058 695.448 623.679C696.438 626.672 697.191 628.948 699.312 630.032C699.312 630.032 682.154 624.793 675.651 618.312C674.966 617.63 674.27 616.924 673.566 616.21C668.7 611.276 663.415 605.916 658.348 604.747Z" fill="#45825B"/>
<path id="left plant" fill-rule="evenodd" clip-rule="evenodd" d="M585.218 608.183C592.422 603.191 599.349 606.103 599.349 606.103C599.349 606.103 599.451 606.17 599.604 606.278C603.778 607.23 610.875 609.408 615.491 611.139C623.162 614.015 630.696 621.823 629.6 628.124C628.367 634.288 621.381 631.548 621.381 631.548C621.381 631.548 622.203 616.344 610.286 612.235C602.423 609.445 599.675 608.272 598.368 607.558C595.589 607.714 592.516 610.699 589.741 613.393C589.43 613.695 589.122 613.994 588.82 614.284C585.495 617.474 576.905 619.831 576.905 619.831C577.994 619.286 578.398 618.141 578.925 616.649C579.739 614.345 580.845 611.213 585.218 608.183Z" fill="#45825B"/>
</g>
<g id="baby pumpkin plant">
<path id="stem-right" d="M633.364 623.837C633.364 623.837 632.519 601.367 633.645 595.887C634.772 590.406 636.462 587.255 634.49 581.775C632.519 576.294 635.054 571.362 636.181 569.718C637.307 568.073 636.462 565.059 633.082 567.662C629.842 570.266 631.251 578.897 631.251 581.09C631.392 594.928 618.011 606.985 626.18 623.974C634.35 640.964 633.364 623.837 633.364 623.837Z" fill="#45825B"/>
<path id="big-leaf-right" d="M635.361 566.703C635.361 566.703 647.062 557.7 663.581 563.478C679.962 569.256 679.549 580.006 685.468 581.215C685.468 581.215 667.71 581.081 659.589 576.781C651.467 572.481 642.106 566.569 635.912 569.794C629.717 572.884 635.361 566.703 635.361 566.703Z" fill="#45825B"/>
<path id="morph-right-leaf" d="M636.485 567.198C636.085 566.398 634.652 566.864 633.985 567.198C632.985 568.198 634.985 568.697 635.985 569.197C636.985 569.697 636.985 568.198 636.485 567.198Z" fill="#45825B"/>
<path id="morph-right-plant" d="M632.979 627.083C633.356 627.836 632.979 631.007 631.877 631.383C630.238 631.383 630.211 630.577 629.324 628.803C628.437 627.029 632.603 626.33 632.979 627.083Z" fill="#45825B"/>
<path id="stem-left" d="M633.364 623.837C633.364 623.837 632.519 601.367 633.645 595.887C634.772 590.406 636.462 587.255 634.49 581.775C632.519 576.294 635.054 571.362 636.181 569.718C637.307 568.073 636.462 565.059 633.082 567.662C629.842 570.266 631.251 578.897 631.251 581.09C631.392 594.928 618.011 606.985 626.18 623.974C634.35 640.964 633.364 623.837 633.364 623.837Z" fill="#45825B"/>
<path id="small-leaf-left" d="M634.751 566.426C634.751 566.426 629.003 561.701 621.116 564.758C613.095 567.815 613.362 573.234 610.421 573.929C610.421 573.929 619.11 573.79 622.987 571.567C626.864 569.344 631.542 566.287 634.483 567.954C637.558 569.621 634.751 566.426 634.751 566.426Z" fill="#45825B"/>
<path id="morph-left-leaf" d="M634.358 566.713C633.469 566.616 633.085 568.074 633.004 568.815C633.304 570.197 634.807 568.786 635.768 568.216C636.73 567.646 635.469 566.834 634.358 566.713Z" fill="#45825B"/>
<path id="morph-left-plant" d="M632.979 627.083C633.356 627.836 632.979 631.007 631.877 631.383C630.238 631.383 630.211 630.577 629.324 628.803C628.437 627.029 632.603 626.33 632.979 627.083Z" fill="#45825B"/>
</g>
<g id="p-plant3">
<path id="stem3 (Stroke)" fill-rule="evenodd" clip-rule="evenodd" d="M560.286 552.514C562.053 548.768 566.523 547.163 570.269 548.93C587.292 556.96 600.645 570.803 610.346 584.365C620.07 597.958 626.521 611.822 629.543 620.691C630.879 624.612 628.783 628.873 624.862 630.209C620.942 631.545 616.68 629.45 615.344 625.529C612.78 618.004 606.991 605.456 598.146 593.092C589.28 580.698 577.739 569.039 563.87 562.497C560.123 560.73 558.519 556.26 560.286 552.514Z" fill="#45825B"/>
<g id="leaf-head3">
<path id="morph-leaf3" d="M572.534 555.714C572.534 558.933 570.087 561.543 567.069 561.543C564.051 561.543 561.604 558.933 561.604 555.714C561.604 552.494 564.051 549.885 567.069 549.885C570.087 549.885 572.534 552.494 572.534 555.714Z" fill="#45825B"/>
<path id="leaf3" d="M571.173 580.057C576.35 570.347 567.264 559.444 562.074 555.206C566.074 556.6 575.642 557.354 581.914 549.221C589.754 539.056 589.306 534.975 581.656 526.89C574.006 518.805 561.322 519.807 556.016 520.015C550.71 520.223 540.682 514.673 537.316 520.043C533.951 525.412 526.311 524.807 514.741 530.121C503.171 535.436 514.374 540.834 513.256 545.117C512.138 549.4 521.207 559.848 518.153 567.008C515.098 574.168 516.825 570.283 532.135 581.597C547.445 592.911 564.702 592.194 571.173 580.057Z" fill="#2F573E"/>
<g id="leaf-lines3">
<path id="main-line3 (Stroke)" fill-rule="evenodd" clip-rule="evenodd" d="M510.985 533.176C511.325 532.764 511.936 532.705 512.349 533.046C514.912 535.16 519.297 538.364 524.085 541.069C528.908 543.794 533.991 545.927 537.993 546.065C548.656 546.433 557.705 547.67 565.26 555.631C565.628 556.019 565.612 556.633 565.224 557.001C564.836 557.369 564.222 557.353 563.854 556.965C556.864 549.599 548.514 548.367 537.926 548.002C533.427 547.847 527.997 545.505 523.132 542.756C518.231 539.987 513.753 536.717 511.115 534.54C510.703 534.2 510.644 533.589 510.985 533.176Z" fill="#54A06F"/>
<path id="outward-lines3 (Stroke)" fill-rule="evenodd" clip-rule="evenodd" d="M520.527 530.491C521.038 530.65 521.323 531.193 521.164 531.704C519.976 535.519 520.814 538.273 521.249 539.03C521.516 539.494 521.356 540.086 520.892 540.353C520.428 540.619 519.835 540.459 519.569 539.995C518.84 538.726 517.981 535.407 519.313 531.128C519.472 530.617 520.016 530.332 520.527 530.491ZM519.464 555.054C518.958 554.878 518.691 554.325 518.868 553.82C520.716 548.514 524.844 544.47 526.71 543.08C527.139 542.761 527.746 542.849 528.066 543.279C528.386 543.708 528.297 544.315 527.868 544.634C526.201 545.876 522.379 549.63 520.698 554.458C520.522 554.963 519.969 555.23 519.464 555.054ZM537.565 539.204C537.708 542.247 538.528 545.055 539.227 546.683C539.438 547.175 539.211 547.745 538.719 547.956C538.228 548.167 537.658 547.94 537.447 547.448C536.667 545.633 535.784 542.596 535.629 539.295C535.474 535.999 536.041 532.32 538.298 529.352C538.622 528.926 539.23 528.844 539.656 529.168C540.082 529.492 540.165 530.1 539.841 530.526C537.962 532.995 537.422 536.157 537.565 539.204ZM534.47 554.434C537.997 550.995 541.824 548.236 544.291 546.737C544.748 546.459 545.344 546.604 545.622 547.061C545.9 547.519 545.755 548.115 545.298 548.393C542.943 549.824 539.234 552.495 535.823 555.822C532.393 559.166 529.365 563.075 528.218 566.972C528.067 567.485 527.529 567.779 527.015 567.628C526.502 567.477 526.208 566.939 526.359 566.425C527.646 562.049 530.96 557.856 534.47 554.434ZM554.538 522.318C548.349 534.291 553.305 545.184 556.508 549.084C556.848 549.497 556.788 550.108 556.374 550.447C555.961 550.787 555.35 550.727 555.011 550.314C551.476 546.01 546.169 534.288 552.817 521.428C553.062 520.952 553.647 520.766 554.122 521.012C554.598 521.258 554.784 521.842 554.538 522.318ZM543.434 576.968C542.928 576.792 542.661 576.239 542.837 575.734C547.495 562.364 557.467 555.667 562.005 553.961C562.506 553.773 563.065 554.026 563.253 554.527C563.441 555.028 563.188 555.587 562.687 555.775C558.622 557.303 549.114 563.607 544.667 576.372C544.491 576.877 543.939 577.144 543.434 576.968Z" fill="#54A06F"/>
</g>
</g>
</g>
<g id="p-plant1">
<path id="stem1 (Stroke)" fill-rule="evenodd" clip-rule="evenodd" d="M782.165 478.228C768.206 476.319 750.757 477.835 726.86 485.947C689.514 498.626 665.61 524.086 650.814 551.068C635.946 578.183 630.455 606.549 629.94 624.059C629.818 628.2 626.363 631.457 622.223 631.336C618.083 631.214 614.825 627.759 614.947 623.618C615.525 603.969 621.546 573.245 637.662 543.856C653.85 514.335 680.402 485.878 722.038 471.744C747.504 463.098 767.351 461.062 784.198 463.366C801.067 465.672 814.252 472.246 826.357 479.64C830.342 482.075 834.202 484.582 838.047 487.077C857.582 499.761 876.705 512.178 909.84 513.612C913.978 513.791 917.188 517.291 917.009 521.429C916.829 525.568 913.329 528.777 909.191 528.598C871.681 526.974 849.032 512.194 829.323 499.332C825.652 496.936 822.082 494.606 818.537 492.441C807.235 485.537 796.102 480.133 782.165 478.228Z" fill="#45825B"/>
<g id="leaf-head1">
<path id="leaf-morph1" d="M914.979 521.105C914.979 524.123 912.533 526.57 909.515 526.57C906.497 526.57 904.05 524.123 904.05 521.105C904.05 518.087 906.497 515.641 909.515 515.641C912.533 515.641 914.979 518.087 914.979 521.105Z" fill="#45825B"/>
<path id="leaf1" d="M889.876 475.218C881.788 496.441 903.216 516.416 914.94 523.751C906.388 521.932 886.599 522.865 875.861 541.141C862.438 563.986 864.41 572.227 882.168 586.803C899.926 601.379 925.641 596.046 936.452 594.247C947.263 592.449 969.236 601.217 974.738 589.351C980.24 577.485 996.04 576.747 1018.36 562.87C1040.68 548.992 1016.34 540.838 1017.52 531.778C1018.7 522.718 997.423 503.669 1001.83 488.218C1006.23 472.766 1003.7 481.167 969.418 461.961C935.139 442.755 899.985 448.689 889.876 475.218Z" fill="#2F573E"/>
<g id="leaf-lines1">
<path id="main-line1 (Stroke)" fill-rule="evenodd" clip-rule="evenodd" d="M1017.21 551.513C1016.69 552.485 1015.48 552.849 1014.5 552.324C1009.06 549.391 999.887 545.005 990.115 541.419C980.279 537.809 970.105 535.112 962.564 535.346C942.631 535.966 925.502 535.085 908.996 523.865C908.082 523.244 907.845 522 908.466 521.087C909.087 520.173 910.331 519.936 911.244 520.557C926.629 531.015 942.631 531.964 962.44 531.348C970.796 531.089 981.584 534.027 991.493 537.664C1001.47 541.323 1010.82 545.792 1016.4 548.803C1017.38 549.328 1017.74 550.541 1017.21 551.513Z" fill="#54A06F"/>
<path id="outward-lines1 (Stroke)" fill-rule="evenodd" clip-rule="evenodd" d="M1006.42 563.614C1005.33 563.42 1004.6 562.382 1004.8 561.294C1006.24 553.176 1003.81 547.753 1002.73 546.316C1002.06 545.435 1002.24 544.181 1003.12 543.515C1004 542.849 1005.25 543.023 1005.92 543.904C1007.74 546.314 1010.36 552.889 1008.74 561.995C1008.54 563.083 1007.5 563.808 1006.42 563.614ZM1000.67 513.238C1001.75 513.468 1002.44 514.53 1002.21 515.61C999.799 526.954 992.392 536.303 988.93 539.633C988.134 540.398 986.868 540.373 986.102 539.577C985.337 538.781 985.361 537.515 986.158 536.749C989.25 533.775 996.104 525.1 998.298 514.778C998.528 513.698 999.59 513.008 1000.67 513.238ZM969.271 550.181C968.191 543.988 965.785 538.449 963.931 535.296C963.372 534.344 963.69 533.118 964.642 532.558C965.594 531.999 966.82 532.317 967.38 533.269C969.447 536.785 972.039 542.774 973.211 549.493C974.381 556.203 974.174 563.885 970.319 570.545C969.765 571.501 968.542 571.828 967.586 571.274C966.63 570.721 966.303 569.497 966.857 568.541C970.065 562.998 970.352 556.383 969.271 550.181ZM971.457 516.521C965.124 524.477 958 531.117 953.337 534.826C952.473 535.514 951.215 535.371 950.527 534.506C949.839 533.642 949.983 532.383 950.847 531.696C955.298 528.155 962.201 521.726 968.327 514.03C974.485 506.295 979.674 497.506 981.013 489.23C981.189 488.139 982.216 487.398 983.307 487.575C984.397 487.751 985.138 488.778 984.962 489.868C983.458 499.163 977.758 508.606 971.457 516.521ZM938.623 587.093C948.199 560.972 935.23 539.949 927.662 532.792C926.86 532.033 926.825 530.767 927.584 529.965C928.343 529.162 929.608 529.127 930.411 529.886C938.762 537.783 952.664 560.413 942.379 588.47C941.999 589.507 940.85 590.039 939.813 589.659C938.776 589.279 938.243 588.13 938.623 587.093ZM947.48 474.369C948.561 474.599 949.25 475.661 949.02 476.741C942.943 505.325 924.255 521.62 915.404 526.287C914.427 526.802 913.218 526.428 912.702 525.451C912.187 524.474 912.562 523.264 913.539 522.749C921.467 518.569 939.306 503.199 945.108 475.909C945.338 474.829 946.4 474.139 947.48 474.369Z" fill="#54A06F"/>
</g>
</g>
</g>
<g id="p-plant2">
<path id="stem2 (Stroke)" fill-rule="evenodd" clip-rule="evenodd" d="M592.297 514.727C620.607 548.359 630.056 594.19 630.307 625.966C630.34 630.108 627.009 633.492 622.867 633.525C618.725 633.557 615.34 630.226 615.308 626.084C615.073 596.414 606.125 554.448 580.821 524.387C568.275 509.482 551.699 497.475 529.975 491.184C508.207 484.881 480.806 484.187 446.464 492.684C442.443 493.679 438.377 491.226 437.382 487.205C436.387 483.184 438.84 479.118 442.861 478.123C479.194 469.133 509.338 469.592 534.147 476.776C559.001 483.973 578.036 497.785 592.297 514.727Z" fill="#45825B"/>
<g id="leaf-head2">
<path id="morph-leaf2" d="M450.127 485.403C450.127 488.421 447.681 490.868 444.663 490.868C441.645 490.868 439.198 488.421 439.198 485.403C439.198 482.385 441.645 479.938 444.663 479.938C447.681 479.938 450.127 482.385 450.127 485.403Z" fill="#45825B"/>
<path id="leaf2" d="M458.206 450.523C465.443 465.973 450.5 482.126 442.124 488.272C448.429 486.435 463.306 486.035 472.364 499.13C483.688 515.499 482.668 521.782 470.174 533.687C457.68 545.592 438.12 543.023 429.921 542.276C421.723 541.529 405.749 549.317 400.969 540.733C396.188 532.15 384.311 532.474 366.822 523.317C349.333 514.159 367.113 506.7 365.725 499.979C364.337 493.257 379.219 477.806 375.063 466.475C370.908 455.145 373.27 461.297 397.883 445.007C422.496 428.717 449.16 431.211 458.206 450.523Z" fill="#2F573E"/>
<g id="leaf-lines2">
<path id="main-line2 (Stroke)" fill-rule="evenodd" clip-rule="evenodd" d="M367.049 514.745C367.495 515.445 368.424 515.649 369.123 515.203C373.036 512.704 379.667 508.908 386.789 505.679C393.957 502.43 401.429 499.844 407.091 499.601C422.058 498.959 434.841 497.348 446.583 488.027C447.233 487.511 447.342 486.566 446.826 485.916C446.31 485.266 445.365 485.158 444.715 485.674C433.77 494.362 421.835 495.961 406.962 496.599C400.688 496.869 392.769 499.669 385.548 502.943C378.281 506.238 371.524 510.104 367.506 512.671C366.807 513.117 366.602 514.046 367.049 514.745Z" fill="#54A06F"/>
<path id="outward-lines2 (Stroke)" fill-rule="evenodd" clip-rule="evenodd" d="M375.81 523.212C376.614 523.007 377.099 522.188 376.894 521.384C375.36 515.383 376.879 511.185 377.613 510.049C378.063 509.352 377.863 508.422 377.166 507.972C376.469 507.522 375.539 507.722 375.089 508.419C373.858 510.325 372.262 515.396 373.982 522.128C374.188 522.932 375.006 523.417 375.81 523.212ZM377.318 485.155C376.521 485.387 376.064 486.221 376.296 487.018C378.732 495.382 384.799 501.974 387.578 504.276C388.217 504.806 389.164 504.717 389.693 504.078C390.223 503.439 390.134 502.492 389.495 501.963C387.013 499.906 381.397 493.788 379.181 486.177C378.949 485.381 378.115 484.923 377.318 485.155ZM402.891 511.087C403.356 506.388 404.851 502.105 406.064 499.64C406.431 498.896 406.124 497.995 405.38 497.629C404.636 497.262 403.735 497.568 403.369 498.313C402.015 501.062 400.406 505.692 399.901 510.791C399.397 515.882 399.978 521.625 403.236 526.401C403.704 527.086 404.638 527.263 405.324 526.795C406.009 526.328 406.186 525.393 405.718 524.707C403.007 520.733 402.425 515.793 402.891 511.087ZM399.385 485.993C404.57 491.601 410.276 496.181 413.975 498.7C414.66 499.167 415.595 498.99 416.062 498.304C416.529 497.619 416.352 496.684 415.666 496.217C412.135 493.812 406.607 489.378 401.591 483.953C396.549 478.5 392.173 472.205 390.711 466.079C390.519 465.272 389.708 464.774 388.901 464.966C388.094 465.159 387.596 465.969 387.789 466.776C389.431 473.656 394.225 480.413 399.385 485.993ZM427.898 537.038C419.275 518.001 427.823 501.533 433.095 495.751C433.654 495.138 433.611 494.188 432.997 493.629C432.384 493.07 431.434 493.114 430.875 493.727C425.058 500.106 415.899 517.831 425.161 538.277C425.503 539.033 426.394 539.368 427.15 539.026C427.905 538.684 428.24 537.793 427.898 537.038ZM415.007 453.085C414.21 453.317 413.752 454.151 413.984 454.948C420.123 476.023 435.027 487.193 441.917 490.198C442.678 490.53 443.563 490.182 443.895 489.421C444.226 488.661 443.879 487.775 443.118 487.444C436.947 484.752 422.73 474.229 416.869 454.107C416.637 453.311 415.803 452.853 415.007 453.085Z" fill="#54A06F"/>
</g>
</g>
</g>
<g id="p-plant4">
<path id="stem4 (Stroke)" fill-rule="evenodd" clip-rule="evenodd" d="M510.5 420.333C513.239 420.679 515.18 423.18 514.834 425.92C513.126 439.45 517.392 451.29 523.645 460.753C529.935 470.273 538.07 477.117 543.45 480.411C545.805 481.853 546.546 484.931 545.104 487.286C543.662 489.641 540.584 490.381 538.229 488.939C531.708 484.948 522.466 477.11 515.301 466.265C508.098 455.364 502.832 441.155 504.913 424.667C505.259 421.928 507.76 419.987 510.5 420.333Z" fill="#45825B"/>
<g id="leaf-head4">
<path id="moprh-leaf4" d="M513.517 425.293C513.517 427.305 511.886 428.936 509.874 428.936C507.862 428.936 506.23 427.305 506.23 425.293C506.23 423.281 507.862 421.65 509.874 421.65C511.886 421.65 513.517 423.281 513.517 425.293Z" fill="#45825B"/>
<path id="leaf4" d="M518.771 437.166C511.818 436.036 509.79 427.179 509.646 422.893C508.804 425.47 505.476 430.635 498.901 430.675C490.684 430.724 488.779 428.913 487.63 421.881C486.48 414.849 491.911 408.778 494.074 406.156C496.238 403.535 497.303 396.276 501.342 396.644C505.382 397.013 508.037 392.888 515.232 389.058C522.427 385.228 520.83 393.026 523.445 394.118C526.06 395.21 527.862 403.882 532.693 405.104C537.524 406.326 534.876 405.698 534.699 417.884C534.521 430.069 527.462 438.579 518.771 437.166Z" fill="#2F573E"/>
<g id="leaf-lines4">
<path id="main-line4 (Stroke)" fill-rule="evenodd" clip-rule="evenodd" d="M518.102 391.131C517.759 391.12 517.473 391.389 517.463 391.731C517.404 393.647 517.153 396.792 516.596 399.972C516.035 403.173 515.176 406.323 513.941 408.309C510.674 413.562 508.247 418.295 508.691 424.469C508.715 424.811 509.012 425.068 509.354 425.044C509.695 425.019 509.952 424.722 509.928 424.381C509.514 418.626 511.748 414.184 514.994 408.965C516.363 406.763 517.253 403.411 517.818 400.186C518.387 396.941 518.642 393.737 518.703 391.77C518.713 391.427 518.444 391.141 518.102 391.131Z" fill="#54A06F"/>
<path id="outward-lines4 (Stroke)" fill-rule="evenodd" clip-rule="evenodd" d="M513.175 392.145C513.058 392.467 513.224 392.823 513.546 392.94C515.949 393.815 517.026 395.31 517.243 395.825C517.376 396.141 517.74 396.289 518.055 396.156C518.371 396.023 518.519 395.66 518.386 395.344C518.023 394.481 516.666 392.756 513.97 391.774C513.648 391.657 513.292 391.823 513.175 392.145ZM525.799 401.521C525.906 401.196 525.728 400.846 525.402 400.739C521.983 399.622 518.323 400.156 516.891 400.567C516.561 400.661 516.371 401.005 516.466 401.334C516.56 401.663 516.904 401.854 517.233 401.759C518.512 401.392 521.906 400.902 525.017 401.918C525.342 402.025 525.693 401.847 525.799 401.521ZM511.003 404.202C512.497 405.455 513.609 406.962 514.167 407.949C514.335 408.248 514.713 408.353 515.012 408.184C515.31 408.016 515.415 407.638 515.247 407.339C514.625 406.238 513.421 404.611 511.8 403.251C510.182 401.894 508.088 400.755 505.701 400.753C505.359 400.753 505.081 401.031 505.081 401.373C505.08 401.716 505.358 401.994 505.7 401.994C507.687 401.995 509.507 402.947 511.003 404.202ZM520.375 408.85C517.255 409.312 514.365 410.191 512.645 410.865C512.326 410.99 512.169 411.35 512.294 411.669C512.419 411.988 512.779 412.145 513.098 412.02C514.74 411.376 517.539 410.524 520.557 410.077C523.59 409.628 526.755 409.602 529.184 410.53C529.504 410.652 529.863 410.492 529.985 410.172C530.107 409.852 529.947 409.493 529.627 409.371C526.899 408.329 523.479 408.39 520.375 408.85ZM496.332 406.685C504.83 408.178 508.454 414.927 509.198 418.071C509.277 418.404 509.611 418.611 509.944 418.532C510.278 418.453 510.484 418.119 510.405 417.786C509.585 414.316 505.674 407.066 496.546 405.463C496.209 405.404 495.887 405.629 495.828 405.967C495.769 406.304 495.994 406.626 496.332 406.685ZM527.957 421.839C528.063 421.514 527.886 421.163 527.56 421.057C518.945 418.242 511.666 420.723 509.037 422.372C508.747 422.554 508.659 422.937 508.841 423.227C509.023 423.517 509.406 423.605 509.696 423.423C512.051 421.946 518.95 419.549 527.175 422.236C527.5 422.343 527.851 422.165 527.957 421.839Z" fill="#54A06F"/>
</g>
</g>
</g>
<g id="dirt">
<path id="dirt outline" d="M829.183 625.141L828.909 626.511C826.581 626.1 824.389 625.689 822.197 625.278C818.362 624.593 814.664 623.908 811.376 623.36C796.309 620.895 785.762 619.799 774.804 620.895C774.256 620.895 773.845 621.032 773.297 621.032C768.092 621.853 761.517 623.908 753.983 626.237C734.67 632.401 708.096 640.619 683.989 632.675C652.347 622.127 613.583 619.251 589.612 625.689C579.202 628.428 542.903 637.058 515.234 629.935C495.236 624.867 477.566 622.675 456.06 628.428C453.595 629.113 450.855 629.661 447.842 630.346C440.308 631.99 431.131 633.496 422.501 634.866C420.584 635.14 418.666 635.414 416.885 635.688L416.611 634.318C418.392 634.044 420.173 633.77 421.953 633.496C430.309 632.264 439.075 630.757 446.472 629.25C449.897 628.565 453.047 627.88 455.65 627.196C477.429 621.443 495.236 623.634 515.508 628.702C534 633.359 561.532 631.716 589.201 624.456C613.72 617.881 651.936 620.758 684.4 631.442C707.959 639.249 734.259 631.031 753.435 625.004C761.38 622.538 768.366 620.347 773.708 619.662C773.982 619.662 774.256 619.525 774.53 619.525C785.762 618.429 796.583 619.525 812.061 622.127C815.349 622.675 818.91 623.36 822.745 624.045C824.8 624.319 826.992 624.73 829.183 625.141Z" fill="#63432E"/>
<path id="large dirt" d="M822.447 625.185C812.994 645.642 772.857 661.293 750.939 670.08C725.322 680.377 738.473 717.171 687.787 726.644C637.101 736.254 612.169 693.557 550.25 702.755C488.331 711.954 496.277 680.376 459.153 667.883C438.605 661.018 427.509 647.975 422.44 634.658C431.207 633.285 440.248 631.775 447.783 630.127C450.797 629.441 453.536 628.892 456.002 628.205C477.372 622.439 495.181 624.636 515.181 629.716C542.853 636.717 579.155 628.205 589.566 625.459C613.539 619.007 652.307 622.027 683.951 632.461C707.924 640.424 734.5 632.05 753.952 626.009C761.487 623.675 768.062 621.615 773.268 620.792C773.816 620.654 774.364 620.654 774.775 620.654C785.734 619.556 796.419 620.654 811.351 623.126C814.912 623.949 818.474 624.498 822.447 625.185Z" fill="#C47B57"/>
</g>
</g>
<g id="full pum[kin">
<g id="pumpkin">
<g id="pumpkin body final">
<path id="Vector_8" d="M1114.38 222.046C1090.18 237.513 1066.72 241.342 1048.09 240.933C1063.45 240.524 1082 236.063 1101.04 222.046C1140.86 192.712 1153.01 158.247 1150.26 109.728C1147.51 61.2098 1115.95 31.2435 1090.07 23.2129C1085.79 21.8744 1081.63 21.168 1077.58 20.8706C1085.39 20.4244 1093.34 20.9449 1101.78 23.2129C1131.56 31.2435 1167.89 61.2098 1171.08 109.728C1174.24 158.284 1160.23 192.749 1114.38 222.046Z" fill="#B9542F"/>
<path id="Vector (Stroke)_8" fill-rule="evenodd" clip-rule="evenodd" d="M1094.19 23.0899C1119.84 32.8725 1149.07 62.7723 1151.73 109.646C1153.11 134.041 1150.75 155.028 1142.97 173.648C1135.17 192.283 1121.99 208.433 1101.91 223.227L1101.91 223.228C1094.34 228.798 1086.85 232.884 1079.59 235.817C1090.43 232.988 1101.92 228.27 1113.6 220.811C1136.35 206.269 1151.1 190.517 1159.79 172.474C1168.48 154.424 1171.19 133.942 1169.62 109.824C1166.47 62.0484 1130.7 32.5297 1101.4 24.6296C1098.96 23.974 1096.56 23.4672 1094.19 23.0899ZM1077.49 19.4071C1085.43 18.9537 1093.55 19.4819 1102.16 21.7973L1102.16 21.7976C1132.43 29.9592 1169.3 60.3726 1172.55 109.633L1172.55 109.634C1174.14 134.072 1171.41 155.1 1162.43 173.746C1153.44 192.399 1138.26 208.528 1115.17 223.282L1114.38 222.047L1115.17 223.282C1090.68 238.932 1066.93 242.814 1048.06 242.4L1048.06 239.468C1063.14 239.066 1081.4 234.687 1100.17 220.866C1119.9 206.326 1132.71 190.576 1140.26 172.516C1147.82 154.441 1150.17 133.936 1148.8 109.812C1146.08 61.9137 1114.94 32.466 1089.64 24.6139L1089.63 24.6129C1085.48 23.3122 1081.43 22.6239 1077.47 22.3336L1077.49 19.4071Z" fill="#7D2B1B"/>
<path id="Vector_9" d="M1101.04 222.047C1082 236.063 1063.45 240.525 1048.09 240.934C1045.38 241.008 1042.74 240.934 1040.25 240.785C1040.77 240.748 1041.33 240.673 1041.85 240.636C1052 239.409 1063.75 234.465 1075.79 222.047C1104.23 192.712 1112.9 158.248 1110.93 109.729C1108.96 61.2103 1086.43 31.244 1067.95 23.2134C1067.09 22.8416 1066.24 22.507 1065.42 22.2467C1064.56 21.9493 1063.75 21.7262 1062.89 21.5403C1067.69 20.8711 1072.6 20.5365 1077.58 20.9083C1081.63 21.2057 1085.79 21.9121 1090.07 23.2505C1115.95 31.2812 1147.51 61.2475 1150.26 109.766C1153.01 158.285 1140.86 192.75 1101.04 222.047Z" fill="#B9542F"/>
<path id="Vector (Stroke)_9" fill-rule="evenodd" clip-rule="evenodd" d="M1068.29 22.4215C1068.71 22.3889 1069.14 22.3599 1069.56 22.3348C1088.5 31.2955 1110.44 61.6776 1112.39 109.669C1114.37 158.417 1105.67 193.34 1076.85 223.067L1076.85 223.067C1068.93 231.231 1061.09 236.256 1053.71 239.133C1051.78 239.31 1049.89 239.418 1048.06 239.467L1048.05 239.467C1045.9 239.526 1043.79 239.49 1041.76 239.396L1041.74 239.173C1041.73 239.174 1041.72 239.175 1041.71 239.176C1051.48 237.986 1062.92 233.211 1074.74 221.025C1102.8 192.084 1111.42 158.078 1109.46 109.788C1107.51 61.6134 1085.15 32.2889 1067.36 24.5578L1067.36 24.5577C1066.54 24.199 1065.73 23.8844 1064.98 23.6437L1064.96 23.6377L1064.94 23.6313C1064.14 23.3554 1063.38 23.1477 1062.58 22.9728L1054.54 21.2248L1062.69 20.0876C1067.55 19.409 1072.57 19.0637 1077.69 19.4455C1081.83 19.7501 1086.11 20.4744 1090.51 21.8502C1116.96 30.0603 1148.94 60.5449 1151.73 109.683C1153.11 134.078 1150.75 155.065 1142.97 173.68C1135.17 192.311 1121.99 208.451 1101.91 223.227C1082.61 237.439 1063.76 241.983 1048.13 242.399M1048.09 240.946C1049.93 240.473 1051.8 239.874 1053.71 239.133C1067.6 237.858 1083.68 233.002 1100.17 220.866L1100.17 220.865C1119.9 206.344 1132.71 190.603 1140.26 172.548C1147.82 154.477 1150.17 133.972 1148.8 109.849C1146.08 61.9504 1114.94 32.5027 1089.63 24.6506L1089.63 24.6495C1085.48 23.3489 1081.42 22.6606 1077.47 22.3703L1077.47 22.3702C1074.82 22.1723 1072.18 22.1796 1069.56 22.3348M1048.13 242.399C1045.37 242.475 1042.68 242.399 1040.16 242.248L1040.15 239.322C1040.38 239.305 1040.62 239.28 1040.9 239.252L1040.91 239.25C1041.16 239.225 1041.43 239.196 1041.71 239.176" fill="#7D2B1B"/>
<path id="Vector_10" d="M1075.75 222.047C1063.71 234.464 1051.96 239.372 1041.81 240.636C1041.29 240.71 1040.73 240.748 1040.21 240.785C1035.49 241.194 1031.14 240.822 1027.31 240.078C1027.76 239.855 1028.24 239.632 1028.72 239.335C1028.91 239.223 1029.06 239.112 1029.24 239C1032.92 236.546 1036.98 231.453 1041.07 222.047C1053.86 192.712 1057.76 158.247 1056.87 109.729C1056.09 66.8985 1048.09 38.5681 1040.55 26.9683C1040.4 26.7452 1040.25 26.5221 1040.1 26.2991C1039.58 25.5555 1039.06 24.8862 1038.54 24.2914C1046.49 21.726 1054.38 19.5325 1062.89 21.5773C1063.71 21.7632 1064.56 22.0235 1065.42 22.2837C1066.27 22.5812 1067.09 22.8786 1067.95 23.2504C1086.43 31.281 1108.96 61.2473 1110.93 109.766C1112.86 158.285 1104.2 192.75 1075.75 222.047Z" fill="#B9542F"/>
<path id="Vector (Stroke)_10" fill-rule="evenodd" clip-rule="evenodd" d="M1041.01 25.0462C1041.11 25.1813 1041.2 25.3186 1041.3 25.4581L1041.31 25.4717L1041.77 26.1616L1041.78 26.1685C1045.69 32.181 1049.62 42.3592 1052.68 56.3235C1055.74 70.3172 1057.94 88.2047 1058.33 109.702C1058.33 109.702 1058.33 109.702 1058.33 109.702C1059.23 158.286 1055.33 193.005 1042.41 222.631L1041.07 222.049L1042.41 222.633C1042.41 222.632 1042.41 222.632 1042.41 222.631C1038.74 231.082 1035.02 236.283 1031.41 239.219C1030.66 239.136 1029.92 239.037 1029.2 238.922L1028.49 237.743C1028.48 237.749 1028.47 237.756 1028.46 237.763C1031.79 235.53 1035.69 230.738 1039.72 221.462L1039.72 221.46C1052.39 192.418 1056.29 158.208 1055.4 109.756C1055.01 88.4228 1052.83 70.7297 1049.81 56.9506C1046.79 43.1479 1042.96 33.3633 1039.32 27.7748L1039.33 27.7816L1040.55 26.9682L1039.32 27.7679C1039.32 27.7702 1039.32 27.7725 1039.32 27.7748L1038.89 27.1265C1038.89 27.131 1038.9 27.1354 1038.9 27.1399L1040.1 26.299L1038.88 27.1124L1038.89 27.1265C1038.4 26.4255 1037.91 25.8032 1037.44 25.2569L1035.97 23.5796L1038.09 22.8957C1046.04 20.3329 1054.27 18.0025 1063.23 20.1493C1064.09 20.3468 1064.99 20.619 1065.82 20.8728L1065.87 20.8892L1065.9 20.8987C1066.77 21.1999 1067.63 21.5115 1068.53 21.9054M1040.33 242.247C1035.46 242.667 1030.97 242.283 1027.03 241.518L1022.8 240.696L1026.66 238.767C1026.76 238.714 1026.86 238.664 1026.96 238.616C1027.32 238.438 1027.63 238.285 1027.96 238.086L1027.96 238.082L1027.97 238.077C1028.03 238.042 1028.08 238.005 1028.17 237.947L1028.18 237.943C1028.25 237.894 1028.35 237.83 1028.46 237.763C1028.45 237.769 1028.44 237.774 1028.43 237.78L1029.19 238.921C1028.92 238.879 1028.66 238.834 1028.4 238.788C1028.39 238.787 1028.39 238.787 1028.39 238.786C1028.12 238.739 1027.85 238.69 1027.59 238.639L1027.31 240.078L1027.97 241.39C1028.04 241.354 1028.12 241.315 1028.2 241.274C1028.57 241.093 1029.03 240.865 1029.49 240.588C1029.61 240.516 1029.71 240.445 1029.79 240.393L1029.8 240.388C1029.88 240.33 1029.94 240.293 1030 240.258L1030.03 240.24L1030.06 240.22C1030.51 239.921 1030.96 239.588 1031.41 239.219C1034.11 239.515 1037.02 239.589 1040.09 239.324L1040.1 239.323L1040.19 239.316C1040.7 239.28 1041.17 239.247 1041.6 239.184L1041.62 239.183L1041.63 239.181C1051.42 237.961 1062.87 233.223 1074.7 221.026C1102.76 192.121 1111.39 158.115 1109.46 109.824C1109.46 109.825 1109.46 109.825 1109.46 109.825L1110.93 109.766L1109.46 109.824C1107.5 61.6503 1085.15 32.3262 1067.36 24.5952C1066.57 24.2493 1065.8 23.9684 1064.96 23.6781C1064.97 23.6809 1064.98 23.6837 1064.99 23.6865L1065.42 22.2837L1064.94 23.6687C1064.95 23.6718 1064.96 23.675 1064.96 23.6781C1064.11 23.4178 1063.32 23.1774 1062.57 23.0072L1062.56 23.0052L1062.55 23.0031C1055.16 21.2285 1048.23 22.7995 1041.01 25.0462M1040.34 242.246L1040.21 240.785L1040.32 242.247L1040.33 242.247M1040.34 242.246L1040.42 242.24C1040.9 242.206 1041.47 242.166 1042 242.09C1052.51 240.779 1064.55 235.701 1076.81 223.068C1105.63 193.378 1114.33 158.454 1112.39 109.708L1112.39 109.706C1110.41 60.844 1087.7 30.2359 1068.53 21.9054M1076.81 223.068C1076.81 223.068 1076.81 223.068 1076.81 223.068ZM1042 242.09C1042.01 242.089 1042.01 242.088 1042.02 242.088L1041.81 240.636L1041.99 242.091C1042 242.091 1042 242.09 1042 242.09Z" fill="#7D2B1B"/>
<path id="Vector_11" d="M1041.07 222.047C1036.98 231.453 1032.93 236.546 1029.24 239C1029.06 239.112 1028.91 239.223 1028.72 239.335C1028.24 239.632 1027.79 239.855 1027.31 240.078C1023.37 241.826 1019.88 242.049 1017.24 242.012C1014.04 241.975 1011.1 241.826 1007.16 240.078C1006.71 239.855 1006.23 239.632 1005.75 239.335C1005.56 239.223 1005.41 239.112 1005.23 239C1001.55 236.546 997.494 231.453 993.404 222.047C980.614 192.712 976.711 158.247 977.603 109.729C978.384 66.8986 986.377 38.5682 993.924 26.9683C994.073 26.7453 994.222 26.5222 994.371 26.2991C994.891 25.5555 995.412 24.8863 995.932 24.2915C996.267 23.9197 996.564 23.5107 996.936 23.2504C998.274 22.1722 999.613 21.28 1000.91 20.5736C1008.35 16.3351 1014.6 17.0044 1016.34 17.0044C1017.98 17.0044 1023.7 16.5582 1030.62 19.3838C1032.81 20.2761 1035.16 21.5402 1037.54 23.2504C1037.91 23.5107 1038.2 23.9197 1038.5 24.2915C1039.02 24.8863 1039.54 25.5555 1040.06 26.2991C1040.21 26.5222 1040.36 26.7453 1040.51 26.9683C1040.58 27.0799 1040.66 27.2286 1040.77 27.3401C1042.29 29.7568 1043.86 32.8426 1045.34 36.5977C1051.18 51.2462 1056.27 76.0075 1056.87 109.729C1057.76 158.285 1053.86 192.75 1041.07 222.047Z" fill="#B9542F"/>
<path id="Vector (Stroke)_11" fill-rule="evenodd" clip-rule="evenodd" d="M1015.68 18.4567C1013.35 18.3892 1007.98 18.2336 1001.64 21.8474L1001.63 21.8549L1001.61 21.8621C1000.4 22.5232 999.131 23.3651 997.856 24.3922L997.817 24.4233L997.777 24.4516C997.728 24.4862 997.648 24.5563 997.512 24.7084C997.445 24.7826 997.377 24.862 997.294 24.9599L997.293 24.9608C997.216 25.0511 997.125 25.1574 997.03 25.2641C996.554 25.8087 996.071 26.4286 995.581 27.1264L995.149 27.7748C991.515 33.3633 987.68 43.1479 984.659 56.9506C981.643 70.7297 979.458 88.4225 979.069 109.755C978.178 158.207 982.086 192.418 994.748 221.46L994.749 221.462C998.782 230.738 1002.68 235.53 1006.01 237.763C1006.13 237.832 1006.23 237.898 1006.3 237.947C1006.39 238.005 1006.44 238.042 1006.5 238.077L1006.51 238.082L1006.52 238.086C1006.84 238.285 1007.15 238.438 1007.51 238.616C1007.6 238.659 1007.69 238.704 1007.78 238.751C1011.44 240.366 1014.14 240.509 1017.25 240.545L1017.26 240.545C1019.78 240.581 1023.04 240.368 1026.71 238.742C1027.16 238.534 1027.54 238.339 1027.96 238.086L1027.96 238.082L1027.97 238.077C1028.03 238.042 1028.08 238.005 1028.17 237.947C1028.24 237.898 1028.34 237.832 1028.46 237.763C1031.79 235.53 1035.69 230.738 1039.72 221.462L1039.72 221.46C1052.39 192.455 1056.29 158.245 1055.4 109.756L1055.4 109.755C1054.81 76.1453 1049.73 51.5731 1043.98 37.1404L1043.98 37.1375C1042.54 33.5033 1041.04 30.5349 1039.59 28.2231C1039.5 28.1142 1039.44 28.0147 1039.39 27.947C1039.36 27.9024 1039.34 27.8583 1039.32 27.8312L1039.31 27.8223L1039.29 27.7899C1039.29 27.7845 1039.29 27.7819 1039.29 27.7814L1038.85 27.1264C1038.36 26.4254 1037.88 25.8032 1037.4 25.2569L1037.38 25.2326L1037.36 25.2074C1037.31 25.1545 1037.28 25.1053 1037.24 25.0595C1036.95 24.697 1036.83 24.546 1036.69 24.4516L1036.69 24.4464L1036.68 24.441C1034.39 22.7969 1032.15 21.5896 1030.07 20.742L1030.07 20.7411C1024.12 18.3126 1019.13 18.4163 1016.96 18.4613C1016.72 18.4663 1016.51 18.4706 1016.34 18.4706C1016.16 18.4706 1015.94 18.4642 1015.68 18.4567ZM1015.73 15.5239C1015.98 15.5315 1016.18 15.5378 1016.34 15.5378C1016.5 15.5378 1016.69 15.5335 1016.92 15.5284C1019.09 15.4802 1024.64 15.3571 1031.17 18.0261C1033.48 18.9621 1035.92 20.2813 1038.38 22.0549C1038.9 22.4177 1039.31 22.9497 1039.56 23.2583C1039.58 23.2925 1039.61 23.3238 1039.63 23.352C1040.18 23.9851 1040.73 24.6881 1041.27 25.4581L1041.27 25.4717L1041.73 26.1548C1041.77 26.2091 1041.8 26.2618 1041.82 26.2919L1041.82 26.2931C1041.83 26.3133 1041.84 26.3272 1041.85 26.3381C1041.85 26.341 1041.85 26.3437 1041.85 26.3462L1041.92 26.419L1042.01 26.5577C1043.59 29.0648 1045.19 32.2347 1046.71 36.0576C1052.63 50.9223 1057.74 75.8715 1058.33 109.703L1056.87 109.729L1058.33 109.702C1058.33 109.702 1058.33 109.702 1058.33 109.703C1059.23 158.324 1055.33 193.044 1042.41 222.633C1042.41 222.632 1042.41 222.632 1042.41 222.631L1041.07 222.047L1042.41 222.633C1038.28 232.145 1034.08 237.539 1030.06 240.22L1030.03 240.24L1030 240.258C1029.94 240.293 1029.88 240.33 1029.8 240.388C1029.72 240.44 1029.61 240.513 1029.49 240.588C1029.49 240.586 1029.49 240.585 1029.49 240.584L1028.72 239.335L1029.48 240.592C1029.48 240.591 1029.48 240.589 1029.49 240.588C1028.94 240.925 1028.44 241.175 1027.93 241.41L1027.92 241.414L1027.91 241.419C1023.7 243.284 1019.97 243.517 1017.22 243.478C1013.95 243.44 1010.78 243.286 1006.57 241.419L1006.53 241.405L1006.5 241.39C1006.43 241.354 1006.35 241.315 1006.27 241.274C1005.9 241.093 1005.44 240.865 1004.99 240.588C1004.99 240.589 1004.99 240.591 1004.99 240.592L1005.75 239.335L1004.98 240.584C1004.98 240.585 1004.98 240.586 1004.99 240.588C1004.87 240.516 1004.76 240.445 1004.68 240.393L1004.67 240.388C1004.59 240.33 1004.53 240.293 1004.47 240.258L1004.44 240.24L1004.41 240.22C1000.39 237.538 996.196 232.145 992.06 222.633L993.404 222.047L992.059 222.631C992.059 222.632 992.06 222.632 992.06 222.633C979.143 193.006 975.243 158.287 976.137 109.702C976.529 88.2046 978.731 70.3171 981.794 56.3235C984.85 42.3591 988.783 32.1809 992.695 26.1685L992.7 26.1616L993.16 25.4717L993.169 25.4581C993.716 24.6773 994.269 23.9656 994.829 23.3257L994.835 23.318L994.842 23.3103C994.911 23.2342 994.98 23.1535 995.062 23.0569L995.071 23.0464C995.147 22.9571 995.237 22.8525 995.329 22.7496C995.509 22.5491 995.749 22.2997 996.05 22.0814C996.038 22.0904 996.027 22.0994 996.016 22.1083L996.936 23.2503L996.095 22.049C996.08 22.0597 996.065 22.0705 996.05 22.0814C997.436 20.9677 998.832 20.0366 1000.2 19.2919C1000.2 19.2944 1000.19 19.2969 1000.19 19.2994L1000.91 20.5734L1000.21 19.2847C1000.21 19.2871 1000.21 19.2895 1000.2 19.2919C1007.28 15.2635 1013.38 15.4516 1015.73 15.5239Z" fill="#7D2B1B"/>
<path id="Vector_12" d="M986.414 240.933C967.788 241.342 944.291 237.513 920.087 222.046C874.245 192.712 860.266 158.247 863.426 109.728C866.624 61.2098 902.947 31.2435 932.728 23.2129C941.13 20.9449 949.124 20.4244 956.931 20.8706C952.879 21.168 948.715 21.8744 944.439 23.2129C918.563 31.2435 886.998 61.2098 884.246 109.728C881.495 158.247 893.653 192.712 933.471 222.046C952.507 236.063 971.022 240.524 986.414 240.933Z" fill="#B9542F"/>
<path id="Vector (Stroke)_12" fill-rule="evenodd" clip-rule="evenodd" d="M940.326 23.0854C937.951 23.4632 935.548 23.9712 933.11 24.6292L933.11 24.6293C903.815 32.5289 868.038 62.0477 864.889 109.824C863.32 133.924 866.016 154.397 874.702 172.446C883.386 190.489 898.123 206.251 920.877 220.812C932.558 228.276 944.067 232.995 954.929 235.824C947.669 232.89 940.173 228.802 932.602 223.228L932.602 223.227C912.52 208.433 899.336 192.283 891.542 173.648C883.756 155.028 881.399 134.041 882.782 109.646C885.441 62.7652 914.675 32.8633 940.326 23.0854ZM944.241 22.5751C948.513 22.1387 952.702 22.0983 956.848 22.3352L956.931 20.8712L956.824 19.4087C952.675 19.7132 948.399 20.4376 944.003 21.8135C944.002 21.8136 944.002 21.8138 944.001 21.814L944.24 22.5752C944.24 22.5752 944.241 22.5751 944.241 22.5751ZM932.346 21.7976C940.927 19.4817 949.081 18.9538 957.015 19.4071L957.039 22.3336C953.084 22.6239 949.032 23.3122 944.877 24.6129L944.874 24.6139C919.573 32.466 888.427 61.9137 885.71 109.812C884.343 133.936 886.689 154.441 894.248 172.516C901.801 190.576 914.605 206.326 934.341 220.866C953.112 234.687 971.33 239.066 986.453 239.468L986.447 242.4C967.584 242.814 943.788 238.933 919.297 223.282L919.297 223.282C896.21 208.509 881.036 192.371 872.06 173.718C863.086 155.072 860.372 134.053 861.963 109.634L861.963 109.633C865.209 60.3726 902.08 29.9592 932.346 21.7976Z" fill="#7D2B1B"/>
<path id="Vector_13" d="M994.259 240.784C991.768 240.933 989.128 241.008 986.414 240.933C971.059 240.524 952.507 236.063 933.471 222.046C893.653 192.712 881.495 158.247 884.246 109.728C886.998 61.2098 918.563 31.2435 944.439 23.2128C948.715 21.8744 952.879 21.168 956.931 20.8706C961.913 20.5359 966.821 20.8334 971.617 21.5026C970.799 21.6885 969.944 21.9487 969.089 22.209C968.234 22.5064 967.416 22.8039 966.561 23.1757C948.083 31.2063 925.552 61.1726 923.582 109.691C921.611 158.21 930.274 192.675 958.716 222.009C970.762 234.427 982.51 239.334 992.66 240.599C993.181 240.71 993.739 240.747 994.259 240.784Z" fill="#B9542F"/>
<path id="Vector (Stroke)_13" fill-rule="evenodd" clip-rule="evenodd" d="M964.924 22.3093C962.313 22.1613 959.682 22.1563 957.034 22.3339C953.08 22.6244 949.03 23.3127 944.877 24.6128L944.873 24.6139C919.572 32.466 888.426 61.9137 885.71 109.812C884.342 133.936 886.689 154.441 894.248 172.516C901.8 190.576 914.604 206.326 934.341 220.866C950.895 233.056 967.049 237.901 980.982 239.15C973.544 236.286 965.648 231.262 957.663 223.031L957.663 223.03C928.84 193.304 920.136 158.38 922.116 109.632C924.064 61.6608 945.987 31.284 964.924 22.3093ZM969.543 23.604C970.398 23.3437 971.193 23.1033 971.942 22.9331L979.753 21.1578L971.819 20.0508C966.947 19.371 961.937 19.0652 956.833 19.408L956.824 19.4087C952.674 19.7132 948.398 20.4376 944.002 21.8134C917.551 30.0235 885.568 60.5081 882.782 109.646C881.399 134.041 883.755 155.028 891.542 173.648C899.335 192.283 912.519 208.433 932.601 223.227L932.602 223.228C951.903 237.439 970.752 241.983 986.375 242.4C986.375 242.4 986.374 242.4 986.374 242.4L986.414 240.934L986.375 242.4C989.141 242.475 991.824 242.399 994.346 242.249L994.363 239.322C993.816 239.283 993.368 239.251 992.967 239.165L992.905 239.152L992.841 239.144C983.048 237.924 971.6 233.186 959.768 220.989M959.768 220.989C931.707 192.047 923.085 158.041 925.047 109.751C927.003 61.5767 949.356 32.2521 967.145 24.5211L967.145 24.521C967.941 24.1751 968.709 23.8943 969.543 23.604" fill="#7D2B1B"/>
<path id="Vector_14" d="M1007.16 240.079C1003.33 240.822 998.982 241.194 994.26 240.785C993.739 240.748 993.219 240.674 992.661 240.636C982.511 239.41 970.763 234.465 958.717 222.047C930.275 192.713 921.612 158.248 923.582 109.729C925.553 61.2105 948.083 31.2442 966.561 23.2135C967.417 22.8417 968.272 22.5071 969.09 22.2468C969.945 21.9494 970.763 21.7263 971.618 21.5404C980.132 19.5328 988.014 21.7263 995.97 24.2545C995.449 24.8494 994.929 25.5186 994.408 26.2622C994.26 26.4853 994.111 26.7083 993.962 26.9314C986.378 38.5313 978.421 66.8988 977.641 109.692C976.748 158.211 980.652 192.675 993.442 222.01C997.531 231.416 1001.55 236.51 1005.26 238.963C1005.45 239.075 1005.6 239.186 1005.79 239.298C1006.23 239.633 1006.68 239.893 1007.16 240.079Z" fill="#B9542F"/>
<path id="Vector (Stroke)_14" fill-rule="evenodd" clip-rule="evenodd" d="M993.495 25.0164C986.271 22.7982 979.344 21.2251 971.954 22.9676L971.942 22.9705L971.929 22.9733C971.125 23.1481 970.364 23.3559 969.571 23.6318L969.553 23.6382L969.534 23.6441C968.778 23.8848 967.971 24.1995 967.146 24.5582C949.357 32.2892 927.004 61.6138 925.048 109.788C923.086 158.078 931.708 192.084 959.769 221.026M993.495 25.0164C993.399 25.1492 993.303 25.2841 993.207 25.4212L993.198 25.4348L992.742 26.1179L992.735 26.1288C988.802 32.1432 984.869 42.3327 981.817 56.3011C978.759 70.2994 976.566 88.1868 976.174 109.665C975.281 158.25 979.181 192.968 992.097 222.594C995.781 231.067 999.484 236.278 1003.13 239.212C1000.4 239.514 997.477 239.592 994.386 239.324L994.375 239.323L994.364 239.322C994.143 239.307 993.918 239.283 993.66 239.256L993.628 239.252C993.376 239.226 993.095 239.197 992.799 239.176C983.022 237.985 971.588 233.21 959.769 221.026M1006.05 237.724C1006.16 237.792 1006.26 237.857 1006.33 237.906L1006.34 237.91C1006.43 237.968 1006.48 238.005 1006.54 238.04L1006.6 238.079L1006.67 238.125C1007.03 238.395 1007.35 238.582 1007.69 238.71L1012.46 240.544L1007.44 241.518C1003.5 242.283 999.016 242.668 994.145 242.247C993.875 242.227 993.608 242.199 993.365 242.174L993.321 242.169C993.055 242.141 992.811 242.116 992.563 242.099L992.524 242.097L992.485 242.092C981.971 240.821 969.921 235.704 957.664 223.068C928.842 193.341 920.137 158.417 922.117 109.669C924.102 60.8069 946.809 30.1988 965.977 21.8686C966.856 21.4865 967.753 21.1342 968.626 20.8553C969.532 20.541 970.398 20.3053 971.294 20.1102C980.238 18.005 988.471 20.3331 996.414 22.8569L998.548 23.535L997.073 25.22C996.595 25.7663 996.11 26.3886 995.619 27.0897L995.19 27.7338C995.188 27.7355 995.187 27.7372 995.186 27.7389C991.535 33.3253 987.7 43.1177 984.683 56.9271C981.671 70.7108 979.496 88.4038 979.107 109.719C978.216 158.17 982.124 192.381 994.786 221.424L994.786 221.425C998.823 230.709 1002.69 235.494 1006.05 237.724Z" fill="#7D2B1B"/>
</g>
<path id="stem" d="M1030.62 19.3837C1023.67 16.5209 1017.98 17.0043 1016.34 17.0043C1014.6 17.0043 1008.31 16.2979 1000.91 20.5734C1001.29 4.47493 1005.52 -24.0414 1027.65 -52C1027.53 -51.7026 1024.52 -42.2591 1030.77 -26.867C1020.88 -13.371 1015.97 4.3634 1030.62 19.3837Z" fill="#44150E"/>
</g>
<g id="face-stroke">
<path id="righ- eye-stroke (Stroke)" fill-rule="evenodd" clip-rule="evenodd" d="M1063.35 43.792L1066.19 45.5685C1069.43 47.6013 1073.53 52.1945 1077.8 57.7823C1082.11 63.4189 1086.7 70.2226 1090.94 76.834C1099.43 90.0597 1106.53 102.583 1107.12 103.614L1107.12 103.616L1109.74 108.302L1104.49 107.237C1104.49 107.237 1104.49 107.237 1104.49 107.236C1102.72 106.887 1098.71 106.609 1092.51 106.422C1086.34 106.237 1078.11 106.144 1067.98 106.144C1063.03 106.144 1058.51 106.172 1055.23 106.2C1052.51 106.223 1050.62 106.246 1050.03 106.253C1049.95 106.254 1049.89 106.255 1049.86 106.255L1046.6 106.326L1047.44 103.148C1047.44 103.147 1047.44 103.146 1047.44 103.146C1048.75 98.1954 1052.48 84.2791 1055.91 71.5488C1057.45 65.8095 1058.93 60.3101 1060.1 55.9797L1060.47 54.6019C1061.07 52.3479 1061.58 50.485 1061.93 49.1717C1062.11 48.515 1062.25 47.9959 1062.34 47.6341L1062.46 47.2126L1062.49 47.0964C1062.49 47.077 1062.49 47.0662 1062.5 47.0613C1062.5 47.0583 1062.5 47.0576 1062.5 47.0585L1062.5 47.0471L1063.35 43.792ZM1064.81 47.4739L1064.77 47.6393C1064.7 47.8962 1063.75 51.4446 1062.34 56.6711C1058.58 70.6433 1051.59 96.6085 1049.71 103.745L1049.71 103.749L1049.67 103.913L1049.83 103.909H1049.84C1049.84 103.909 1049.96 103.908 1050.22 103.904C1050.47 103.901 1050.83 103.897 1051.3 103.892C1052.23 103.881 1053.56 103.867 1055.21 103.853C1058.5 103.825 1063.02 103.798 1067.98 103.798C1078.12 103.798 1086.38 103.891 1092.58 104.077C1098.73 104.262 1102.95 104.541 1104.95 104.935L1104.95 104.936L1105.19 104.986L1105.07 104.766C1105.07 104.766 1105.07 104.765 1105.07 104.765C1104.49 103.743 1097.42 91.2676 1088.97 78.101C1084.74 71.5139 1080.19 64.7705 1075.93 59.2068C1071.65 53.595 1067.78 49.3351 1064.95 47.5568C1064.95 47.5567 1064.95 47.5569 1064.95 47.5568L1064.81 47.4739Z" fill="#44150E"/>
<path id="left-eye-stroke (Stroke)" fill-rule="evenodd" clip-rule="evenodd" d="M978.344 37.8965L979.401 41.6315C980.401 45.1603 981.124 50.6315 981.654 56.8039C982.186 63.0016 982.531 69.9904 982.754 76.5998C983.18 89.1934 983.166 100.451 983.164 102.309C983.164 102.402 983.164 102.471 983.164 102.516V105.43L980.231 105.011L980.2 105.005C964.357 101.851 951.356 100.231 941.54 100.231C937.707 100.231 935.118 100.488 933.503 100.738C932.695 100.863 932.131 100.986 931.775 101.075C931.597 101.119 931.47 101.155 931.389 101.179C931.349 101.191 931.32 101.2 931.296 101.208L931.294 101.208C931.29 101.21 931.285 101.211 931.279 101.213L926.89 102.885L928.02 98.2946L928.021 98.2927C929.185 93.5955 931.989 88.1153 936.301 81.9137C940.622 75.6997 946.503 68.6995 953.89 60.9579C959.358 55.2278 964.703 50.1256 968.694 46.4431C970.689 44.6013 972.347 43.1136 973.514 42.0788C974.097 41.5613 974.558 41.1572 974.876 40.8789C974.992 40.7772 975.089 40.692 975.166 40.6248L975.243 40.5584C975.317 40.4934 975.342 40.4711 975.342 40.4715C975.342 40.4715 975.342 40.4712 975.342 40.4715L975.356 40.458L978.344 37.8965ZM976.926 42.2023C976.888 42.2369 976.842 42.2762 976.808 42.3067C976.8 42.3135 976.793 42.3198 976.786 42.3255L976.708 42.3932C976.632 42.4602 976.536 42.544 976.42 42.6448C976.105 42.9204 975.649 43.3209 975.071 43.834C973.914 44.8603 972.267 46.3376 970.285 48.1672C966.319 51.8276 961.012 56.8939 955.587 62.5777C948.251 70.2654 942.457 77.1702 938.227 83.2532C933.989 89.3482 931.364 94.5566 930.298 98.8566C930.298 98.8568 930.298 98.8564 930.298 98.8566L930.238 99.0985L930.691 98.9263H930.734C930.845 98.8937 931.001 98.8498 931.207 98.7984C931.635 98.6919 932.269 98.5549 933.144 98.4195C934.893 98.1489 937.603 97.8852 941.54 97.8852C951.571 97.8852 964.733 99.5351 980.627 102.698L980.818 102.725V102.516C980.818 102.471 980.818 102.402 980.818 102.309C980.82 100.453 980.833 89.2306 980.409 76.679C980.186 70.0899 979.843 63.1458 979.316 57.0047C978.787 50.8386 978.077 45.5648 977.144 42.2712L977.086 42.0653L976.926 42.2023Z" fill="#44150E"/>
<path id="nose-stroke (Stroke)" fill-rule="evenodd" clip-rule="evenodd" d="M1013.95 78.5967L1016.3 82.3724C1020.14 88.4248 1025.23 101.837 1029.39 113.81C1033.56 125.816 1036.86 136.566 1037.13 137.495L1038.34 141.41L1034.34 140.624C1030.99 140.013 1025.51 139.678 1018.02 139.678C1011.61 139.678 1004.85 139.919 999.66 140.165C997.068 140.288 994.872 140.412 993.317 140.507C992.539 140.555 991.923 140.596 991.497 140.625C991.284 140.64 991.12 140.652 991.009 140.661C990.978 140.664 990.952 140.666 990.931 140.667L990.912 140.672L987.767 140.891L988.189 137.865C988.189 137.864 988.19 137.863 988.19 137.862C988.36 136.607 988.864 134.836 989.575 132.755C990.294 130.651 991.25 128.159 992.358 125.434C994.576 119.983 997.424 113.559 1000.26 107.372C1005.91 95.0292 1011.52 83.5845 1012.02 82.5914L1013.95 78.5967ZM1014.21 83.4561L1014.13 83.6255L1014.12 83.633C1013.66 84.5516 1008.04 95.9999 1002.39 108.349C999.563 114.524 996.731 120.913 994.532 126.318C993.432 129.021 992.494 131.468 991.795 133.513C991.089 135.58 990.651 137.167 990.514 138.179L990.514 138.184L990.491 138.35L990.61 138.341C990.612 138.341 990.613 138.341 990.614 138.341C990.635 138.338 990.656 138.336 990.675 138.335C990.714 138.331 990.765 138.327 990.825 138.322C990.946 138.313 991.117 138.3 991.334 138.285C991.767 138.255 992.391 138.214 993.173 138.166C994.739 138.069 996.945 137.945 999.549 137.821C1004.75 137.575 1011.56 137.332 1018.02 137.332C1025.54 137.332 1031.2 137.666 1034.77 138.318L1034.78 138.319L1034.94 138.351L1034.89 138.171C1034.63 137.312 1031.34 126.574 1027.17 114.58C1022.98 102.528 1017.98 89.3986 1014.31 83.6259L1014.31 83.617L1014.21 83.4561Z" fill="#44150E"/>
<path id="mouth-stroke (Stroke)" fill-rule="evenodd" clip-rule="evenodd" d="M902.012 108.721L906.697 114.471L906.712 114.49C906.712 114.49 906.713 114.491 906.714 114.493C906.75 114.536 907.119 114.986 907.814 115.793C908.53 116.626 909.568 117.811 910.879 119.252C913.501 122.133 917.21 126.032 921.607 130.173C930.434 138.485 941.916 147.656 952.907 151.641L952.908 151.642C954.536 152.234 956.127 152.789 957.727 153.347L957.734 153.349L959.289 153.915L960.799 182.492L982.535 183.743L984.784 161.552L987.478 162.119C996.59 164.074 1005.1 165.03 1013.44 165.03C1014.16 165.03 1014.83 165.03 1015.5 164.994L1015.51 164.994L1015.52 164.993C1016.66 164.956 1017.86 164.956 1019.19 164.956H1019.21C1021.31 164.956 1023.59 164.986 1025.98 165.017C1027.34 165.035 1028.73 165.054 1030.15 165.067L1030.16 165.067C1034.14 165.142 1038.25 165.216 1042.48 165.216H1044.67L1047.4 187.836L1068.78 189.756V164.061L1070.91 163.776C1070.91 163.776 1070.91 163.776 1070.92 163.776C1081.3 162.372 1088.15 159.883 1092.16 156.396C1099.25 150.184 1107.42 142.584 1113.85 136.509C1117.07 133.472 1119.85 130.818 1121.83 128.912C1122.83 127.959 1123.62 127.193 1124.17 126.66C1124.45 126.393 1124.66 126.185 1124.81 126.04L1124.98 125.873C1125.03 125.829 1125.04 125.814 1125.04 125.815L1125.05 125.809L1130.15 120.853L1129.23 127.905C1129.23 127.907 1129.23 127.909 1129.23 127.911M1101.61 187.028C1092.99 196.629 1082.78 204.054 1071.28 209.067C1058.55 214.661 1044.93 218.001 1030.86 219.014C1030.86 219.015 1030.85 219.015 1030.85 219.015L1028.22 219.228V190.655L1003.03 189.938L1000.64 217.787L997.966 217.365C977.253 213.845 960.294 206.581 949.737 201.115L949.735 201.114C937.439 194.72 926.173 183.853 917.972 170.498L917.971 170.496C908.487 154.99 903.046 136.202 902.296 116.093C902.296 116.093 902.296 116.093 902.296 116.093L902.012 108.721M1029.39 189.514H1030.57V216.684L1030.67 216.675L1030.68 216.675C1044.5 215.68 1057.86 212.403 1070.34 206.918L1070.34 206.917C1081.52 202.041 1091.46 194.818 1099.87 185.459L1099.87 185.457C1106.59 178.007 1112.32 169.147 1117 159.2C1124.93 142.245 1126.84 128.135 1126.9 127.614L1126.9 127.609L1126.95 127.231L1126.7 127.474C1126.7 127.476 1126.7 127.48 1126.69 127.486M1071.13 166.115L1071.23 166.102C1081.74 164.68 1089.16 162.113 1093.7 158.165L1093.71 158.162C1107.79 145.813 1126.13 128.039 1126.69 127.486M1071.13 166.115V192.322L1045.3 190.003L1042.59 167.562H1042.48C1038.23 167.562 1034.1 167.488 1030.12 167.413C1028.69 167.4 1027.28 167.381 1025.92 167.363C1023.55 167.332 1021.3 167.302 1019.21 167.302C1017.87 167.302 1016.7 167.302 1015.61 167.338C1014.88 167.376 1014.15 167.376 1013.46 167.376H1013.44C1004.91 167.376 996.242 166.399 986.988 164.413C986.988 164.413 986.987 164.413 986.986 164.413L986.855 164.385L984.643 186.214L958.567 184.714L957.028 155.589L956.948 155.56C956.948 155.56 956.948 155.56 956.947 155.56C955.352 155.003 953.749 154.444 952.107 153.847M1029.39 189.514L1029.43 188.342L1000.88 187.529L998.515 215.077L998.36 215.052C998.357 215.052 998.355 215.052 998.353 215.051C977.949 211.582 961.226 204.421 950.816 199.031C938.946 192.859 927.98 182.312 919.972 169.271C910.718 154.141 905.377 135.752 904.64 116.005L904.626 115.643L904.864 115.934C905.355 116.545 911.372 123.757 919.998 131.881C928.868 140.234 940.641 149.689 952.106 153.847M1101.61 187.028C1108.5 179.385 1114.36 170.325 1119.13 160.196L1119.13 160.193C1127.17 142.99 1129.14 128.652 1129.23 127.911" fill="#44150E"/>
</g>
<g id="face-fill">
<path id="right-eye-fill" d="M1104.72 106.086C1100.96 105.342 1088.25 104.971 1067.98 104.971C1058.06 104.971 1049.92 105.082 1049.84 105.082L1048.13 105.119L1048.58 103.446C1051.18 93.5566 1063.52 47.7892 1063.63 47.343L1064.08 45.6328L1065.57 46.5623C1077.73 54.184 1104.94 102.145 1106.09 104.19L1107.47 106.644L1104.72 106.086Z" fill="#44150E"/>
<path id="left-eye-fill" d="M980.429 103.855C964.553 100.695 951.466 99.0589 941.539 99.0589C933.769 99.0589 930.943 100.1 930.906 100.1L928.564 100.992L929.159 98.5756C931.39 89.5783 940.015 77.1976 954.738 61.7684C965.631 50.3544 976.042 41.4314 976.153 41.3199L977.715 39.9814L978.272 41.9519C982.139 55.5966 981.99 100.62 981.99 102.517V104.078L980.429 103.855Z" fill="#44150E"/>
<path id="nose-fill" d="M1034.56 139.473C1031.1 138.841 1025.53 138.506 1018.02 138.506C1005.15 138.506 990.876 139.473 990.727 139.51L989.128 139.621L989.351 138.023C990.578 128.951 1012.14 84.9683 1013.07 83.1094L1014.08 81.0273L1015.3 82.9978C1022.81 94.8208 1035.49 136.089 1036.01 137.837L1036.64 139.882L1034.56 139.473Z" fill="#44150E"/>
<path id="mouth-fill" d="M1029.39 189.515L1001.95 188.734L999.575 216.433L998.163 216.21C977.603 212.715 960.76 205.502 950.276 200.074C938.193 193.791 927.076 183.083 918.971 169.884C909.602 154.567 904.211 135.977 903.468 116.049L903.319 112.183L905.773 115.194C905.996 115.492 930.051 144.603 952.507 152.745C954.143 153.34 955.741 153.897 957.34 154.455L958.158 154.753L959.682 183.604L983.588 184.979L985.819 162.969L987.232 163.267C996.415 165.237 1005 166.204 1013.44 166.204C1014.15 166.204 1014.86 166.204 1015.56 166.167C1016.68 166.129 1017.87 166.129 1019.21 166.129C1022.51 166.129 1026.23 166.204 1030.14 166.241C1034.11 166.315 1038.24 166.39 1042.48 166.39H1043.63L1046.35 188.92L1069.96 191.039V165.088L1071.07 164.94C1081.52 163.527 1088.66 160.999 1092.93 157.281C1107.13 144.826 1125.69 126.831 1125.87 126.645L1128.55 124.043L1128.07 127.761C1127.99 128.355 1126.06 142.595 1118.06 159.697C1113.34 169.736 1107.54 178.696 1100.74 186.243C1092.23 195.724 1082.15 203.048 1070.81 207.993C1058.21 213.533 1044.71 216.842 1030.77 217.845L1029.39 217.957V189.515V189.515Z" fill="#44150E"/>
</g>
<g id="light">
<g id="dimmer light">
<mask id="mask0_23:180" style="mask-type:alpha" maskUnits="userSpaceOnUse" x="912" y="75" width="202" height="203">
<g id="Group">
<path id="5" opacity="0.26" d="M1012.8 277.331C1068.42 277.331 1113.51 232.238 1113.51 176.613C1113.51 120.988 1068.42 75.8955 1012.8 75.8955C957.17 75.8955 912.077 120.988 912.077 176.613C912.077 232.238 957.17 277.331 1012.8 277.331Z" fill="white"/>
<path id="4" opacity="0.63" d="M1012.8 259.188C1058.4 259.188 1095.37 222.218 1095.37 176.614C1095.37 131.009 1058.4 94.0391 1012.8 94.0391C967.191 94.0391 930.221 131.009 930.221 176.614C930.221 222.218 967.191 259.188 1012.8 259.188Z" fill="white"/>
<path id="3" d="M1012.8 241.081C1048.4 241.081 1077.26 212.218 1077.26 176.613C1077.26 141.008 1048.4 112.145 1012.8 112.145C977.191 112.145 948.327 141.008 948.327 176.613C948.327 212.218 977.191 241.081 1012.8 241.081Z" fill="white"/>
<path id="2" d="M1012.79 226.471C1040.33 226.471 1062.65 204.149 1062.65 176.614C1062.65 149.079 1040.33 126.757 1012.79 126.757C985.259 126.757 962.938 149.079 962.938 176.614C962.938 204.149 985.259 226.471 1012.79 226.471Z" fill="white"/>
<path id="1" d="M1012.79 211.859C1032.26 211.859 1048.04 196.079 1048.04 176.613C1048.04 157.147 1032.26 141.367 1012.79 141.367C993.329 141.367 977.549 157.147 977.549 176.613C977.549 196.079 993.329 211.859 1012.79 211.859Z" fill="white"/>
</g>
</mask>
<g mask="url(#mask0_23:180)">
<g id="right eye" style="mix-blend-mode:color">
<path d="M1104.55 105.936C1100.8 105.192 1088.08 104.82 1067.82 104.82C1057.89 104.82 1049.75 104.932 1049.68 104.932L1047.97 104.969L1048.41 103.296C1051.01 93.4062 1063.36 47.6388 1063.47 47.1927L1063.92 45.4824L1065.4 46.4119C1077.56 54.0336 1104.78 101.995 1105.93 104.039L1107.3 106.493L1104.55 105.936Z" fill="#CE8732"/>
</g>
<g id="left eye" style="mix-blend-mode:color">
<path d="M980.263 103.706C964.388 100.545 951.301 98.9095 941.374 98.9095C933.604 98.9095 930.778 99.9505 930.741 99.9505L928.398 100.843L928.993 98.4262C931.224 89.4289 939.85 77.0482 954.573 61.6189C965.466 50.205 975.876 41.282 975.988 41.1705L977.549 39.832L978.107 41.8025C981.973 55.4472 981.825 100.471 981.825 102.367V103.929L980.263 103.706Z" fill="#CE8732"/>
</g>
<g id="nose" style="mix-blend-mode:color">
<path d="M1034.4 139.323C1030.94 138.691 1025.36 138.357 1017.85 138.357C1004.99 138.357 990.71 139.323 990.562 139.361L988.963 139.472L989.186 137.873C990.413 128.802 1011.98 84.8189 1012.91 82.96L1013.91 80.8779L1015.14 82.8484C1022.65 94.6714 1035.33 135.94 1035.85 137.687L1036.48 139.732L1034.4 139.323Z" fill="#CE8732"/>
</g>
<g id="mouth" style="mix-blend-mode:color">
<path d="M1029.23 189.367L1001.79 188.586L999.411 216.284L997.999 216.061C977.439 212.566 960.596 205.354 950.112 199.925C938.029 193.642 926.912 182.935 918.807 169.736C909.438 154.418 904.047 135.829 903.303 115.901L903.155 112.034L905.609 115.046C905.832 115.343 929.887 144.454 952.343 152.596C953.979 153.191 955.577 153.749 957.176 154.307L957.994 154.604L959.518 183.455L983.424 184.831L985.655 162.821L987.068 163.118C996.251 165.089 1004.84 166.055 1013.28 166.055C1013.99 166.055 1014.69 166.055 1015.4 166.018C1016.51 165.981 1017.7 165.981 1019.04 165.981C1022.35 165.981 1026.07 166.055 1029.97 166.092C1033.95 166.167 1038.08 166.241 1042.32 166.241H1043.47L1046.18 188.772L1069.79 190.891V164.94L1070.91 164.791C1081.35 163.378 1088.49 160.85 1092.77 157.132C1106.97 144.677 1125.52 126.683 1125.71 126.497L1128.39 123.894L1127.9 127.612C1127.83 128.207 1125.89 142.447 1117.9 159.549C1113.18 169.587 1107.38 178.547 1100.58 186.095C1092.06 195.575 1081.99 202.9 1070.65 207.844C1058.04 213.384 1044.55 216.693 1030.6 217.697L1029.23 217.808V189.367V189.367Z" fill="#CE8732"/>
</g>
</g>
</g>
<g id="brightest light">
<mask id="mask1_23:180" style="mask-type:alpha" maskUnits="userSpaceOnUse" x="963" y="126" width="100" height="101">
<g id="Group_2">
<path id="2_2" d="M1012.87 226.545C1040.4 226.545 1062.73 204.223 1062.73 176.688C1062.73 149.153 1040.4 126.831 1012.87 126.831C985.334 126.831 963.012 149.153 963.012 176.688C963.012 204.223 985.334 226.545 1012.87 226.545Z" fill="#E1B062" fill-opacity="0.6"/>
<path id="1_2" d="M1012.87 211.934C1032.33 211.934 1048.11 196.154 1048.11 176.688C1048.11 157.222 1032.33 141.442 1012.87 141.442C993.404 141.442 977.624 157.222 977.624 176.688C977.624 196.154 993.404 211.934 1012.87 211.934Z" fill="#F4D892"/>
</g>
</mask>
<g mask="url(#mask1_23:180)">
<path id="nose_2" d="M1034.4 139.323C1030.94 138.691 1025.36 138.357 1017.85 138.357C1004.99 138.357 990.71 139.323 990.561 139.361L988.962 139.472L989.185 137.873C990.412 128.802 1011.98 84.8189 1012.91 82.96L1013.91 80.8779L1015.14 82.8484C1022.65 94.6714 1035.32 135.94 1035.85 137.687L1036.48 139.732L1034.4 139.323Z" fill="#F4D892"/>
<path id="mouth_2" d="M1029.23 189.367L1001.79 188.586L999.411 216.284L997.998 216.061C977.438 212.566 960.596 205.354 950.111 199.925C938.028 193.642 926.912 182.935 918.807 169.736C909.438 154.418 904.047 135.829 903.303 115.901L903.154 112.034L905.608 115.046C905.831 115.343 929.886 144.454 952.342 152.596C953.978 153.191 955.577 153.749 957.175 154.307L957.993 154.604L959.518 183.455L983.424 184.831L985.655 162.821L987.067 163.118C996.251 165.089 1004.84 166.055 1013.28 166.055C1013.98 166.055 1014.69 166.055 1015.4 166.018C1016.51 165.981 1017.7 165.981 1019.04 165.981C1022.35 165.981 1026.07 166.055 1029.97 166.092C1033.95 166.167 1038.08 166.241 1042.32 166.241H1043.47L1046.18 188.772L1069.79 190.891V164.94L1070.91 164.791C1081.35 163.378 1088.49 160.85 1092.77 157.132C1106.97 144.677 1125.52 126.683 1125.71 126.497L1128.38 123.894L1127.9 127.612C1127.83 128.207 1125.89 142.447 1117.9 159.549C1113.18 169.587 1107.38 178.547 1100.57 186.095C1092.06 195.575 1081.99 202.9 1070.65 207.844C1058.04 213.384 1044.55 216.693 1030.6 217.697L1029.23 217.808V189.367V189.367Z" fill="#F4D892"/>
</g>
</g>
</g>
<g id="cut outs">
<g id="left eye_2">
<path id="Vector_15" d="M984.895 102.494L980.772 107.844L939.773 92.0172L920.283 54.7292L926.912 49.317L984.895 102.494Z" fill="#661F18"/>
<path id="Vector (Stroke)_15" fill-rule="evenodd" clip-rule="evenodd" d="M926.926 48.8487L985.374 102.453L980.891 108.27L939.522 92.2995L919.836 54.6374L926.926 48.8487ZM920.731 54.8209L940.026 91.7348L980.653 107.418L984.416 102.536L926.899 49.7851L920.731 54.8209Z" fill="#661F18"/>
<path id="Vector_16" d="M920.283 54.7295C920.283 54.7295 926.261 85.2288 925.42 106.033C925.42 106.033 936.21 101.04 977.856 107.237C977.856 107.237 925.06 68.7293 920.283 54.7295Z" fill="#963D29"/>
<path id="Vector (Stroke)_16" fill-rule="evenodd" clip-rule="evenodd" d="M918.995 54.982L921.525 54.3057C922.048 55.838 923.281 57.8285 925.156 60.1889C927.013 62.5265 929.428 65.1391 932.218 67.9085C937.798 73.4463 944.81 79.5431 951.696 85.2209C958.577 90.8954 965.311 96.1355 970.327 99.958C972.835 101.869 974.911 103.425 976.361 104.502C977.085 105.041 977.653 105.46 978.039 105.745C978.233 105.887 978.38 105.995 978.48 106.068L978.627 106.176L978.628 106.177C978.629 106.177 978.629 106.177 977.856 107.237L978.628 106.177L982.939 109.321L977.662 108.536C956.902 105.446 943.887 105.155 936.099 105.621C932.206 105.855 929.626 106.277 928.042 106.631C927.251 106.807 926.709 106.967 926.376 107.077C926.21 107.132 926.097 107.174 926.031 107.2C925.998 107.213 925.977 107.222 925.967 107.226C925.965 107.227 925.964 107.227 925.963 107.228L924.021 108.126L924.108 105.98C924.524 95.6971 923.253 82.9644 921.866 72.7564C921.174 67.6622 920.455 63.2153 919.91 60.0425C919.638 58.4563 919.408 57.1892 919.247 56.3195C919.167 55.8847 919.104 55.5493 919.06 55.3231C919.039 55.21 919.022 55.1242 919.011 55.067L918.995 54.983C918.995 54.9829 918.995 54.982 920.283 54.7296L918.995 54.982ZM922.811 61.454C923.307 64.435 923.896 68.1999 924.467 72.403C925.778 82.0511 927.006 94.0738 926.788 104.23C926.996 104.178 927.223 104.124 927.47 104.069C929.211 103.68 931.931 103.241 935.942 103.001C943.283 102.561 954.971 102.785 972.923 105.211C971.73 104.317 970.319 103.252 968.736 102.046C963.703 98.2104 956.941 92.9486 950.026 87.246C943.114 81.5468 936.032 75.3916 930.369 69.7717C927.538 66.9623 925.045 64.2696 923.1 61.8216C923.003 61.6987 922.906 61.5762 922.811 61.454ZM925.961 107.229C925.96 107.229 925.961 107.229 925.961 107.229Z" fill="#661F18"/>
</g>
<g id="right eye_2">
<path id="Vector_17" d="M1047.99 105.214L1052.12 110.564L1093.11 94.737L1112.6 57.449L1105.97 52.0367L1047.99 105.214Z" fill="#661F18"/>
<path id="Vector (Stroke)_17" fill-rule="evenodd" clip-rule="evenodd" d="M1105.96 51.5685L1047.51 105.173L1052 110.989L1093.37 95.0192L1113.05 57.3571L1105.96 51.5685ZM1112.16 57.5407L1092.86 94.4546L1052.23 110.138L1048.47 105.255L1105.99 52.5049L1112.16 57.5407Z" fill="#661F18"/>
<path id="Vector_18" d="M1112.6 57.4492C1112.6 57.4492 1106.63 87.9485 1107.47 108.753C1107.47 108.753 1096.68 103.76 1055.03 109.957C1055.03 109.957 1107.83 71.449 1112.6 57.4492Z" fill="#963D29"/>
<path id="Vector (Stroke)_18" fill-rule="evenodd" clip-rule="evenodd" d="M1113.89 57.7018L1111.36 57.0254C1110.84 58.5577 1109.61 60.5482 1107.73 62.9086C1105.88 65.2462 1103.46 67.8588 1100.67 70.6283C1095.09 76.166 1088.08 82.2628 1081.19 87.9406C1074.31 93.6151 1067.58 98.8552 1062.56 102.678C1060.05 104.589 1057.98 106.144 1056.53 107.222C1055.8 107.761 1055.23 108.18 1054.85 108.464C1054.66 108.606 1054.51 108.715 1054.41 108.788L1054.26 108.895L1054.26 108.897C1054.26 108.897 1054.26 108.897 1055.03 109.957L1054.26 108.897L1049.95 112.041L1055.23 111.255C1075.99 108.166 1089 107.874 1096.79 108.341C1100.68 108.574 1103.26 108.997 1104.85 109.35C1105.64 109.527 1106.18 109.687 1106.51 109.796C1106.68 109.851 1106.79 109.894 1106.86 109.92C1106.89 109.933 1106.91 109.941 1106.92 109.946C1106.92 109.946 1106.92 109.947 1106.92 109.947L1108.87 110.846L1108.78 108.7C1108.36 98.4168 1109.63 85.6841 1111.02 75.4762C1111.71 70.382 1112.43 65.935 1112.98 62.7622C1113.25 61.176 1113.48 59.9089 1113.64 59.0392C1113.72 58.6044 1113.78 58.269 1113.83 58.0428C1113.85 57.9297 1113.87 57.8439 1113.88 57.7867L1113.89 57.7028C1113.89 57.7026 1113.89 57.7018 1112.61 57.4493L1113.89 57.7018ZM1110.08 64.1738C1109.58 67.1547 1108.99 70.9196 1108.42 75.1227C1107.11 84.7709 1105.88 96.7936 1106.1 106.95C1105.89 106.898 1105.66 106.844 1105.42 106.789C1103.68 106.4 1100.96 105.961 1096.95 105.721C1089.6 105.281 1077.92 105.504 1059.97 107.931C1061.16 107.037 1062.57 105.971 1064.15 104.765C1069.18 100.93 1075.95 95.6683 1082.86 89.9657C1089.77 84.2665 1096.86 78.1113 1102.52 72.4914C1105.35 69.682 1107.84 66.9893 1109.79 64.5413C1109.88 64.4184 1109.98 64.2959 1110.08 64.1738ZM1106.93 109.948C1106.93 109.949 1106.93 109.949 1106.93 109.948Z" fill="#661F18"/>
</g>
<g id="nose_3">
<g id="cut out">
<path id="Vector_19" d="M985.076 144.154L987.248 136.093L1016.19 110.48L1042.54 136.806L1045.55 144.725L1013.11 138.59L985.076 144.154Z" fill="#661F18"/>
<path id="Vector_20" d="M1016.2 122.139C1016.2 122.139 998.06 134.618 988.321 143.268C988.321 143.268 1026.01 140.645 1040.05 143.268L1016.2 122.139Z" fill="#963D29"/>
<path id="Vector (Stroke)_19" fill-rule="evenodd" clip-rule="evenodd" d="M1016.28 120.871L1043.42 144.914L1039.87 144.251C1032.97 142.962 1020.15 142.955 1008.95 143.284C1003.37 143.447 998.23 143.693 994.483 143.898C992.61 144 991.086 144.092 990.031 144.158C989.503 144.192 989.092 144.218 988.814 144.237C988.675 144.246 988.569 144.253 988.497 144.258L988.391 144.266C988.39 144.266 988.39 144.266 988.321 143.268L988.391 144.266L985.462 144.469L987.657 142.52C992.565 138.161 999.567 132.855 1005.32 128.652C1008.2 126.547 1010.78 124.713 1012.64 123.406C1013.56 122.752 1014.31 122.23 1014.83 121.87C1015.09 121.691 1015.29 121.552 1015.42 121.458L1015.63 121.315C1015.63 121.315 1015.63 121.314 1016.2 122.138L1015.63 121.314L1016.28 120.871ZM1016.12 123.407C1016.07 123.44 1016.02 123.476 1015.97 123.512C1015.46 123.869 1014.71 124.39 1013.79 125.041C1011.94 126.343 1009.37 128.17 1006.5 130.267C1001.59 133.853 995.816 138.212 991.225 142.081C992.11 142.028 993.171 141.966 994.374 141.901C998.133 141.695 1003.29 141.449 1008.89 141.285C1018.47 141.003 1029.45 140.958 1036.88 141.798L1016.12 123.407Z" fill="#661F18"/>
</g>
</g>
<g id="mouth_3">
<path id="Vector_21" d="M1125.94 186.297C1125.94 186.297 1069.3 196.31 1014.52 196.31C964.698 196.25 903.472 183.341 903.472 183.341V194.923C905.101 205.66 927.359 212.838 949.678 215.733C960.476 217.121 977.245 218.93 997.272 219.775L999.625 212.838L1029.6 213.079V215.13V220.258C1042.45 220.016 1055.84 219.292 1069.3 217.784C1118.34 212.355 1125.94 197.878 1125.94 197.878V186.297Z" fill="#661F18"/>
<path id="Vector (Stroke)_20" fill-rule="evenodd" clip-rule="evenodd" d="M903.575 182.852L903.472 183.341C903.575 182.852 903.575 182.852 903.575 182.852L903.619 182.861L903.751 182.889C903.868 182.913 904.043 182.949 904.272 182.996C904.732 183.091 905.413 183.229 906.298 183.405C908.068 183.758 910.652 184.262 913.909 184.867C920.423 186.078 929.627 187.692 940.388 189.309C961.913 192.542 989.648 195.78 1014.52 195.81C1041.88 195.81 1069.71 193.309 1090.71 190.807C1101.21 189.556 1109.99 188.305 1116.16 187.367C1119.24 186.898 1121.66 186.507 1123.32 186.234C1124.14 186.097 1124.78 185.99 1125.2 185.916C1125.42 185.88 1125.58 185.852 1125.69 185.833L1125.85 185.805C1125.85 185.804 1125.85 185.804 1125.94 186.297L1125.85 185.805L1126.44 185.701V198.002L1126.38 198.111L1125.94 197.878C1126.38 198.111 1126.38 198.112 1126.38 198.112L1126.38 198.114L1126.38 198.118L1126.37 198.13C1126.36 198.14 1126.36 198.153 1126.35 198.17C1126.33 198.203 1126.3 198.25 1126.26 198.309C1126.19 198.427 1126.08 198.597 1125.92 198.81C1125.6 199.238 1125.09 199.844 1124.33 200.583C1122.82 202.061 1120.3 204.068 1116.24 206.237C1108.14 210.573 1093.91 215.562 1069.35 218.282C1055.88 219.792 1042.47 220.516 1029.61 220.758L1029.1 220.767V213.576L999.982 213.341L997.625 220.291L997.251 220.275C977.206 219.429 960.422 217.618 949.615 216.23C938.431 214.779 927.24 212.252 918.627 208.732C914.322 206.972 910.638 204.954 907.92 202.681C905.203 200.409 903.41 197.847 902.978 194.998L902.972 194.96V182.725L903.575 182.852ZM1125.44 197.743V186.891C1125.42 186.895 1125.39 186.898 1125.37 186.902C1124.94 186.976 1124.31 187.083 1123.48 187.22C1121.82 187.494 1119.39 187.886 1116.31 188.356C1110.14 189.295 1101.34 190.548 1090.83 191.8C1069.81 194.305 1041.94 196.81 1014.52 196.81C989.575 196.78 961.783 193.534 940.239 190.297C929.465 188.679 920.249 187.063 913.726 185.851C910.464 185.245 907.876 184.74 906.103 184.386C905.216 184.209 904.533 184.071 904.071 183.976C904.037 183.969 904.004 183.962 903.972 183.955V194.884C904.364 197.39 905.962 199.74 908.561 201.913C911.172 204.096 914.753 206.067 919.006 207.806C927.51 211.283 938.608 213.793 949.743 215.238C960.463 216.615 977.076 218.409 996.919 219.26L999.267 212.335L1030.1 212.584V219.748C1042.79 219.498 1055.98 218.774 1069.24 217.288C1093.72 214.578 1107.81 209.614 1115.77 205.355C1119.75 203.226 1122.19 201.274 1123.63 199.867C1124.36 199.164 1124.83 198.597 1125.11 198.212C1125.26 198.019 1125.36 197.872 1125.42 197.776C1125.42 197.764 1125.43 197.753 1125.44 197.743Z" fill="#661F18"/>
<path id="Vector_22" d="M1092.88 205.539C1087.99 206.625 1079.79 207.228 1070.32 207.53V214.105L1044.2 213.502L1041.49 207.832C1031.35 207.832 1021.7 207.711 1014.52 207.771C1004.75 207.832 995.341 207.53 985.81 207.047L983.578 212.537L957.218 212.175L955.71 204.876C954.081 204.755 952.513 204.574 950.884 204.454C927.72 202.342 903.471 194.923 903.471 194.923C905.1 205.66 927.358 212.838 949.677 215.734C960.475 217.121 977.244 218.931 997.271 219.775L999.624 212.838L1029.6 213.08V220.198C1042.45 219.956 1055.84 219.232 1069.29 217.724C1118.34 212.295 1125.94 197.818 1125.94 197.818C1125.94 197.818 1107.3 202.403 1092.88 205.539Z" fill="#963D29"/>
<path id="Vector (Stroke)_21" fill-rule="evenodd" clip-rule="evenodd" d="M904.013 193.151L901.198 192.289L901.639 195.2C902.139 198.495 904.192 201.328 907.051 203.718C909.916 206.114 913.738 208.195 918.114 209.984C926.873 213.564 938.189 216.111 949.439 217.571L949.441 217.571C960.277 218.963 977.1 220.779 997.193 221.626L998.58 221.685L1000.95 214.701L1027.75 214.917V222.085L1029.64 222.05C1042.53 221.808 1055.98 221.081 1069.5 219.565C1094.18 216.834 1108.58 211.81 1116.88 207.369C1121.03 205.146 1123.66 203.067 1125.28 201.491C1126.08 200.704 1126.64 200.045 1127 199.559C1127.18 199.317 1127.31 199.118 1127.41 198.969C1127.45 198.895 1127.49 198.833 1127.52 198.785C1127.53 198.76 1127.54 198.739 1127.55 198.722L1127.57 198.698L1127.57 198.688L1127.58 198.683C1127.58 198.681 1127.58 198.679 1125.94 197.818L1127.58 198.679L1129.49 195.036L1125.49 196.019L1125.94 197.818C1125.49 196.019 1125.49 196.019 1125.49 196.019L1125.49 196.019L1124.67 196.221C1124.13 196.352 1123.35 196.543 1122.36 196.783C1120.39 197.261 1117.61 197.931 1114.39 198.7C1107.93 200.237 1099.68 202.164 1092.49 203.728L1092.48 203.73C1087.78 204.774 1079.74 205.376 1070.26 205.678L1068.47 205.735V212.208L1045.38 211.675L1042.65 205.978H1041.49C1037.23 205.978 1033.04 205.957 1029.08 205.937C1023.66 205.909 1018.66 205.883 1014.51 205.918C1004.78 205.978 995.411 205.678 985.904 205.196L984.589 205.13L982.338 210.666L958.731 210.342L957.241 203.131L955.847 203.028C955.054 202.969 954.273 202.895 953.471 202.82L953.462 202.819C952.674 202.744 951.864 202.668 951.037 202.607C939.582 201.561 927.829 199.201 918.918 197.093C914.465 196.04 910.733 195.052 908.116 194.329C906.808 193.967 905.779 193.671 905.078 193.467C904.728 193.364 904.46 193.285 904.281 193.231C904.191 193.204 904.123 193.184 904.078 193.17L904.028 193.155L904.013 193.151ZM1119.83 201.208C1118.45 201.539 1116.91 201.909 1115.24 202.305C1108.78 203.844 1100.5 205.777 1093.28 207.349C1088.53 208.404 1080.89 209.001 1072.17 209.32V215.523C1094.64 212.763 1107.7 208.078 1115.13 204.101C1117.05 203.074 1118.59 202.094 1119.83 201.208ZM1068.74 215.921L1043.02 215.328L1040.32 209.684C1036.42 209.68 1032.62 209.661 1029.02 209.642C1023.62 209.614 1018.68 209.589 1014.54 209.624L1014.53 209.624C1005.17 209.682 996.138 209.408 987.031 208.963L984.818 214.406L955.704 214.007L954.175 206.607C953.824 206.575 953.475 206.542 953.131 206.51L953.123 206.509C952.321 206.433 951.54 206.36 950.747 206.301L950.731 206.3L950.716 206.298C939.012 205.232 927.065 202.828 918.065 200.699C913.56 199.634 909.782 198.634 907.128 197.901C906.926 197.845 906.73 197.79 906.541 197.737C907.225 198.786 908.183 199.834 909.428 200.875C911.892 202.936 915.335 204.844 919.517 206.553C927.874 209.97 938.847 212.46 949.916 213.896C960.426 215.246 976.616 216.998 995.963 217.863L998.299 210.974L1031.46 211.241V218.306C1043.57 218.034 1056.13 217.322 1068.74 215.921Z" fill="#661F18"/>
</g>
</g>
</g>
<path id="leaves-motion-path" d="M-64.2112 -156.19C17.2578 76.7322 280.263 542.577 680.533 542.577C1080.8 542.577 1388.69 76.7322 1492.59 -156.19" stroke="#45825B" stroke-width="10"/>
</g>
<defs>
<clipPath id="clip0_23:180">
<rect width="1440" height="1024" fill="white"/>
</clipPath>
</defs>
</svg>
