<svg width="1440" height="1024" viewBox="0 0 1440 1024" fill="none" xmlns="http://www.w3.org/2000/svg">
<g id="preloader">
<rect width="1440" height="1024" fill="white"/>
<g id="baby pumpkin">
<g id="Vector">
<mask id="path-1-inside-1_23:180" fill="white">
<path d="M748.495 453.27C744.697 456.541 745.078 458.325 745.903 459.803C746.727 461.281 743.21 461.693 743.055 459.181C742.901 456.67 744.865 453.154 746.931 452.501C748.988 451.807 748.495 453.27 748.495 453.27Z"/>
</mask>
<path d="M748.495 453.27C744.697 456.541 745.078 458.325 745.903 459.803C746.727 461.281 743.21 461.693 743.055 459.181C742.901 456.67 744.865 453.154 746.931 452.501C748.988 451.807 748.495 453.27 748.495 453.27Z" fill="#45825B" stroke="#3D5545" stroke-width="0.580782" mask="url(#path-1-inside-1_23:180)"/>
</g>
<g id="Vector_2">
<mask id="path-2-inside-2_23:180" fill="white">
<path d="M739.937 468.414C740.63 471.658 743.578 472.556 746.783 471.871C750.029 471.178 752.313 469.163 751.62 465.918C750.927 462.674 747.485 459.465 744.28 460.149C741.075 460.833 739.252 465.209 739.937 468.414Z"/>
</mask>
<path d="M739.937 468.414C740.63 471.658 743.578 472.556 746.783 471.871C750.029 471.178 752.313 469.163 751.62 465.918C750.927 462.674 747.485 459.465 744.28 460.149C741.075 460.833 739.252 465.209 739.937 468.414Z" fill="#8DC69E" stroke="#45825B" stroke-width="0.580782" mask="url(#path-2-inside-2_23:180)"/>
</g>
</g>
<circle id="Ellipse 7" cx="746.5" cy="453.918" r="1.4" fill="#45825B" stroke="#3D5545" stroke-width="0.2"/>
<g id="whole-plant">
<g id="baby plant split">
<path id="right plant" fill-rule="evenodd" clip-rule="evenodd" d="M658.863 580.55C649.498 582.168 638.008 585.879 638.557 594.663C639.516 607.812 623.353 608.36 623.353 608.36C623.353 608.36 629.38 586.17 645.543 579.321C651.562 576.72 657.2 575.999 661.617 576.14C667.001 575.563 675.364 576.094 683.776 582.257C692.342 588.534 694.435 594.861 695.963 599.482C696.953 602.474 697.706 604.751 699.827 605.835C699.827 605.835 682.669 600.595 676.166 594.115C675.481 593.432 674.785 592.727 674.081 592.013C669.215 587.079 663.93 581.719 658.863 580.55Z" fill="#45825B"/>
<path id="left plant" fill-rule="evenodd" clip-rule="evenodd" d="M585.732 583.986C592.936 578.994 599.863 581.906 599.863 581.906C599.863 581.906 599.966 581.973 600.119 582.081C604.292 583.033 611.389 585.21 616.006 586.942C623.677 589.818 631.21 597.626 630.114 603.927C628.882 610.091 621.896 607.351 621.896 607.351C621.896 607.351 622.718 592.147 610.801 588.037C602.938 585.247 600.189 584.075 598.883 583.361C596.104 583.517 593.031 586.501 590.256 589.196C589.945 589.498 589.637 589.797 589.334 590.087C586.009 593.276 577.42 595.634 577.42 595.634C578.509 595.089 578.913 593.944 579.44 592.452C580.253 590.148 581.359 587.016 585.732 583.986Z" fill="#45825B"/>
</g>
<g id="baby pumpkin plant">
<path id="right plant_2" fill-rule="evenodd" clip-rule="evenodd" d="M636.75 545.438C636.732 545.466 636.714 545.493 636.696 545.52C635.569 547.164 633.034 552.097 635.006 557.577C636.558 561.893 635.84 564.764 634.915 568.465C634.665 569.465 634.4 570.524 634.16 571.689C633.098 576.855 633.788 597.115 633.871 599.425C634.983 600.284 635.709 601.692 635.709 603.285C635.709 605.901 633.752 608.021 631.337 608.021C628.923 608.021 626.966 605.901 626.966 603.285C626.966 602.542 627.124 601.839 627.405 601.213C627.177 600.764 626.94 600.286 626.695 599.777C621.61 589.2 624.876 580.535 628.032 572.162C629.946 567.085 631.819 562.115 631.766 556.892C631.766 556.497 631.72 555.893 631.664 555.153L631.664 555.153C631.409 551.786 630.941 545.599 633.597 543.465C634.129 543.055 634.599 542.785 635.007 542.626C635.215 542.511 635.455 542.446 635.709 542.446C635.733 542.446 635.757 542.447 635.781 542.448C635.84 542.445 635.897 542.446 635.953 542.449C636.984 541.694 648.351 533.774 664.096 539.281C674.078 542.802 677.824 548.169 680.566 552.098C682.325 554.617 683.671 556.546 685.983 557.018C685.983 557.018 668.225 556.884 660.104 552.584C659.19 552.1 658.261 551.596 657.322 551.087C650.06 547.147 642.235 542.902 636.75 545.438Z" fill="#45825B"/>
<path id="left plant_2" fill-rule="evenodd" clip-rule="evenodd" d="M621.63 540.561C629.517 537.504 635.265 542.228 635.265 542.228C635.265 542.228 635.347 542.321 635.466 542.466C635.545 542.453 635.626 542.446 635.709 542.446C635.733 542.446 635.757 542.447 635.78 542.448C636.544 542.413 636.98 542.893 637.118 543.531C637.149 543.65 637.166 543.775 637.166 543.903C637.166 543.917 637.166 543.931 637.165 543.945C637.177 544.474 637.016 545.052 636.695 545.52C635.569 547.164 633.033 552.097 635.005 557.577C636.558 561.893 635.84 564.764 634.915 568.465C634.665 569.465 634.4 570.524 634.16 571.689C633.098 576.855 633.788 597.115 633.871 599.425C634.983 600.284 635.709 601.692 635.709 603.285C635.709 605.901 633.752 608.021 631.337 608.021C628.923 608.021 626.965 605.901 626.965 603.285C626.965 602.542 627.123 601.839 627.405 601.213C627.176 600.764 626.94 600.286 626.695 599.777C621.609 589.2 624.876 580.535 628.032 572.162C629.946 567.085 631.819 562.115 631.766 556.892C631.766 556.497 631.72 555.893 631.664 555.153C631.409 551.786 630.941 545.599 633.597 543.465C633.656 543.42 633.714 543.376 633.771 543.334C631.158 542.917 627.687 544.937 624.565 546.754L624.565 546.754C624.205 546.963 623.85 547.17 623.502 547.37C619.625 549.593 610.936 549.732 610.936 549.732C612.087 549.46 612.747 548.464 613.604 547.169C614.938 545.156 616.749 542.421 621.63 540.561Z" fill="#45825B"/>
</g>
<g id="p-plant3">
<path id="stem3" d="M622.958 598.913C617.372 582.519 598.477 546.089 567.584 531.517" stroke="#45825B" stroke-width="15" stroke-linecap="round"/>
<g id="leaf-head3">
<ellipse id="morph-leaf3" cx="567.584" cy="531.516" rx="5.46457" ry="5.82888" fill="#45825B"/>
<path id="leaf3" d="M571.688 555.859C576.864 546.149 567.778 535.247 562.588 531.009C566.589 532.403 576.157 533.156 582.429 525.024C590.268 514.859 589.821 510.778 582.171 502.693C574.521 494.608 561.836 495.61 556.531 495.817C551.225 496.025 541.196 490.476 537.831 495.845C534.465 501.214 526.826 500.609 515.256 505.924C503.686 511.239 514.888 516.636 513.77 520.92C512.652 525.203 521.722 535.651 518.667 542.811C515.613 549.97 517.34 546.086 532.649 557.4C547.959 568.714 565.217 567.997 571.688 555.859Z" fill="#2F573E"/>
<g id="leaf-lines3">
<path id="main-line3" d="M565.072 532.1C557.799 524.437 549.099 523.202 538.474 522.835C529.973 522.542 517.447 513.886 512.247 509.595" stroke="#54A06F" stroke-width="1.93794" stroke-linecap="round" stroke-linejoin="round"/>
<path id="outward-lines3" d="M538.851 522.867C537.372 519.424 535.447 511.177 539.584 505.74M545.309 523.366C540.487 526.297 530.237 534.227 527.803 542.5M556.274 525.5C552.905 521.399 547.773 510.091 554.192 497.674M562.86 530.67C558.559 532.286 548.819 538.787 544.267 551.854M527.803 519.659C526.037 520.975 522.062 524.873 520.297 529.94M520.923 515.314C520.341 514.301 519.493 511.264 520.753 507.218" stroke="#54A06F" stroke-width="1.93794" stroke-linecap="round"/>
</g>
</g>
</g>
<g id="p-plant1">
<path id="stem1" d="M622.958 599.642C624.051 562.483 645.982 481.462 724.963 454.649C823.69 421.133 825.876 493.265 910.03 496.908" stroke="#45825B" stroke-width="15" stroke-linecap="round"/>
<g id="leaf-head1">
<circle id="leaf-morph1" cx="910.03" cy="496.908" r="5.46457" fill="#45825B"/>
<path id="leaf1" d="M890.39 451.021C882.303 472.244 903.73 492.219 915.455 499.553C906.903 497.735 887.114 498.668 876.375 516.944C862.952 539.789 864.924 548.03 882.682 562.606C900.441 577.182 926.156 571.848 936.967 570.05C947.778 568.251 969.75 577.02 975.252 565.154C980.755 553.288 996.555 552.55 1018.87 538.672C1041.19 524.795 1016.85 516.641 1018.03 507.581C1019.21 498.521 997.938 479.472 1002.34 464.02C1006.74 448.569 1004.21 456.969 969.933 437.763C935.654 418.557 900.5 424.492 890.39 451.021Z" fill="#2F573E"/>
<g id="leaf-lines1">
<path id="main-line1" d="M910.635 498.014C926.58 508.852 943.146 509.767 963.017 509.15C978.913 508.656 1004.94 520.422 1015.97 526.367" stroke="#54A06F" stroke-width="4" stroke-linecap="round" stroke-linejoin="round"/>
<path id="outward-lines1" d="M966.17 510.085C970.091 516.753 976.166 533.142 969.102 545.346M952.607 509.063C961.721 501.814 980.66 482.923 983.502 465.351M929.551 507.141C937.511 514.669 950.946 536.495 941.016 563.584M914.986 500.32C923.376 495.897 941.64 480.065 947.579 452.128M988.059 513.993C991.336 510.842 998.466 501.83 1000.77 490.997M1004.84 520.913C1006.29 522.836 1008.81 528.835 1007.28 537.447" stroke="#54A06F" stroke-width="4" stroke-linecap="round"/>
</g>
</g>
</g>
<g id="p-plant2">
<path id="stem2" d="M623.322 601.828C622.837 540.382 586.528 426.233 445.177 461.206" stroke="#45825B" stroke-width="15" stroke-linecap="round"/>
<g id="leaf-head2">
<circle id="morph-leaf2" cx="445.177" cy="461.206" r="5.46457" fill="#45825B"/>
<path id="leaf2" d="M458.721 426.326C465.957 441.776 451.014 457.929 442.638 464.074C448.944 462.238 463.82 461.838 472.879 474.933C484.202 491.302 483.182 497.584 470.688 509.489C458.195 521.395 438.634 518.826 430.436 518.079C422.237 517.332 406.264 525.12 401.483 516.536C396.703 507.953 384.826 508.277 367.337 499.119C349.848 489.962 367.627 482.503 366.24 475.782C364.852 469.06 379.733 453.609 375.578 442.278C371.422 430.947 373.785 437.1 398.398 420.81C423.011 404.519 449.675 407.014 458.721 426.326Z" fill="#2F573E"/>
<g id="leaf-lines2">
<path id="main-line2" d="M446.164 462.653C434.82 471.658 422.462 473.263 407.541 473.903C395.605 474.416 376.76 484.675 368.83 489.74" stroke="#54A06F" stroke-width="3.00471" stroke-linecap="round" stroke-linejoin="round"/>
<path id="outward-lines2" d="M405.231 474.779C402.664 479.993 399.023 492.607 404.992 501.357M415.335 473.261C408.105 468.337 392.869 455.236 389.765 442.231M432.5 470.542C426.955 476.622 418.102 493.719 427.044 513.461M443.032 464.624C436.502 461.775 421.941 450.929 415.941 430.33M389.051 478.922C386.421 476.743 380.579 470.388 378.253 462.401M376.866 485.037C375.883 486.558 374.326 491.192 375.953 497.559" stroke="#54A06F" stroke-width="3.00471" stroke-linecap="round"/>
</g>
</g>
</g>
<g id="p-plant4">
<path id="stem4" d="M541.354 460.477C529.453 453.191 506.599 431.114 510.388 401.096" stroke="#45825B" stroke-width="10" stroke-linecap="round"/>
<g id="leaf-head4">
<circle id="moprh-leaf4" cx="510.388" cy="401.096" r="3.64305" fill="#45825B"/>
<path id="leaf4" d="M519.285 412.969C512.332 411.838 510.305 402.982 510.16 398.695C509.318 401.273 505.99 406.438 499.416 406.477C491.198 406.526 489.294 404.715 488.144 397.683C486.994 390.651 492.425 384.58 494.589 381.959C496.753 379.338 497.817 372.078 501.857 372.447C505.897 372.816 508.552 368.691 515.747 364.861C522.941 361.03 521.344 368.829 523.959 369.921C526.574 371.013 528.376 379.685 533.207 380.907C538.038 382.129 535.39 381.501 535.213 393.686C535.036 405.872 527.976 414.382 519.285 412.969Z" fill="#2F573E"/>
<g id="leaf-lines4">
<path id="main-line4" d="M509.824 400.228C509.395 394.264 511.726 389.676 514.982 384.44C517.587 380.251 518.477 371.437 518.597 367.554" stroke="#54A06F" stroke-width="1.24059" stroke-linecap="round" stroke-linejoin="round"/>
<path id="outward-lines4" d="M515.221 383.448C514.041 381.358 510.589 377.179 506.215 377.177M513.386 387.246C516.748 385.928 524.763 383.784 529.92 385.754M510.316 393.731C509.534 390.425 505.767 383.425 496.953 381.877M509.881 398.701C512.373 397.137 519.462 394.699 527.882 397.45M517.576 376.966C518.932 376.577 522.459 376.065 525.724 377.132M518.329 371.388C518.039 370.699 516.822 369.089 514.272 368.16" stroke="#54A06F" stroke-width="1.24059" stroke-linecap="round"/>
</g>
</g>
</g>
<g id="dirt">
<path id="dirt outline" d="M829.698 600.944L829.424 602.313C827.095 601.902 824.903 601.491 822.712 601.081C818.876 600.396 815.178 599.711 811.891 599.163C796.823 596.697 786.276 595.602 775.318 596.697C774.77 596.697 774.359 596.834 773.811 596.834C768.606 597.656 762.031 599.711 754.498 602.039C735.184 608.203 708.611 616.422 684.503 608.477C652.862 597.93 614.097 595.054 590.126 601.492C579.716 604.231 543.418 612.861 515.748 605.738C495.75 600.67 478.08 598.478 456.575 604.231C454.109 604.916 451.37 605.464 448.356 606.149C440.823 607.792 431.645 609.299 423.016 610.669C421.098 610.943 419.18 611.217 417.4 611.491L417.126 610.121C418.906 609.847 420.687 609.573 422.468 609.299C430.823 608.066 439.59 606.56 446.987 605.053C450.411 604.368 453.561 603.683 456.164 602.998C477.943 597.245 495.75 599.437 516.022 604.505C534.514 609.162 562.046 607.518 589.716 600.259C614.234 593.684 652.451 596.56 684.914 607.244C708.474 615.052 734.773 606.834 753.95 600.807C761.894 598.341 768.88 596.149 774.222 595.465C774.496 595.465 774.77 595.328 775.044 595.328C786.276 594.232 797.097 595.328 812.576 597.93C815.863 598.478 819.424 599.163 823.26 599.848C825.314 600.122 827.506 600.533 829.698 600.944Z" fill="#63432E"/>
<path id="large dirt" d="M822.961 600.988C813.509 621.444 773.371 637.096 751.453 645.882C725.836 656.179 738.987 692.974 688.301 702.447C637.616 712.057 612.684 669.359 550.765 678.558C488.846 687.756 496.791 656.179 459.668 643.686C439.119 636.821 428.023 623.778 422.955 610.461C431.722 609.088 440.763 607.578 448.297 605.93C451.311 605.244 454.051 604.695 456.517 604.008C477.887 598.242 495.696 600.438 515.696 605.518C543.368 612.52 579.67 604.008 590.081 601.262C614.054 594.809 652.821 597.83 684.466 608.264C708.439 616.227 735.015 607.852 754.467 601.811C762.001 599.477 768.577 597.418 773.782 596.594C774.33 596.457 774.878 596.457 775.289 596.457C786.248 595.359 796.933 596.457 811.865 598.928C815.427 599.752 818.989 600.301 822.961 600.988Z" fill="#C47B57"/>
</g>
</g>
<g id="grown up pumpkin">
<path id="Vector_3" d="M756.986 476.156C754.378 476.486 752.673 477.527 752.149 477.837C751.626 478.148 749.57 479.028 748.004 481.614C745.368 476.552 741.807 467.041 743.886 454.65C743.872 454.771 743.886 454.649 747.77 453.845C746.271 467.095 749.934 473.984 756.986 476.156Z" fill="#44150E"/>
<path id="Vector_4" d="M817.588 524.427C812.757 533.397 806.194 538.566 800.352 541.607C804.998 538.865 809.962 534.319 813.479 526.738C820.713 510.864 818.663 498.148 809.453 483.677C800.311 469.152 785.414 465.333 776.019 467.255C774.514 467.582 773.049 468.097 771.76 468.693C774.123 467.234 776.648 465.976 779.604 465.255C790.181 462.604 806.502 465.719 815.778 480.136C825.122 494.499 826.716 507.472 817.588 524.427Z" fill="#B9542F" stroke="#7D2B1B" stroke-width="0.551355" stroke-miterlimit="10"/>
<path id="Vector_5" d="M813.425 526.671C809.908 534.252 804.944 538.798 800.298 541.54C799.452 542 798.606 542.459 797.827 542.865C797.961 542.757 798.095 542.649 798.296 542.487C801.223 540.354 803.997 536.796 805.609 530.969C809.325 517.041 806.173 504.879 797.286 490.259C788.399 475.639 776.309 470.226 769.196 470.865C768.887 470.892 768.578 470.92 768.201 471.002C767.892 471.03 767.637 471.124 767.261 471.206C768.657 470.194 770.107 469.248 771.718 468.504C773.008 467.909 774.405 467.448 775.978 467.067C785.373 465.145 800.203 469.017 809.412 483.488C818.608 498.081 820.713 510.863 813.425 526.671Z" fill="#B9542F" stroke="#7D2B1B" stroke-width="0.551355" stroke-miterlimit="10"/>
<path id="Vector_6" d="M805.663 531.035C804.105 536.93 801.277 540.421 798.351 542.553C798.216 542.661 798.082 542.769 797.881 542.931C796.498 543.823 795.074 544.526 793.744 544.933C793.824 544.758 793.959 544.65 794.039 544.475C794.106 544.421 794.119 544.3 794.119 544.3C794.882 542.913 795.185 540.679 794.907 537.036C793.869 525.716 789.159 514.366 780.595 499.597C773.07 486.533 765.668 479.117 761.385 476.816C761.331 476.749 761.21 476.736 761.156 476.668C760.86 476.575 760.631 476.428 760.335 476.335C762.347 474.164 764.399 472.181 767.369 471.339C767.624 471.245 767.933 471.217 768.31 471.135C768.619 471.107 768.928 471.08 769.304 470.998C776.363 470.293 788.453 475.705 797.394 490.392C806.16 504.999 809.379 517.107 805.663 531.035Z" fill="#B9542F" stroke="#7D2B1B" stroke-width="0.551355" stroke-miterlimit="10"/>
<path id="Vector_7" d="M794.92 536.915C795.266 540.505 794.895 542.792 794.132 544.179C794.065 544.233 794.052 544.354 794.052 544.354C793.972 544.529 793.838 544.637 793.758 544.812C792.833 545.998 791.839 546.687 790.993 547.146C790.013 547.714 789.046 548.16 787.567 548.245C787.379 548.286 787.258 548.273 787.016 548.247C786.894 548.234 786.894 548.234 786.773 548.22C785.2 548.05 783.086 547.209 780.202 544.998C771.268 538.151 764.142 528.192 756.114 512.992C749.046 499.671 746.653 489.552 747.003 484.629C747.016 484.508 747.029 484.387 747.029 484.387C747.069 484.024 747.095 483.781 747.188 483.485C747.268 483.31 747.228 483.122 747.308 482.947C747.548 482.422 747.789 481.897 748.084 481.439C749.651 478.852 751.706 477.973 752.23 477.662C752.753 477.351 754.404 476.244 757.066 475.981C757.873 475.885 758.855 475.869 759.823 475.973C759.944 475.987 760.119 476.067 760.294 476.147C760.591 476.24 760.82 476.388 761.116 476.481C761.17 476.548 761.291 476.561 761.345 476.628C761.399 476.695 761.399 476.695 761.52 476.708C762.382 477.23 763.419 477.833 764.538 478.811C768.81 482.336 774.624 489.152 780.608 499.476C789.16 514.366 793.869 525.716 794.92 536.915Z" fill="#B9542F" stroke="#7D2B1B" stroke-width="0.551355" stroke-miterlimit="10"/>
<path id="Vector_8" d="M781.27 552.095C775.576 555.459 767.676 558.278 757.521 557.607C738.3 556.382 728.112 548.113 720.85 532.628C713.534 517.076 719.68 501.635 727.487 494.029C729.741 491.884 732.05 490.358 734.562 489.222C733.313 490.005 732.172 490.923 731.126 492.095C724.501 498.972 719.846 513.656 727.296 529.101C734.746 544.545 744.411 553.125 761.684 555.363C769.957 556.443 776.462 554.636 781.27 552.095Z" fill="#B9542F" stroke="#7D2B1B" stroke-width="0.551355" stroke-miterlimit="10"/>
<path id="Vector_9" d="M783.62 550.758C782.895 551.231 782.049 551.69 781.203 552.15C776.395 554.691 769.891 556.498 761.617 555.418C744.344 553.18 734.679 544.6 727.229 529.156C719.779 513.711 724.434 499.027 731.06 492.15C732.16 491.045 733.367 490.073 734.495 489.277C735.945 488.331 737.557 487.587 739.155 486.964C738.954 487.126 738.74 487.409 738.471 487.625C738.257 487.908 738.056 488.07 737.841 488.353C733.499 493.946 731.704 507.102 739.355 522.385C747.061 537.734 755.624 546.868 769.379 551.053C775.247 552.852 779.711 552.356 783.042 551.002C783.298 550.907 783.486 550.866 783.62 550.758Z" fill="#B9542F" stroke="#7D2B1B" stroke-width="0.551355" stroke-miterlimit="10"/>
<path id="Vector_10" d="M787.499 548.299C786.426 549.163 785.164 550.067 783.619 550.757C783.431 550.798 783.297 550.906 783.109 550.947C779.777 552.301 775.314 552.797 769.446 550.998C755.691 546.814 747.073 537.612 739.422 522.33C731.716 506.981 733.565 493.891 737.908 488.298C738.122 488.015 738.27 487.786 738.538 487.57C738.752 487.287 738.954 487.125 739.222 486.909C741.53 484.832 744.298 484.152 747.175 483.606C747.148 483.848 747.055 484.144 747.016 484.508C747.003 484.629 746.989 484.75 746.989 484.75C746.639 489.673 749.032 499.792 756.1 513.113C764.074 528.246 771.201 538.204 780.189 545.119C783.072 547.329 785.186 548.171 786.76 548.341C786.881 548.354 786.881 548.354 787.002 548.368C787.19 548.327 787.311 548.34 787.499 548.299Z" fill="#B9542F" stroke="#7D2B1B" stroke-width="0.551355" stroke-miterlimit="10"/>
</g>
<g id="full pum[kin">
<g id="pumpkin">
<g id="pumpkin body final">
<path id="Vector_11" d="M720.385 685.046C696.181 700.513 672.721 704.342 654.095 703.933C669.45 703.524 688.002 699.063 707.038 685.046C746.856 655.712 759.014 621.247 756.263 572.728C753.511 524.21 721.946 494.244 696.07 486.213C691.794 484.874 687.63 484.168 683.578 483.871C691.385 483.424 699.342 483.945 707.781 486.213C737.562 494.244 773.886 524.21 777.083 572.728C780.243 621.284 766.227 655.749 720.385 685.046Z" fill="#B9542F" stroke="#7D2B1B" stroke-width="2.93278" stroke-miterlimit="10"/>
<path id="Vector_12" d="M707.037 685.047C688.001 699.063 669.449 703.525 654.094 703.934C651.38 704.008 648.74 703.934 646.249 703.785C646.77 703.748 647.327 703.673 647.848 703.636C657.998 702.409 669.746 697.465 681.792 685.047C710.234 655.712 718.897 621.248 716.926 572.729C714.956 524.21 692.425 494.244 673.947 486.213C673.092 485.842 672.237 485.507 671.419 485.247C670.564 484.949 669.746 484.726 668.891 484.54C673.687 483.871 678.595 483.536 683.577 483.908C687.629 484.206 691.793 484.912 696.069 486.251C721.946 494.281 753.51 524.247 756.262 572.766C759.013 621.285 746.855 655.75 707.037 685.047Z" fill="#B9542F" stroke="#7D2B1B" stroke-width="2.93278" stroke-miterlimit="10"/>
<path id="Vector_13" d="M681.755 685.047C669.709 697.464 657.96 702.372 647.81 703.636C647.29 703.71 646.732 703.748 646.212 703.785C641.49 704.194 637.14 703.822 633.311 703.078C633.757 702.855 634.24 702.632 634.723 702.335C634.909 702.223 635.058 702.112 635.244 702C638.925 699.546 642.977 694.453 647.067 685.047C659.856 655.712 663.76 621.247 662.868 572.729C662.087 529.899 654.094 501.568 646.546 489.968C646.398 489.745 646.249 489.522 646.1 489.299C645.58 488.555 645.059 487.886 644.539 487.291C652.495 484.726 660.377 482.532 668.891 484.577C669.709 484.763 670.564 485.023 671.419 485.284C672.274 485.581 673.092 485.879 673.947 486.25C692.425 494.281 714.956 524.247 716.926 572.766C718.859 621.285 710.197 655.75 681.755 685.047Z" fill="#B9542F" stroke="#7D2B1B" stroke-width="2.93278" stroke-miterlimit="10"/>
<path id="Vector_14" d="M647.067 685.047C642.978 694.453 638.925 699.546 635.244 702C635.059 702.112 634.91 702.223 634.724 702.335C634.241 702.632 633.795 702.855 633.311 703.078C629.37 704.826 625.875 705.049 623.236 705.012C620.038 704.975 617.101 704.826 613.16 703.078C612.714 702.855 612.231 702.632 611.747 702.335C611.561 702.223 611.413 702.112 611.227 702C607.546 699.546 603.494 694.453 599.404 685.047C586.614 655.712 582.711 621.247 583.603 572.729C584.384 529.899 592.377 501.568 599.924 489.968C600.073 489.745 600.222 489.522 600.371 489.299C600.891 488.556 601.412 487.886 601.932 487.291C602.267 486.92 602.564 486.511 602.936 486.25C604.274 485.172 605.613 484.28 606.914 483.574C614.35 479.335 620.596 480.004 622.343 480.004C623.979 480.004 629.705 479.558 636.62 482.384C638.814 483.276 641.156 484.54 643.535 486.25C643.907 486.511 644.205 486.92 644.502 487.291C645.023 487.886 645.543 488.556 646.064 489.299C646.212 489.522 646.361 489.745 646.51 489.968C646.584 490.08 646.658 490.229 646.77 490.34C648.294 492.757 649.856 495.843 651.343 499.598C657.18 514.246 662.274 539.007 662.868 572.729C663.761 621.285 659.857 655.75 647.067 685.047Z" fill="#B9542F" stroke="#7D2B1B" stroke-width="2.93278" stroke-miterlimit="10"/>
<path id="Vector_15" d="M592.414 703.933C573.788 704.342 550.291 700.513 526.087 685.046C480.245 655.712 466.266 621.247 469.426 572.728C472.624 524.21 508.947 494.244 538.728 486.213C547.13 483.945 555.124 483.424 562.931 483.871C558.879 484.168 554.715 484.874 550.439 486.213C524.563 494.244 492.998 524.21 490.246 572.728C487.495 621.247 499.653 655.712 539.471 685.046C558.507 699.063 577.022 703.524 592.414 703.933Z" fill="#B9542F" stroke="#7D2B1B" stroke-width="2.93278" stroke-miterlimit="10"/>
<path id="Vector_16" d="M600.259 703.784C597.768 703.933 595.128 704.008 592.414 703.933C577.059 703.524 558.507 699.063 539.471 685.046C499.652 655.712 487.495 621.247 490.246 572.728C492.997 524.21 524.562 494.244 550.439 486.213C554.715 484.874 558.879 484.168 562.931 483.871C567.913 483.536 572.821 483.833 577.617 484.503C576.799 484.688 575.944 484.949 575.089 485.209C574.233 485.506 573.416 485.804 572.56 486.176C554.082 494.206 531.552 524.173 529.581 572.691C527.611 621.21 536.274 655.675 564.716 685.009C576.762 697.427 588.51 702.334 598.66 703.599C599.181 703.71 599.738 703.747 600.259 703.784Z" fill="#B9542F" stroke="#7D2B1B" stroke-width="2.93278" stroke-miterlimit="10"/>
<path id="Vector_17" d="M613.161 703.079C609.331 703.822 604.981 704.194 600.26 703.785C599.739 703.748 599.219 703.674 598.661 703.636C588.511 702.409 576.762 697.465 564.716 685.047C536.274 655.713 527.612 621.248 529.582 572.729C531.553 524.21 554.083 494.244 572.561 486.214C573.416 485.842 574.271 485.507 575.089 485.247C575.944 484.949 576.762 484.726 577.617 484.54C586.131 482.533 594.013 484.726 601.97 487.255C601.449 487.849 600.929 488.519 600.408 489.262C600.259 489.485 600.111 489.708 599.962 489.931C592.378 501.531 584.421 529.899 583.64 572.692C582.748 621.211 586.652 655.675 599.442 685.01C603.531 694.416 607.547 699.51 611.264 701.963C611.45 702.075 611.599 702.186 611.785 702.298C612.231 702.633 612.677 702.893 613.161 703.079Z" fill="#B9542F" stroke="#7D2B1B" stroke-width="2.93278" stroke-miterlimit="10"/>
</g>
<path id="stem" d="M636.62 482.384C629.667 479.521 623.979 480.004 622.343 480.004C620.595 480.004 614.312 479.298 606.914 483.573C607.285 467.475 611.524 438.959 633.645 411C633.534 411.297 630.522 420.741 636.768 436.133C626.879 449.629 621.971 467.363 636.62 482.384Z" fill="#44150E"/>
</g>
<g id="face-stroke">
<path id="righ- eye-stroke" d="M710.717 569.086C706.962 568.342 694.247 567.971 673.984 567.971C664.058 567.971 655.915 568.082 655.841 568.082L654.131 568.119L654.577 566.446C657.18 556.557 669.523 510.789 669.634 510.343L670.081 508.633L671.568 509.562C683.725 517.184 710.94 565.145 712.093 567.19L713.469 569.644L710.717 569.086Z" stroke="#44150E" stroke-width="2.34623"/>
<path id="left-eye-stroke" d="M586.429 566.855C570.553 563.695 557.467 562.059 547.54 562.059C539.769 562.059 536.944 563.1 536.907 563.1L534.564 563.992L535.159 561.576C537.39 552.578 546.015 540.198 560.738 524.768C571.632 513.354 582.042 504.431 582.153 504.32L583.715 502.981L584.273 504.952C588.139 518.597 587.991 563.62 587.991 565.517V567.078L586.429 566.855Z" stroke="#44150E" stroke-width="2.34623"/>
<path id="nose-stroke" d="M640.561 602.473C637.104 601.841 631.527 601.506 624.016 601.506C611.153 601.506 596.876 602.473 596.727 602.51L595.128 602.621L595.351 601.023C596.578 591.951 618.142 547.968 619.072 546.109L620.075 544.027L621.302 545.998C628.813 557.821 641.491 599.089 642.011 600.837L642.643 602.882L640.561 602.473Z" stroke="#44150E" stroke-width="2.34623"/>
<path id="mouth-stroke" d="M635.393 652.515L607.955 651.734L605.576 679.433L604.163 679.21C583.603 675.715 566.761 668.502 556.276 663.074C544.193 656.791 533.077 646.083 524.971 632.884C515.602 617.567 510.211 598.977 509.468 579.049L509.319 575.183L511.773 578.194C511.996 578.492 536.051 607.603 558.507 615.745C560.143 616.34 561.742 616.897 563.34 617.455L564.158 617.753L565.683 646.604L589.589 647.979L591.819 625.969L593.232 626.267C602.415 628.237 611.004 629.204 619.443 629.204C620.15 629.204 620.856 629.204 621.563 629.167C622.678 629.129 623.868 629.129 625.206 629.129C628.515 629.129 632.233 629.204 636.137 629.241C640.115 629.315 644.242 629.39 648.48 629.39H649.633L652.347 651.92L675.955 654.039V628.088L677.071 627.94C687.518 626.527 694.657 623.999 698.932 620.281C713.134 607.826 731.687 589.831 731.873 589.645L734.55 587.043L734.066 590.761C733.992 591.355 732.059 605.595 724.065 622.697C719.343 632.736 713.543 641.696 706.74 649.243C698.226 658.724 688.15 666.048 676.811 670.993C664.207 676.533 650.711 679.842 636.769 680.845L635.393 680.957V652.515V652.515Z" stroke="#44150E" stroke-width="2.34623"/>
</g>
<g id="face-fill">
<path id="right-eye-fill" d="M710.717 569.086C706.962 568.342 694.247 567.971 673.984 567.971C664.058 567.971 655.915 568.082 655.841 568.082L654.131 568.119L654.577 566.446C657.18 556.557 669.523 510.789 669.634 510.343L670.081 508.633L671.568 509.562C683.725 517.184 710.94 565.145 712.093 567.19L713.469 569.644L710.717 569.086Z" fill="#44150E"/>
<path id="left-eye-fill" d="M586.429 566.855C570.553 563.695 557.467 562.059 547.54 562.059C539.769 562.059 536.944 563.1 536.907 563.1L534.564 563.992L535.159 561.576C537.39 552.578 546.015 540.198 560.738 524.768C571.632 513.354 582.042 504.431 582.153 504.32L583.715 502.981L584.273 504.952C588.139 518.597 587.991 563.62 587.991 565.517V567.078L586.429 566.855Z" fill="#44150E"/>
<path id="nose-fill" d="M640.561 602.473C637.104 601.841 631.527 601.506 624.016 601.506C611.153 601.506 596.876 602.473 596.727 602.51L595.128 602.621L595.351 601.023C596.578 591.951 618.142 547.968 619.072 546.109L620.075 544.027L621.302 545.998C628.813 557.821 641.491 599.089 642.011 600.837L642.643 602.882L640.561 602.473Z" fill="#44150E"/>
<path id="mouth-fill" d="M635.393 652.515L607.955 651.734L605.576 679.433L604.163 679.21C583.603 675.715 566.761 668.502 556.276 663.074C544.193 656.791 533.077 646.083 524.971 632.884C515.602 617.567 510.211 598.977 509.468 579.049L509.319 575.183L511.773 578.194C511.996 578.492 536.051 607.603 558.507 615.745C560.143 616.34 561.742 616.897 563.34 617.455L564.158 617.753L565.683 646.604L589.589 647.979L591.819 625.969L593.232 626.267C602.415 628.237 611.004 629.204 619.443 629.204C620.15 629.204 620.856 629.204 621.563 629.167C622.678 629.129 623.868 629.129 625.206 629.129C628.515 629.129 632.233 629.204 636.137 629.241C640.115 629.315 644.242 629.39 648.48 629.39H649.633L652.347 651.92L675.955 654.039V628.088L677.071 627.94C687.518 626.527 694.657 623.999 698.932 620.281C713.134 607.826 731.687 589.831 731.873 589.645L734.55 587.043L734.066 590.761C733.992 591.355 732.059 605.595 724.065 622.697C719.343 632.736 713.543 641.696 706.74 649.243C698.226 658.724 688.15 666.048 676.811 670.993C664.207 676.533 650.711 679.842 636.769 680.845L635.393 680.957V652.515V652.515Z" fill="#44150E"/>
</g>
<g id="light">
<g id="dimmer light">
<mask id="mask0_23:180" style="mask-type:alpha" maskUnits="userSpaceOnUse" x="518" y="538" width="202" height="203">
<g id="Group">
<path id="5" opacity="0.26" d="M618.795 740.331C674.42 740.331 719.513 695.238 719.513 639.613C719.513 583.988 674.42 538.896 618.795 538.896C563.17 538.896 518.077 583.988 518.077 639.613C518.077 695.238 563.17 740.331 618.795 740.331Z" fill="white"/>
<path id="4" opacity="0.63" d="M618.795 722.188C664.4 722.188 701.37 685.218 701.37 639.614C701.37 594.009 664.4 557.039 618.795 557.039C573.19 557.039 536.22 594.009 536.22 639.614C536.22 685.218 573.19 722.188 618.795 722.188Z" fill="white"/>
<path id="3" d="M618.795 704.081C654.4 704.081 683.263 675.218 683.263 639.613C683.263 604.008 654.4 575.145 618.795 575.145C583.19 575.145 554.327 604.008 554.327 639.613C554.327 675.218 583.19 704.081 618.795 704.081Z" fill="white"/>
<path id="2" d="M618.794 689.471C646.329 689.471 668.651 667.149 668.651 639.614C668.651 612.079 646.329 589.757 618.794 589.757C591.259 589.757 568.937 612.079 568.937 639.614C568.937 667.149 591.259 689.471 618.794 689.471Z" fill="white"/>
<path id="1" d="M618.795 674.859C638.26 674.859 654.04 659.079 654.04 639.613C654.04 620.147 638.26 604.367 618.795 604.367C599.329 604.367 583.549 620.147 583.549 639.613C583.549 659.079 599.329 674.859 618.795 674.859Z" fill="white"/>
</g>
</mask>
<g mask="url(#mask0_23:180)">
<g id="right eye" style="mix-blend-mode:color">
<path d="M710.553 568.936C706.798 568.192 694.082 567.82 673.82 567.82C663.893 567.82 655.751 567.932 655.677 567.932L653.966 567.969L654.412 566.296C657.015 556.406 669.358 510.639 669.47 510.193L669.916 508.482L671.403 509.412C683.561 517.034 710.776 564.995 711.928 567.039L713.304 569.493L710.553 568.936Z" fill="#CE8732"/>
</g>
<g id="left eye" style="mix-blend-mode:color">
<path d="M586.263 566.706C570.387 563.545 557.301 561.909 547.374 561.909C539.603 561.909 536.778 562.951 536.74 562.951L534.398 563.843L534.993 561.426C537.224 552.429 545.849 540.048 560.572 524.619C571.466 513.205 581.876 504.282 581.987 504.17L583.549 502.832L584.107 504.803C587.973 518.447 587.825 563.471 587.825 565.367V566.929L586.263 566.706Z" fill="#CE8732"/>
</g>
<g id="nose" style="mix-blend-mode:color">
<path d="M640.395 602.323C636.937 601.691 631.361 601.357 623.85 601.357C610.987 601.357 596.71 602.323 596.561 602.361L594.962 602.472L595.185 600.873C596.412 591.802 617.976 547.819 618.906 545.96L619.909 543.878L621.136 545.848C628.647 557.671 641.325 598.94 641.845 600.687L642.477 602.732L640.395 602.323Z" fill="#CE8732"/>
</g>
<g id="mouth" style="mix-blend-mode:color">
<path d="M635.228 652.367L607.79 651.586L605.411 679.284L603.998 679.061C583.438 675.566 566.596 668.354 556.111 662.925C544.028 656.642 532.912 645.935 524.807 632.736C515.438 617.418 510.047 598.829 509.303 578.901L509.154 575.034L511.608 578.046C511.831 578.343 535.886 607.454 558.342 615.596C559.978 616.191 561.577 616.749 563.175 617.307L563.993 617.604L565.518 646.455L589.424 647.831L591.655 625.821L593.067 626.118C602.251 628.089 610.839 629.055 619.279 629.055C619.985 629.055 620.691 629.055 621.398 629.018C622.513 628.981 623.703 628.981 625.041 628.981C628.35 628.981 632.068 629.055 635.972 629.092C639.95 629.167 644.077 629.241 648.315 629.241H649.468L652.182 651.772L675.791 653.891V627.94L676.906 627.791C687.353 626.378 694.492 623.85 698.767 620.132C712.97 607.677 731.522 589.683 731.708 589.497L734.385 586.894L733.901 590.612C733.827 591.207 731.894 605.447 723.9 622.549C719.179 632.587 713.379 641.547 706.575 649.095C698.061 658.575 687.985 665.9 676.646 670.844C664.042 676.384 650.546 679.693 636.604 680.697L635.228 680.808V652.367V652.367Z" fill="#CE8732"/>
</g>
</g>
</g>
<g id="brightest light">
<mask id="mask1_23:180" style="mask-type:alpha" maskUnits="userSpaceOnUse" x="569" y="589" width="100" height="101">
<g id="Group_2">
<path id="2_2" d="M618.869 689.545C646.405 689.545 668.726 667.223 668.726 639.688C668.726 612.153 646.405 589.831 618.869 589.831C591.334 589.831 569.012 612.153 569.012 639.688C569.012 667.223 591.334 689.545 618.869 689.545Z" fill="#E1B062" fill-opacity="0.6"/>
<path id="1_2" d="M618.869 674.934C638.335 674.934 654.115 659.154 654.115 639.688C654.115 620.222 638.335 604.442 618.869 604.442C599.404 604.442 583.624 620.222 583.624 639.688C583.624 659.154 599.404 674.934 618.869 674.934Z" fill="#F4D892"/>
</g>
</mask>
<g mask="url(#mask1_23:180)">
<path id="nose_2" d="M640.395 602.323C636.937 601.691 631.361 601.357 623.85 601.357C610.987 601.357 596.71 602.323 596.561 602.361L594.962 602.472L595.185 600.873C596.412 591.802 617.976 547.819 618.906 545.96L619.909 543.878L621.136 545.848C628.647 557.671 641.325 598.94 641.845 600.687L642.477 602.732L640.395 602.323Z" fill="#F4D892"/>
<path id="mouth_2" d="M635.228 652.367L607.79 651.586L605.411 679.284L603.998 679.061C583.438 675.566 566.596 668.354 556.111 662.925C544.028 656.642 532.912 645.935 524.807 632.736C515.438 617.418 510.047 598.829 509.303 578.901L509.154 575.034L511.608 578.046C511.831 578.343 535.886 607.454 558.342 615.596C559.978 616.191 561.577 616.749 563.175 617.307L563.993 617.604L565.518 646.455L589.424 647.831L591.655 625.821L593.067 626.118C602.251 628.089 610.839 629.055 619.279 629.055C619.985 629.055 620.691 629.055 621.398 629.018C622.513 628.981 623.703 628.981 625.041 628.981C628.35 628.981 632.068 629.055 635.972 629.092C639.95 629.167 644.077 629.241 648.315 629.241H649.468L652.182 651.772L675.791 653.891V627.94L676.906 627.791C687.353 626.378 694.492 623.85 698.767 620.132C712.97 607.677 731.522 589.683 731.708 589.497L734.385 586.894L733.901 590.612C733.827 591.207 731.894 605.447 723.9 622.549C719.179 632.587 713.379 641.547 706.575 649.095C698.061 658.575 687.985 665.9 676.646 670.844C664.042 676.384 650.546 679.693 636.604 680.697L635.228 680.808V652.367V652.367Z" fill="#F4D892"/>
</g>
</g>
</g>
<g id="cut outs">
<g id="left eye_2">
<path id="Vector_18" d="M590.895 565.494L586.772 570.844L545.773 555.017L526.283 517.729L532.912 512.317L590.895 565.494Z" fill="#661F18" stroke="#661F18" stroke-width="0.70832" stroke-miterlimit="10"/>
<path id="Vector_19" d="M526.282 517.729C526.282 517.729 532.261 548.229 531.419 569.033C531.419 569.033 542.209 564.04 583.855 570.237C583.855 570.237 531.06 531.729 526.282 517.729Z" fill="#963D29" stroke="#661F18" stroke-width="2.62489" stroke-miterlimit="10"/>
</g>
<g id="right eye_2">
<path id="Vector_20" d="M653.992 568.214L658.115 573.564L699.114 557.737L718.604 520.449L711.975 515.037L653.992 568.214Z" fill="#661F18" stroke="#661F18" stroke-width="0.70832" stroke-miterlimit="10"/>
<path id="Vector_21" d="M718.605 520.449C718.605 520.449 712.627 550.948 713.468 571.753C713.468 571.753 702.678 566.76 661.032 572.957C661.032 572.957 713.828 534.449 718.605 520.449Z" fill="#963D29" stroke="#661F18" stroke-width="2.62489" stroke-miterlimit="10"/>
</g>
<g id="nose_3">
<g id="cut out">
<path id="Vector_22" d="M591.076 607.154L593.248 599.093L622.189 573.48L648.537 599.806L651.55 607.725L619.106 601.59L591.076 607.154Z" fill="#661F18"/>
<path id="Vector_23" d="M622.198 585.139C622.198 585.139 604.06 597.618 594.321 606.268C594.321 606.268 632.008 603.645 646.052 606.268L622.198 585.139Z" fill="#963D29" stroke="#661F18" stroke-width="2" stroke-miterlimit="10"/>
</g>
</g>
<g id="mouth_3">
<path id="Vector_24" d="M731.938 649.297C731.938 649.297 675.296 659.31 620.524 659.31C570.698 659.25 509.472 646.341 509.472 646.341V657.923C511.101 668.66 533.359 675.838 555.678 678.733C566.476 680.121 583.245 681.93 603.272 682.775L605.624 675.838L635.604 676.079V678.13V683.258C648.453 683.016 661.844 682.292 675.296 680.784C724.337 675.355 731.938 660.878 731.938 660.878V649.297Z" fill="#661F18" stroke="#661F18" stroke-miterlimit="10"/>
<path id="Vector_25" d="M698.881 668.539C693.995 669.625 685.791 670.228 676.32 670.53V677.105L650.201 676.502L647.487 670.832C637.353 670.832 627.701 670.711 620.523 670.771C610.751 670.832 601.341 670.53 591.81 670.047L589.578 675.537L563.218 675.175L561.71 667.876C560.081 667.755 558.513 667.574 556.884 667.454C533.72 665.342 509.471 657.923 509.471 657.923C511.1 668.66 533.358 675.838 555.677 678.734C566.475 680.121 583.244 681.931 603.271 682.775L605.624 675.838L635.603 676.08V683.198C648.452 682.956 661.843 682.232 675.295 680.724C724.336 675.295 731.937 660.818 731.937 660.818C731.937 660.818 713.297 665.403 698.881 668.539Z" fill="#963D29" stroke="#661F18" stroke-width="3.7058" stroke-miterlimit="10"/>
</g>
</g>
</g>
<g id="leaves">
<path id="Vector_26" d="M563.12 544.943C565.647 546.872 568.427 548.445 571.383 549.618C574.556 550.478 585.753 552.64 590.288 554.421C594.823 556.202 609.432 562.598 611.356 562.292C613.279 561.986 617.239 561.129 617.576 560.393C617.913 559.657 608.038 546.823 606.95 543.357C605.863 539.891 605.245 536.047 607.773 535.721C610.3 535.395 606.889 531.162 610.716 529.947C614.542 528.732 620.494 536.504 620.69 538.671C620.69 538.671 623.542 533.745 622.966 531.107C622.391 528.47 615.59 520.605 614.418 514.727C613.247 508.848 623.816 492.916 640.497 492.841C657.178 492.767 661.753 506.141 655.467 516.616C651.615 523.351 649.471 530.927 649.222 538.684C649.222 538.684 660.111 538.924 662.212 529.796C664.312 520.668 667.699 506.787 669.426 504.314C671.154 501.841 670.339 506.216 672.937 504.438C675.535 502.661 678.828 500.015 681.734 500.159C684.641 500.303 677.679 522.637 686.707 524.992C695.735 527.347 698.594 519.16 699.417 511.524C700.24 503.888 701.007 491.182 716.559 486.435C732.11 481.689 757.977 502.442 771.114 497.776C784.25 493.11 789.509 491.365 791.404 493.717C793.299 496.069 778.085 500.08 772.74 509.799C767.396 519.518 759.787 551.052 733.746 556.632C707.706 562.212 708.628 550.467 694.783 552.137C683.22 553.369 679.898 558.673 677.868 566.349C675.838 574.026 690.48 584.889 703.483 579.865C716.487 574.841 716.088 563.381 729.737 559.544C743.386 555.706 752.09 562.662 759.286 564.474C766.482 566.287 775.938 567.058 776.717 568.602C777.496 570.146 770.04 574.743 766.865 584.269C763.689 593.795 742.874 593.162 745.841 605.502C748.808 617.842 766.185 616.899 776.571 602.664C786.957 588.428 815.606 595.321 829.876 612.839C844.146 630.357 846.302 664.583 859.97 671.735C873.637 678.887 885.846 678.841 887.088 683.268C888.33 687.695 868.055 685.233 854.829 680.361C841.603 675.489 788.484 719.412 748.584 694.901C708.683 670.389 727.385 638.002 712.938 629.306C698.491 620.61 687.121 606.498 679.609 606.024C672.097 605.551 660.09 614.889 667.592 629.01C675.095 643.131 707.611 660.401 712.597 689.099C717.584 717.796 707.626 730.447 718.85 740.338C730.074 750.228 733.072 749.524 732.082 752.335C731.091 755.146 712.664 746.704 704.072 739.503C695.48 732.302 673.735 746.676 650.346 727.651C626.957 708.627 614.165 671.012 620.949 657.5C627.734 643.989 630.292 630.619 619.551 624.214C608.811 617.81 598.364 658.134 595.12 658.725C591.877 659.317 587.207 667.565 583.809 667.195C580.411 666.825 586.9 655.256 582.14 653.966C577.38 652.676 568.914 649.094 566.846 634.792C564.777 620.489 568.373 612.64 582.051 606.144C595.728 599.649 569.196 605.004 574.64 591.175C580.083 577.346 604.263 573.881 607.24 572.574C610.217 571.267 611.382 570.02 608.638 567.576C605.893 565.131 588.132 558.478 582.319 558.19C576.506 557.901 562.585 553.897 560.22 551.923C558.795 549.193 563.12 544.943 563.12 544.943Z" fill="#C18972"/>
<path id="Vector_27" d="M718.238 582.95C721.115 582.872 723.968 582.401 726.718 581.55C729.444 580.357 738.57 575.532 742.779 574.213C746.988 572.893 760.921 569.106 762.105 567.802C763.288 566.499 765.596 563.655 765.417 562.948C765.237 562.242 750.993 558.834 748.26 557.02C745.527 555.205 742.912 552.859 744.511 551.199C746.109 549.539 741.302 548.502 743.312 545.484C745.323 542.465 753.929 544.545 755.296 545.953C755.296 545.953 754.515 540.884 752.613 539.361C750.712 537.837 741.454 536.173 737.294 532.715C733.134 529.256 731.556 512.099 743.282 502.601C755.008 493.103 765.819 499.89 767.325 510.795C768.426 517.699 771.21 524.225 775.432 529.806C775.432 529.806 783.25 523.808 779.556 516.218C775.862 508.628 770.38 496.976 770.197 494.264C770.013 491.552 771.919 495.081 772.744 492.363C773.569 489.646 774.391 485.925 776.524 484.381C778.656 482.836 786.409 502.439 794.113 498.978C801.818 495.518 799.193 488.158 795.443 482.337C791.694 476.517 785.03 467.172 793.31 455.038C801.59 442.903 831.606 442.808 838.228 432.098C844.85 421.388 847.57 417.186 850.24 417.762C852.911 418.338 844.452 429.766 846.193 439.608C847.934 449.449 860.447 475.87 845.24 494.529C830.033 513.187 824.023 504.429 815.203 513.44C807.744 520.851 808.408 526.452 811.328 532.984C814.249 539.517 830.739 538.842 837.064 527.957C843.388 517.071 836.609 509.26 844.062 498.841C851.515 488.421 861.6 488.369 867.704 485.566C873.808 482.762 880.917 477.948 882.342 478.589C883.767 479.231 881.113 486.677 884.275 495.154C887.437 503.632 872.393 514.976 881.483 521.949C890.574 528.921 902.298 518.421 901.553 502.557C900.808 486.694 924.928 475.304 944.929 479.507C964.929 483.711 985.858 506.491 999.555 503.766C1013.25 501.042 1021.84 494.096 1025.23 496.497C1028.61 498.898 1012.91 508.652 1000.82 512.725C988.727 516.798 976.159 577.678 934.111 583.084C892.063 588.49 886.892 555.189 871.769 557.272C856.646 559.355 840.622 555.898 835.054 559.819C829.486 563.741 826.31 577.088 839.61 582.742C852.91 588.395 885.643 582.093 905.433 599.393C925.223 616.692 925.372 631.202 938.899 631.782C952.426 632.361 954.141 630.17 955.037 632.702C955.932 635.234 938.144 639.749 928 639.565C917.856 639.381 910.665 661.773 883.377 661.677C856.088 661.581 825.735 642.448 822.86 629.132C819.984 615.816 814.208 604.992 802.999 606.583C791.791 608.174 807.286 642.365 805.333 644.617C803.38 646.868 804.762 655.296 802.155 656.961C799.548 658.626 797.566 646.839 793.477 648.63C789.387 650.42 781.384 652.703 771.814 643.845C762.245 634.987 760.331 627.446 766.297 615.147C772.262 602.847 756.581 621.626 752.58 608.846C748.579 596.067 763.672 579.945 765.031 577.343C766.39 574.741 766.506 573.206 763.183 573.047C759.861 572.887 743.559 578.279 739.294 581.368C735.029 584.457 722.938 589.533 720.15 589.488C717.597 588.38 718.238 582.95 718.238 582.95Z" fill="#C18972"/>
<path id="Vector_28" d="M437.123 599.616C437.78 601.547 438.7 603.379 439.855 605.06C441.239 606.652 446.433 611.805 448.214 614.375C449.994 616.944 455.493 625.572 456.628 626.096C457.762 626.621 460.178 627.579 460.621 627.307C461.063 627.036 460.387 616.668 461.046 614.433C461.704 612.197 462.749 609.928 464.212 610.658C465.676 611.387 465.371 607.912 467.844 608.632C470.317 609.352 470.712 615.62 470.042 616.845C470.042 616.845 473.321 615.239 473.957 613.628C474.593 612.017 473.779 605.396 475.255 601.845C476.732 598.293 488.056 593.58 496.972 599.501C505.887 605.421 503.547 614.182 496.454 617.519C491.995 619.731 488.146 623.002 485.241 627.047C485.241 627.047 490.958 631.065 495.339 626.952C499.72 622.838 506.484 616.652 508.288 615.951C510.093 615.251 508.095 617.291 510.115 617.272C512.134 617.253 514.834 617.019 516.332 618.135C517.829 619.25 506.139 628.664 510.108 633.145C514.078 637.626 518.526 634.284 521.693 630.509C524.86 626.734 529.81 620.238 539.793 623.265C549.776 626.292 556.144 646.594 564.811 648.802C573.479 651.009 576.905 651.958 577.074 653.888C577.243 655.819 567.703 652.52 561.382 655.789C555.061 659.059 539.739 673.144 523.869 666.813C507.999 660.482 512.687 654.552 504.713 650.495C498.111 647.02 494.445 648.659 490.621 652.024C486.796 655.39 490.717 666.41 499.441 668.379C508.165 670.349 512.048 664.1 520.692 666.932C529.337 669.763 531.49 676.58 534.676 680.117C537.863 683.654 542.627 687.444 542.49 688.545C542.354 689.646 536.738 689.431 531.642 693.373C526.546 697.315 515.68 689.54 512.852 697.176C510.024 704.812 519.62 710.518 530.241 706.643C540.862 702.769 553.666 716.679 555.011 731.112C556.355 745.546 545.275 764.555 550.002 773.25C554.73 781.944 561.252 786.282 560.332 789.085C559.412 791.888 549.488 783.331 544.181 776.009C538.874 768.687 494.874 773.113 482.37 745.794C469.866 718.476 491.405 707.9 486.813 698.104C482.222 688.308 481.205 676.725 477.372 673.788C473.538 670.852 463.803 671.538 462.755 681.743C461.708 691.949 472.864 712.77 465.267 729.844C457.67 746.918 447.843 750.101 450.291 759.382C452.738 768.663 454.587 769.359 453.055 770.503C451.523 771.647 444.719 760.564 442.714 753.657C440.708 746.75 423.985 746.64 418.319 728.144C412.653 709.649 419.278 685.035 427.721 680.259C436.164 675.483 442.304 669.272 438.869 662.022C435.434 654.772 415.459 672.526 413.519 671.683C411.579 670.839 406.144 673.565 404.465 672.154C402.786 670.743 410.378 666.897 408.303 664.509C406.227 662.12 402.996 657.187 407.004 648.826C411.012 640.465 415.733 637.568 425.343 638.993C434.952 640.419 418.9 633.793 426.742 628.369C434.584 622.944 448.707 629.738 450.76 630.105C452.814 630.472 453.88 630.224 453.291 627.941C452.702 625.658 445.615 615.766 442.621 613.535C439.626 611.304 433.638 604.197 433.083 602.3C433.299 600.336 437.123 599.616 437.123 599.616Z" fill="#C18972"/>
<path id="Vector_29" d="M817.093 644.155C818.574 644.713 820.125 645.064 821.702 645.2C823.338 645.155 828.986 644.578 831.404 644.777C833.821 644.975 841.702 645.93 842.575 645.507C843.449 645.085 845.214 644.107 845.269 643.707C845.325 643.307 838.778 638.598 837.763 637.1C836.748 635.601 835.903 633.854 837.061 633.336C838.219 632.817 835.987 631.285 837.637 630.156C839.287 629.026 843.238 631.881 843.642 632.888C843.642 632.888 844.296 630.126 843.644 628.949C842.992 627.773 838.623 624.995 837.222 622.356C835.821 619.718 838.578 610.592 846.521 608.16C854.463 605.727 858.56 611.455 857.064 617.36C856.192 621.129 856.255 625.055 857.248 628.794C857.248 628.794 862.474 627.344 862.168 622.684C861.862 618.024 861.488 610.91 861.957 609.48C862.427 608.051 862.665 610.257 863.649 609.035C864.633 607.813 865.824 606.077 867.23 605.728C868.637 605.379 868.517 617.043 873.158 616.871C877.8 616.698 877.99 612.378 877.289 608.614C876.587 604.85 875.133 598.672 881.868 594.171C888.602 589.67 903.908 595.863 909.503 591.747C915.098 587.632 917.355 586.043 918.595 586.893C919.836 587.744 913.157 591.845 912.001 597.254C910.845 602.663 911.734 618.813 900.118 625.219C888.502 631.625 887.259 625.884 880.897 628.671C875.561 630.921 874.737 633.931 874.868 637.888C875 641.845 883.537 644.927 889.017 640.66C894.497 636.393 892.666 630.979 898.624 627.185C904.581 623.391 909.728 625.462 913.418 625.293C917.109 625.125 921.728 624.134 922.32 624.759C922.913 625.385 920.016 628.651 919.867 633.656C919.718 638.66 909.703 641.349 912.885 646.815C916.068 652.281 924.217 649.334 927.13 641.044C930.042 632.755 944.689 631.929 954.002 638.243C963.315 644.557 969.246 660.589 976.787 662.04C984.328 663.491 990.142 661.715 991.368 663.65C992.595 665.585 982.575 667.323 975.572 666.897C968.568 666.471 949.534 695.076 926.999 689.106C904.464 683.136 908.741 664.985 900.608 662.908C892.474 660.832 885.031 655.728 881.382 656.581C877.732 657.434 873.345 663.618 878.945 669.283C884.545 674.947 902.522 678.521 909.01 691.507C915.499 704.492 912.563 711.964 919.331 715.073C926.1 718.183 927.428 717.416 927.359 718.9C927.289 720.385 917.294 719.002 912.166 716.798C907.038 714.595 898.729 724.582 884.853 718.859C870.976 713.136 859.489 697.014 860.788 689.588C862.087 682.162 861.391 675.411 855.353 673.896C849.315 672.382 850.111 693.136 848.649 693.885C847.187 694.633 846.142 699.242 844.469 699.554C842.796 699.866 844.233 693.409 841.778 693.477C839.324 693.545 834.775 693.052 831.74 686.52C828.705 679.988 829.295 675.723 834.885 670.657C840.476 665.59 828.593 671.959 829.208 664.574C829.822 657.189 840.854 652.06 842.086 651.008C843.318 649.956 843.695 649.194 842.037 648.421C840.378 647.648 830.957 647.024 828.144 647.721C825.331 648.418 818.12 648.507 816.71 647.905C815.639 646.806 817.093 644.155 817.093 644.155Z" fill="#C8BDB4"/>
<path id="Vector_30" d="M861.883 517.633C863.914 517.003 865.848 516.097 867.631 514.94C869.328 513.543 874.841 508.274 877.567 506.491C880.294 504.708 889.436 499.222 890.014 498.053C890.591 496.885 891.656 494.393 891.385 493.923C891.114 493.454 880.29 493.861 877.978 493.109C875.667 492.357 873.33 491.202 874.131 489.697C874.931 488.192 871.301 488.41 872.119 485.851C872.937 483.292 879.48 483.061 880.738 483.796C880.738 483.796 879.154 480.329 877.492 479.619C875.831 478.909 868.908 479.567 865.248 477.925C861.587 476.283 856.984 464.335 863.398 455.207C869.812 446.079 878.879 448.773 882.162 456.266C884.347 460.981 887.65 465.091 891.786 468.237C891.786 468.237 896.13 462.39 891.963 457.702C887.796 453.014 881.533 445.78 880.852 443.878C880.171 441.976 882.243 444.118 882.278 442.011C882.314 439.905 882.144 437.081 883.348 435.552C884.551 434.022 894.042 446.486 898.821 442.476C903.599 438.465 900.239 433.728 896.391 430.316C892.543 426.904 885.908 421.555 889.336 411.23C892.764 400.905 914.096 394.848 916.633 385.872C919.171 376.895 920.253 373.349 922.27 373.228C924.286 373.107 920.587 382.963 923.822 389.65C927.057 396.337 941.317 412.724 934.285 429.094C927.253 445.465 921.202 440.404 916.756 448.604C912.953 455.39 914.562 459.26 917.964 463.346C921.367 467.433 932.96 463.661 935.251 454.618C937.541 445.576 931.135 441.346 934.322 432.411C937.51 423.477 944.673 421.428 948.446 418.206C952.22 414.984 956.3 410.125 957.443 410.299C958.587 410.473 958.21 416.325 962.179 421.753C966.148 427.182 957.747 438.291 965.628 441.461C973.509 444.631 979.719 434.787 975.971 423.597C972.223 412.407 987.07 399.454 1002.15 398.468C1017.23 397.482 1036.74 409.587 1045.93 404.907C1055.12 400.227 1059.82 393.549 1062.71 394.59C1065.61 395.63 1056.42 405.734 1048.64 411.058C1040.87 416.382 1044.28 462.403 1015.46 474.656C986.652 486.91 976.218 464.14 965.884 468.646C955.549 473.153 943.45 473.879 940.285 477.793C937.119 481.707 937.568 491.88 948.175 493.267C958.783 494.654 980.788 483.619 998.374 492.035C1015.96 500.451 1019.01 510.792 1028.75 508.508C1038.49 506.223 1039.26 504.314 1040.42 505.945C1041.57 507.576 1029.83 514.352 1022.58 516.245C1015.32 518.138 1014.75 535.577 995.32 540.953C975.89 546.329 950.417 538.71 945.671 529.766C940.924 520.822 934.62 514.239 926.969 517.612C919.319 520.986 937.277 542.332 936.345 544.331C935.412 546.33 938.105 552.078 936.589 553.788C935.072 555.498 931.271 547.469 928.725 549.565C926.18 551.66 920.95 554.889 912.346 550.467C903.742 546.045 900.851 541.038 902.6 531.056C904.348 521.075 897.003 537.626 891.565 529.29C886.126 520.954 893.592 506.42 894.031 504.289C894.47 502.158 894.24 501.038 891.845 501.587C889.449 502.135 878.947 509.242 876.54 512.301C874.133 515.36 866.562 521.4 864.569 521.924C862.529 521.642 861.883 517.633 861.883 517.633Z" fill="#C8BDB4"/>
<path id="Vector_31" d="M498.364 578.204C499.37 579.868 500.6 581.387 502.02 582.716C503.634 583.916 509.527 587.653 511.71 589.682C513.893 591.711 520.778 598.624 521.942 598.88C523.106 599.136 525.554 599.533 525.912 599.189C526.269 598.845 523.527 589.322 523.686 587.103C523.845 584.885 524.357 582.556 525.869 582.935C527.382 583.315 526.39 580.139 528.843 580.302C531.295 580.466 532.94 586.226 532.565 587.506C532.565 587.506 535.295 585.336 535.56 583.704C535.825 582.072 533.717 576.068 534.37 572.456C535.023 568.843 544.622 562.127 554.14 565.815C563.659 569.504 563.261 578.149 557.328 582.714C553.621 585.691 550.698 589.529 548.813 593.894C548.813 593.894 554.962 596.466 558.209 591.734C561.456 587.001 566.503 579.848 568.042 578.824C569.582 577.801 568.135 580.112 570.014 579.68C571.893 579.248 574.363 578.477 575.986 579.209C577.609 579.941 568.627 591.113 573.241 594.475C577.854 597.836 581.322 593.81 583.505 589.642C585.689 585.474 588.98 578.403 598.905 579.176C608.829 579.949 618.902 597.563 627.432 597.842C635.963 598.121 639.35 598.302 639.901 600.066C640.453 601.831 630.886 600.714 625.658 605.058C620.431 609.402 609.014 625.672 592.928 623.028C576.842 620.385 580.005 613.897 571.744 611.752C564.881 609.868 561.797 612.148 558.916 616.069C556.036 619.99 561.936 629.456 570.471 629.501C579.006 629.546 581.354 622.926 589.99 623.791C598.626 624.657 602.022 630.568 605.714 633.21C609.405 635.853 614.619 638.407 614.716 639.461C614.812 640.515 609.533 641.468 605.584 646.187C601.636 650.906 589.921 645.89 588.84 653.586C587.758 661.283 597.868 664.632 606.981 658.842C616.095 653.051 630.866 663.387 635.059 676.563C639.252 689.739 632.792 709.728 638.971 716.861C645.15 723.994 652.115 726.699 651.828 729.5C651.54 732.301 640.545 726.362 634.106 720.628C627.666 714.893 587.544 728.046 570.322 705.152C553.1 682.257 571.027 667.981 564.752 659.794C558.476 651.607 555.169 641.021 550.996 639.071C546.824 637.12 537.887 639.757 538.989 649.483C540.091 659.209 554.733 676.325 551.127 693.796C547.522 711.267 539.008 716.25 543.18 724.398C547.352 732.545 549.217 732.814 548.022 734.195C546.826 735.575 538.226 726.642 534.95 720.617C531.673 714.591 516.058 717.92 507.009 701.845C497.959 685.771 499.122 661.472 506.021 655.289C512.921 649.105 517.381 642.057 512.702 636.005C508.022 629.953 493.014 650.599 491.034 650.21C489.053 649.822 484.541 653.478 482.688 652.507C480.836 651.537 487.131 646.394 484.709 644.594C482.288 642.795 478.27 638.86 480.304 630.245C482.339 621.631 486.15 617.962 495.4 617.319C504.649 616.676 488.334 613.794 494.541 607.13C500.748 600.466 515.299 603.899 517.288 603.82C519.277 603.74 520.221 603.291 519.207 601.284C518.193 599.277 509.57 591.513 506.324 590.048C503.078 588.583 496.048 583.188 495.144 581.534C494.945 579.659 498.364 578.204 498.364 578.204Z" fill="#C8BDB4"/>
<path id="Vector_32" d="M714.121 478.457C715.278 477.983 716.365 477.351 717.35 476.581C718.272 475.675 721.229 472.302 722.735 471.116C724.24 469.93 729.313 466.241 729.591 465.527C729.869 464.813 730.364 463.297 730.181 463.036C729.998 462.775 723.676 463.574 722.283 463.253C720.889 462.932 719.46 462.376 719.851 461.453C720.242 460.529 718.127 460.845 718.473 459.303C718.82 457.761 722.643 457.287 723.418 457.652C723.418 457.652 722.31 455.703 721.3 455.373C720.289 455.043 716.267 455.787 714.037 455.014C711.807 454.241 708.491 447.478 711.777 441.797C715.063 436.116 720.515 437.226 722.827 441.447C724.351 444.097 726.5 446.334 729.086 447.963C729.086 447.963 731.329 444.312 728.645 441.781C725.96 439.249 721.915 435.335 721.418 434.255C720.921 433.176 722.245 434.324 722.157 433.088C722.069 431.851 721.823 430.206 722.449 429.247C723.075 428.288 729.282 435.101 731.875 432.503C734.467 429.906 732.253 427.304 729.821 425.504C727.39 423.704 723.225 420.912 724.699 414.685C726.173 408.457 738.36 403.803 739.382 398.412C740.405 393.02 740.855 390.886 742.031 390.711C743.206 390.536 741.549 396.503 743.79 400.254C746.032 404.005 755.237 412.869 751.964 422.826C748.691 432.783 744.883 430.13 742.702 435.166C740.825 439.339 741.968 441.524 744.173 443.742C746.379 445.96 752.977 443.15 753.851 437.732C754.725 432.315 750.752 430.168 752.157 424.768C753.563 419.367 757.654 417.796 759.698 415.712C761.743 413.629 763.882 410.57 764.561 410.613C765.24 410.656 765.322 414.104 767.929 417.08C770.536 420.056 766.188 427 770.971 428.45C775.753 429.899 778.882 423.809 776.106 417.446C773.331 411.083 781.36 402.724 790.145 401.366C798.931 400.007 810.989 406.091 816.132 402.873C821.276 399.654 823.684 395.498 825.434 395.958C827.185 396.418 822.324 402.814 818.043 406.337C813.762 409.859 818.143 436.65 801.893 445.322C785.643 453.994 778.351 441.191 772.528 444.367C766.705 447.543 759.653 448.595 758 451.052C756.348 453.509 757.138 459.448 763.426 459.711C769.713 459.975 782.036 452.369 792.778 456.39C803.519 460.412 805.841 466.313 811.43 464.47C817.019 462.628 817.375 461.469 818.133 462.365C818.892 463.261 812.365 467.84 808.213 469.324C804.06 470.809 804.628 481.058 793.52 485.214C782.413 489.37 767.092 486.224 763.848 481.229C760.603 476.234 756.568 472.702 752.259 475.075C747.951 477.448 759.58 489.027 759.137 490.246C758.694 491.466 760.569 494.695 759.769 495.776C758.969 496.856 756.326 492.348 754.943 493.708C753.559 495.068 750.662 497.23 745.391 495.084C740.121 492.939 738.167 490.154 738.675 484.215C739.183 478.275 735.736 488.354 732.117 483.751C728.499 479.148 732.121 470.244 732.268 468.973C732.415 467.701 732.223 467.057 730.847 467.503C729.472 467.948 723.685 472.656 722.433 474.573C721.181 476.49 717.057 480.422 715.917 480.832C714.707 480.773 714.121 478.457 714.121 478.457Z" fill="#C8BDB4"/>
<path id="Vector_33" d="M337.754 651.336C340.636 648.683 343.14 645.647 345.195 642.312C346.916 638.646 351.929 625.519 355.059 620.398C358.189 615.276 369.072 598.919 369.111 596.518C369.149 594.118 368.952 589.128 368.13 588.56C367.308 587.993 349.613 597.221 345.17 597.797C340.728 598.372 335.927 598.295 336.07 595.157C336.212 592.019 330.342 595.25 329.682 590.344C329.022 585.439 339.732 579.885 342.406 580.113C342.406 580.113 337.03 575.593 333.703 575.725C330.376 575.856 319.373 582.421 311.982 582.58C304.591 582.738 287.489 566.486 290.954 546.224C294.42 525.962 311.641 523.282 323.026 533.162C330.387 539.285 339.134 543.516 348.503 545.485C348.503 545.485 351.116 532.32 340.475 527.809C329.834 523.297 313.694 516.204 311.057 513.576C308.421 510.948 313.562 512.877 311.957 509.342C310.351 505.807 307.838 501.241 308.633 497.744C309.428 494.248 335.075 507.496 339.86 497.045C344.646 486.593 335.31 481.364 326.209 478.724C317.108 476.085 301.836 472.422 299.384 452.527C296.933 432.631 327.658 405.695 324.79 388.748C321.921 371.801 320.922 365.043 324.183 363.248C327.444 361.453 329.073 380.782 339.741 389.357C350.409 397.933 387.094 413.944 388.322 446.75C389.551 479.556 375.479 475.913 374.557 493.076C373.589 507.376 379.324 512.547 388.217 516.661C397.109 520.775 413.426 505.336 410.095 488.474C406.764 471.612 392.758 469.633 391.005 452.242C389.252 434.851 399.557 425.781 403.293 417.437C407.028 409.093 409.98 397.78 412.022 397.167C414.064 396.553 418.059 406.591 428.954 412.492C439.85 418.393 434.644 443.522 450.267 442.572C465.89 441.622 468.449 420.329 453.369 404.664C438.29 388.999 452.769 355.707 477.091 342.151C501.414 328.596 543.451 333.334 555.052 318.282C566.654 303.229 569.2 288.401 574.843 287.845C580.486 287.289 573.173 311.369 564.435 326.375C555.698 341.381 597.734 415.293 559.453 458.455C521.172 501.616 485.814 471.957 472.171 487.623C458.528 503.29 438.961 514.058 436.785 523.074C434.608 532.09 443.393 548.67 462.146 542.598C480.899 536.527 508.81 500.772 544.734 500.886C580.658 501.001 593.904 515.806 608.312 504.308C622.719 492.81 622.502 489.02 625.706 490.826C628.909 492.632 614.726 513.184 604.148 522.065C593.569 530.946 606.395 560.429 578.299 584.729C550.202 609.029 501.781 616.472 486.814 605.334C471.847 594.196 456.15 588.218 446.081 599.878C436.012 611.537 482.77 632.883 482.797 636.947C482.824 641.011 491.848 648.452 490.675 652.497C489.502 656.541 476.831 646.179 474.249 651.679C471.667 657.179 465.511 666.685 447.696 666.122C429.881 665.559 421.112 659.508 416.136 641.511C411.161 623.514 412.011 656.868 396.372 647.289C380.733 637.71 381.678 607.618 380.724 603.724C379.771 599.83 378.505 598.147 374.95 600.953C371.396 603.759 359.528 623.886 357.939 630.88C356.349 637.873 348.518 653.91 345.616 656.357C341.996 657.499 337.754 651.336 337.754 651.336Z" fill="#B9542F"/>
<path id="Vector_34" d="M527.742 491.402C531.657 491.287 535.538 490.634 539.276 489.462C542.979 487.82 555.368 481.191 561.088 479.374C566.809 477.556 585.748 472.333 587.351 470.545C588.953 468.757 592.075 464.859 591.825 463.892C591.576 462.924 572.162 458.299 568.43 455.822C564.698 453.345 561.122 450.14 563.286 447.864C565.45 445.587 558.899 444.181 561.615 440.043C564.331 435.905 576.06 438.728 577.931 440.653C577.931 440.653 576.832 433.716 574.233 431.635C571.634 429.554 559.021 427.302 553.334 422.578C547.648 417.854 545.38 394.371 561.277 381.337C577.173 368.303 591.936 377.565 594.061 392.49C595.609 401.938 599.443 410.865 605.229 418.493C605.229 418.493 615.83 410.261 610.749 399.881C605.669 389.5 598.125 373.564 597.857 369.851C597.588 366.139 600.207 370.965 601.311 367.243C602.414 363.52 603.509 358.425 606.401 356.305C609.293 354.184 619.982 380.999 630.446 376.241C640.91 371.482 637.285 361.414 632.141 353.456C626.996 345.498 617.861 332.724 629.048 316.089C640.234 299.455 681.094 299.244 690.034 284.564C698.973 269.883 702.647 264.124 706.286 264.905C709.926 265.687 698.49 281.354 700.928 294.822C703.366 308.291 720.582 344.426 700.011 370.011C679.44 395.595 671.199 383.621 659.254 395.981C649.152 406.147 650.095 413.812 654.116 422.747C658.136 431.682 680.579 430.714 689.113 415.795C697.647 400.875 688.365 390.201 698.438 375.917C708.511 361.632 722.239 361.534 730.529 357.68C738.819 353.825 748.462 347.215 750.406 348.09C752.351 348.964 748.79 359.164 753.152 370.762C757.515 382.359 737.115 397.929 749.538 407.45C761.961 416.971 777.848 402.564 776.724 380.849C775.6 359.135 808.355 343.477 835.609 349.177C862.864 354.878 891.511 386.006 910.139 382.239C928.766 378.472 940.407 368.941 945.033 372.218C949.66 375.496 928.356 388.892 911.922 394.501C895.488 400.109 878.802 483.485 821.601 491C764.401 498.514 757.131 452.94 736.559 455.833C715.988 458.725 694.151 454.036 686.598 459.42C679.046 464.803 674.816 483.084 692.959 490.787C711.103 498.491 755.617 489.775 782.677 513.404C809.736 537.033 810.04 556.896 828.457 557.653C846.874 558.41 849.194 555.406 850.43 558.869C851.666 562.333 827.485 568.562 813.674 568.338C799.864 568.113 790.231 598.787 753.084 598.73C715.937 598.672 674.485 572.561 670.479 554.34C666.473 536.118 658.534 521.316 643.287 523.524C628.041 525.733 649.37 572.498 646.728 575.586C644.085 578.673 646.024 590.207 642.488 592.494C638.951 594.78 636.171 578.649 630.616 581.111C625.062 583.573 614.183 586.72 601.095 574.619C588.007 562.519 585.35 552.202 593.385 535.347C601.421 518.493 580.205 544.244 574.67 526.76C569.135 509.276 589.569 487.165 591.401 483.599C593.233 480.032 593.379 477.932 588.856 477.722C584.332 477.512 562.178 484.938 556.394 489.178C550.61 493.419 534.186 500.4 530.39 500.346C526.907 498.837 527.742 491.402 527.742 491.402Z" fill="#B9542F"/>
<path id="Vector_35" d="M400.025 512.135C403.651 511.484 407.172 510.337 410.487 508.728C413.706 506.688 424.316 498.804 429.387 496.32C434.458 493.835 451.357 486.347 452.601 484.463C453.845 482.579 456.21 478.522 455.845 477.658C455.479 476.794 436.778 475.197 432.963 473.415C429.148 471.633 425.378 469.153 427.077 466.737C428.776 464.321 422.487 463.925 424.442 459.702C426.397 455.48 437.7 456.471 439.707 457.999C439.707 457.999 437.725 451.707 435.02 450.135C432.314 448.563 420.267 448.226 414.324 444.628C408.381 441.03 403.026 419.526 416.014 405.204C429.003 390.881 444.018 397.433 448.058 411.004C450.803 419.568 455.604 427.329 462.042 433.612C462.042 433.612 470.767 424.488 464.605 415.55C458.444 406.611 449.224 392.854 448.461 389.442C447.697 386.03 450.801 390.15 451.313 386.538C451.826 382.925 452.14 378.039 454.538 375.666C456.935 373.294 470.586 396.721 479.664 390.844C488.742 384.967 483.978 376.117 478.092 369.438C472.206 362.76 461.941 352.162 470.05 335.15C478.159 318.137 516.145 312.256 522.434 297.373C528.722 282.489 531.344 276.626 534.838 276.846C538.332 277.066 529.858 293.214 533.987 305.389C538.117 317.564 559.128 348.743 543.525 375.377C527.921 402.01 518.599 392.032 509.194 405.178C501.2 416.029 503.137 423.02 508.112 430.762C513.088 438.505 533.834 434.483 539.712 419.433C545.591 404.383 535.48 395.757 542.877 381.083C550.275 366.41 563.033 364.409 570.213 359.674C577.394 354.939 585.452 347.456 587.382 347.997C589.312 348.539 587.408 358.512 593.07 368.681C598.731 378.85 581.903 396.154 594.777 403.272C607.651 410.39 620.441 394.794 616.394 374.774C612.347 354.755 640.658 335.649 666.803 337.153C692.948 338.658 723.902 363.594 740.712 357.503C757.522 351.411 767.035 340.936 771.793 343.338C776.55 345.739 758.58 361.15 744.066 368.648C729.551 376.145 725.549 455.935 673.369 470.876C621.189 485.817 608.127 444.483 589.388 450.033C570.648 455.583 549.684 454.264 543.401 460.317C537.119 466.37 535.709 483.944 553.654 488.577C571.599 493.21 611.809 478.919 640.25 497.109C668.691 515.299 671.719 533.712 688.958 531.853C706.198 529.994 707.941 526.879 709.57 529.925C711.198 532.972 689.561 542.124 676.681 543.837C663.801 545.55 659.078 575.391 624.509 580.506C589.94 585.62 547.767 567.127 541.521 550.754C535.276 534.381 525.844 521.732 511.964 525.905C498.084 530.079 524.392 570.563 522.36 573.799C520.327 577.036 523.726 587.483 520.751 590.099C517.777 592.715 512.961 578.114 508.134 581.175C503.306 584.235 493.619 588.673 479.77 579.25C465.922 569.828 462.023 560.612 467.171 543.834C472.318 527.056 456.138 553.933 448.571 538.458C441.005 522.983 456.961 499.596 458.173 496.028C459.385 492.459 459.231 490.487 454.993 490.921C450.755 491.356 431.169 501.338 426.374 506.083C421.579 510.827 407.263 519.599 403.724 520.077C400.275 519.16 400.025 512.135 400.025 512.135Z" fill="#C18972"/>
<path id="Vector_36" d="M405.594 605.217C407.784 604.144 409.829 602.786 411.671 601.181C413.385 599.328 418.854 592.508 421.669 590.038C424.484 587.569 433.988 579.828 434.479 578.437C434.97 577.046 435.829 574.109 435.463 573.644C435.097 573.179 423.031 575.657 420.342 575.265C417.653 574.873 414.883 574.043 415.578 572.24C416.273 570.437 412.237 571.357 412.811 568.394C413.385 565.43 420.682 563.949 422.189 564.519C422.189 564.519 419.952 561.009 417.996 560.541C416.041 560.074 408.377 562.096 404.058 560.979C399.74 559.862 392.99 547.605 398.954 536.377C404.917 525.149 415.429 526.407 420.107 534.02C423.182 538.788 427.43 542.681 432.481 545.36C432.481 545.36 436.565 538.124 431.273 533.758C425.98 529.391 418.001 522.622 416.985 520.661C415.968 518.7 418.574 520.664 418.332 518.344C418.091 516.023 417.524 512.954 418.667 511.049C419.811 509.144 432.103 521.051 436.918 515.75C441.733 510.448 437.338 505.877 432.573 502.852C427.809 499.827 419.664 495.198 422.124 483.215C424.584 471.233 447.662 460.579 449.305 450.246C450.947 439.912 451.686 435.814 453.928 435.303C456.17 434.792 453.344 446.309 457.859 453.046C462.374 459.782 480.531 475.103 474.843 494.4C469.155 513.697 461.703 509.275 457.82 519.115C454.468 527.28 456.786 531.228 461.142 535.077C465.498 538.927 477.976 532.609 479.333 522.249C480.69 511.889 472.952 508.445 475.328 498.036C477.704 487.626 485.451 484.032 489.246 479.786C493.041 475.539 496.961 469.437 498.265 469.414C499.569 469.391 499.928 475.888 505.097 481.104C510.266 486.321 502.344 500.098 511.592 502.1C520.84 504.102 526.479 492.126 520.787 480.541C515.096 468.956 529.991 451.945 546.745 448.033C563.498 444.121 586.96 453.755 596.626 446.89C606.293 440.026 610.663 431.811 614.045 432.411C617.426 433.01 608.486 445.83 600.49 453.136C592.494 460.442 602.458 510.341 571.831 529.204C541.204 548.067 526.479 525.019 515.509 531.907C504.538 538.794 491.087 541.862 488.065 546.754C485.044 551.646 486.905 562.734 498.968 562.267C511.031 561.801 534.197 545.553 555.014 551.496C575.831 557.438 580.627 568.222 591.228 563.886C601.828 559.55 602.442 557.308 603.948 558.884C605.454 560.459 593.217 570.102 585.348 573.542C577.479 576.981 579.167 596.24 558.127 605.79C537.088 615.339 507.547 611.752 501.038 602.82C494.528 593.889 486.589 587.841 478.473 592.982C470.357 598.122 493.317 618.195 492.54 620.565C491.763 622.935 495.546 628.742 494.076 630.905C492.606 633.067 487.278 624.963 484.707 627.742C482.136 630.521 476.711 635.048 466.486 631.806C456.261 628.565 452.355 623.608 452.98 612.318C453.605 601.029 447.591 620.583 440.388 612.449C433.184 604.315 439.603 586.953 439.81 584.53C440.017 582.108 439.611 580.921 437.001 581.973C434.392 583.025 423.581 592.8 421.294 596.611C419.007 600.422 411.336 608.476 409.175 609.425C406.852 609.498 405.594 605.217 405.594 605.217Z" fill="#C8BDB4"/>
<path id="Vector_37" d="M344.755 452.955C345.998 452.346 347.159 451.575 348.205 450.664C349.178 449.612 352.283 445.74 353.881 444.338C355.479 442.936 360.875 438.541 361.154 437.751C361.432 436.961 361.92 435.294 361.712 435.03C361.504 434.766 354.654 436.173 353.128 435.951C351.601 435.728 350.028 435.257 350.423 434.233C350.817 433.209 348.526 433.732 348.852 432.05C349.178 430.367 353.32 429.526 354.176 429.85C354.176 429.85 352.906 427.857 351.796 427.591C350.686 427.326 346.335 428.474 343.883 427.84C341.431 427.206 337.599 420.247 340.985 413.873C344.37 407.498 350.338 408.212 352.994 412.534C354.74 415.241 357.152 417.451 360.019 418.972C360.019 418.972 362.338 414.864 359.333 412.385C356.329 409.906 351.799 406.063 351.222 404.95C350.645 403.837 352.124 404.952 351.987 403.634C351.849 402.317 351.528 400.575 352.177 399.493C352.826 398.411 359.805 405.171 362.538 402.162C365.272 399.152 362.777 396.557 360.072 394.839C357.367 393.122 352.743 390.494 354.139 383.691C355.536 376.888 368.638 370.84 369.571 364.973C370.503 359.106 370.922 356.78 372.195 356.49C373.468 356.199 371.864 362.738 374.427 366.563C376.991 370.387 387.299 379.085 384.07 390.041C380.841 400.996 376.61 398.486 374.405 404.072C372.502 408.708 373.818 410.949 376.291 413.135C378.764 415.32 385.848 411.733 386.619 405.851C387.389 399.97 382.996 398.015 384.345 392.105C385.694 386.195 390.092 384.154 392.247 381.744C394.401 379.333 396.627 375.869 397.367 375.856C398.107 375.842 398.311 379.531 401.246 382.493C404.18 385.454 399.683 393.276 404.933 394.412C410.184 395.549 413.385 388.75 410.154 382.173C406.922 375.596 415.379 365.938 424.89 363.717C434.402 361.496 447.722 366.965 453.21 363.068C458.698 359.171 461.179 354.507 463.099 354.847C465.019 355.188 459.943 362.466 455.403 366.614C450.864 370.762 456.521 399.091 439.133 409.8C421.745 420.509 413.385 407.424 407.157 411.335C400.929 415.245 393.292 416.987 391.576 419.764C389.861 422.541 390.917 428.836 397.766 428.571C404.615 428.306 417.767 419.082 429.585 422.456C441.404 425.83 444.127 431.952 450.145 429.49C456.163 427.028 456.512 425.756 457.367 426.65C458.222 427.545 451.274 433.02 446.807 434.972C442.339 436.925 443.298 447.859 431.353 453.28C419.408 458.702 402.637 456.665 398.941 451.594C395.246 446.524 390.738 443.091 386.131 446.009C381.523 448.927 394.558 460.323 394.117 461.669C393.675 463.014 395.823 466.311 394.989 467.539C394.154 468.767 391.129 464.166 389.67 465.743C388.21 467.321 385.13 469.891 379.325 468.051C373.52 466.21 371.302 463.396 371.657 456.987C372.012 450.577 368.598 461.679 364.508 457.061C360.419 452.443 364.063 442.586 364.18 441.211C364.298 439.835 364.067 439.162 362.586 439.759C361.104 440.356 354.966 445.906 353.668 448.069C352.37 450.233 348.015 454.805 346.788 455.344C345.469 455.386 344.755 452.955 344.755 452.955Z" fill="#C8BDB4"/>
</g>
<path id="leaves-motion-path" d="M58 127C125.167 280.5 342 587.5 672 587.5C1002 587.5 1255.83 280.5 1341.5 127" stroke="#45825B" stroke-width="10"/>
</g>
</svg>
