<svg width="1441" height="900" viewBox="0 0 1441 900" fill="none" xmlns="http://www.w3.org/2000/svg">
<g id="Preloader-done">
<rect width="1440" height="900" transform="translate(0.773926)" fill="white"/>
<g id="scarf">
<path id="neck" d="M849.467 688.769C759.467 751.469 672.467 692.069 662.367 664.569C654.167 642.069 659.367 592.669 661.567 575.369C716.267 594.369 788.367 609.669 814.767 601.469C816.067 601.069 817.267 600.669 818.567 600.069V600.169C827.567 617.769 840.167 647.069 849.067 686.769C849.267 687.469 849.367 688.069 849.467 688.769Z" fill="black"/>
<path id="tassels-normal" d="M927.997 776.669C928.087 776.57 928.177 776.47 928.267 776.369C928.267 776.369 927.467 767.069 925.567 752.069C919.667 698.469 902.867 571.669 874.967 535.169C867.767 548.069 859.167 561.569 849.867 573.169C841.267 583.869 831.967 592.869 822.467 598.069C831.867 616.269 844.467 645.869 853.367 685.769C858.967 710.469 863.067 739.069 864.067 771.469C864.117 773.192 864.158 774.925 864.191 776.669H864.167V799.535C864.139 800.942 864.105 802.353 864.067 803.769C864.067 803.769 864.101 803.773 864.167 803.778V828.369C864.167 828.369 868.267 828.769 874.667 828.169V803.56C876.843 803.36 879.308 803.062 881.967 802.569V827.169C885.267 826.569 888.767 825.669 892.467 824.469V799.869C894.867 799.069 897.367 798.169 899.867 797.069L899.867 821.669C903.367 820.169 906.867 818.369 910.367 816.169V791.569C912.867 790.069 915.267 788.369 917.767 786.37V810.869C921.367 807.969 924.867 804.669 928.267 800.869V776.669H927.997Z" fill="black"/>
<path id="tassels-wind" d="M822.467 598.751C835.955 645.06 868.165 708.411 888.917 749.227C892.419 756.116 895.595 762.362 898.3 767.777C904.834 781.412 909.203 789.661 909.203 789.661C909.29 789.684 909.376 789.708 909.462 789.732C909.506 789.743 909.549 789.755 909.592 789.767L909.366 789.913L922.484 810.249C927.401 811.599 932.131 812.475 936.728 812.961L923.447 792.373C926.632 792.698 929.57 792.826 932.484 792.731L945.819 813.404C949.952 813.355 953.869 812.971 957.624 812.334L944.289 791.661C946.986 791.231 949.575 790.632 952.026 790.003L965.36 810.676C969.12 809.678 972.549 808.537 975.647 807.253L962.313 786.58C964.814 785.553 967.048 784.467 968.984 783.456L982.324 804.136C988.027 801.171 991.256 798.613 991.256 798.613L977.926 777.948C977.979 777.907 978.005 777.886 978.005 777.886C977.205 776.717 976.412 775.549 975.626 774.382L963.231 755.167L963.211 755.18C962.294 753.697 961.389 752.217 960.497 750.743C943.775 722.974 931.717 696.718 923.034 672.926C915.812 653.347 908.853 632.309 901.152 609.027C893.772 586.718 885.711 562.348 876.084 535.229C876.069 535.209 876.053 535.189 876.038 535.169C875.901 535.18 875.765 535.193 875.631 535.209C868.469 548.009 859.937 561.378 850.716 572.879C842.116 583.579 832.816 592.579 823.316 597.779C823.031 598.098 822.748 598.422 822.467 598.751Z" fill="black"/>
<path id="tassels" d="M927.997 776.669C928.087 776.57 928.177 776.47 928.267 776.369C928.267 776.369 927.467 767.069 925.567 752.069C919.667 698.469 902.867 571.669 874.967 535.169C867.767 548.069 859.167 561.569 849.867 573.169C841.267 583.869 831.967 592.869 822.467 598.069C831.867 616.269 844.467 645.869 853.367 685.769C858.967 710.469 863.067 739.069 864.067 771.469C864.117 773.192 864.158 774.925 864.191 776.669H864.167V799.535C864.139 800.942 864.105 802.353 864.067 803.769C864.067 803.769 864.101 803.773 864.167 803.778V828.369C864.167 828.369 868.267 828.769 874.667 828.169V803.56C876.843 803.36 879.308 803.062 881.967 802.569V827.169C885.267 826.569 888.767 825.669 892.467 824.469V799.869C894.867 799.069 897.367 798.169 899.867 797.069L899.867 821.669C903.367 820.169 906.867 818.369 910.367 816.169V791.569C912.867 790.069 915.267 788.369 917.767 786.37V810.869C921.367 807.969 924.867 804.669 928.267 800.869V776.669H927.997Z" fill="black"/>
</g>
</g>
</svg>
