<svg width="651" height="627" viewBox="0 0 651 627" fill="none" xmlns="http://www.w3.org/2000/svg">
<path d="M388.581 481.832C387.356 477.887 385.595 474.13 383.348 470.664C380.634 467.366 370.402 456.653 366.939 451.356C363.476 446.058 352.815 428.295 350.548 427.172C348.28 426.048 343.442 423.977 342.531 424.503C341.621 425.029 342.425 446.05 340.97 450.539C339.514 455.028 337.276 459.563 334.354 458.007C331.432 456.451 331.86 463.501 326.893 461.909C321.927 460.317 321.47 447.608 322.893 445.165C322.893 445.165 316.167 448.237 314.792 451.464C313.417 454.69 314.704 468.135 311.522 475.242C308.341 482.349 285.162 491.272 267.44 478.803C249.717 466.333 254.933 448.728 269.47 442.362C278.616 438.126 286.586 431.716 292.685 423.688C292.685 423.688 281.333 415.243 272.242 423.329C263.15 431.416 249.122 443.57 245.431 444.889C241.741 446.209 245.896 442.189 241.807 442.117C237.719 442.045 232.24 442.37 229.271 440.031C226.301 437.692 250.475 419.276 242.685 409.99C234.896 400.704 225.709 407.224 219.093 414.692C212.477 422.16 202.106 435.04 182.065 428.368C162.024 421.696 150.241 380.257 132.819 375.317C115.396 370.376 108.514 368.269 108.276 364.352C108.038 360.436 127.169 367.633 140.14 361.36C153.112 355.087 184.893 327.415 216.669 341.094C248.446 354.774 238.633 366.52 254.553 375.166C267.726 382.56 275.234 379.442 283.159 372.839C291.084 366.237 283.748 343.716 266.197 339.255C248.647 334.794 240.448 347.23 223.106 341.027C205.764 334.824 201.777 320.909 195.52 313.577C189.263 306.244 179.828 298.313 180.164 296.092C180.501 293.871 191.856 294.612 202.385 286.911C212.914 279.211 234.483 295.541 240.624 280.239C246.764 264.938 227.652 252.865 205.943 260.128C184.235 267.392 159.078 238.539 157.143 209.252C155.209 179.964 178.673 142.094 169.578 124.238C160.483 106.382 147.519 97.2456 149.534 91.6229C151.549 86.0002 171.169 103.861 181.511 118.97C191.853 134.079 281.153 127.52 304.971 183.496C328.789 239.471 284.619 259.703 293.377 279.781C302.136 299.858 303.562 323.358 311.161 329.511C318.761 335.663 338.502 334.806 341.179 314.207C343.856 293.608 322.411 250.856 338.719 216.712C355.026 182.569 375.089 176.661 370.642 157.742C366.195 138.824 362.49 137.315 365.654 135.083C368.817 132.851 381.983 155.654 385.665 169.744C389.348 183.833 423.191 184.969 433.65 222.712C444.109 260.456 429.359 309.916 412.01 319.122C394.66 328.328 381.893 340.563 388.451 355.425C395.008 370.288 436.406 335.441 440.286 337.254C444.167 339.068 455.317 333.846 458.638 336.794C461.958 339.741 446.383 347.112 450.453 352.059C454.523 357.006 460.795 367.169 452.227 383.872C443.658 400.576 433.945 406.184 414.573 402.774C395.201 399.364 427.329 413.652 411.161 424.203C394.993 434.753 366.778 420.233 362.642 419.378C358.506 418.523 356.333 418.967 357.401 423.62C358.469 428.274 372.274 448.68 378.214 453.359C384.153 458.038 395.885 472.75 396.905 476.621C396.36 480.584 388.581 481.832 388.581 481.832Z" fill="#C18972"/>
<path d="M295.745 370.432C297.964 368.199 299.865 365.672 301.395 362.921C302.646 359.915 306.2 349.198 308.529 344.974C310.858 340.75 319.009 327.228 318.954 325.299C318.899 323.371 318.562 319.371 317.881 318.945C317.201 318.519 303.326 326.562 299.78 327.183C296.234 327.804 292.377 327.915 292.379 325.391C292.381 322.866 287.784 325.67 287.078 321.756C286.373 317.841 294.772 312.998 296.927 313.085C296.927 313.085 292.449 309.65 289.783 309.875C287.116 310.099 278.518 315.764 272.59 316.157C266.662 316.549 252.35 304.114 254.406 287.723C256.461 271.332 270.191 268.564 279.685 276.087C285.814 280.739 292.988 283.822 300.581 285.067C300.581 285.067 302.206 274.404 293.502 271.164C284.797 267.923 271.585 262.807 269.375 260.792C267.164 258.776 271.36 260.141 269.945 257.36C268.529 254.58 266.348 251.004 266.861 248.169C267.374 245.333 288.438 255.05 291.906 246.488C295.373 237.925 287.69 234.062 280.289 232.269C272.888 230.476 260.496 228.083 257.815 212.199C255.134 196.314 278.835 173.587 275.925 160.085C273.015 146.582 271.97 141.192 274.524 139.635C277.077 138.077 279.078 153.536 287.95 160.038C296.822 166.54 326.847 178.08 329.009 204.373C331.171 230.666 319.744 228.246 319.619 242.058C319.354 253.573 324.144 257.519 331.43 260.503C338.717 263.487 351.263 250.508 347.985 237.09C344.706 223.672 333.39 222.585 331.36 208.686C329.329 194.787 337.277 187.136 339.977 180.303C342.677 173.47 344.642 164.283 346.259 163.717C347.876 163.151 351.443 171.067 360.402 175.414C369.36 179.76 366.082 200.121 378.59 198.799C391.099 197.476 392.39 180.29 379.722 168.254C367.054 156.218 377.486 128.971 396.526 117.217C415.567 105.463 449.485 107.76 458.259 95.2595C467.034 82.7593 468.547 70.7636 473.057 70.115C477.567 69.4664 472.559 89.0602 466.082 101.421C459.605 113.781 496.002 171.612 466.816 207.636C437.631 243.659 408.181 221.116 397.79 234.182C387.399 247.248 372.076 256.595 370.652 263.911C369.228 271.227 376.874 284.223 391.712 278.676C406.55 273.13 427.676 243.424 456.521 242.229C485.366 241.033 496.531 252.444 507.685 242.697C518.839 232.949 518.53 229.914 521.166 231.25C523.803 232.585 513.153 249.593 504.978 257.102C496.804 264.611 508.158 287.82 486.472 308.336C464.787 328.852 426.18 336.563 413.765 328.157C401.349 319.752 388.533 315.516 380.868 325.237C373.202 334.959 411.506 350.42 411.673 353.681C411.841 356.943 419.352 362.593 418.555 365.883C417.758 369.172 407.214 361.307 405.338 365.815C403.463 370.323 398.862 378.175 384.539 378.362C370.216 378.548 362.959 374.005 358.32 359.735C353.68 345.465 355.558 372.212 342.66 365.082C329.761 357.953 329.441 333.76 328.536 330.668C327.631 327.575 326.554 326.27 323.801 328.65C321.048 331.03 312.242 347.614 311.216 353.286C310.191 358.957 304.479 372.112 302.237 374.181C299.371 375.228 295.745 370.432 295.745 370.432Z" fill="#C8BDB4"/>
<path d="M340.744 538.52C343.665 535.164 346.111 531.423 348.013 527.402C349.497 523.047 353.512 507.602 356.404 501.429C359.296 495.256 369.533 475.429 369.276 472.714C369.019 469.999 368.172 464.391 367.173 463.853C366.174 463.316 347.354 475.949 342.412 477.155C337.469 478.36 332.04 478.874 331.808 475.314C331.576 471.755 325.354 476.136 323.995 470.682C322.636 465.227 334.03 457.616 337.077 457.538C337.077 457.538 330.443 453.11 326.704 453.675C322.965 454.24 311.366 463.029 303.043 464.133C294.719 465.237 273.379 449.033 274.754 425.726C276.129 402.42 295.233 397.239 309.322 406.966C318.398 412.956 328.801 416.637 339.624 417.687C339.624 417.687 340.925 402.499 328.348 398.738C315.772 394.978 296.664 388.992 293.359 386.355C290.054 383.719 296.099 385.253 293.844 381.463C291.589 377.674 288.181 372.835 288.64 368.788C289.1 364.741 319.709 376.485 323.803 364.088C327.896 351.691 316.702 346.957 306.098 345.117C295.495 343.277 277.797 341.055 272.538 318.903C267.28 296.751 298.59 262.498 293.231 243.727C287.871 224.956 285.896 217.453 289.353 215.018C292.81 212.584 297.069 234.198 310.185 242.543C323.301 250.887 366.716 264.369 372.211 301.247C377.705 338.125 361.364 335.774 362.472 355.264C363.17 371.527 370.291 376.646 380.844 380.177C391.398 383.707 407.884 364.237 402.012 345.62C396.141 327.003 380.082 326.522 375.926 307.11C371.77 287.698 382.267 276.17 385.439 266.283C388.611 256.396 390.527 243.256 392.755 242.308C394.983 241.359 400.749 252.191 413.787 257.488C426.825 262.784 424.095 291.803 441.612 288.774C459.129 285.746 459.351 261.39 440.367 245.594C421.384 229.799 433.56 190.405 459.318 172.058C485.077 153.711 533.123 153.796 544.334 135.352C555.545 116.908 556.563 99.8507 562.863 98.5166C569.163 97.1825 563.923 125.28 555.939 143.313C547.955 161.346 604.66 239.516 566.852 293.032C529.044 346.547 485.418 317.494 471.979 336.887C458.54 356.279 437.8 370.885 436.472 381.335C435.144 391.785 447.137 409.401 467.545 400.199C487.954 390.997 514.984 347.141 555.55 342.773C596.117 338.404 612.923 353.457 627.746 338.674C642.57 323.891 641.851 319.64 645.693 321.278C649.536 322.916 636.099 347.891 625.27 359.241C614.44 370.591 632.61 402.265 603.937 433.214C575.263 464.162 521.536 478.626 503.246 467.928C484.956 457.229 466.489 452.446 456.582 466.869C446.676 481.291 502.131 499.532 502.67 504.116C503.21 508.701 514.328 515.97 513.51 520.683C512.692 525.396 497.091 515.285 494.865 521.816C492.64 528.348 486.881 539.85 466.7 541.445C446.519 543.04 435.863 537.307 427.993 517.615C420.123 497.923 425.259 535.467 406.406 526.612C387.553 517.758 384.852 483.67 383.288 479.394C381.724 475.117 380.084 473.376 376.423 476.989C372.762 480.601 361.886 504.808 360.967 512.901C360.048 520.995 353.217 540.077 350.247 543.203C346.304 544.946 340.744 538.52 340.744 538.52Z" fill="#B9542F"/>
</svg>
