<svg width="422" height="509" viewBox="0 0 422 509" fill="none" xmlns="http://www.w3.org/2000/svg">
<path d="M341.237 383.987C338.026 383.403 334.911 382.38 331.979 380.947C329.135 379.132 319.76 372.122 315.275 369.91C310.791 367.698 295.844 361.028 294.748 359.355C293.652 357.682 291.568 354.081 291.894 353.315C292.22 352.55 308.789 351.167 312.173 349.594C315.557 348.021 318.903 345.828 317.405 343.683C315.907 341.537 321.479 341.197 319.759 337.45C318.039 333.702 308.026 334.561 306.244 335.912C306.244 335.912 308.017 330.336 310.417 328.947C312.818 327.558 323.489 327.28 328.763 324.1C334.038 320.921 338.841 301.862 327.378 289.139C315.915 276.416 302.597 282.199 298.981 294.225C296.525 301.814 292.251 308.688 286.531 314.247C286.531 314.247 278.829 306.141 284.311 298.226C289.794 290.311 298 278.129 298.685 275.105C299.371 272.081 296.611 275.729 296.167 272.524C295.723 269.32 295.459 264.987 293.342 262.879C291.225 260.771 279.068 281.52 271.044 276.293C263.021 271.065 267.265 263.225 272.497 257.314C277.729 251.403 286.851 242.023 279.717 226.924C272.583 211.824 238.955 206.541 233.428 193.332C227.9 180.123 225.595 174.92 222.499 175.108C219.404 175.297 226.864 189.631 223.172 200.42C219.48 211.208 200.782 238.818 214.526 262.463C228.27 286.107 236.556 277.276 244.848 288.95C251.898 298.586 250.162 304.782 245.734 311.638C241.305 318.495 222.941 314.891 217.777 301.536C212.614 288.18 221.593 280.549 215.083 267.524C208.572 254.499 197.278 252.702 190.932 248.491C184.586 244.279 177.47 237.629 175.759 238.106C174.048 238.584 175.706 247.43 170.662 256.437C165.619 265.444 180.475 280.818 169.052 287.107C157.629 293.395 146.346 279.543 149.987 261.798C153.628 244.053 128.607 227.061 105.446 228.349C82.2847 229.636 54.7971 251.692 39.9259 246.261C25.0546 240.829 16.6581 231.523 12.4377 233.644C8.21738 235.766 24.0895 249.463 36.9238 256.137C49.7581 262.812 53.0765 333.571 99.2501 346.912C145.424 360.254 157.11 323.626 173.692 328.581C190.274 333.535 208.847 332.403 214.394 337.782C219.941 343.16 221.14 358.746 205.232 362.822C189.325 366.899 153.751 354.154 128.509 370.233C103.267 386.311 100.533 402.634 85.2695 400.954C70.0056 399.275 68.47 396.51 67.0189 399.208C65.5678 401.906 84.7061 410.061 96.1091 411.603C107.512 413.144 111.611 439.614 142.214 444.211C172.818 448.808 210.224 432.485 215.802 417.978C221.38 403.47 229.77 392.271 242.051 395.997C254.333 399.722 230.918 435.574 232.708 438.447C234.499 441.321 231.459 450.578 234.086 452.903C236.714 455.229 241.02 442.29 245.287 445.013C249.554 447.735 258.122 451.687 270.414 443.357C282.707 435.027 286.186 426.861 281.675 411.975C277.164 397.088 291.418 420.95 298.164 407.242C304.909 393.533 290.843 372.766 289.78 369.6C288.717 366.434 288.859 364.685 292.611 365.078C296.363 365.47 313.682 374.357 317.916 378.573C322.15 382.789 334.804 390.592 337.937 391.023C340.995 390.215 341.237 383.987 341.237 383.987Z" fill="#B9542F"/>
<path d="M287.864 373.421C286.759 370.601 286.047 367.641 285.747 364.626C285.791 361.494 286.746 350.669 286.304 346.048C285.861 341.426 283.832 326.367 284.617 324.685C285.401 323.002 287.225 319.6 287.987 319.484C288.75 319.368 297.918 331.78 300.808 333.685C303.698 335.59 307.057 337.163 308.019 334.933C308.98 332.703 311.964 336.938 314.08 333.751C316.196 330.564 310.637 323.074 308.703 322.326C308.703 322.326 313.963 321.005 316.229 322.224C318.494 323.442 323.916 331.735 328.994 334.349C334.072 336.964 351.439 331.459 355.88 316.197C360.322 300.935 349.27 293.238 338.026 296.249C330.845 298.012 323.343 297.99 316.172 296.185C316.172 296.185 318.807 286.147 327.72 286.615C336.632 287.084 350.237 287.621 352.955 286.687C355.674 285.753 351.452 285.352 353.762 283.438C356.071 281.524 359.359 279.201 359.989 276.501C360.618 273.8 338.333 274.322 338.543 265.434C338.752 256.546 347.002 256.074 354.213 257.322C361.424 258.57 373.265 261.198 381.691 248.196C390.117 235.194 377.886 206.056 385.605 195.245C393.323 184.434 396.301 180.075 394.644 177.722C392.986 175.369 385.323 188.255 375.018 190.603C364.712 192.951 333.83 191.654 321.89 214.046C309.951 236.439 320.953 238.674 315.793 250.919C311.633 261.189 305.903 262.842 298.338 262.689C290.773 262.536 284.661 246.274 292.672 235.679C300.684 225.084 311.078 228.453 318.172 216.956C325.266 205.459 321.176 195.661 321.402 188.594C321.628 181.527 323.401 172.661 322.191 171.543C320.981 170.424 314.815 176.05 305.255 176.461C295.696 176.872 290.818 196.108 280.292 190.154C269.765 184.2 275.184 168.529 290.949 162.747C306.713 156.964 307.91 128.911 295.603 111.246C283.296 93.5809 252.506 82.6321 249.538 68.2361C246.57 53.84 249.813 42.6675 246.083 40.3692C242.353 38.0709 239.293 57.2904 240.288 70.6839C241.284 84.0774 187.119 121.223 199.113 164.203C211.106 207.182 245.68 198.541 249.858 214.055C254.037 229.57 263.984 243.686 262.448 250.692C260.913 257.698 249.21 266.249 238.241 255.674C227.272 245.099 219.975 210.783 194.993 198.691C170.011 186.599 155.81 192.404 149.693 179.529C143.575 166.653 145.006 164.091 142.171 164.262C139.336 164.432 142.239 183.527 146.583 193.286C150.927 203.045 132.058 219.197 143.354 245.612C154.65 272.026 185.756 293.607 199.912 290.934C214.069 288.261 226.988 289.423 230.039 300.942C233.089 312.46 193.41 311.458 192.018 314.274C190.625 317.091 181.845 319.207 181.293 322.417C180.741 325.626 193.04 322.715 192.974 327.413C192.909 332.112 193.97 340.807 206.53 346.452C219.09 352.096 227.224 350.86 236.761 340.033C246.297 329.207 234.435 352.108 248.531 350.747C262.627 349.386 272.14 328.144 274.118 325.759C276.096 323.375 277.544 322.634 279.064 325.789C280.583 328.944 282.021 346.959 280.762 352.36C279.503 357.761 279.52 371.564 280.708 374.249C282.836 376.269 287.864 373.421 287.864 373.421Z" fill="#C18972"/>
<path d="M290.025 267.075C287.731 266.812 285.484 266.235 283.347 265.36C281.254 264.211 274.309 259.698 271.039 258.345C267.77 256.992 256.907 252.979 256.055 251.849C255.203 250.719 253.564 248.273 253.759 247.717C253.953 247.162 265.587 245.414 267.903 244.146C270.219 242.877 272.479 241.174 271.322 239.728C270.164 238.283 274.082 237.784 272.694 235.218C271.305 232.652 264.275 233.725 263.08 234.762C263.08 234.762 264.072 230.742 265.702 229.65C267.333 228.557 274.854 227.864 278.43 225.374C282.005 222.883 284.51 209.204 275.824 200.754C267.138 192.305 258.004 197.008 256.011 205.668C254.63 211.14 251.932 216.192 248.153 220.383C248.153 220.383 242.337 215.019 245.84 209.175C249.343 203.332 254.569 194.349 254.912 192.182C255.255 190.014 253.476 192.718 253.014 190.477C252.551 188.235 252.163 185.188 250.57 183.798C248.977 182.409 241.36 197.624 235.452 194.307C229.543 190.99 232.175 185.257 235.594 180.84C239.013 176.423 245.016 169.376 239.276 159.047C233.536 148.718 209.548 146.554 205.03 137.485C200.513 128.417 198.643 124.85 196.466 125.128C194.289 125.405 200.224 135.178 198.119 142.967C196.015 150.756 184.099 171.12 194.904 187.174C205.709 203.228 211.147 196.607 217.545 204.463C222.971 210.939 222.035 215.394 219.227 220.441C216.419 225.488 203.286 223.799 199.018 214.61C194.751 205.421 200.736 199.615 195.533 190.722C190.329 181.829 182.272 181.086 177.595 178.408C172.918 175.73 167.584 171.366 166.399 171.783C165.213 172.199 166.795 178.368 163.654 184.962C160.512 191.556 171.717 201.719 163.945 206.691C156.172 211.663 147.561 202.408 149.305 189.71C151.05 177.012 132.593 166.18 116.3 168.167C100.008 170.155 81.6275 187.007 70.8749 183.865C60.1223 180.722 53.7607 174.543 50.8798 176.237C47.9988 177.931 59.8429 186.863 69.2152 190.978C78.5875 195.092 84.2249 244.896 117.446 252.166C150.668 259.436 157.214 233.031 169.152 235.757C181.09 238.483 194.15 236.819 198.317 240.359C202.484 243.898 204.056 254.846 193.015 258.465C181.973 262.083 156.264 254.741 139.19 267.269C122.117 279.796 120.947 291.448 110.092 290.973C99.2368 290.498 98.0239 288.617 97.125 290.59C96.2261 292.562 110.118 297.428 118.241 297.986C126.364 298.544 130.49 317.042 152.311 318.862C174.132 320.683 199.783 307.417 203.045 296.914C206.308 286.412 211.71 278.114 220.555 280.173C229.4 282.231 214.537 308.634 215.935 310.579C217.333 312.525 215.618 319.202 217.581 320.722C219.544 322.241 221.983 312.906 225.122 314.629C228.261 316.353 234.494 318.744 242.786 312.29C251.077 305.837 253.153 299.909 249.275 289.609C245.396 279.308 256.572 295.492 260.696 285.499C264.82 275.507 253.922 261.499 253.024 259.313C252.126 257.127 252.145 255.886 254.813 255.989C257.48 256.091 270.122 261.559 273.307 264.338C276.493 267.118 285.791 272.038 288.023 272.196C290.144 271.484 290.025 267.075 290.025 267.075Z" fill="#C8BDB4"/>
</svg>
